ISO-10303-21;
HEADER;
FILE_DESCRIPTION (( 'STEP AP203' ),
    '1' );
FILE_NAME ('03_kolco_nizhnee.step',
    '2026-10-01T20:15:56',
    ( '' ),
    ( '' ),
    'SwSTEP 2.0',
    'SolidWorks 2026',
    '' );
FILE_SCHEMA (( 'CONFIG_CONTROL_DESIGN' ));
ENDSEC;

DATA;
#1 = CARTESIAN_POINT ( 'NONE',  ( -3.104262268358678689, -23.59784899012950632, -0.000000000000000000 ) ) ;
#2 = ORIENTED_EDGE ( 'NONE', *, *, #536, .T. ) ;
#3 = DATE_AND_TIME ( #604, #96 ) ;
#4 = EDGE_CURVE ( 'NONE', #22, #512, #574, .T. ) ;
#5 = CARTESIAN_POINT ( 'NONE',  ( -14.49111584718265178, -18.88118663090756399, 0.000000000000000000 ) ) ;
#6 = CARTESIAN_POINT ( 'NONE',  ( 0.000000000000000000, 0.000000000000000000, -1.200000000000000030E-05 ) ) ;
#7 = CARTESIAN_POINT ( 'NONE',  ( 40.00000000000000000, 4.898587196589413026E-15, 5.000000000000000000 ) ) ;
#8 = COORDINATED_UNIVERSAL_TIME_OFFSET ( 3, 0, .AHEAD. ) ;
#9 = CARTESIAN_POINT ( 'NONE',  ( -1.649999999999999911, 36.00000000000000000, -6.000000000000000152E-06 ) ) ;
#10 = DIRECTION ( 'NONE',  ( -0.000000000000000000, -0.000000000000000000, 1.000000000000000000 ) ) ;
#11 = CARTESIAN_POINT ( 'NONE',  ( -1.649999999999999911, -36.00000000000000000, -6.000000000000000152E-06 ) ) ;
#12 = CARTESIAN_POINT ( 'NONE',  ( 22.53881141314511893, -7.648326697676676389, -0.000000000000000000 ) ) ;
#13 = LINE ( 'NONE', #578, #470 ) ;
#14 = EDGE_LOOP ( 'NONE', ( #167, #386 ) ) ;
#15 = ORIENTED_EDGE ( 'NONE', *, *, #540, .T. ) ;
#16 = EDGE_CURVE ( 'NONE', #51, #657, #599, .T. ) ;
#17 = CIRCLE ( 'NONE', #205, 1.649999999999998579 ) ;
#18 = LOCAL_TIME ( 23, 15, 56.00000000000000000, #555 ) ;
#19 = CARTESIAN_POINT ( 'NONE',  ( -34.35000000000000142, -0.2189853885549702672, -0.000000000000000000 ) ) ;
#20 = CARTESIAN_POINT ( 'NONE',  ( 0.000000000000000000, 0.000000000000000000, 0.000000000000000000 ) ) ;
#21 = ORIENTED_EDGE ( 'NONE', *, *, #460, .T. ) ;
#22 = VERTEX_POINT ( 'NONE', #7 ) ;
#23 = CYLINDRICAL_SURFACE ( 'NONE', #50, 40.00000000000000000 ) ;
#24 = CARTESIAN_POINT ( 'NONE',  ( 14.49111584716389700, 18.88118663091835359, 0.000000000000000000 ) ) ;
#25 = ORIENTED_EDGE ( 'NONE', *, *, #124, .T. ) ;
#26 = CARTESIAN_POINT ( 'NONE',  ( 1.649999999999999911, 36.00000000000000000, 5.000000000000000000 ) ) ;
#27 = FACE_BOUND ( 'NONE', #566, .T. ) ;
#28 = CARTESIAN_POINT ( 'NONE',  ( 17.89620989935844619, 15.69131346717458264, 0.000000000000000000 ) ) ;
#29 = CARTESIAN_POINT ( 'NONE',  ( -34.55913312094313028, 0.8332790561520945216, -0.000000000000000000 ) ) ;
#30 = CC_DESIGN_PERSON_AND_ORGANIZATION_ASSIGNMENT ( #57, #601, ( #72 ) ) ;
#31 = CARTESIAN_POINT ( 'NONE',  ( -14.49115414179794925, 18.88124394287561003, -0.000000000000000000 ) ) ;
#32 = AXIS2_PLACEMENT_3D ( 'NONE', #97, #481, #701 ) ;
#33 = CARTESIAN_POINT ( 'NONE',  ( -37.44073844509416205, 0.8332258570625928895, 0.000000000000000000 ) ) ;
#34 = PLANE ( 'NONE',  #216 ) ;
#35 = CARTESIAN_POINT ( 'NONE',  ( 34.39206442176950418, -0.4295762706524822172, -0.000000000000000000 ) ) ;
#36 = DESIGN_CONTEXT ( 'detailed design', #169, 'design' ) ;
#37 = CARTESIAN_POINT ( 'NONE',  ( 36.00000000000000000, 0.000000000000000000, 5.000000000000000000 ) ) ;
#38 = DIRECTION ( 'NONE',  ( -1.000000000000000000, 0.000000000000000000, 0.000000000000000000 ) ) ;
#39 = AXIS2_PLACEMENT_3D ( 'NONE', #292, #179, #669 ) ;
#40 = CARTESIAN_POINT ( 'NONE',  ( -34.35000000000000142, 0.000000000000000000, 5.000000000000000000 ) ) ;
#41 = ORIENTED_EDGE ( 'NONE', *, *, #222, .T. ) ;
#42 = CARTESIAN_POINT ( 'NONE',  ( 0.000000000000000000, 0.000000000000000000, 5.000000000000000000 ) ) ;
#43 = LINE ( 'NONE', #600, #581 ) ;
#44 = ORIENTED_EDGE ( 'NONE', *, *, #497, .T. ) ;
#45 = DIRECTION ( 'NONE',  ( -0.000000000000000000, -0.000000000000000000, -1.000000000000000000 ) ) ;
#46 = ADVANCED_FACE ( 'NONE', ( #181 ), #231, .F. ) ;
#47 = LINE ( 'NONE', #488, #251 ) ;
#48 = DATE_AND_TIME ( #612, #108 ) ;
#49 = CARTESIAN_POINT ( 'NONE',  ( 0.8332790561549312525, 34.55913312094575218, -0.000000000000000000 ) ) ;
#50 = AXIS2_PLACEMENT_3D ( 'NONE', #244, #45, #38 ) ;
#51 = VERTEX_POINT ( 'NONE', #185 ) ;
#52 = CARTESIAN_POINT ( 'NONE',  ( 21.34546638114099437, -10.52913633966511497, 0.000000000000000000 ) ) ;
#53 = ORIENTED_EDGE ( 'NONE', *, *, #160, .F. ) ;
#54 = ADVANCED_FACE ( 'NONE', ( #664 ), #301, .F. ) ;
#55 = CARTESIAN_POINT ( 'NONE',  ( 10.52916271745721843, -21.34553006277995379, -0.000000000000000000 ) ) ;
#56 = VERTEX_POINT ( 'NONE', #128 ) ;
#57 = PERSON_AND_ORGANIZATION ( #595, #260 ) ;
#58 = CARTESIAN_POINT ( 'NONE',  ( -37.64999999999999858, 2.020667218593130783E-16, -6.000000000000000152E-06 ) ) ;
#59 = CARTESIAN_POINT ( 'NONE',  ( -1.321245347706894613, -34.98769467069175931, -0.000000000000000000 ) ) ;
#60 = CARTESIAN_POINT ( 'NONE',  ( 1.649999999999999911, -36.00000000000000000, -6.000000000000000152E-06 ) ) ;
#61 = AXIS2_PLACEMENT_3D ( 'NONE', #652, #483, #640 ) ;
#62 = APPROVAL_DATE_TIME ( #3, #384 ) ;
#63 = CIRCLE ( 'NONE', #472, 40.00000000000000000 ) ;
#64 = CARTESIAN_POINT ( 'NONE',  ( 22.98941734929453062, -6.162701348689244796, 0.000000000000000000 ) ) ;
#65 = CYLINDRICAL_SURFACE ( 'NONE', #214, 23.75000000000000000 ) ;
#66 = VERTEX_POINT ( 'NONE', #337 ) ;
#67 = CARTESIAN_POINT ( 'NONE',  ( -1.650069507960235660, -36.21845358199006171, 0.000000000000000000 ) ) ;
#68 = CYLINDRICAL_SURFACE ( 'NONE', #432, 40.00000000000000000 ) ;
#69 = CARTESIAN_POINT ( 'NONE',  ( 1.440866879057139727, -35.16672094384767178, -0.000000000000000000 ) ) ;
#70 = VERTEX_POINT ( 'NONE', #26 ) ;
#71 = CARTESIAN_POINT ( 'NONE',  ( -15.69131346715379394, 17.89620989938953954, 0.000000000000000000 ) ) ;
#72 = PRODUCT_DEFINITION ( 'UNKNOWN', '', #561, #36 ) ;
#73 = CARTESIAN_POINT ( 'NONE',  ( -36.00000000000000000, 0.000000000000000000, -1.200000000000000030E-05 ) ) ;
#74 = VECTOR ( 'NONE', #450, 1000.000000000000000 ) ;
#75 = FACE_BOUND ( 'NONE', #713, .T. ) ;
#76 = DIRECTION ( 'NONE',  ( 0.000000000000000000, 0.000000000000000000, 1.000000000000000000 ) ) ;
#77 = CARTESIAN_POINT ( 'NONE',  ( 36.00000000000000000, 0.000000000000000000, 5.000000000000000000 ) ) ;
#78 = ORIENTED_EDGE ( 'NONE', *, *, #589, .T. ) ;
#79 = CARTESIAN_POINT ( 'NONE',  ( 37.32114704860744325, 1.012207030208633896, 0.000000000000000000 ) ) ;
#80 = EDGE_CURVE ( 'NONE', #398, #321, #552, .T. ) ;
#81 = DIRECTION ( 'NONE',  ( 0.000000000000000000, 0.000000000000000000, 1.000000000000000000 ) ) ;
#82 = CARTESIAN_POINT ( 'NONE',  ( 10.52913633965822093, 21.34546638114083805, 0.000000000000000000 ) ) ;
#83 = FACE_OUTER_BOUND ( 'NONE', #180, .T. ) ;
#84 = EDGE_CURVE ( 'NONE', #273, #517, #392, .T. ) ;
#85 = CARTESIAN_POINT ( 'NONE',  ( -21.34546638115453021, 10.52913633962304196, 0.000000000000000000 ) ) ;
#86 = CARTESIAN_POINT ( 'NONE',  ( 34.98779296979414255, 1.321147048610745056, 0.000000000000000000 ) ) ;
#87 = CC_DESIGN_APPROVAL ( #375, ( #72 ) ) ;
#88 = CARTESIAN_POINT ( 'NONE',  ( 0.000000000000000000, 36.00000000000000000, 5.000000000000000000 ) ) ;
#89 = CARTESIAN_POINT ( 'NONE',  ( -35.57037053025595696, 1.608064012193705539, -0.000000000000000000 ) ) ;
#90 = ADVANCED_FACE ( 'NONE', ( #83 ), #200, .F. ) ;
#91 = CARTESIAN_POINT ( 'NONE',  ( -36.83327905615239217, 1.440866879057106420, -0.000000000000000000 ) ) ;
#92 = CARTESIAN_POINT ( 'NONE',  ( 37.64999999999999858, 0.000000000000000000, -1.200000000000000030E-05 ) ) ;
#93 = CARTESIAN_POINT ( 'NONE',  ( 0.4295762706498658101, 34.39206442176701017, 0.000000000000000000 ) ) ;
#94 = EDGE_LOOP ( 'NONE', ( #230, #360, #15, #411 ) ) ;
#95 = FACE_BOUND ( 'NONE', #544, .T. ) ;
#96 = LOCAL_TIME ( 23, 15, 56.00000000000000000, #672 ) ;
#97 = CARTESIAN_POINT ( 'NONE',  ( 36.00000000000000000, 0.000000000000000000, -1.200000000000000030E-05 ) ) ;
#98 = ORIENTED_EDGE ( 'NONE', *, *, #328, .T. ) ;
#99 = DIRECTION ( 'NONE',  ( -0.000000000000000000, -0.000000000000000000, 1.000000000000000000 ) ) ;
#100 = EDGE_CURVE ( 'NONE', #482, #570, #148, .T. ) ;
#101 = DIRECTION ( 'NONE',  ( 0.000000000000000000, 0.000000000000000000, 1.000000000000000000 ) ) ;
#102 = ORIENTED_EDGE ( 'NONE', *, *, #617, .F. ) ;
#103 = PERSON_AND_ORGANIZATION_ROLE ( 'classification_officer' ) ;
#104 = DIRECTION ( 'NONE',  ( -0.000000000000000000, -0.000000000000000000, 1.000000000000000000 ) ) ;
#105 = ORIENTED_EDGE ( 'NONE', *, *, #550, .F. ) ;
#106 = PERSON_AND_ORGANIZATION ( #595, #260 ) ;
#107 = CARTESIAN_POINT ( 'NONE',  ( 1.440668714406038386, 35.16660594955382635, 0.000000000000000000 ) ) ;
#108 = LOCAL_TIME ( 23, 15, 56.00000000000000000, #547 ) ;
#109 = COORDINATED_UNIVERSAL_TIME_OFFSET ( 3, 0, .AHEAD. ) ;
#110 = CARTESIAN_POINT ( 'NONE',  ( 20.61361995346894460, -11.89847022123489140, -0.000000000000000000 ) ) ;
#111 = APPROVAL ( #172, 'UNSPECIFIED' ) ;
#112 = CARTESIAN_POINT ( 'NONE',  ( 0.2184535819950373936, -37.65006950795942231, -0.000000000000000000 ) ) ;
#113 = DATE_AND_TIME ( #217, #656 ) ;
#114 = CARTESIAN_POINT ( 'NONE',  ( -6.162528027407434550, -22.98945182902393469, 0.000000000000000000 ) ) ;
#115 = CARTESIAN_POINT ( 'NONE',  ( -0.2184535819950147173, -34.34993049204057058, -0.000000000000000000 ) ) ;
#116 = ORIENTED_EDGE ( 'NONE', *, *, #328, .F. ) ;
#117 = CARTESIAN_POINT ( 'NONE',  ( -0.8332258570657966601, -37.44073844509272675, 0.000000000000000000 ) ) ;
#118 = APPROVAL_DATE_TIME ( #440, #375 ) ;
#119 = CARTESIAN_POINT ( 'NONE',  ( -35.16672094384807679, -1.440866879057298267, -0.000000000000000000 ) ) ;
#120 = CARTESIAN_POINT ( 'NONE',  ( 1.649999999999999911, 36.00000000000000000, -1.200000000000000030E-05 ) ) ;
#121 = VERTEX_POINT ( 'NONE', #202 ) ;
#122 = AXIS2_PLACEMENT_3D ( 'NONE', #515, #241, #507 ) ;
#124 = EDGE_CURVE ( 'NONE', #517, #273, #619, .T. ) ;
#123 = CIRCLE ( 'NONE', #159, 1.649999999999999911 ) ;
#125 = CARTESIAN_POINT ( 'NONE',  ( 11.89843192661760618, -20.61356264150567341, 0.000000000000000000 ) ) ;
#126 = CARTESIAN_POINT ( 'NONE',  ( 0.2184535819950147451, -34.35006950795942515, 0.000000000000000000 ) ) ;
#127 = EDGE_LOOP ( 'NONE', ( #486, #175, #152, #622 ) ) ;
#128 = CARTESIAN_POINT ( 'NONE',  ( -37.64999999999999858, 2.020667218593130783E-16, 5.000000000000000000 ) ) ;
#129 = CC_DESIGN_PERSON_AND_ORGANIZATION_ASSIGNMENT ( #387, #383, ( #162 ) ) ;
#130 = CARTESIAN_POINT ( 'NONE',  ( -11.89847022124845388, -20.61361995346332421, -0.000000000000000000 ) ) ;
#131 = VERTEX_POINT ( 'NONE', #655 ) ;
#132 = CARTESIAN_POINT ( 'NONE',  ( 0.4295762706498658101, -37.60793557823298272, 0.000000000000000000 ) ) ;
#133 =( NAMED_UNIT ( * ) SI_UNIT ( $, .STERADIAN. ) SOLID_ANGLE_UNIT ( ) );
#134 = CARTESIAN_POINT ( 'NONE',  ( 1.559097219077010932, 23.74996553574428049, 0.000000000000000000 ) ) ;
#135 = EDGE_LOOP ( 'NONE', ( #670, #435, #428, #463 ) ) ;
#136 = ADVANCED_FACE ( 'NONE', ( #151 ), #215, .F. ) ;
#137 = CARTESIAN_POINT ( 'NONE',  ( 34.55913312094324397, -0.8332790561523126804, -0.000000000000000000 ) ) ;
#138 = CARTESIAN_POINT ( 'NONE',  ( 0.000000000000000000, 0.000000000000000000, 0.000000000000000000 ) ) ;
#139 = CARTESIAN_POINT ( 'NONE',  ( -11.89843192663314220, 20.61356264149528528, 0.000000000000000000 ) ) ;
#140 = CARTESIAN_POINT ( 'NONE',  ( 36.42962946974403593, 1.608064012193705539, -0.000000000000000000 ) ) ;
#141 = CARTESIAN_POINT ( 'NONE',  ( -6.162541474718570278, 22.98951943308014023, -0.000000000000000000 ) ) ;
#142 = CARTESIAN_POINT ( 'NONE',  ( 35.16672094384760072, 1.440866879057106420, -0.000000000000000000 ) ) ;
#143 = CARTESIAN_POINT ( 'NONE',  ( -3.104248821047518536, 23.59778138607330078, 0.000000000000000000 ) ) ;
#144 = CARTESIAN_POINT ( 'NONE',  ( 34.35006950796087466, 0.2184535819881676943, -0.000000000000000000 ) ) ;
#145 = EDGE_CURVE ( 'NONE', #710, #192, #261, .T. ) ;
#146 = CC_DESIGN_SECURITY_CLASSIFICATION ( #424, ( #561 ) ) ;
#147 = FACE_BOUND ( 'NONE', #399, .T. ) ;
#148 = CIRCLE ( 'NONE', #262, 1.649999999999998579 ) ;
#149 = DIRECTION ( 'NONE',  ( 1.000000000000000000, 0.000000000000000000, 0.000000000000000000 ) ) ;
#150 = FACE_OUTER_BOUND ( 'NONE', #285, .T. ) ;
#151 = FACE_OUTER_BOUND ( 'NONE', #127, .T. ) ;
#152 = ORIENTED_EDGE ( 'NONE', *, *, #493, .T. ) ;
#153 = CARTESIAN_POINT ( 'NONE',  ( 0.000000000000000000, 36.00000000000000000, 5.000000000000000000 ) ) ;
#154 = DIRECTION ( 'NONE',  ( 0.000000000000000000, 0.000000000000000000, 1.000000000000000000 ) ) ;
#155 = ORIENTED_EDGE ( 'NONE', *, *, #124, .F. ) ;
#156 = CARTESIAN_POINT ( 'NONE',  ( -1.649999999999999911, 36.00000000000000000, -1.200000000000000030E-05 ) ) ;
#157 = CARTESIAN_POINT ( 'NONE',  ( -0.4296294697390015682, 34.39193598780548200, -0.000000000000000000 ) ) ;
#158 = B_SPLINE_CURVE_WITH_KNOTS ( 'NONE', 3,
 ( #433, #329, #545, #436, #385, #334, #606, #258, #438, #568, #442, #173, #715, #626, #278, #235, #452, #9 ),
 .UNSPECIFIED., .F., .F.,
 ( 4, 2, 2, 2, 2, 2, 2, 2, 4 ),
 ( 0.000000000000000000, 0.06250000000000000000, 0.1250000000000000000, 0.1875000000000000000, 0.2500000000000000000, 0.3125000000000000000, 0.3750000000000000000, 0.4375000000000000000, 0.5000000000000000000 ),
 .UNSPECIFIED. ) ;
#159 = AXIS2_PLACEMENT_3D ( 'NONE', #88, #297, #684 ) ;
#160 = EDGE_CURVE ( 'NONE', #398, #164, #43, .T. ) ;
#161 = CALENDAR_DATE ( 2026, 1, 10 ) ;
#162 = PRODUCT ( '03_kolco_nizhnee', '03_kolco_nizhnee', '', ( #343 ) ) ;
#163 = DIRECTION ( 'NONE',  ( -0.000000000000000000, -0.000000000000000000, 1.000000000000000000 ) ) ;
#164 = VERTEX_POINT ( 'NONE', #40 ) ;
#165 = PERSON_AND_ORGANIZATION_ROLE ( 'design_supplier' ) ;
#166 = DIRECTION ( 'NONE',  ( 1.000000000000000000, 0.000000000000000000, 0.000000000000000000 ) ) ;
#167 = ORIENTED_EDGE ( 'NONE', *, *, #344, .F. ) ;
#168 = VECTOR ( 'NONE', #191, 1000.000000000000000 ) ;
#169 = APPLICATION_CONTEXT ( 'configuration controlled 3d designs of mechanical parts and assemblies' ) ;
#170 = DIRECTION ( 'NONE',  ( -0.000000000000000000, -0.000000000000000000, -1.000000000000000000 ) ) ;
#171 = ORIENTED_EDGE ( 'NONE', *, *, #239, .F. ) ;
#172 = APPROVAL_STATUS ( 'not_yet_approved' ) ;
#173 = CARTESIAN_POINT ( 'NONE',  ( -0.8332790561545292407, 37.44086687905443256, -0.000000000000000000 ) ) ;
#174 = FACE_OUTER_BOUND ( 'NONE', #554, .T. ) ;
#175 = ORIENTED_EDGE ( 'NONE', *, *, #371, .T. ) ;
#176 = ORIENTED_EDGE ( 'NONE', *, *, #540, .F. ) ;
#177 = SHAPE_DEFINITION_REPRESENTATION ( #700, #464 ) ;
#178 = CARTESIAN_POINT ( 'NONE',  ( -36.21845358198872589, -1.649930492039762608, 0.000000000000000000 ) ) ;
#179 = DIRECTION ( 'NONE',  ( -0.000000000000000000, -0.000000000000000000, 1.000000000000000000 ) ) ;
#180 = EDGE_LOOP ( 'NONE', ( #213, #508, #44, #335 ) ) ;
#181 = FACE_OUTER_BOUND ( 'NONE', #135, .T. ) ;
#182 = CARTESIAN_POINT ( 'NONE',  ( -34.98779296979373754, -1.321147048610075592, 0.000000000000000000 ) ) ;
#183 = DIRECTION ( 'NONE',  ( 1.000000000000000000, 0.000000000000000000, 0.000000000000000000 ) ) ;
#184 = EDGE_LOOP ( 'NONE', ( #25, #352 ) ) ;
#185 = CARTESIAN_POINT ( 'NONE',  ( -1.649999999999999911, -36.00000000000000000, -6.000000000000000152E-06 ) ) ;
#186 = VECTOR ( 'NONE', #407, 1000.000000000000000 ) ;
#187 = CARTESIAN_POINT ( 'NONE',  ( -23.59778138606739617, -3.104248821069532038, -0.000000000000000000 ) ) ;
#188 = CYLINDRICAL_SURFACE ( 'NONE', #39, 1.649999999999998579 ) ;
#189 = ORIENTED_EDGE ( 'NONE', *, *, #694, .F. ) ;
#190 = CARTESIAN_POINT ( 'NONE',  ( -17.89625863920721471, 15.69136220697146733, -0.000000000000000000 ) ) ;
#191 = DIRECTION ( 'NONE',  ( -0.000000000000000000, -0.000000000000000000, 1.000000000000000000 ) ) ;
#192 = VERTEX_POINT ( 'NONE', #268 ) ;
#193 = CARTESIAN_POINT ( 'NONE',  ( -36.21845358198871878, 1.650069507960233661, -0.000000000000000000 ) ) ;
#194 = ADVANCED_FACE ( 'NONE', ( #491 ), #549, .F. ) ;
#195 = CARTESIAN_POINT ( 'NONE',  ( -36.00000000000000000, 0.000000000000000000, 5.000000000000000000 ) ) ;
#196 = CARTESIAN_POINT ( 'NONE',  ( -35.78154641801127411, 1.649930492039762830, 0.000000000000000000 ) ) ;
#197 = CIRCLE ( 'NONE', #576, 1.649999999999999911 ) ;
#198 = B_SPLINE_CURVE_WITH_KNOTS ( 'NONE', 3,
 ( #58, #336, #553, #224, #283, #501, #446, #673, #178, #396, #620, #119, #182, #506, #577, #644, #19, #201 ),
 .UNSPECIFIED., .F., .F.,
 ( 4, 2, 2, 2, 2, 2, 2, 2, 4 ),
 ( 0.5000000000000000000, 0.5625000000000000000, 0.6250000000000000000, 0.6875000000000000000, 0.7500000000000000000, 0.8125000000000000000, 0.8750000000000000000, 0.9375000000000000000, 1.000000000000000000 ),
 .UNSPECIFIED. ) ;
#199 = FACE_BOUND ( 'NONE', #565, .T. ) ;
#200 = CYLINDRICAL_SURFACE ( 'NONE', #649, 1.649999999999999911 ) ;
#201 = CARTESIAN_POINT ( 'NONE',  ( -34.35000000000000142, 0.000000000000000000, -6.000000000000000152E-06 ) ) ;
#202 = CARTESIAN_POINT ( 'NONE',  ( 1.649999999999999911, -36.00000000000000000, 5.000000000000000000 ) ) ;
#203 = DIRECTION ( 'NONE',  ( 1.000000000000000000, 0.000000000000000000, -0.000000000000000000 ) ) ;
#204 = CARTESIAN_POINT ( 'NONE',  ( -37.64999999999999858, 2.020667218593130783E-16, -6.000000000000000152E-06 ) ) ;
#205 = AXIS2_PLACEMENT_3D ( 'NONE', #77, #351, #394 ) ;
#206 = AXIS2_PLACEMENT_3D ( 'NONE', #153, #466, #264 ) ;
#207 = CARTESIAN_POINT ( 'NONE',  ( 1.649999999999999911, -36.00000000000000000, -6.000000000000000152E-06 ) ) ;
#208 = EDGE_CURVE ( 'NONE', #66, #513, #327, .T. ) ;
#209 = DIRECTION ( 'NONE',  ( 1.000000000000000000, 0.000000000000000000, 0.000000000000000000 ) ) ;
#210 = ORIENTED_EDGE ( 'NONE', *, *, #694, .T. ) ;
#211 = CARTESIAN_POINT ( 'NONE',  ( -1.649999999999999911, 36.00000000000000000, -6.000000000000000152E-06 ) ) ;
#212 = DIRECTION ( 'NONE',  ( -0.000000000000000000, -0.000000000000000000, 1.000000000000000000 ) ) ;
#213 = ORIENTED_EDGE ( 'NONE', *, *, #272, .F. ) ;
#214 = AXIS2_PLACEMENT_3D ( 'NONE', #6, #359, #298 ) ;
#215 = CYLINDRICAL_SURFACE ( 'NONE', #32, 1.649999999999998579 ) ;
#216 = AXIS2_PLACEMENT_3D ( 'NONE', #473, #526, #203 ) ;
#217 = CALENDAR_DATE ( 2026, 1, 10 ) ;
#218 = DIRECTION ( 'NONE',  ( -0.000000000000000000, -0.000000000000000000, 1.000000000000000000 ) ) ;
#219 = APPROVAL_ROLE ( '' ) ;
#220 = CARTESIAN_POINT ( 'NONE',  ( -22.98951943308605195, -6.162541474696564769, -0.000000000000000000 ) ) ;
#221 = ORIENTED_EDGE ( 'NONE', *, *, #100, .F. ) ;
#222 = EDGE_CURVE ( 'NONE', #22, #348, #332, .T. ) ;
#223 = VECTOR ( 'NONE', #10, 1000.000000000000000 ) ;
#224 = CARTESIAN_POINT ( 'NONE',  ( -37.44086687905672051, -0.8332790561523126804, -0.000000000000000000 ) ) ;
#225 = DIRECTION ( 'NONE',  ( 1.000000000000000000, 0.000000000000000000, 0.000000000000000000 ) ) ;
#226 = ORIENTED_EDGE ( 'NONE', *, *, #536, .F. ) ;
#227 = CARTESIAN_POINT ( 'NONE',  ( -1.440738445093539655, -35.16677414293935300, 0.000000000000000000 ) ) ;
#228 = ADVANCED_FACE ( 'NONE', ( #658 ), #603, .F. ) ;
#229 = CARTESIAN_POINT ( 'NONE',  ( -10.52913633966512741, -21.34546638114099437, 0.000000000000000000 ) ) ;
#230 = ORIENTED_EDGE ( 'NONE', *, *, #4, .F. ) ;
#231 = CYLINDRICAL_SURFACE ( 'NONE', #444, 1.649999999999998579 ) ;
#232 = CARTESIAN_POINT ( 'NONE',  ( -23.75003446425570530, -1.559097219069282225, 0.000000000000000000 ) ) ;
#233 = LINE ( 'NONE', #572, #415 ) ;
#234 = DIRECTION ( 'NONE',  ( -0.000000000000000000, -0.000000000000000000, 1.000000000000000000 ) ) ;
#235 = CARTESIAN_POINT ( 'NONE',  ( -1.608064012193706427, 36.42962946974414962, -0.000000000000000000 ) ) ;
#236 = CARTESIAN_POINT ( 'NONE',  ( 1.607935578230106133, -35.57042372934751739, -0.000000000000000000 ) ) ;
#237 = AXIS2_PLACEMENT_3D ( 'NONE', #410, #631, #183 ) ;
#238 = ORIENTED_EDGE ( 'NONE', *, *, #318, .F. ) ;
#239 = EDGE_CURVE ( 'NONE', #164, #56, #388, .T. ) ;
#240 = DIRECTION ( 'NONE',  ( 1.000000000000000000, 0.000000000000000000, 0.000000000000000000 ) ) ;
#241 = DIRECTION ( 'NONE',  ( 0.000000000000000000, 0.000000000000000000, 1.000000000000000000 ) ) ;
#242 = ORIENTED_EDGE ( 'NONE', *, *, #467, .F. ) ;
#243 = CC_DESIGN_PERSON_AND_ORGANIZATION_ASSIGNMENT ( #106, #660, ( #561 ) ) ;
#244 = CARTESIAN_POINT ( 'NONE',  ( 0.000000000000000000, 0.000000000000000000, 5.000000000000000000 ) ) ;
#245 = FACE_BOUND ( 'NONE', #579, .T. ) ;
#246 = ORIENTED_EDGE ( 'NONE', *, *, #605, .F. ) ;
#247 = CARTESIAN_POINT ( 'NONE',  ( 35.57037053025617013, -1.608064012193704650, -0.000000000000000000 ) ) ;
#248 = CARTESIAN_POINT ( 'NONE',  ( -1.559097219077010710, 23.75003446425571596, -0.000000000000000000 ) ) ;
#249 = CARTESIAN_POINT ( 'NONE',  ( -37.64993049203913955, 0.2184535819881676943, -0.000000000000000000 ) ) ;
#250 = APPROVAL_PERSON_ORGANIZATION ( #381, #384, #219 ) ;
#251 = VECTOR ( 'NONE', #104, 1000.000000000000000 ) ;
#252 = MANIFOLD_SOLID_BREP ( 'Otverstiya', #711 ) ;
#253 = CARTESIAN_POINT ( 'NONE',  ( -1.649999999999999911, 36.00000000000000000, 5.000000000000000000 ) ) ;
#254 = CARTESIAN_POINT ( 'NONE',  ( -37.32124534770974833, 1.012305329304859614, -0.000000000000000000 ) ) ;
#255 = FACE_OUTER_BOUND ( 'NONE', #14, .T. ) ;
#256 = CARTESIAN_POINT ( 'NONE',  ( -37.01220703020585745, 1.321147048610745056, 0.000000000000000000 ) ) ;
#257 = EDGE_CURVE ( 'NONE', #522, #121, #313, .T. ) ;
#258 = CARTESIAN_POINT ( 'NONE',  ( 0.4296294697387975647, 37.60806401219452511, -0.000000000000000000 ) ) ;
#259 = CARTESIAN_POINT ( 'NONE',  ( 0.000000000000000000, -36.00000000000000000, 5.000000000000000000 ) ) ;
#260 = ORGANIZATION ( 'UNSPECIFIED', 'UNSPECIFIED', '' ) ;
#261 = B_SPLINE_CURVE_WITH_KNOTS ( 'NONE', 3,
 ( #271, #324, #425, #382, #376, #591, #661, #157, #653, #704, #93, #49, #651, #320, #107, #380, #537, #485 ),
 .UNSPECIFIED., .F., .F.,
 ( 4, 2, 2, 2, 2, 2, 2, 2, 4 ),
 ( 0.5000000000000000000, 0.5625000000000000000, 0.6250000000000000000, 0.6875000000000000000, 0.7500000000000000000, 0.8125000000000000000, 0.8750000000000000000, 0.9375000000000000000, 1.000000000000000000 ),
 .UNSPECIFIED. ) ;
#262 = AXIS2_PLACEMENT_3D ( 'NONE', #37, #368, #583 ) ;
#263 = CARTESIAN_POINT ( 'NONE',  ( 36.00000000000000000, 0.000000000000000000, -1.200000000000000030E-05 ) ) ;
#264 = DIRECTION ( 'NONE',  ( 1.000000000000000000, 0.000000000000000000, 0.000000000000000000 ) ) ;
#265 = CARTESIAN_POINT ( 'NONE',  ( 0.000000000000000000, -36.00000000000000000, -1.200000000000000030E-05 ) ) ;
#266 = ORIENTED_EDGE ( 'NONE', *, *, #145, .T. ) ;
#267 = FACE_OUTER_BOUND ( 'NONE', #678, .T. ) ;
#268 = CARTESIAN_POINT ( 'NONE',  ( 1.649999999999999911, 36.00000000000000000, -6.000000000000000152E-06 ) ) ;
#269 = ORIENTED_EDGE ( 'NONE', *, *, #497, .F. ) ;
#270 = APPROVAL_PERSON_ORGANIZATION ( #560, #375, #338 ) ;
#271 = CARTESIAN_POINT ( 'NONE',  ( -1.649999999999999911, 36.00000000000000000, -6.000000000000000152E-06 ) ) ;
#272 = EDGE_CURVE ( 'NONE', #51, #522, #47, .T. ) ;
#273 = VERTEX_POINT ( 'NONE', #708 ) ;
#274 = APPLICATION_PROTOCOL_DEFINITION ( 'international standard', 'config_control_design', 1994, #169 ) ;
#275 = CARTESIAN_POINT ( 'NONE',  ( -7.648326697676665731, -22.53881141314511183, -0.000000000000000000 ) ) ;
#276 = ORIENTED_EDGE ( 'NONE', *, *, #567, .T. ) ;
#277 = CARTESIAN_POINT ( 'NONE',  ( -1.608064012193706427, -35.57037053025585038, -0.000000000000000000 ) ) ;
#278 = CARTESIAN_POINT ( 'NONE',  ( -1.440738445093539655, 36.83322585706063279, 0.000000000000000000 ) ) ;
#279 = ORIENTED_EDGE ( 'NONE', *, *, #100, .T. ) ;
#280 = CARTESIAN_POINT ( 'NONE',  ( 0.8332790561549312525, -37.44086687905425492, -0.000000000000000000 ) ) ;
#281 = PERSON_AND_ORGANIZATION ( #595, #260 ) ;
#282 = CIRCLE ( 'NONE', #587, 40.00000000000000000 ) ;
#283 = CARTESIAN_POINT ( 'NONE',  ( -37.32114704860774168, -1.012207030208415404, 0.000000000000000000 ) ) ;
#284 = LINE ( 'NONE', #569, #223 ) ;
#285 = EDGE_LOOP ( 'NONE', ( #623, #671, #659, #226 ) ) ;
#286 = ORIENTED_EDGE ( 'NONE', *, *, #371, .F. ) ;
#287 = PERSON_AND_ORGANIZATION ( #595, #260 ) ;
#288 = EDGE_CURVE ( 'NONE', #192, #710, #158, .T. ) ;
#289 = CARTESIAN_POINT ( 'NONE',  ( -1.649930492039763941, -35.78154641800993829, -0.000000000000000000 ) ) ;
#290 = B_SPLINE_CURVE_WITH_KNOTS ( 'NONE', 3,
 ( #294, #232, #187, #220, #449, #510, #345, #563, #405, #676, #5, #130, #229, #275, #114, #1, #663, #354, #393, #668, #339, #55, #125, #389, #401, #498, #610, #110, #52, #12, #64, #291, #350, #556 ),
 .UNSPECIFIED., .F., .F.,
 ( 4, 2, 2, 2, 2, 2, 2, 2, 2, 2, 2, 2, 2, 2, 2, 2, 4 ),
 ( 0.5000000000000000000, 0.5312500000000000000, 0.5625000000000000000, 0.5937500000000000000, 0.6250000000000000000, 0.6562500000000000000, 0.6875000000000000000, 0.7187500000000000000, 0.7500000000000000000, 0.7812500000000000000, 0.8125000000000000000, 0.8437500000000000000, 0.8750000000000000000, 0.9062500000000000000, 0.9375000000000000000, 0.9687500000000000000, 1.000000000000000000 ),
 .UNSPECIFIED. ) ;
#291 = CARTESIAN_POINT ( 'NONE',  ( 23.59788346985890684, -3.104088947076870220, -0.000000000000000000 ) ) ;
#292 = CARTESIAN_POINT ( 'NONE',  ( -36.00000000000000000, 0.000000000000000000, -1.200000000000000030E-05 ) ) ;
#293 = CARTESIAN_POINT ( 'NONE',  ( 1.440668714406038386, -36.83339405044616655, 0.000000000000000000 ) ) ;
#294 = CARTESIAN_POINT ( 'NONE',  ( -23.75000000000000000, 2.908536147974963319E-15, -6.000000000000000152E-06 ) ) ;
#295 = CARTESIAN_POINT ( 'NONE',  ( 0.4296294697387975647, -34.39193598780548200, -0.000000000000000000 ) ) ;
#296 = EDGE_LOOP ( 'NONE', ( #654, #403, #276, #176 ) ) ;
#297 = DIRECTION ( 'NONE',  ( 0.000000000000000000, 0.000000000000000000, 1.000000000000000000 ) ) ;
#298 = DIRECTION ( 'NONE',  ( 1.000000000000000000, 0.000000000000000000, 0.000000000000000000 ) ) ;
#299 = ORIENTED_EDGE ( 'NONE', *, *, #272, .T. ) ;
#300 = AXIS2_PLACEMENT_3D ( 'NONE', #263, #212, #541 ) ;
#301 = CYLINDRICAL_SURFACE ( 'NONE', #455, 1.649999999999999911 ) ;
#302 = ADVANCED_FACE ( 'NONE', ( #681 ), #68, .T. ) ;
#303 = CIRCLE ( 'NONE', #363, 1.649999999999998579 ) ;
#304 = CARTESIAN_POINT ( 'NONE',  ( 34.35000000000000142, 2.020667218593130783E-16, -1.200000000000000030E-05 ) ) ;
#305 = DIRECTION ( 'NONE',  ( -0.000000000000000000, -0.000000000000000000, -1.000000000000000000 ) ) ;
#306 = ORIENTED_EDGE ( 'NONE', *, *, #643, .F. ) ;
#307 = CARTESIAN_POINT ( 'NONE',  ( 37.64999999999999858, 0.000000000000000000, -6.000000000000000152E-06 ) ) ;
#308 = DIRECTION ( 'NONE',  ( 1.000000000000000000, 0.000000000000000000, 0.000000000000000000 ) ) ;
#309 = LINE ( 'NONE', #304, #531 ) ;
#310 = CARTESIAN_POINT ( 'NONE',  ( -34.35000000000000142, 0.000000000000000000, -6.000000000000000152E-06 ) ) ;
#311 = CARTESIAN_POINT ( 'NONE',  ( 22.98951943308408374, 6.162541474703894906, -0.000000000000000000 ) ) ;
#312 = CARTESIAN_POINT ( 'NONE',  ( 34.67875465229025878, 1.012305329304859614, -0.000000000000000000 ) ) ;
#313 = CIRCLE ( 'NONE', #693, 1.649999999999999911 ) ;
#314 = CARTESIAN_POINT ( 'NONE',  ( -34.35000000000000142, 0.000000000000000000, -6.000000000000000152E-06 ) ) ;
#315 = CARTESIAN_POINT ( 'NONE',  ( -37.60806401219307560, 0.4296294697422025632, -0.000000000000000000 ) ) ;
#316 = UNCERTAINTY_MEASURE_WITH_UNIT (LENGTH_MEASURE( 1.000000000000000082E-05 ), #413, 'distance_accuracy_value', 'NONE');
#317 = CARTESIAN_POINT ( 'NONE',  ( 35.78154641801126701, -1.649930492039762608, 0.000000000000000000 ) ) ;
#318 = EDGE_CURVE ( 'NONE', #66, #131, #290, .T. ) ;
#319 = DIRECTION ( 'NONE',  ( 0.000000000000000000, 0.000000000000000000, 1.000000000000000000 ) ) ;
#320 = CARTESIAN_POINT ( 'NONE',  ( 1.321245347707285855, 34.98769467069237038, -0.000000000000000000 ) ) ;
#321 = VERTEX_POINT ( 'NONE', #613 ) ;
#322 = APPLICATION_PROTOCOL_DEFINITION ( 'international standard', 'config_control_design', 1994, #469 ) ;
#323 = CIRCLE ( 'NONE', #122, 40.00000000000000000 ) ;
#324 = CARTESIAN_POINT ( 'NONE',  ( -1.650069507960235660, 35.78154641800994540, 0.000000000000000000 ) ) ;
#325 = EDGE_LOOP ( 'NONE', ( #238, #593, #430, #105 ) ) ;
#326 = PLANE ( 'NONE',  #665 ) ;
#327 = LINE ( 'NONE', #377, #562 ) ;
#328 = EDGE_CURVE ( 'NONE', #321, #398, #198, .T. ) ;
#329 = CARTESIAN_POINT ( 'NONE',  ( 1.649999999999999911, 36.21862154018376145, 0.000000000000000000 ) ) ;
#330 = ORIENTED_EDGE ( 'NONE', *, *, #643, .T. ) ;
#331 = APPROVAL_STATUS ( 'not_yet_approved' ) ;
#332 = CIRCLE ( 'NONE', #518, 40.00000000000000000 ) ;
#333 = VECTOR ( 'NONE', #525, 1000.000000000000000 ) ;
#334 = CARTESIAN_POINT ( 'NONE',  ( 1.012305329305001944, 37.32124534770964175, -0.000000000000000000 ) ) ;
#335 = ORIENTED_EDGE ( 'NONE', *, *, #617, .T. ) ;
#336 = CARTESIAN_POINT ( 'NONE',  ( -37.65006950796087182, -0.2184535819881672780, 0.000000000000000000 ) ) ;
#337 = CARTESIAN_POINT ( 'NONE',  ( -23.75000000000000000, 2.908536147974963319E-15, -6.000000000000000152E-06 ) ) ;
#338 = APPROVAL_ROLE ( '' ) ;
#339 = CARTESIAN_POINT ( 'NONE',  ( 7.648300319884559606, -22.53874773150615951, 0.000000000000000000 ) ) ;
#340 = CARTESIAN_POINT ( 'NONE',  ( -0.8332790561545292407, -34.55913312094558876, -0.000000000000000000 ) ) ;
#341 = EDGE_LOOP ( 'NONE', ( #573, #538, #615, #330 ) ) ;
#342 = CARTESIAN_POINT ( 'NONE',  ( 1.608133742881207695, -36.42946127635863007, -0.000000000000000000 ) ) ;
#343 = MECHANICAL_CONTEXT ( 'NONE', #469, 'mechanical' ) ;
#344 = EDGE_CURVE ( 'NONE', #516, #512, #63, .T. ) ;
#345 = CARTESIAN_POINT ( 'NONE',  ( -20.61356264147975992, -11.89843192664867111, 0.000000000000000000 ) ) ;
#346 = CARTESIAN_POINT ( 'NONE',  ( -23.75000000000000000, 2.908536147974963319E-15, 5.000000000000000000 ) ) ;
#347 = ORIENTED_EDGE ( 'NONE', *, *, #493, .F. ) ;
#348 = VERTEX_POINT ( 'NONE', #698 ) ;
#349 = DIRECTION ( 'NONE',  ( 1.000000000000000000, 0.000000000000000000, 0.000000000000000000 ) ) ;
#350 = CARTESIAN_POINT ( 'NONE',  ( 23.75000000000000355, -1.559623897782517199, -0.000000000000000000 ) ) ;
#351 = DIRECTION ( 'NONE',  ( 0.000000000000000000, 0.000000000000000000, 1.000000000000000000 ) ) ;
#352 = ORIENTED_EDGE ( 'NONE', *, *, #84, .T. ) ;
#353 = EDGE_CURVE ( 'NONE', #390, #70, #123, .T. ) ;
#354 = CARTESIAN_POINT ( 'NONE',  ( 1.559097219079729868, -23.75003446425571596, -0.000000000000000000 ) ) ;
#355 = CARTESIAN_POINT ( 'NONE',  ( -1.649999999999999911, -36.00000000000000000, 5.000000000000000000 ) ) ;
#356 = EDGE_LOOP ( 'NONE', ( #286, #155, #499, #279 ) ) ;
#357 = CARTESIAN_POINT ( 'NONE',  ( 1.321245347707285855, -37.01230532930762251, -0.000000000000000000 ) ) ;
#358 = CARTESIAN_POINT ( 'NONE',  ( -22.98945182902393469, 6.162528027381535267, 0.000000000000000000 ) ) ;
#359 = DIRECTION ( 'NONE',  ( -0.000000000000000000, -0.000000000000000000, 1.000000000000000000 ) ) ;
#360 = ORIENTED_EDGE ( 'NONE', *, *, #533, .F. ) ;
#361 = AXIS2_PLACEMENT_3D ( 'NONE', #138, #364, #308 ) ;
#362 = CARTESIAN_POINT ( 'NONE',  ( 37.64999999999999858, 0.2186215401846464679, 0.000000000000000000 ) ) ;
#363 = AXIS2_PLACEMENT_3D ( 'NONE', #195, #602, #349 ) ;
#364 = DIRECTION ( 'NONE',  ( 0.000000000000000000, 0.000000000000000000, 1.000000000000000000 ) ) ;
#365 = CARTESIAN_POINT ( 'NONE',  ( -7.648300319887312071, 22.53874773150431920, 0.000000000000000000 ) ) ;
#366 = DIRECTION ( 'NONE',  ( -0.000000000000000000, -0.000000000000000000, 1.000000000000000000 ) ) ;
#367 = CARTESIAN_POINT ( 'NONE',  ( -10.52916271745445087, 21.34553006278179765, -0.000000000000000000 ) ) ;
#368 = DIRECTION ( 'NONE',  ( 0.000000000000000000, 0.000000000000000000, 1.000000000000000000 ) ) ;
#369 = CARTESIAN_POINT ( 'NONE',  ( 0.000000000000000000, 0.000000000000000000, 0.000000000000000000 ) ) ;
#370 = CARTESIAN_POINT ( 'NONE',  ( 34.35000000000000142, 2.020667218593130783E-16, -6.000000000000000152E-06 ) ) ;
#371 = EDGE_CURVE ( 'NONE', #273, #570, #309, .T. ) ;
#372 = CARTESIAN_POINT ( 'NONE',  ( 37.60813374288120770, -0.4294612763557697499, -0.000000000000000000 ) ) ;
#373 = LINE ( 'NONE', #92, #333 ) ;
#374 = B_SPLINE_CURVE_WITH_KNOTS ( 'NONE', 3,
 ( #677, #682, #236, #69, #614, #402, #627, #295, #126, #115, #453, #340, #557, #59, #227, #277, #289, #479 ),
 .UNSPECIFIED., .F., .F.,
 ( 4, 2, 2, 2, 2, 2, 2, 2, 4 ),
 ( 0.000000000000000000, 0.06250000000000000000, 0.1250000000000000000, 0.1875000000000000000, 0.2500000000000000000, 0.3125000000000000000, 0.3750000000000000000, 0.4375000000000000000, 0.5000000000000000000 ),
 .UNSPECIFIED. ) ;
#375 = APPROVAL ( #618, 'UNSPECIFIED' ) ;
#376 = CARTESIAN_POINT ( 'NONE',  ( -1.321147048610307850, 34.98779296979382991, 0.000000000000000000 ) ) ;
#377 = CARTESIAN_POINT ( 'NONE',  ( -23.75000000000000000, 2.908536147974963319E-15, -1.200000000000000030E-05 ) ) ;
#378 = CYLINDRICAL_SURFACE ( 'NONE', #647, 1.649999999999999911 ) ;
#379 = AXIS2_PLACEMENT_3D ( 'NONE', #265, #218, #166 ) ;
#380 = CARTESIAN_POINT ( 'NONE',  ( 1.608133742881207695, 35.57053872364137703, -0.000000000000000000 ) ) ;
#381 = PERSON_AND_ORGANIZATION ( #595, #260 ) ;
#382 = CARTESIAN_POINT ( 'NONE',  ( -1.440866879056261762, 35.16672094384689728, -0.000000000000000000 ) ) ;
#383 = PERSON_AND_ORGANIZATION_ROLE ( 'design_owner' ) ;
#384 = APPROVAL ( #331, 'UNSPECIFIED' ) ;
#385 = CARTESIAN_POINT ( 'NONE',  ( 1.321147048610605390, 37.01220703020595693, 0.000000000000000000 ) ) ;
#386 = ORIENTED_EDGE ( 'NONE', *, *, #567, .F. ) ;
#387 = PERSON_AND_ORGANIZATION ( #595, #260 ) ;
#388 = CIRCLE ( 'NONE', #667, 1.649999999999998579 ) ;
#389 = CARTESIAN_POINT ( 'NONE',  ( 14.49115414181348171, -18.88124394286523966, -0.000000000000000000 ) ) ;
#390 = VERTEX_POINT ( 'NONE', #253 ) ;
#391 = CARTESIAN_POINT ( 'NONE',  ( -1.321147048610307850, -37.01220703020617009, 0.000000000000000000 ) ) ;
#392 = B_SPLINE_CURVE_WITH_KNOTS ( 'NONE', 3,
 ( #471, #690, #35, #137, #476, #416, #412, #247, #317, #699, #474, #697, #423, #695, #648, #372, #639, #307 ),
 .UNSPECIFIED., .F., .F.,
 ( 4, 2, 2, 2, 2, 2, 2, 2, 4 ),
 ( 0.5000000000000000000, 0.5625000000000000000, 0.6250000000000000000, 0.6875000000000000000, 0.7500000000000000000, 0.8125000000000000000, 0.8750000000000000000, 0.9375000000000000000, 1.000000000000000000 ),
 .UNSPECIFIED. ) ;
#393 = CARTESIAN_POINT ( 'NONE',  ( 3.104248821041755146, -23.59778138607498832, 0.000000000000000000 ) ) ;
#394 = DIRECTION ( 'NONE',  ( 1.000000000000000000, 0.000000000000000000, 0.000000000000000000 ) ) ;
#395 = EDGE_LOOP ( 'NONE', ( #716, #98 ) ) ;
#396 = CARTESIAN_POINT ( 'NONE',  ( -35.78154641801128122, -1.650069507960234549, -0.000000000000000000 ) ) ;
#397 = LINE ( 'NONE', #120, #168 ) ;
#398 = VERTEX_POINT ( 'NONE', #314 ) ;
#399 = EDGE_LOOP ( 'NONE', ( #607, #632 ) ) ;
#400 = CIRCLE ( 'NONE', #61, 23.75000000000000000 ) ;
#401 = CARTESIAN_POINT ( 'NONE',  ( 15.69131346712782005, -17.89620989942066132, 0.000000000000000000 ) ) ;
#402 = CARTESIAN_POINT ( 'NONE',  ( 1.012305329305001944, -34.67875465229035825, -0.000000000000000000 ) ) ;
#403 = ORIENTED_EDGE ( 'NONE', *, *, #4, .T. ) ;
#404 = DIRECTION ( 'NONE',  ( -0.000000000000000000, -0.000000000000000000, 1.000000000000000000 ) ) ;
#405 = CARTESIAN_POINT ( 'NONE',  ( -17.89620989939476203, -15.69131346714857145, 0.000000000000000000 ) ) ;
#406 = CARTESIAN_POINT ( 'NONE',  ( 40.00000000000000000, 4.898587196589413026E-15, 0.000000000000000000 ) ) ;
#407 = DIRECTION ( 'NONE',  ( -0.000000000000000000, -0.000000000000000000, -1.000000000000000000 ) ) ;
#408 = CC_DESIGN_PERSON_AND_ORGANIZATION_ASSIGNMENT ( #287, #165, ( #561 ) ) ;
#409 = CARTESIAN_POINT ( 'NONE',  ( -20.61361995345023601, 11.89847022127064413, -0.000000000000000000 ) ) ;
#410 = CARTESIAN_POINT ( 'NONE',  ( 0.000000000000000000, 0.000000000000000000, -1.200000000000000030E-05 ) ) ;
#411 = ORIENTED_EDGE ( 'NONE', *, *, #344, .T. ) ;
#412 = CARTESIAN_POINT ( 'NONE',  ( 35.16677414293901904, -1.440738445093538322, 0.000000000000000000 ) ) ;
#413 =( LENGTH_UNIT ( ) NAMED_UNIT ( * ) SI_UNIT ( .MILLI., .METRE. ) );
#414 = CARTESIAN_POINT ( 'NONE',  ( 0.000000000000000000, 0.000000000000000000, 5.000000000000000000 ) ) ;
#415 = VECTOR ( 'NONE', #447, 1000.000000000000000 ) ;
#416 = CARTESIAN_POINT ( 'NONE',  ( 34.98769467069215011, -1.321245347707189266, -0.000000000000000000 ) ) ;
#417 = CARTESIAN_POINT ( 'NONE',  ( 21.34553006278184739, 10.52916271745951171, -0.000000000000000000 ) ) ;
#418 = CARTESIAN_POINT ( 'NONE',  ( 36.21845358198872589, 1.649930492039762830, 0.000000000000000000 ) ) ;
#419 = B_SPLINE_CURVE_WITH_KNOTS ( 'NONE', 3,
 ( #696, #532, #638, #311, #584, #417, #646, #582, #28, #641, #24, #457, #82, #571, #422, #692, #134, #248, #143, #141, #365, #367, #139, #31, #71, #190, #468, #409, #85, #475, #358, #462, #528, #689 ),
 .UNSPECIFIED., .F., .F.,
 ( 4, 2, 2, 2, 2, 2, 2, 2, 2, 2, 2, 2, 2, 2, 2, 2, 4 ),
 ( 0.000000000000000000, 0.03125000000000000000, 0.06250000000000000000, 0.09375000000000000000, 0.1250000000000000000, 0.1562500000000000000, 0.1875000000000000000, 0.2187500000000000000, 0.2500000000000000000, 0.2812500000000000000, 0.3125000000000000000, 0.3437500000000000000, 0.3750000000000000000, 0.4062500000000000000, 0.4375000000000000000, 0.4687500000000000000, 0.5000000000000000000 ),
 .UNSPECIFIED. ) ;
#420 = DIRECTION ( 'NONE',  ( -0.000000000000000000, -0.000000000000000000, 1.000000000000000000 ) ) ;
#421 = CARTESIAN_POINT ( 'NONE',  ( 34.39193598780691730, 0.4296294697422025632, -0.000000000000000000 ) ) ;
#422 = CARTESIAN_POINT ( 'NONE',  ( 6.162528027415154597, 22.98945182902393825, 0.000000000000000000 ) ) ;
#423 = CARTESIAN_POINT ( 'NONE',  ( 37.01220703020626956, -1.321147048610075592, 0.000000000000000000 ) ) ;
#424 = SECURITY_CLASSIFICATION ( '', '', #666 ) ;
#425 = CARTESIAN_POINT ( 'NONE',  ( -1.607935578230984985, 35.57042372934829899, -0.000000000000000000 ) ) ;
#426 = CARTESIAN_POINT ( 'NONE',  ( 0.000000000000000000, 36.00000000000000000, -1.200000000000000030E-05 ) ) ;
#427 = DIRECTION ( 'NONE',  ( 1.000000000000000000, 0.000000000000000000, 0.000000000000000000 ) ) ;
#428 = ORIENTED_EDGE ( 'NONE', *, *, #160, .T. ) ;
#429 = DIRECTION ( 'NONE',  ( 0.000000000000000000, 0.000000000000000000, 1.000000000000000000 ) ) ;
#430 = ORIENTED_EDGE ( 'NONE', *, *, #456, .T. ) ;
#431 = DIRECTION ( 'NONE',  ( 1.000000000000000000, 0.000000000000000000, 0.000000000000000000 ) ) ;
#432 = AXIS2_PLACEMENT_3D ( 'NONE', #495, #170, #630 ) ;
#433 = CARTESIAN_POINT ( 'NONE',  ( 1.649999999999999911, 36.00000000000000000, -6.000000000000000152E-06 ) ) ;
#434 = ADVANCED_FACE ( 'NONE', ( #147, #199, #514, #634, #245, #255 ), #34, .F. ) ;
#435 = ORIENTED_EDGE ( 'NONE', *, *, #80, .F. ) ;
#436 = CARTESIAN_POINT ( 'NONE',  ( 1.440866879057139727, 36.83327905615230691, -0.000000000000000000 ) ) ;
#437 = APPROVAL_ROLE ( '' ) ;
#438 = CARTESIAN_POINT ( 'NONE',  ( 0.2184535819950147451, 37.64993049204057485, 0.000000000000000000 ) ) ;
#439 = ORIENTED_EDGE ( 'NONE', *, *, #467, .T. ) ;
#440 = DATE_AND_TIME ( #717, #18 ) ;
#441 = CC_DESIGN_APPROVAL ( #384, ( #561 ) ) ;
#442 = CARTESIAN_POINT ( 'NONE',  ( -0.4295762706502668227, 37.60793557823281219, 0.000000000000000000 ) ) ;
#443 = CARTESIAN_POINT ( 'NONE',  ( -37.64999999999999858, 2.020667218593130783E-16, -1.200000000000000030E-05 ) ) ;
#444 = AXIS2_PLACEMENT_3D ( 'NONE', #73, #234, #451 ) ;
#445 = CARTESIAN_POINT ( 'NONE',  ( -1.440866879056261762, -36.83327905615310272, -0.000000000000000000 ) ) ;
#446 = CARTESIAN_POINT ( 'NONE',  ( -36.83322585706097385, -1.440738445093538322, 0.000000000000000000 ) ) ;
#447 = DIRECTION ( 'NONE',  ( -0.000000000000000000, -0.000000000000000000, 1.000000000000000000 ) ) ;
#448 = CARTESIAN_POINT ( 'NONE',  ( 0.000000000000000000, 36.00000000000000000, -1.200000000000000030E-05 ) ) ;
#449 = CARTESIAN_POINT ( 'NONE',  ( -22.53874773148749711, -7.648300319920207535, 0.000000000000000000 ) ) ;
#450 = DIRECTION ( 'NONE',  ( -0.000000000000000000, -0.000000000000000000, 1.000000000000000000 ) ) ;
#451 = DIRECTION ( 'NONE',  ( 1.000000000000000000, 0.000000000000000000, 0.000000000000000000 ) ) ;
#452 = CARTESIAN_POINT ( 'NONE',  ( -1.649930492039763941, 36.21845358199005460, -0.000000000000000000 ) ) ;
#453 = CARTESIAN_POINT ( 'NONE',  ( -0.4295762706502668227, -34.39206442176718070, 0.000000000000000000 ) ) ;
#454 = ORIENTED_EDGE ( 'NONE', *, *, #288, .F. ) ;
#455 = AXIS2_PLACEMENT_3D ( 'NONE', #448, #404, #629 ) ;
#456 = EDGE_CURVE ( 'NONE', #513, #679, #480, .T. ) ;
#457 = CARTESIAN_POINT ( 'NONE',  ( 11.89847022126720866, 20.61361995345253462, -0.000000000000000000 ) ) ;
#458 = FACE_OUTER_BOUND ( 'NONE', #325, .T. ) ;
#459 = CARTESIAN_POINT ( 'NONE',  ( 35.57042372934759555, 1.607935578230136997, 0.000000000000000000 ) ) ;
#460 = EDGE_CURVE ( 'NONE', #131, #66, #419, .T. ) ;
#461 = DIRECTION ( 'NONE',  ( 1.000000000000000000, 0.000000000000000000, 0.000000000000000000 ) ) ;
#462 = CARTESIAN_POINT ( 'NONE',  ( -23.59784899012950987, 3.104262268384573531, -0.000000000000000000 ) ) ;
#463 = ORIENTED_EDGE ( 'NONE', *, *, #239, .T. ) ;
#464 = ADVANCED_BREP_SHAPE_REPRESENTATION ( '03_kolco_nizhnee', ( #252, #361 ), #478 ) ;
#465 = CARTESIAN_POINT ( 'NONE',  ( -34.67885295139255675, 1.012207030208633896, 0.000000000000000000 ) ) ;
#466 = DIRECTION ( 'NONE',  ( 0.000000000000000000, 0.000000000000000000, 1.000000000000000000 ) ) ;
#467 = EDGE_CURVE ( 'NONE', #56, #164, #303, .T. ) ;
#468 = CARTESIAN_POINT ( 'NONE',  ( -18.88118663092066640, 14.49111584716045620, 0.000000000000000000 ) ) ;
#469 = APPLICATION_CONTEXT ( 'configuration controlled 3d designs of mechanical parts and assemblies' ) ;
#470 = VECTOR ( 'NONE', #305, 1000.000000000000000 ) ;
#471 = CARTESIAN_POINT ( 'NONE',  ( 34.35000000000000142, 2.020667218593130783E-16, -6.000000000000000152E-06 ) ) ;
#472 = AXIS2_PLACEMENT_3D ( 'NONE', #369, #76, #586 ) ;
#473 = CARTESIAN_POINT ( 'NONE',  ( 0.000000000000000000, 0.000000000000000000, 0.000000000000000000 ) ) ;
#474 = CARTESIAN_POINT ( 'NONE',  ( 36.42957627065286630, -1.607935578229944706, 0.000000000000000000 ) ) ;
#475 = CARTESIAN_POINT ( 'NONE',  ( -22.53881141313160086, 7.648326697718727196, -0.000000000000000000 ) ) ;
#476 = CARTESIAN_POINT ( 'NONE',  ( 34.67885295139225832, -1.012207030208415404, 0.000000000000000000 ) ) ;
#477 = CARTESIAN_POINT ( 'NONE',  ( 0.000000000000000000, 0.000000000000000000, 5.000000000000000000 ) ) ;
#478 =( GEOMETRIC_REPRESENTATION_CONTEXT ( 3 ) GLOBAL_UNCERTAINTY_ASSIGNED_CONTEXT ( ( #316 ) ) GLOBAL_UNIT_ASSIGNED_CONTEXT ( ( #413, #519, #133 ) ) REPRESENTATION_CONTEXT ( 'NONE', 'WORKASPACE' ) );
#479 = CARTESIAN_POINT ( 'NONE',  ( -1.649999999999999911, -36.00000000000000000, -6.000000000000000152E-06 ) ) ;
#480 = CIRCLE ( 'NONE', #625, 23.75000000000000000 ) ;
#481 = DIRECTION ( 'NONE',  ( -0.000000000000000000, -0.000000000000000000, 1.000000000000000000 ) ) ;
#482 = VERTEX_POINT ( 'NONE', #509 ) ;
#483 = DIRECTION ( 'NONE',  ( 0.000000000000000000, 0.000000000000000000, 1.000000000000000000 ) ) ;
#484 = ADVANCED_FACE ( 'NONE', ( #458 ), #511, .F. ) ;
#485 = CARTESIAN_POINT ( 'NONE',  ( 1.649999999999999911, 36.00000000000000000, -6.000000000000000152E-06 ) ) ;
#486 = ORIENTED_EDGE ( 'NONE', *, *, #84, .F. ) ;
#487 = CC_DESIGN_DATE_AND_TIME_ASSIGNMENT ( #504, #714, ( #72 ) ) ;
#488 = CARTESIAN_POINT ( 'NONE',  ( -1.649999999999999911, -36.00000000000000000, -1.200000000000000030E-05 ) ) ;
#489 = ORIENTED_EDGE ( 'NONE', *, *, #533, .T. ) ;
#490 = DATE_TIME_ROLE ( 'classification_date' ) ;
#491 = FACE_OUTER_BOUND ( 'NONE', #356, .T. ) ;
#492 = EDGE_LOOP ( 'NONE', ( #171, #242 ) ) ;
#493 = EDGE_CURVE ( 'NONE', #570, #482, #17, .T. ) ;
#494 = APPROVAL_DATE_TIME ( #48, #111 ) ;
#495 = CARTESIAN_POINT ( 'NONE',  ( 0.000000000000000000, 0.000000000000000000, 5.000000000000000000 ) ) ;
#496 = ORIENTED_EDGE ( 'NONE', *, *, #16, .F. ) ;
#497 = EDGE_CURVE ( 'NONE', #657, #121, #233, .T. ) ;
#498 = CARTESIAN_POINT ( 'NONE',  ( 17.89625863923317439, -15.69136220694034378, -0.000000000000000000 ) ) ;
#499 = ORIENTED_EDGE ( 'NONE', *, *, #650, .T. ) ;
#500 = CARTESIAN_POINT ( 'NONE',  ( 1.012207030208319924, -37.32114704860796905, 0.000000000000000000 ) ) ;
#501 = CARTESIAN_POINT ( 'NONE',  ( -37.01230532930786410, -1.321245347707189266, -0.000000000000000000 ) ) ;
#502 = FACE_OUTER_BOUND ( 'NONE', #341, .T. ) ;
#503 = CARTESIAN_POINT ( 'NONE',  ( -0.2184535819950378377, -37.64993049204057485, 0.000000000000000000 ) ) ;
#504 = DATE_AND_TIME ( #161, #548 ) ;
#505 = ADVANCED_FACE ( 'NONE', ( #502 ), #65, .F. ) ;
#506 = CARTESIAN_POINT ( 'NONE',  ( -34.67875465229065668, -1.012305329305529744, -0.000000000000000000 ) ) ;
#507 = DIRECTION ( 'NONE',  ( 1.000000000000000000, 0.000000000000000000, 0.000000000000000000 ) ) ;
#508 = ORIENTED_EDGE ( 'NONE', *, *, #592, .F. ) ;
#509 = CARTESIAN_POINT ( 'NONE',  ( 37.64999999999999858, 0.000000000000000000, 5.000000000000000000 ) ) ;
#510 = CARTESIAN_POINT ( 'NONE',  ( -21.34553006279863752, -10.52916271742154741, -0.000000000000000000 ) ) ;
#511 = CYLINDRICAL_SURFACE ( 'NONE', #237, 23.75000000000000000 ) ;
#512 = VERTEX_POINT ( 'NONE', #406 ) ;
#513 = VERTEX_POINT ( 'NONE', #346 ) ;
#514 = FACE_BOUND ( 'NONE', #184, .T. ) ;
#515 = CARTESIAN_POINT ( 'NONE',  ( 0.000000000000000000, 0.000000000000000000, 5.000000000000000000 ) ) ;
#516 = VERTEX_POINT ( 'NONE', #685 ) ;
#517 = VERTEX_POINT ( 'NONE', #674 ) ;
#518 = AXIS2_PLACEMENT_3D ( 'NONE', #477, #154, #209 ) ;
#519 =( NAMED_UNIT ( * ) PLANE_ANGLE_UNIT ( ) SI_UNIT ( $, .RADIAN. ) );
#520 = DIRECTION ( 'NONE',  ( 0.000000000000000000, 0.000000000000000000, 1.000000000000000000 ) ) ;
#521 = DIRECTION ( 'NONE',  ( 0.000000000000000000, 0.000000000000000000, 1.000000000000000000 ) ) ;
#522 = VERTEX_POINT ( 'NONE', #355 ) ;
#523 = CARTESIAN_POINT ( 'NONE',  ( -36.42957627065240445, 1.607935578230136997, 0.000000000000000000 ) ) ;
#524 = ADVANCED_FACE ( 'NONE', ( #174 ), #188, .F. ) ;
#525 = DIRECTION ( 'NONE',  ( -0.000000000000000000, -0.000000000000000000, 1.000000000000000000 ) ) ;
#526 = DIRECTION ( 'NONE',  ( 0.000000000000000000, 0.000000000000000000, 1.000000000000000000 ) ) ;
#527 = CARTESIAN_POINT ( 'NONE',  ( 37.64999999999999858, 0.000000000000000000, -6.000000000000000152E-06 ) ) ;
#528 = CARTESIAN_POINT ( 'NONE',  ( -23.74996553574428759, 1.559097219069288220, -0.000000000000000000 ) ) ;
#529 = APPROVAL_PERSON_ORGANIZATION ( #608, #111, #437 ) ;
#530 = CARTESIAN_POINT ( 'NONE',  ( 34.55926155490583085, 0.8332258570625928895, 0.000000000000000000 ) ) ;
#531 = VECTOR ( 'NONE', #420, 1000.000000000000000 ) ;
#532 = CARTESIAN_POINT ( 'NONE',  ( 23.75000000000000355, 1.559270502604634068, 0.000000000000000000 ) ) ;
#533 = EDGE_CURVE ( 'NONE', #348, #22, #323, .T. ) ;
#534 = CARTESIAN_POINT ( 'NONE',  ( -34.98769467069184458, 1.321245347706970996, -0.000000000000000000 ) ) ;
#535 = CARTESIAN_POINT ( 'NONE',  ( 37.01230532930816253, 1.321245347706970996, -0.000000000000000000 ) ) ;
#536 = EDGE_CURVE ( 'NONE', #192, #70, #397, .T. ) ;
#537 = CARTESIAN_POINT ( 'NONE',  ( 1.650000000000000133, 35.78101461144216699, -0.000000000000000000 ) ) ;
#538 = ORIENTED_EDGE ( 'NONE', *, *, #460, .F. ) ;
#539 = LINE ( 'NONE', #156, #709 ) ;
#540 = EDGE_CURVE ( 'NONE', #348, #516, #13, .T. ) ;
#541 = DIRECTION ( 'NONE',  ( 1.000000000000000000, 0.000000000000000000, 0.000000000000000000 ) ) ;
#542 = CC_DESIGN_PERSON_AND_ORGANIZATION_ASSIGNMENT ( #281, #103, ( #424 ) ) ;
#543 = DIRECTION ( 'NONE',  ( 1.000000000000000000, 0.000000000000000000, 0.000000000000000000 ) ) ;
#544 = EDGE_LOOP ( 'NONE', ( #189, #558 ) ) ;
#545 = CARTESIAN_POINT ( 'NONE',  ( 1.607935578230106133, 36.42957627065248261, -0.000000000000000000 ) ) ;
#546 = EDGE_LOOP ( 'NONE', ( #496, #299, #551, #269 ) ) ;
#547 = COORDINATED_UNIVERSAL_TIME_OFFSET ( 3, 0, .AHEAD. ) ;
#548 = LOCAL_TIME ( 23, 15, 56.00000000000000000, #109 ) ;
#549 = CYLINDRICAL_SURFACE ( 'NONE', #300, 1.649999999999998579 ) ;
#550 = EDGE_CURVE ( 'NONE', #131, #679, #284, .T. ) ;
#551 = ORIENTED_EDGE ( 'NONE', *, *, #257, .T. ) ;
#552 = B_SPLINE_CURVE_WITH_KNOTS ( 'NONE', 3,
 ( #310, #686, #645, #29, #465, #534, #636, #89, #196, #193, #523, #91, #256, #254, #33, #315, #249, #204 ),
 .UNSPECIFIED., .F., .F.,
 ( 4, 2, 2, 2, 2, 2, 2, 2, 4 ),
 ( 0.000000000000000000, 0.06250000000000000000, 0.1250000000000000000, 0.1875000000000000000, 0.2500000000000000000, 0.3125000000000000000, 0.3750000000000000000, 0.4375000000000000000, 0.5000000000000000000 ),
 .UNSPECIFIED. ) ;
#553 = CARTESIAN_POINT ( 'NONE',  ( -37.60793557823051714, -0.4295762706524822172, -0.000000000000000000 ) ) ;
#554 = EDGE_LOOP ( 'NONE', ( #116, #78, #439, #53 ) ) ;
#555 = COORDINATED_UNIVERSAL_TIME_OFFSET ( 3, 0, .AHEAD. ) ;
#556 = CARTESIAN_POINT ( 'NONE',  ( 23.75000000000000000, 0.000000000000000000, -6.000000000000000152E-06 ) ) ;
#557 = CARTESIAN_POINT ( 'NONE',  ( -1.012207030208711611, -34.67885295139264912, 0.000000000000000000 ) ) ;
#558 = ORIENTED_EDGE ( 'NONE', *, *, #353, .F. ) ;
#559 = CARTESIAN_POINT ( 'NONE',  ( 1.650000000000000133, -36.21898538855783301, -0.000000000000000000 ) ) ;
#560 = PERSON_AND_ORGANIZATION ( #595, #260 ) ;
#561 = PRODUCT_DEFINITION_FORMATION_WITH_SPECIFIED_SOURCE ( 'ANY', '', #162, .NOT_KNOWN. ) ;
#562 = VECTOR ( 'NONE', #712, 1000.000000000000000 ) ;
#563 = CARTESIAN_POINT ( 'NONE',  ( -18.88124394289115671, -14.49115414178241679, -0.000000000000000000 ) ) ;
#564 = LINE ( 'NONE', #443, #74 ) ;
#565 = EDGE_LOOP ( 'NONE', ( #635, #266 ) ) ;
#566 = EDGE_LOOP ( 'NONE', ( #306, #706 ) ) ;
#567 = EDGE_CURVE ( 'NONE', #512, #516, #282, .T. ) ;
#568 = CARTESIAN_POINT ( 'NONE',  ( -0.2184535819950147173, 37.65006950795941520, -0.000000000000000000 ) ) ;
#569 = CARTESIAN_POINT ( 'NONE',  ( 23.75000000000000000, 0.000000000000000000, -1.200000000000000030E-05 ) ) ;
#570 = VERTEX_POINT ( 'NONE', #621 ) ;
#571 = CARTESIAN_POINT ( 'NONE',  ( 7.648326697683545561, 22.53881141314527881, -0.000000000000000000 ) ) ;
#572 = CARTESIAN_POINT ( 'NONE',  ( 1.649999999999999911, -36.00000000000000000, -1.200000000000000030E-05 ) ) ;
#573 = ORIENTED_EDGE ( 'NONE', *, *, #208, .F. ) ;
#574 = LINE ( 'NONE', #675, #186 ) ;
#575 = FACE_OUTER_BOUND ( 'NONE', #94, .T. ) ;
#576 = AXIS2_PLACEMENT_3D ( 'NONE', #259, #81, #461 ) ;
#577 = CARTESIAN_POINT ( 'NONE',  ( -34.55933128559397005, -0.8333940504490275902, 0.000000000000000000 ) ) ;
#578 = CARTESIAN_POINT ( 'NONE',  ( -40.00000000000000000, 0.000000000000000000, 5.000000000000000000 ) ) ;
#579 = EDGE_LOOP ( 'NONE', ( #21, #628 ) ) ;
#580 = CARTESIAN_POINT ( 'NONE',  ( 37.44086687905684840, 0.8332790561520945216, -0.000000000000000000 ) ) ;
#581 = VECTOR ( 'NONE', #163, 1000.000000000000000 ) ;
#582 = CARTESIAN_POINT ( 'NONE',  ( 18.88124394288606211, 14.49115414177719963, -0.000000000000000000 ) ) ;
#583 = DIRECTION ( 'NONE',  ( 1.000000000000000000, 0.000000000000000000, 0.000000000000000000 ) ) ;
#584 = CARTESIAN_POINT ( 'NONE',  ( 22.53874773150428013, 7.648300319882253895, 0.000000000000000000 ) ) ;
#585 = CARTESIAN_POINT ( 'NONE',  ( 36.83322585706074648, 1.440738445093538544, 0.000000000000000000 ) ) ;
#586 = DIRECTION ( 'NONE',  ( 1.000000000000000000, 0.000000000000000000, 0.000000000000000000 ) ) ;
#587 = AXIS2_PLACEMENT_3D ( 'NONE', #20, #521, #225 ) ;
#588 = CARTESIAN_POINT ( 'NONE',  ( 37.60793557823037503, 0.4295762706527004871, -0.000000000000000000 ) ) ;
#589 = EDGE_CURVE ( 'NONE', #321, #56, #564, .T. ) ;
#590 = CARTESIAN_POINT ( 'NONE',  ( 0.000000000000000000, -36.00000000000000000, -1.200000000000000030E-05 ) ) ;
#591 = CARTESIAN_POINT ( 'NONE',  ( -1.012305329305299928, 34.67875465229055720, -0.000000000000000000 ) ) ;
#592 = EDGE_CURVE ( 'NONE', #657, #51, #374, .T. ) ;
#593 = ORIENTED_EDGE ( 'NONE', *, *, #208, .T. ) ;
#594 = FACE_BOUND ( 'NONE', #492, .T. ) ;
#595 = PERSON ( 'UNSPECIFIED', 'UNSPECIFIED', 'UNSPECIFIED', ('UNSPECIFIED'), ('UNSPECIFIED'), ('UNSPECIFIED') ) ;
#596 = CARTESIAN_POINT ( 'NONE',  ( 0.000000000000000000, -36.00000000000000000, 5.000000000000000000 ) ) ;
#597 = ADVANCED_FACE ( 'NONE', ( #575 ), #23, .T. ) ;
#598 = EDGE_LOOP ( 'NONE', ( #102, #683 ) ) ;
#599 = B_SPLINE_CURVE_WITH_KNOTS ( 'NONE', 3,
 ( #11, #67, #616, #445, #391, #611, #117, #633, #503, #112, #132, #280, #500, #357, #293, #342, #559, #60 ),
 .UNSPECIFIED., .F., .F.,
 ( 4, 2, 2, 2, 2, 2, 2, 2, 4 ),
 ( 0.5000000000000000000, 0.5625000000000000000, 0.6250000000000000000, 0.6875000000000000000, 0.7500000000000000000, 0.8125000000000000000, 0.8750000000000000000, 0.9375000000000000000, 1.000000000000000000 ),
 .UNSPECIFIED. ) ;
#600 = CARTESIAN_POINT ( 'NONE',  ( -34.35000000000000142, 0.000000000000000000, -1.200000000000000030E-05 ) ) ;
#601 = PERSON_AND_ORGANIZATION_ROLE ( 'creator' ) ;
#602 = DIRECTION ( 'NONE',  ( 0.000000000000000000, 0.000000000000000000, 1.000000000000000000 ) ) ;
#603 = CYLINDRICAL_SURFACE ( 'NONE', #379, 1.649999999999999911 ) ;
#604 = CALENDAR_DATE ( 2026, 1, 10 ) ;
#605 = EDGE_CURVE ( 'NONE', #710, #390, #539, .T. ) ;
#606 = CARTESIAN_POINT ( 'NONE',  ( 0.8332258570659990538, 37.44073844509271964, 0.000000000000000000 ) ) ;
#607 = ORIENTED_EDGE ( 'NONE', *, *, #592, .T. ) ;
#608 = PERSON_AND_ORGANIZATION ( #595, #260 ) ;
#609 = ADVANCED_FACE ( 'NONE', ( #150 ), #378, .F. ) ;
#610 = CARTESIAN_POINT ( 'NONE',  ( 18.88118663090195071, -14.49111584719620538, 0.000000000000000000 ) ) ;
#611 = CARTESIAN_POINT ( 'NONE',  ( -1.012305329305299928, -37.32124534770942859, -0.000000000000000000 ) ) ;
#612 = CALENDAR_DATE ( 2026, 1, 10 ) ;
#613 = CARTESIAN_POINT ( 'NONE',  ( -37.64999999999999858, 2.020667218593130783E-16, -6.000000000000000152E-06 ) ) ;
#614 = CARTESIAN_POINT ( 'NONE',  ( 1.321147048610605390, -34.98779296979405018, 0.000000000000000000 ) ) ;
#615 = ORIENTED_EDGE ( 'NONE', *, *, #550, .T. ) ;
#616 = CARTESIAN_POINT ( 'NONE',  ( -1.607935578230984985, -36.42957627065170811, -0.000000000000000000 ) ) ;
#617 = EDGE_CURVE ( 'NONE', #121, #522, #197, .T. ) ;
#618 = APPROVAL_STATUS ( 'not_yet_approved' ) ;
#619 = B_SPLINE_CURVE_WITH_KNOTS ( 'NONE', 3,
 ( #527, #362, #588, #580, #79, #535, #585, #140, #418, #642, #459, #142, #86, #312, #530, #421, #144, #370 ),
 .UNSPECIFIED., .F., .F.,
 ( 4, 2, 2, 2, 2, 2, 2, 2, 4 ),
 ( 0.000000000000000000, 0.06250000000000000000, 0.1250000000000000000, 0.1875000000000000000, 0.2500000000000000000, 0.3125000000000000000, 0.3750000000000000000, 0.4375000000000000000, 0.5000000000000000000 ),
 .UNSPECIFIED. ) ;
#620 = CARTESIAN_POINT ( 'NONE',  ( -35.57042372934712660, -1.607935578229944706, 0.000000000000000000 ) ) ;
#621 = CARTESIAN_POINT ( 'NONE',  ( 34.35000000000000142, 2.020667218593130783E-16, 5.000000000000000000 ) ) ;
#622 = ORIENTED_EDGE ( 'NONE', *, *, #650, .F. ) ;
#623 = ORIENTED_EDGE ( 'NONE', *, *, #145, .F. ) ;
#624 = PRODUCT_RELATED_PRODUCT_CATEGORY ( 'detail', '', ( #162 ) ) ;
#625 = AXIS2_PLACEMENT_3D ( 'NONE', #414, #520, #240 ) ;
#626 = CARTESIAN_POINT ( 'NONE',  ( -1.321245347706894613, 37.01230532930824779, -0.000000000000000000 ) ) ;
#627 = CARTESIAN_POINT ( 'NONE',  ( 0.8332258570659990538, -34.55926155490728036, 0.000000000000000000 ) ) ;
#628 = ORIENTED_EDGE ( 'NONE', *, *, #318, .T. ) ;
#629 = DIRECTION ( 'NONE',  ( 1.000000000000000000, 0.000000000000000000, 0.000000000000000000 ) ) ;
#630 = DIRECTION ( 'NONE',  ( -1.000000000000000000, 0.000000000000000000, 0.000000000000000000 ) ) ;
#631 = DIRECTION ( 'NONE',  ( -0.000000000000000000, -0.000000000000000000, 1.000000000000000000 ) ) ;
#632 = ORIENTED_EDGE ( 'NONE', *, *, #16, .T. ) ;
#633 = CARTESIAN_POINT ( 'NONE',  ( -0.4296294697390015682, -37.60806401219452511, -0.000000000000000000 ) ) ;
#634 = FACE_BOUND ( 'NONE', #395, .T. ) ;
#635 = ORIENTED_EDGE ( 'NONE', *, *, #288, .T. ) ;
#636 = CARTESIAN_POINT ( 'NONE',  ( -35.16677414293923931, 1.440738445093538544, 0.000000000000000000 ) ) ;
#637 = CC_DESIGN_APPROVAL ( #111, ( #424 ) ) ;
#638 = CARTESIAN_POINT ( 'NONE',  ( 23.59778138606936793, 3.104248821062195685, -0.000000000000000000 ) ) ;
#639 = CARTESIAN_POINT ( 'NONE',  ( 37.64999999999999858, -0.2189853885549702672, -0.000000000000000000 ) ) ;
#640 = DIRECTION ( 'NONE',  ( 1.000000000000000000, 0.000000000000000000, 0.000000000000000000 ) ) ;
#641 = CARTESIAN_POINT ( 'NONE',  ( 15.69136220700256423, 17.89625863918641357, -0.000000000000000000 ) ) ;
#642 = CARTESIAN_POINT ( 'NONE',  ( 35.78154641801128122, 1.650069507960233661, -0.000000000000000000 ) ) ;
#643 = EDGE_CURVE ( 'NONE', #679, #513, #400, .T. ) ;
#644 = CARTESIAN_POINT ( 'NONE',  ( -34.39186625711879230, -0.4294612763557697499, -0.000000000000000000 ) ) ;
#645 = CARTESIAN_POINT ( 'NONE',  ( -34.39206442176961787, 0.4295762706527004871, -0.000000000000000000 ) ) ;
#646 = CARTESIAN_POINT ( 'NONE',  ( 20.61356264148483675, 11.89843192665389715, 0.000000000000000000 ) ) ;
#647 = AXIS2_PLACEMENT_3D ( 'NONE', #426, #702, #431 ) ;
#648 = CARTESIAN_POINT ( 'NONE',  ( 37.44066871440602995, -0.8333940504490275902, 0.000000000000000000 ) ) ;
#649 = AXIS2_PLACEMENT_3D ( 'NONE', #590, #366, #149 ) ;
#650 = EDGE_CURVE ( 'NONE', #517, #482, #373, .T. ) ;
#651 = CARTESIAN_POINT ( 'NONE',  ( 1.012207030208319924, 34.67885295139203095, 0.000000000000000000 ) ) ;
#652 = CARTESIAN_POINT ( 'NONE',  ( 0.000000000000000000, 0.000000000000000000, 5.000000000000000000 ) ) ;
#653 = CARTESIAN_POINT ( 'NONE',  ( -0.2184535819950378377, 34.35006950795942515, 0.000000000000000000 ) ) ;
#654 = ORIENTED_EDGE ( 'NONE', *, *, #222, .F. ) ;
#655 = CARTESIAN_POINT ( 'NONE',  ( 23.75000000000000000, 0.000000000000000000, -6.000000000000000152E-06 ) ) ;
#656 = LOCAL_TIME ( 23, 15, 56.00000000000000000, #8 ) ;
#657 = VERTEX_POINT ( 'NONE', #207 ) ;
#658 = FACE_OUTER_BOUND ( 'NONE', #546, .T. ) ;
#659 = ORIENTED_EDGE ( 'NONE', *, *, #353, .T. ) ;
#660 = PERSON_AND_ORGANIZATION_ROLE ( 'creator' ) ;
#661 = CARTESIAN_POINT ( 'NONE',  ( -0.8332258570657966601, 34.55926155490728746, 0.000000000000000000 ) ) ;
#662 = EDGE_LOOP ( 'NONE', ( #246, #454, #2, #210 ) ) ;
#663 = CARTESIAN_POINT ( 'NONE',  ( -1.559097219079737640, -23.74996553574428049, 0.000000000000000000 ) ) ;
#664 = FACE_OUTER_BOUND ( 'NONE', #662, .T. ) ;
#665 = AXIS2_PLACEMENT_3D ( 'NONE', #42, #319, #707 ) ;
#666 = SECURITY_CLASSIFICATION_LEVEL ( 'unclassified' ) ;
#667 = AXIS2_PLACEMENT_3D ( 'NONE', #705, #429, #427 ) ;
#668 = CARTESIAN_POINT ( 'NONE',  ( 6.162541474724339885, -22.98951943307845269, -0.000000000000000000 ) ) ;
#669 = DIRECTION ( 'NONE',  ( 1.000000000000000000, 0.000000000000000000, 0.000000000000000000 ) ) ;
#670 = ORIENTED_EDGE ( 'NONE', *, *, #589, .F. ) ;
#671 = ORIENTED_EDGE ( 'NONE', *, *, #605, .T. ) ;
#672 = COORDINATED_UNIVERSAL_TIME_OFFSET ( 3, 0, .AHEAD. ) ;
#673 = CARTESIAN_POINT ( 'NONE',  ( -36.42962946974381566, -1.608064012193704650, -0.000000000000000000 ) ) ;
#674 = CARTESIAN_POINT ( 'NONE',  ( 37.64999999999999858, 0.000000000000000000, -6.000000000000000152E-06 ) ) ;
#675 = CARTESIAN_POINT ( 'NONE',  ( 40.00000000000000000, 4.898587196589413026E-15, 5.000000000000000000 ) ) ;
#676 = CARTESIAN_POINT ( 'NONE',  ( -15.69136220696625372, -17.89625863921242654, -0.000000000000000000 ) ) ;
#677 = CARTESIAN_POINT ( 'NONE',  ( 1.649999999999999911, -36.00000000000000000, -6.000000000000000152E-06 ) ) ;
#678 = EDGE_LOOP ( 'NONE', ( #489, #41 ) ) ;
#679 = VERTEX_POINT ( 'NONE', #688 ) ;
#680 = CIRCLE ( 'NONE', #206, 1.649999999999999911 ) ;
#681 = FACE_OUTER_BOUND ( 'NONE', #296, .T. ) ;
#682 = CARTESIAN_POINT ( 'NONE',  ( 1.649999999999999911, -35.78137845981623144, 0.000000000000000000 ) ) ;
#683 = ORIENTED_EDGE ( 'NONE', *, *, #257, .F. ) ;
#684 = DIRECTION ( 'NONE',  ( 1.000000000000000000, 0.000000000000000000, 0.000000000000000000 ) ) ;
#685 = CARTESIAN_POINT ( 'NONE',  ( -40.00000000000000000, 0.000000000000000000, 0.000000000000000000 ) ) ;
#686 = CARTESIAN_POINT ( 'NONE',  ( -34.35000000000000853, 0.2186215401846464679, 0.000000000000000000 ) ) ;
#687 = CC_DESIGN_DATE_AND_TIME_ASSIGNMENT ( #113, #490, ( #424 ) ) ;
#688 = CARTESIAN_POINT ( 'NONE',  ( 23.75000000000000000, 0.000000000000000000, 5.000000000000000000 ) ) ;
#689 = CARTESIAN_POINT ( 'NONE',  ( -23.75000000000000000, 2.908536147974963319E-15, -6.000000000000000152E-06 ) ) ;
#690 = CARTESIAN_POINT ( 'NONE',  ( 34.34993049203913529, -0.2184535819881672780, 0.000000000000000000 ) ) ;
#691 = FACE_BOUND ( 'NONE', #598, .T. ) ;
#692 = CARTESIAN_POINT ( 'NONE',  ( 3.104262268350941767, 23.59784899012950632, -0.000000000000000000 ) ) ;
#694 = EDGE_CURVE ( 'NONE', #70, #390, #680, .T. ) ;
#693 = AXIS2_PLACEMENT_3D ( 'NONE', #596, #101, #543 ) ;
#695 = CARTESIAN_POINT ( 'NONE',  ( 37.32124534770933622, -1.012305329305529744, -0.000000000000000000 ) ) ;
#696 = CARTESIAN_POINT ( 'NONE',  ( 23.75000000000000000, 0.000000000000000000, -6.000000000000000152E-06 ) ) ;
#697 = CARTESIAN_POINT ( 'NONE',  ( 36.83327905615193032, -1.440866879057298267, -0.000000000000000000 ) ) ;
#698 = CARTESIAN_POINT ( 'NONE',  ( -40.00000000000000000, 0.000000000000000000, 5.000000000000000000 ) ) ;
#699 = CARTESIAN_POINT ( 'NONE',  ( 36.21845358198871878, -1.650069507960234549, -0.000000000000000000 ) ) ;
#700 = PRODUCT_DEFINITION_SHAPE ( 'NONE', 'NONE',  #72 ) ;
#701 = DIRECTION ( 'NONE',  ( 1.000000000000000000, 0.000000000000000000, 0.000000000000000000 ) ) ;
#702 = DIRECTION ( 'NONE',  ( -0.000000000000000000, -0.000000000000000000, 1.000000000000000000 ) ) ;
#703 = ADVANCED_FACE ( 'NONE', ( #691, #95, #75, #594, #27, #267 ), #326, .T. ) ;
#704 = CARTESIAN_POINT ( 'NONE',  ( 0.2184535819950373936, 34.34993049204057769, -0.000000000000000000 ) ) ;
#705 = CARTESIAN_POINT ( 'NONE',  ( -36.00000000000000000, 0.000000000000000000, 5.000000000000000000 ) ) ;
#706 = ORIENTED_EDGE ( 'NONE', *, *, #456, .F. ) ;
#707 = DIRECTION ( 'NONE',  ( 1.000000000000000000, 0.000000000000000000, -0.000000000000000000 ) ) ;
#708 = CARTESIAN_POINT ( 'NONE',  ( 34.35000000000000142, 2.020667218593130783E-16, -6.000000000000000152E-06 ) ) ;
#709 = VECTOR ( 'NONE', #99, 1000.000000000000000 ) ;
#710 = VERTEX_POINT ( 'NONE', #211 ) ;
#711 = CLOSED_SHELL ( 'NONE', ( #228, #609, #136, #524, #484, #302, #597, #703, #434, #505, #46, #194, #54, #90 ) ) ;
#712 = DIRECTION ( 'NONE',  ( -0.000000000000000000, -0.000000000000000000, 1.000000000000000000 ) ) ;
#713 = EDGE_LOOP ( 'NONE', ( #221, #347 ) ) ;
#714 = DATE_TIME_ROLE ( 'creation_date' ) ;
#715 = CARTESIAN_POINT ( 'NONE',  ( -1.012207030208711611, 37.32114704860735088, 0.000000000000000000 ) ) ;
#716 = ORIENTED_EDGE ( 'NONE', *, *, #80, .T. ) ;
#717 = CALENDAR_DATE ( 2026, 1, 10 ) ;
ENDSEC;
END-ISO-10303-21;
