ISO-10303-21;
HEADER;
FILE_DESCRIPTION (( 'STEP AP203' ),
    '1' );
FILE_NAME ('05_kolco_verhnee.step',
    '2026-10-01T20:16:36',
    ( '' ),
    ( '' ),
    'SwSTEP 2.0',
    'SolidWorks 2026',
    '' );
FILE_SCHEMA (( 'CONFIG_CONTROL_DESIGN' ));
ENDSEC;

DATA;
#1 = DIRECTION ( 'NONE',  ( -0.000000000000000000, -0.000000000000000000, 1.000000000000000000 ) ) ;
#2 = AXIS2_PLACEMENT_3D ( 'NONE', #30, #230, #429 ) ;
#3 = ADVANCED_FACE ( 'NONE', ( #318 ), #632, .F. ) ;
#4 = CARTESIAN_POINT ( 'NONE',  ( 20.61356264148483675, 11.89843192665389715, 0.000000000000000000 ) ) ;
#5 = ORIENTED_EDGE ( 'NONE', *, *, #341, .F. ) ;
#6 = DIRECTION ( 'NONE',  ( -0.000000000000000000, -0.000000000000000000, 1.000000000000000000 ) ) ;
#7 = CARTESIAN_POINT ( 'NONE',  ( -0.3448279077949393256, 25.75014482773046609, 0.000000000000000000 ) ) ;
#8 = CIRCLE ( 'NONE', #138, 30.00000000000000000 ) ;
#9 = CARTESIAN_POINT ( 'NONE',  ( -28.25000000000000000, 1.530808498934192557E-16, -1.200000000000000030E-05 ) ) ;
#10 = CARTESIAN_POINT ( 'NONE',  ( 22.53881141314511893, -7.648326697676676389, -0.000000000000000000 ) ) ;
#11 = ORIENTED_EDGE ( 'NONE', *, *, #216, .F. ) ;
#12 = CC_DESIGN_PERSON_AND_ORGANIZATION_ASSIGNMENT ( #133, #319, ( #121 ) ) ;
#13 = CARTESIAN_POINT ( 'NONE',  ( 1.250000000000000000, 27.00000000000000000, -1.200000000000000030E-05 ) ) ;
#14 = CARTESIAN_POINT ( 'NONE',  ( -28.25000000000000000, 1.530808498934192557E-16, 5.000000000000000000 ) ) ;
#15 = EDGE_LOOP ( 'NONE', ( #525, #265 ) ) ;
#16 = CARTESIAN_POINT ( 'NONE',  ( -1.250000000000000000, 27.00000000000000000, -6.000000000000000152E-06 ) ) ;
#17 = ORIENTED_EDGE ( 'NONE', *, *, #245, .T. ) ;
#18 = DIRECTION ( 'NONE',  ( 0.000000000000000000, 0.000000000000000000, 1.000000000000000000 ) ) ;
#19 = CARTESIAN_POINT ( 'NONE',  ( -26.65517209220341854, 1.249855172270249337, 0.000000000000000000 ) ) ;
#20 = VERTEX_POINT ( 'NONE', #366 ) ;
#21 = CARTESIAN_POINT ( 'NONE',  ( -25.75000000000000000, -0.3453829078348016890, 0.000000000000000000 ) ) ;
#22 = ORIENTED_EDGE ( 'NONE', *, *, #532, .T. ) ;
#23 = CARTESIAN_POINT ( 'NONE',  ( 1.127961158827728294, -27.64001073332980241, -0.000000000000000000 ) ) ;
#24 = ORIENTED_EDGE ( 'NONE', *, *, #432, .F. ) ;
#25 = CARTESIAN_POINT ( 'NONE',  ( -1.127611219757772565, -27.63995091586909680, -0.000000000000000000 ) ) ;
#26 = EDGE_LOOP ( 'NONE', ( #235, #513, #314, #165 ) ) ;
#27 = PERSON ( 'UNSPECIFIED', 'UNSPECIFIED', 'UNSPECIFIED', ('UNSPECIFIED'), ('UNSPECIFIED'), ('UNSPECIFIED') ) ;
#28 = DATE_AND_TIME ( #272, #445 ) ;
#29 = CARTESIAN_POINT ( 'NONE',  ( 26.65517209220374184, -1.249855172270248893, 0.000000000000000000 ) ) ;
#30 = CARTESIAN_POINT ( 'NONE',  ( 0.000000000000000000, 0.000000000000000000, 5.000000000000000000 ) ) ;
#31 = APPROVAL_DATE_TIME ( #589, #537 ) ;
#32 = CARTESIAN_POINT ( 'NONE',  ( 28.25000000000000355, -0.3453829078348016890, 0.000000000000000000 ) ) ;
#33 = EDGE_CURVE ( 'NONE', #171, #73, #34, .T. ) ;
#34 = LINE ( 'NONE', #368, #338 ) ;
#35 = APPROVAL_STATUS ( 'not_yet_approved' ) ;
#36 = CARTESIAN_POINT ( 'NONE',  ( 1.249999999999999778, 27.34497285723260163, 0.000000000000000000 ) ) ;
#37 = AXIS2_PLACEMENT_3D ( 'NONE', #553, #208, #143 ) ;
#38 = APPROVAL ( #640, 'UNSPECIFIED' ) ;
#39 = EDGE_LOOP ( 'NONE', ( #5, #393, #320, #309 ) ) ;
#40 = CARTESIAN_POINT ( 'NONE',  ( 25.87218396290157330, 0.6401557332070996198, -0.000000000000000000 ) ) ;
#41 = AXIS2_PLACEMENT_3D ( 'NONE', #220, #464, #518 ) ;
#42 = CYLINDRICAL_SURFACE ( 'NONE', #584, 1.250000000000001110 ) ;
#43 = CARTESIAN_POINT ( 'NONE',  ( -23.75000000000000000, 2.908536147974963319E-15, -6.000000000000000152E-06 ) ) ;
#44 = CARTESIAN_POINT ( 'NONE',  ( -20.61361995345023601, 11.89847022127064413, -0.000000000000000000 ) ) ;
#45 = CARTESIAN_POINT ( 'NONE',  ( 27.00000000000000000, 0.000000000000000000, 5.000000000000000000 ) ) ;
#46 = VECTOR ( 'NONE', #503, 1000.000000000000000 ) ;
#47 = CARTESIAN_POINT ( 'NONE',  ( -27.00000000000000000, 0.000000000000000000, -1.200000000000000030E-05 ) ) ;
#48 = CARTESIAN_POINT ( 'NONE',  ( -27.34482790779625816, -1.249855172270248893, 0.000000000000000000 ) ) ;
#49 = DIRECTION ( 'NONE',  ( 1.000000000000000000, 0.000000000000000000, 0.000000000000000000 ) ) ;
#50 = AXIS2_PLACEMENT_3D ( 'NONE', #360, #417, #266 ) ;
#51 = DIRECTION ( 'NONE',  ( 1.000000000000000000, 0.000000000000000000, 0.000000000000000000 ) ) ;
#52 = CARTESIAN_POINT ( 'NONE',  ( 1.250000000000000000, -27.00000000000000000, -1.200000000000000030E-05 ) ) ;
#53 = DIRECTION ( 'NONE',  ( 0.000000000000000000, 0.000000000000000000, 1.000000000000000000 ) ) ;
#54 = CARTESIAN_POINT ( 'NONE',  ( -27.34482790779658501, 1.250144827729752883, -0.000000000000000000 ) ) ;
#55 = CIRCLE ( 'NONE', #352, 1.250000000000001110 ) ;
#56 = EDGE_CURVE ( 'NONE', #359, #603, #144, .T. ) ;
#57 = ORIENTED_EDGE ( 'NONE', *, *, #152, .F. ) ;
#58 = DIRECTION ( 'NONE',  ( 1.000000000000000000, 0.000000000000000000, -0.000000000000000000 ) ) ;
#59 = CARTESIAN_POINT ( 'NONE',  ( -25.87238878024115962, 0.6399509158683750476, 0.000000000000000000 ) ) ;
#60 = ORIENTED_EDGE ( 'NONE', *, *, #572, .T. ) ;
#61 = CARTESIAN_POINT ( 'NONE',  ( -26.36019420586135809, -1.127756219637173762, 0.000000000000000000 ) ) ;
#62 = CARTESIAN_POINT ( 'NONE',  ( 6.162541474724339885, -22.98951943307845269, -0.000000000000000000 ) ) ;
#63 = EDGE_LOOP ( 'NONE', ( #293, #477, #303, #324 ) ) ;
#64 = CARTESIAN_POINT ( 'NONE',  ( 0.000000000000000000, -27.00000000000000000, 5.000000000000000000 ) ) ;
#65 = CARTESIAN_POINT ( 'NONE',  ( -14.49111584718265178, -18.88118663090756399, 0.000000000000000000 ) ) ;
#66 = EDGE_LOOP ( 'NONE', ( #262, #588 ) ) ;
#67 = FACE_OUTER_BOUND ( 'NONE', #178, .T. ) ;
#68 = CARTESIAN_POINT ( 'NONE',  ( 25.75000000000000000, 1.530808498934192557E-16, -6.000000000000000152E-06 ) ) ;
#69 = VERTEX_POINT ( 'NONE', #480 ) ;
#70 = DIRECTION ( 'NONE',  ( 1.000000000000000000, 0.000000000000000000, -0.000000000000000000 ) ) ;
#71 = ORIENTED_EDGE ( 'NONE', *, *, #474, .F. ) ;
#72 = DIRECTION ( 'NONE',  ( 1.000000000000000000, 0.000000000000000000, 0.000000000000000000 ) ) ;
#73 = VERTEX_POINT ( 'NONE', #636 ) ;
#74 = COORDINATED_UNIVERSAL_TIME_OFFSET ( 3, 0, .AHEAD. ) ;
#75 = CIRCLE ( 'NONE', #387, 1.250000000000001110 ) ;
#76 = ORIENTED_EDGE ( 'NONE', *, *, #78, .F. ) ;
#77 = PERSON_AND_ORGANIZATION_ROLE ( 'classification_officer' ) ;
#78 = EDGE_CURVE ( 'NONE', #539, #577, #111, .T. ) ;
#79 = LINE ( 'NONE', #328, #117 ) ;
#80 = ORIENTED_EDGE ( 'NONE', *, *, #108, .F. ) ;
#81 = CARTESIAN_POINT ( 'NONE',  ( 0.3448279077947251636, 28.24985517226953746, 0.000000000000000000 ) ) ;
#82 = VERTEX_POINT ( 'NONE', #375 ) ;
#83 = CALENDAR_DATE ( 2026, 1, 10 ) ;
#84 = DIRECTION ( 'NONE',  ( -0.000000000000000000, -0.000000000000000000, 1.000000000000000000 ) ) ;
#85 = CARTESIAN_POINT ( 'NONE',  ( 0.000000000000000000, 27.00000000000000000, -1.200000000000000030E-05 ) ) ;
#86 = PERSON_AND_ORGANIZATION_ROLE ( 'creator' ) ;
#87 = CARTESIAN_POINT ( 'NONE',  ( 0.000000000000000000, 0.000000000000000000, 5.000000000000000000 ) ) ;
#88 = DIRECTION ( 'NONE',  ( -0.000000000000000000, -0.000000000000000000, 1.000000000000000000 ) ) ;
#89 = EDGE_CURVE ( 'NONE', #162, #20, #612, .T. ) ;
#90 = FACE_OUTER_BOUND ( 'NONE', #107, .T. ) ;
#91 = CARTESIAN_POINT ( 'NONE',  ( 7.648326697683545561, 22.53881141314527881, -0.000000000000000000 ) ) ;
#92 = LINE ( 'NONE', #157, #505 ) ;
#93 = DIRECTION ( 'NONE',  ( 0.000000000000000000, 0.000000000000000000, 1.000000000000000000 ) ) ;
#94 = CARTESIAN_POINT ( 'NONE',  ( 0.000000000000000000, 0.000000000000000000, 0.000000000000000000 ) ) ;
#95 = EDGE_CURVE ( 'NONE', #104, #281, #337, .T. ) ;
#96 = CARTESIAN_POINT ( 'NONE',  ( -23.59784899012950987, 3.104262268384573531, -0.000000000000000000 ) ) ;
#97 = FACE_BOUND ( 'NONE', #530, .T. ) ;
#98 = CC_DESIGN_PERSON_AND_ORGANIZATION_ASSIGNMENT ( #179, #586, ( #267 ) ) ;
#99 = LINE ( 'NONE', #298, #46 ) ;
#100 = VERTEX_POINT ( 'NONE', #602 ) ;
#101 = DIRECTION ( 'NONE',  ( -0.000000000000000000, -0.000000000000000000, 1.000000000000000000 ) ) ;
#102 = CARTESIAN_POINT ( 'NONE',  ( -25.75000000000000000, 0.000000000000000000, -6.000000000000000152E-06 ) ) ;
#103 = AXIS2_PLACEMENT_3D ( 'NONE', #392, #88, #288 ) ;
#104 = VERTEX_POINT ( 'NONE', #292 ) ;
#105 =( NAMED_UNIT ( * ) PLANE_ANGLE_UNIT ( ) SI_UNIT ( $, .RADIAN. ) );
#106 = CARTESIAN_POINT ( 'NONE',  ( 15.69131346712782005, -17.89620989942066132, 0.000000000000000000 ) ) ;
#107 = EDGE_LOOP ( 'NONE', ( #159, #501, #626, #411 ) ) ;
#108 = EDGE_CURVE ( 'NONE', #607, #278, #146, .T. ) ;
#109 = CARTESIAN_POINT ( 'NONE',  ( -1.250144827729751329, -27.34482790779621908, 0.000000000000000000 ) ) ;
#110 = CARTESIAN_POINT ( 'NONE',  ( 0.3448279077949388260, 25.74985517226953391, -0.000000000000000000 ) ) ;
#111 = CIRCLE ( 'NONE', #2, 23.75000000000000000 ) ;
#112 = ORIENTED_EDGE ( 'NONE', *, *, #307, .F. ) ;
#113 = EDGE_CURVE ( 'NONE', #603, #359, #382, .T. ) ;
#114 = CARTESIAN_POINT ( 'NONE',  ( 0.000000000000000000, -27.00000000000000000, -1.200000000000000030E-05 ) ) ;
#115 = CARTESIAN_POINT ( 'NONE',  ( 21.34546638114099437, -10.52913633966511497, 0.000000000000000000 ) ) ;
#116 = EDGE_LOOP ( 'NONE', ( #535, #112, #156, #570 ) ) ;
#117 = VECTOR ( 'NONE', #84, 1000.000000000000000 ) ;
#118 = DIRECTION ( 'NONE',  ( -0.000000000000000000, -0.000000000000000000, 1.000000000000000000 ) ) ;
#119 = ORIENTED_EDGE ( 'NONE', *, *, #307, .T. ) ;
#120 = AXIS2_PLACEMENT_3D ( 'NONE', #412, #629, #70 ) ;
#121 = PRODUCT_DEFINITION ( 'UNKNOWN', '', #336, #407 ) ;
#122 = CARTESIAN_POINT ( 'NONE',  ( 0.000000000000000000, 27.00000000000000000, 5.000000000000000000 ) ) ;
#123 = CLOSED_SHELL ( 'NONE', ( #562, #510, #371, #514, #139, #620, #552, #493, #595, #3, #424, #148, #126, #651 ) ) ;
#124 = DATE_TIME_ROLE ( 'classification_date' ) ;
#125 = ORIENTED_EDGE ( 'NONE', *, *, #428, .T. ) ;
#126 = ADVANCED_FACE ( 'NONE', ( #592 ), #330, .F. ) ;
#127 = AXIS2_PLACEMENT_3D ( 'NONE', #291, #249, #58 ) ;
#128 = CARTESIAN_POINT ( 'NONE',  ( 30.00000000000000000, 3.673940397442059178E-15, 5.000000000000000000 ) ) ;
#129 = VERTEX_POINT ( 'NONE', #296 ) ;
#130 = APPLICATION_PROTOCOL_DEFINITION ( 'international standard', 'config_control_design', 1994, #191 ) ;
#131 = CARTESIAN_POINT ( 'NONE',  ( 26.35984426679154424, -1.127816037097993940, -0.000000000000000000 ) ) ;
#132 = EDGE_LOOP ( 'NONE', ( #566, #470, #60, #354 ) ) ;
#133 = PERSON_AND_ORGANIZATION ( #27, #369 ) ;
#134 = CARTESIAN_POINT ( 'NONE',  ( 26.36004908413205428, 1.127611219759270478, 0.000000000000000000 ) ) ;
#135 = CARTESIAN_POINT ( 'NONE',  ( 11.89847022126720866, 20.61361995345253462, -0.000000000000000000 ) ) ;
#136 = APPROVAL_ROLE ( '' ) ;
#137 = CARTESIAN_POINT ( 'NONE',  ( -0.6399509158683747145, 28.12761121975770351, 0.000000000000000000 ) ) ;
#138 = AXIS2_PLACEMENT_3D ( 'NONE', #87, #440, #648 ) ;
#139 = ADVANCED_FACE ( 'NONE', ( #488 ), #42, .F. ) ;
#140 = DIRECTION ( 'NONE',  ( -0.000000000000000000, -0.000000000000000000, 1.000000000000000000 ) ) ;
#141 = DIRECTION ( 'NONE',  ( 0.000000000000000000, 0.000000000000000000, 1.000000000000000000 ) ) ;
#142 = CARTESIAN_POINT ( 'NONE',  ( 0.000000000000000000, -27.00000000000000000, 5.000000000000000000 ) ) ;
#143 = DIRECTION ( 'NONE',  ( 1.000000000000000000, 0.000000000000000000, 0.000000000000000000 ) ) ;
#144 = CIRCLE ( 'NONE', #601, 1.250000000000000000 ) ;
#145 = CARTESIAN_POINT ( 'NONE',  ( 3.104262268350941767, 23.59784899012950632, -0.000000000000000000 ) ) ;
#146 = B_SPLINE_CURVE_WITH_KNOTS ( 'NONE', 3,
 ( #551, #441, #343, #548, #435, #243, #4, #390, #340, #554, #649, #135, #498, #91, #444, #145, #544, #492, #150, #334, #195, #192, #500, #200, #646, #395, #290, #44, #605, #556, #495, #96, #187, #197 ),
 .UNSPECIFIED., .F., .F.,
 ( 4, 2, 2, 2, 2, 2, 2, 2, 2, 2, 2, 2, 2, 2, 2, 2, 4 ),
 ( 0.000000000000000000, 0.03125000000000000000, 0.06250000000000000000, 0.09375000000000000000, 0.1250000000000000000, 0.1562500000000000000, 0.1875000000000000000, 0.2187500000000000000, 0.2500000000000000000, 0.2812500000000000000, 0.3125000000000000000, 0.3437500000000000000, 0.3750000000000000000, 0.4062500000000000000, 0.4375000000000000000, 0.4687500000000000000, 0.5000000000000000000 ),
 .UNSPECIFIED. ) ;
#147 = VERTEX_POINT ( 'NONE', #438 ) ;
#148 = ADVANCED_FACE ( 'NONE', ( #597 ), #652, .F. ) ;
#149 = FACE_OUTER_BOUND ( 'NONE', #559, .T. ) ;
#150 = CARTESIAN_POINT ( 'NONE',  ( -3.104248821047518536, 23.59778138607330078, 0.000000000000000000 ) ) ;
#151 = ORIENTED_EDGE ( 'NONE', *, *, #572, .F. ) ;
#152 = EDGE_CURVE ( 'NONE', #281, #73, #421, .T. ) ;
#153 = DIRECTION ( 'NONE',  ( 1.000000000000000000, 0.000000000000000000, 0.000000000000000000 ) ) ;
#154 = CC_DESIGN_SECURITY_CLASSIFICATION ( #631, ( #336 ) ) ;
#155 = CARTESIAN_POINT ( 'NONE',  ( 1.250000000000000000, 26.65461709216459596, 0.000000000000000000 ) ) ;
#156 = ORIENTED_EDGE ( 'NONE', *, *, #222, .T. ) ;
#157 = CARTESIAN_POINT ( 'NONE',  ( 30.00000000000000000, 3.673940397442059178E-15, 5.000000000000000000 ) ) ;
#158 = CARTESIAN_POINT ( 'NONE',  ( 0.3448279077947251636, -25.75014482773046609, 0.000000000000000000 ) ) ;
#159 = ORIENTED_EDGE ( 'NONE', *, *, #198, .F. ) ;
#160 = DIRECTION ( 'NONE',  ( 1.000000000000000000, 0.000000000000000000, 0.000000000000000000 ) ) ;
#161 = CARTESIAN_POINT ( 'NONE',  ( -3.104262268358678689, -23.59784899012950632, -0.000000000000000000 ) ) ;
#162 = VERTEX_POINT ( 'NONE', #14 ) ;
#163 = CARTESIAN_POINT ( 'NONE',  ( 1.250000000000000000, 27.00000000000000000, 5.000000000000000000 ) ) ;
#164 = CARTESIAN_POINT ( 'NONE',  ( -6.162528027407434550, -22.98945182902393469, 0.000000000000000000 ) ) ;
#165 = ORIENTED_EDGE ( 'NONE', *, *, #443, .T. ) ;
#166 = CC_DESIGN_APPROVAL ( #38, ( #336 ) ) ;
#167 = CARTESIAN_POINT ( 'NONE',  ( 23.75000000000000000, 0.000000000000000000, -6.000000000000000152E-06 ) ) ;
#168 = CARTESIAN_POINT ( 'NONE',  ( -21.34553006279863752, -10.52916271742154741, -0.000000000000000000 ) ) ;
#169 = ORIENTED_EDGE ( 'NONE', *, *, #348, .F. ) ;
#170 = CARTESIAN_POINT ( 'NONE',  ( -25.75000000000000000, 0.000000000000000000, -6.000000000000000152E-06 ) ) ;
#171 = VERTEX_POINT ( 'NONE', #465 ) ;
#172 = B_SPLINE_CURVE_WITH_KNOTS ( 'NONE', 3,
 ( #459, #462, #619, #573, #455, #168, #452, #410, #558, #209, #65, #408, #615, #215, #164, #161, #609, #308, #565, #62, #357, #561, #353, #414, #106, #304, #623, #363, #115, #10, #313, #512, #258, #521 ),
 .UNSPECIFIED., .F., .F.,
 ( 4, 2, 2, 2, 2, 2, 2, 2, 2, 2, 2, 2, 2, 2, 2, 2, 4 ),
 ( 0.5000000000000000000, 0.5312500000000000000, 0.5625000000000000000, 0.5937500000000000000, 0.6250000000000000000, 0.6562500000000000000, 0.6875000000000000000, 0.7187500000000000000, 0.7500000000000000000, 0.7812500000000000000, 0.8125000000000000000, 0.8437500000000000000, 0.8750000000000000000, 0.9062500000000000000, 0.9375000000000000000, 0.9687500000000000000, 1.000000000000000000 ),
 .UNSPECIFIED. ) ;
#173 = CYLINDRICAL_SURFACE ( 'NONE', #41, 30.00000000000000000 ) ;
#174 = CC_DESIGN_PERSON_AND_ORGANIZATION_ASSIGNMENT ( #545, #86, ( #336 ) ) ;
#175 = ORIENTED_EDGE ( 'NONE', *, *, #239, .T. ) ;
#176 = PERSON_AND_ORGANIZATION ( #27, #369 ) ;
#177 = APPROVAL_PERSON_ORGANIZATION ( #489, #38, #136 ) ;
#178 = EDGE_LOOP ( 'NONE', ( #463, #346, #22, #409 ) ) ;
#179 = PERSON_AND_ORGANIZATION ( #27, #369 ) ;
#180 = CARTESIAN_POINT ( 'NONE',  ( -1.250000000000000000, 27.00000000000000000, -1.200000000000000030E-05 ) ) ;
#181 = DIRECTION ( 'NONE',  ( 1.000000000000000000, 0.000000000000000000, 0.000000000000000000 ) ) ;
#182 = SECURITY_CLASSIFICATION_LEVEL ( 'unclassified' ) ;
#183 = CARTESIAN_POINT ( 'NONE',  ( 27.63980579413864191, -1.127756219637173762, 0.000000000000000000 ) ) ;
#184 = ORIENTED_EDGE ( 'NONE', *, *, #348, .T. ) ;
#185 = APPROVAL_STATUS ( 'not_yet_approved' ) ;
#186 = DIRECTION ( 'NONE',  ( -0.000000000000000000, -0.000000000000000000, 1.000000000000000000 ) ) ;
#187 = CARTESIAN_POINT ( 'NONE',  ( -23.74996553574428759, 1.559097219069288220, -0.000000000000000000 ) ) ;
#188 = MECHANICAL_CONTEXT ( 'NONE', #191, 'mechanical' ) ;
#189 = EDGE_CURVE ( 'NONE', #129, #460, #491, .T. ) ;
#190 = CARTESIAN_POINT ( 'NONE',  ( 1.127611219757985950, 27.63995091586908970, -0.000000000000000000 ) ) ;
#191 = APPLICATION_CONTEXT ( 'configuration controlled 3d designs of mechanical parts and assemblies' ) ;
#192 = CARTESIAN_POINT ( 'NONE',  ( -10.52916271745445087, 21.34553006278179765, -0.000000000000000000 ) ) ;
#193 = CARTESIAN_POINT ( 'NONE',  ( 25.74985517227067078, -0.3448279077960793026, 0.000000000000000000 ) ) ;
#194 = CIRCLE ( 'NONE', #485, 1.250000000000000000 ) ;
#195 = CARTESIAN_POINT ( 'NONE',  ( -7.648300319887312071, 22.53874773150431920, 0.000000000000000000 ) ) ;
#196 = CARTESIAN_POINT ( 'NONE',  ( 0.000000000000000000, 0.000000000000000000, 0.000000000000000000 ) ) ;
#197 = CARTESIAN_POINT ( 'NONE',  ( -23.75000000000000000, 2.908536147974963319E-15, -6.000000000000000152E-06 ) ) ;
#198 = EDGE_CURVE ( 'NONE', #278, #607, #172, .T. ) ;
#199 = DIRECTION ( 'NONE',  ( -0.000000000000000000, -0.000000000000000000, 1.000000000000000000 ) ) ;
#200 = CARTESIAN_POINT ( 'NONE',  ( -14.49115414179794925, 18.88124394287561003, -0.000000000000000000 ) ) ;
#201 = ORIENTED_EDGE ( 'NONE', *, *, #232, .T. ) ;
#202 = CARTESIAN_POINT ( 'NONE',  ( 0.000000000000000000, 0.000000000000000000, -1.200000000000000030E-05 ) ) ;
#203 = CARTESIAN_POINT ( 'NONE',  ( 0.6398057941386402492, 25.87224378036343708, 0.000000000000000000 ) ) ;
#204 = CARTESIAN_POINT ( 'NONE',  ( -28.12761121975791312, -0.6399509158683756027, -0.000000000000000000 ) ) ;
#205 = CARTESIAN_POINT ( 'NONE',  ( 1.249999999999999778, -26.65502714276739127, 0.000000000000000000 ) ) ;
#206 = AXIS2_PLACEMENT_3D ( 'NONE', #114, #310, #625 ) ;
#207 = ORIENTED_EDGE ( 'NONE', *, *, #113, .F. ) ;
#208 = DIRECTION ( 'NONE',  ( -0.000000000000000000, -0.000000000000000000, 1.000000000000000000 ) ) ;
#209 = CARTESIAN_POINT ( 'NONE',  ( -15.69136220696625372, -17.89625863921242654, -0.000000000000000000 ) ) ;
#210 = ORIENTED_EDGE ( 'NONE', *, *, #95, .T. ) ;
#211 =( NAMED_UNIT ( * ) SI_UNIT ( $, .STERADIAN. ) SOLID_ANGLE_UNIT ( ) );
#212 = CARTESIAN_POINT ( 'NONE',  ( -1.250144827729751329, 26.65517209220377381, 0.000000000000000000 ) ) ;
#213 = EDGE_LOOP ( 'NONE', ( #466, #224 ) ) ;
#214 = DIRECTION ( 'NONE',  ( -0.000000000000000000, -0.000000000000000000, 1.000000000000000000 ) ) ;
#215 = CARTESIAN_POINT ( 'NONE',  ( -7.648326697676665731, -22.53881141314511183, -0.000000000000000000 ) ) ;
#216 = EDGE_CURVE ( 'NONE', #147, #100, #403, .T. ) ;
#217 = ORIENTED_EDGE ( 'NONE', *, *, #532, .F. ) ;
#218 = APPROVAL_PERSON_ORGANIZATION ( #593, #537, #531 ) ;
#219 = B_SPLINE_CURVE_WITH_KNOTS ( 'NONE', 3,
 ( #587, #193, #538, #131, #29, #277, #183, #481, #32, #325 ),
 .UNSPECIFIED., .F., .F.,
 ( 4, 2, 2, 2, 4 ),
 ( 0.5000000000000000000, 0.6250000000000000000, 0.7500000000000000000, 0.8750000000000000000, 1.000000000000000000 ),
 .UNSPECIFIED. ) ;
#220 = CARTESIAN_POINT ( 'NONE',  ( 0.000000000000000000, 0.000000000000000000, 5.000000000000000000 ) ) ;
#221 = ORIENTED_EDGE ( 'NONE', *, *, #56, .T. ) ;
#222 = EDGE_CURVE ( 'NONE', #422, #69, #99, .T. ) ;
#223 = FACE_OUTER_BOUND ( 'NONE', #372, .T. ) ;
#224 = ORIENTED_EDGE ( 'NONE', *, *, #216, .T. ) ;
#225 = AXIS2_PLACEMENT_3D ( 'NONE', #499, #6, #153 ) ;
#226 = CYLINDRICAL_SURFACE ( 'NONE', #50, 30.00000000000000000 ) ;
#227 = ORIENTED_EDGE ( 'NONE', *, *, #295, .F. ) ;
#228 = CARTESIAN_POINT ( 'NONE',  ( -1.127816037097994162, -26.35984426679134174, -0.000000000000000000 ) ) ;
#229 = EDGE_CURVE ( 'NONE', #104, #171, #647, .T. ) ;
#230 = DIRECTION ( 'NONE',  ( 0.000000000000000000, 0.000000000000000000, 1.000000000000000000 ) ) ;
#231 = CARTESIAN_POINT ( 'NONE',  ( 25.75000000000000000, 1.530808498934192557E-16, -6.000000000000000152E-06 ) ) ;
#232 = EDGE_CURVE ( 'NONE', #577, #539, #312, .T. ) ;
#233 = ORIENTED_EDGE ( 'NONE', *, *, #232, .F. ) ;
#234 = DIRECTION ( 'NONE',  ( 0.000000000000000000, 0.000000000000000000, 1.000000000000000000 ) ) ;
#235 = ORIENTED_EDGE ( 'NONE', *, *, #428, .F. ) ;
#236 = APPLICATION_PROTOCOL_DEFINITION ( 'international standard', 'config_control_design', 1994, #542 ) ;
#237 = CARTESIAN_POINT ( 'NONE',  ( -1.250000000000000000, 27.00000000000000000, -6.000000000000000152E-06 ) ) ;
#238 = DIRECTION ( 'NONE',  ( 1.000000000000000000, 0.000000000000000000, 0.000000000000000000 ) ) ;
#239 = EDGE_CURVE ( 'NONE', #147, #359, #487, .T. ) ;
#240 = CARTESIAN_POINT ( 'NONE',  ( 0.000000000000000000, 0.000000000000000000, 5.000000000000000000 ) ) ;
#241 = DIRECTION ( 'NONE',  ( -0.000000000000000000, -0.000000000000000000, 1.000000000000000000 ) ) ;
#242 = FACE_BOUND ( 'NONE', #270, .T. ) ;
#243 = CARTESIAN_POINT ( 'NONE',  ( 21.34553006278184739, 10.52916271745951171, -0.000000000000000000 ) ) ;
#244 = CARTESIAN_POINT ( 'NONE',  ( -26.65517209220373829, -1.250144827729752661, -0.000000000000000000 ) ) ;
#245 = EDGE_CURVE ( 'NONE', #607, #577, #598, .T. ) ;
#246 = DIRECTION ( 'NONE',  ( 1.000000000000000000, 0.000000000000000000, 0.000000000000000000 ) ) ;
#247 = DIRECTION ( 'NONE',  ( -0.000000000000000000, -0.000000000000000000, 1.000000000000000000 ) ) ;
#248 = CARTESIAN_POINT ( 'NONE',  ( -1.127611219757772565, 26.36004908413091030, -0.000000000000000000 ) ) ;
#249 = DIRECTION ( 'NONE',  ( 0.000000000000000000, 0.000000000000000000, 1.000000000000000000 ) ) ;
#250 = CIRCLE ( 'NONE', #576, 1.250000000000001110 ) ;
#251 = CARTESIAN_POINT ( 'NONE',  ( 1.250000000000000000, -27.00000000000000000, -6.000000000000000152E-06 ) ) ;
#252 = EDGE_LOOP ( 'NONE', ( #169, #125, #639, #268 ) ) ;
#253 = B_SPLINE_CURVE_WITH_KNOTS ( 'NONE', 3,
 ( #285, #36, #190, #385, #81, #374, #137, #381, #541, #237 ),
 .UNSPECIFIED., .F., .F.,
 ( 4, 2, 2, 2, 4 ),
 ( 0.000000000000000000, 0.1250000000000000000, 0.2500000000000000000, 0.3750000000000000000, 0.5000000000000000000 ),
 .UNSPECIFIED. ) ;
#254 = CARTESIAN_POINT ( 'NONE',  ( 27.00000000000000000, 0.000000000000000000, 5.000000000000000000 ) ) ;
#255 = CARTESIAN_POINT ( 'NONE',  ( -28.12781603709842670, 0.6401557332070996198, -0.000000000000000000 ) ) ;
#256 = ORIENTED_EDGE ( 'NONE', *, *, #329, .F. ) ;
#257 = CARTESIAN_POINT ( 'NONE',  ( 23.75000000000000000, 0.000000000000000000, 5.000000000000000000 ) ) ;
#258 = CARTESIAN_POINT ( 'NONE',  ( 23.75000000000000355, -1.559623897782517199, -0.000000000000000000 ) ) ;
#259 = VERTEX_POINT ( 'NONE', #128 ) ;
#260 = CARTESIAN_POINT ( 'NONE',  ( 1.250000000000000000, -27.00000000000000000, -6.000000000000000152E-06 ) ) ;
#261 = CARTESIAN_POINT ( 'NONE',  ( -28.24985517227067433, 0.3448279077960796912, -0.000000000000000000 ) ) ;
#262 = ORIENTED_EDGE ( 'NONE', *, *, #189, .T. ) ;
#263 = CARTESIAN_POINT ( 'NONE',  ( 0.000000000000000000, -27.00000000000000000, -1.200000000000000030E-05 ) ) ;
#264 = CC_DESIGN_PERSON_AND_ORGANIZATION_ASSIGNMENT ( #439, #540, ( #336 ) ) ;
#265 = ORIENTED_EDGE ( 'NONE', *, *, #630, .T. ) ;
#266 = DIRECTION ( 'NONE',  ( -1.000000000000000000, 0.000000000000000000, 0.000000000000000000 ) ) ;
#267 = PRODUCT ( '05_kolco_verhnee', '05_kolco_verhnee', '', ( #188 ) ) ;
#268 = ORIENTED_EDGE ( 'NONE', *, *, #389, .F. ) ;
#269 = FACE_OUTER_BOUND ( 'NONE', #616, .T. ) ;
#270 = EDGE_LOOP ( 'NONE', ( #233, #76 ) ) ;
#271 = VECTOR ( 'NONE', #600, 1000.000000000000000 ) ;
#272 = CALENDAR_DATE ( 2026, 1, 10 ) ;
#273 = CARTESIAN_POINT ( 'NONE',  ( 30.00000000000000000, 3.673940397442059178E-15, 0.000000000000000000 ) ) ;
#274 = DIRECTION ( 'NONE',  ( 0.000000000000000000, 0.000000000000000000, 1.000000000000000000 ) ) ;
#275 = LOCAL_TIME ( 23, 16, 36.00000000000000000, #379 ) ;
#276 = EDGE_CURVE ( 'NONE', #100, #147, #253, .T. ) ;
#277 = CARTESIAN_POINT ( 'NONE',  ( 27.34482790779626171, -1.250144827729752661, -0.000000000000000000 ) ) ;
#278 = VERTEX_POINT ( 'NONE', #43 ) ;
#279 = COORDINATED_UNIVERSAL_TIME_OFFSET ( 3, 0, .AHEAD. ) ;
#280 = DIRECTION ( 'NONE',  ( 0.000000000000000000, 0.000000000000000000, 1.000000000000000000 ) ) ;
#281 = VERTEX_POINT ( 'NONE', #533 ) ;
#282 = AXIS2_PLACEMENT_3D ( 'NONE', #240, #141, #594 ) ;
#283 = CARTESIAN_POINT ( 'NONE',  ( 28.12761121975884748, 0.6399509158683750476, 0.000000000000000000 ) ) ;
#284 = DIRECTION ( 'NONE',  ( -0.000000000000000000, -0.000000000000000000, 1.000000000000000000 ) ) ;
#285 = CARTESIAN_POINT ( 'NONE',  ( 1.250000000000000000, 27.00000000000000000, -6.000000000000000152E-06 ) ) ;
#286 = MANIFOLD_SOLID_BREP ( 'Otverstiya', #123 ) ;
#287 =( GEOMETRIC_REPRESENTATION_CONTEXT ( 3 ) GLOBAL_UNCERTAINTY_ASSIGNED_CONTEXT ( ( #507 ) ) GLOBAL_UNIT_ASSIGNED_CONTEXT ( ( #526, #105, #211 ) ) REPRESENTATION_CONTEXT ( 'NONE', 'WORKASPACE' ) );
#288 = DIRECTION ( 'NONE',  ( 1.000000000000000000, 0.000000000000000000, 0.000000000000000000 ) ) ;
#289 = CYLINDRICAL_SURFACE ( 'NONE', #519, 1.250000000000000000 ) ;
#290 = CARTESIAN_POINT ( 'NONE',  ( -18.88118663092066640, 14.49111584716045620, 0.000000000000000000 ) ) ;
#291 = CARTESIAN_POINT ( 'NONE',  ( 0.000000000000000000, 0.000000000000000000, 5.000000000000000000 ) ) ;
#292 = CARTESIAN_POINT ( 'NONE',  ( 1.250000000000000000, -27.00000000000000000, -6.000000000000000152E-06 ) ) ;
#293 = ORIENTED_EDGE ( 'NONE', *, *, #239, .F. ) ;
#294 = CARTESIAN_POINT ( 'NONE',  ( 25.75000000000000000, 1.530808498934192557E-16, -1.200000000000000030E-05 ) ) ;
#295 = EDGE_CURVE ( 'NONE', #20, #162, #55, .T. ) ;
#296 = CARTESIAN_POINT ( 'NONE',  ( -25.75000000000000000, 0.000000000000000000, -6.000000000000000152E-06 ) ) ;
#297 = FACE_OUTER_BOUND ( 'NONE', #316, .T. ) ;
#298 = CARTESIAN_POINT ( 'NONE',  ( -30.00000000000000000, 0.000000000000000000, 5.000000000000000000 ) ) ;
#299 = ORIENTED_EDGE ( 'NONE', *, *, #443, .F. ) ;
#300 = DIRECTION ( 'NONE',  ( -0.000000000000000000, -0.000000000000000000, -1.000000000000000000 ) ) ;
#301 = AXIS2_PLACEMENT_3D ( 'NONE', #202, #1, #51 ) ;
#302 = CARTESIAN_POINT ( 'NONE',  ( -26.35984426679247150, 1.127816037097994828, -0.000000000000000000 ) ) ;
#303 = ORIENTED_EDGE ( 'NONE', *, *, #380, .T. ) ;
#304 = CARTESIAN_POINT ( 'NONE',  ( 17.89625863923317439, -15.69136220694034378, -0.000000000000000000 ) ) ;
#305 = EDGE_LOOP ( 'NONE', ( #473, #416, #419, #151 ) ) ;
#306 = CARTESIAN_POINT ( 'NONE',  ( -0.3448279077949393256, -28.24985517226953746, 0.000000000000000000 ) ) ;
#307 = EDGE_CURVE ( 'NONE', #422, #259, #543, .T. ) ;
#308 = CARTESIAN_POINT ( 'NONE',  ( 1.559097219079729868, -23.75003446425571596, -0.000000000000000000 ) ) ;
#309 = ORIENTED_EDGE ( 'NONE', *, *, #222, .F. ) ;
#310 = DIRECTION ( 'NONE',  ( -0.000000000000000000, -0.000000000000000000, 1.000000000000000000 ) ) ;
#311 = EDGE_CURVE ( 'NONE', #456, #350, #361, .T. ) ;
#312 = CIRCLE ( 'NONE', #564, 23.75000000000000000 ) ;
#313 = CARTESIAN_POINT ( 'NONE',  ( 22.98941734929453062, -6.162701348689244796, 0.000000000000000000 ) ) ;
#314 = ORIENTED_EDGE ( 'NONE', *, *, #389, .T. ) ;
#315 = FACE_BOUND ( 'NONE', #15, .T. ) ;
#316 = EDGE_LOOP ( 'NONE', ( #119, #504 ) ) ;
#317 = AXIS2_PLACEMENT_3D ( 'NONE', #85, #284, #599 ) ;
#318 = FACE_OUTER_BOUND ( 'NONE', #132, .T. ) ;
#319 = PERSON_AND_ORGANIZATION_ROLE ( 'creator' ) ;
#320 = ORIENTED_EDGE ( 'NONE', *, *, #474, .T. ) ;
#321 = VECTOR ( 'NONE', #186, 1000.000000000000000 ) ;
#322 = APPROVAL ( #35, 'UNSPECIFIED' ) ;
#323 = CARTESIAN_POINT ( 'NONE',  ( 26.65517209220342565, 1.250144827729752883, -0.000000000000000000 ) ) ;
#324 = ORIENTED_EDGE ( 'NONE', *, *, #113, .T. ) ;
#325 = CARTESIAN_POINT ( 'NONE',  ( 28.25000000000000000, 0.000000000000000000, -6.000000000000000152E-06 ) ) ;
#326 = VERTEX_POINT ( 'NONE', #273 ) ;
#327 = DATE_AND_TIME ( #83, #653 ) ;
#328 = CARTESIAN_POINT ( 'NONE',  ( -23.75000000000000000, 2.908536147974963319E-15, -1.200000000000000030E-05 ) ) ;
#329 = EDGE_CURVE ( 'NONE', #278, #539, #79, .T. ) ;
#330 = CYLINDRICAL_SURFACE ( 'NONE', #317, 1.250000000000000000 ) ;
#331 = APPROVAL_DATE_TIME ( #327, #38 ) ;
#332 = CIRCLE ( 'NONE', #397, 30.00000000000000000 ) ;
#333 = CARTESIAN_POINT ( 'NONE',  ( 27.34482790779657790, 1.249855172270249337, 0.000000000000000000 ) ) ;
#334 = CARTESIAN_POINT ( 'NONE',  ( -6.162541474718570278, 22.98951943308014023, -0.000000000000000000 ) ) ;
#335 = CARTESIAN_POINT ( 'NONE',  ( -1.250000000000000000, -27.00000000000000000, -6.000000000000000152E-06 ) ) ;
#336 = PRODUCT_DEFINITION_FORMATION_WITH_SPECIFIED_SOURCE ( 'ANY', '', #267, .NOT_KNOWN. ) ;
#337 = LINE ( 'NONE', #52, #591 ) ;
#338 = VECTOR ( 'NONE', #580, 1000.000000000000000 ) ;
#339 = CARTESIAN_POINT ( 'NONE',  ( -27.64015573320845576, -1.127816037097993940, -0.000000000000000000 ) ) ;
#340 = CARTESIAN_POINT ( 'NONE',  ( 17.89620989935844619, 15.69131346717458264, 0.000000000000000000 ) ) ;
#341 = EDGE_CURVE ( 'NONE', #259, #422, #8, .T. ) ;
#342 = DIRECTION ( 'NONE',  ( 1.000000000000000000, 0.000000000000000000, 0.000000000000000000 ) ) ;
#343 = CARTESIAN_POINT ( 'NONE',  ( 23.59778138606936793, 3.104248821062195685, -0.000000000000000000 ) ) ;
#344 = CARTESIAN_POINT ( 'NONE',  ( -28.25014482772932567, -0.3448279077960793026, 0.000000000000000000 ) ) ;
#345 = CARTESIAN_POINT ( 'NONE',  ( 1.250000000000000000, 27.00000000000000000, -6.000000000000000152E-06 ) ) ;
#346 = ORIENTED_EDGE ( 'NONE', *, *, #33, .T. ) ;
#347 = CYLINDRICAL_SURFACE ( 'NONE', #301, 23.75000000000000000 ) ;
#348 = EDGE_CURVE ( 'NONE', #350, #456, #219, .T. ) ;
#349 = CARTESIAN_POINT ( 'NONE',  ( -27.63995091586794572, 1.127611219759270478, 0.000000000000000000 ) ) ;
#350 = VERTEX_POINT ( 'NONE', #231 ) ;
#351 = CARTESIAN_POINT ( 'NONE',  ( 1.250000000000000000, -27.34538290783540404, 0.000000000000000000 ) ) ;
#352 = AXIS2_PLACEMENT_3D ( 'NONE', #479, #234, #583 ) ;
#353 = CARTESIAN_POINT ( 'NONE',  ( 11.89843192661760618, -20.61356264150567341, 0.000000000000000000 ) ) ;
#354 = ORIENTED_EDGE ( 'NONE', *, *, #295, .T. ) ;
#355 = DIRECTION ( 'NONE',  ( 1.000000000000000000, 0.000000000000000000, 0.000000000000000000 ) ) ;
#356 = APPROVAL_PERSON_ORGANIZATION ( #528, #322, #430 ) ;
#357 = CARTESIAN_POINT ( 'NONE',  ( 7.648300319884559606, -22.53874773150615951, 0.000000000000000000 ) ) ;
#358 = B_SPLINE_CURVE_WITH_KNOTS ( 'NONE', 3,
 ( #471, #109, #25, #618, #306, #367, #423, #23, #351, #260 ),
 .UNSPECIFIED., .F., .F.,
 ( 4, 2, 2, 2, 4 ),
 ( 0.5000000000000000000, 0.6250000000000000000, 0.7500000000000000000, 0.8750000000000000000, 1.000000000000000000 ),
 .UNSPECIFIED. ) ;
#359 = VERTEX_POINT ( 'NONE', #431 ) ;
#360 = CARTESIAN_POINT ( 'NONE',  ( 0.000000000000000000, 0.000000000000000000, 5.000000000000000000 ) ) ;
#361 = B_SPLINE_CURVE_WITH_KNOTS ( 'NONE', 3,
 ( #434, #641, #283, #490, #333, #323, #134, #40, #546, #68 ),
 .UNSPECIFIED., .F., .F.,
 ( 4, 2, 2, 2, 4 ),
 ( 0.000000000000000000, 0.1250000000000000278, 0.2500000000000000000, 0.3750000000000000000, 0.5000000000000000000 ),
 .UNSPECIFIED. ) ;
#362 = AXIS2_PLACEMENT_3D ( 'NONE', #585, #447, #246 ) ;
#363 = CARTESIAN_POINT ( 'NONE',  ( 20.61361995346894460, -11.89847022123489140, -0.000000000000000000 ) ) ;
#364 = EDGE_LOOP ( 'NONE', ( #299, #24 ) ) ;
#365 = CARTESIAN_POINT ( 'NONE',  ( -23.75000000000000000, 2.908536147974963319E-15, 5.000000000000000000 ) ) ;
#366 = CARTESIAN_POINT ( 'NONE',  ( -25.75000000000000000, 0.000000000000000000, 5.000000000000000000 ) ) ;
#367 = CARTESIAN_POINT ( 'NONE',  ( 0.3448279077949388260, -28.25014482773046254, -0.000000000000000000 ) ) ;
#368 = CARTESIAN_POINT ( 'NONE',  ( -1.250000000000000000, -27.00000000000000000, -1.200000000000000030E-05 ) ) ;
#369 = ORGANIZATION ( 'UNSPECIFIED', 'UNSPECIFIED', '' ) ;
#370 = COORDINATED_UNIVERSAL_TIME_OFFSET ( 3, 0, .AHEAD. ) ;
#371 = ADVANCED_FACE ( 'NONE', ( #638 ), #377, .F. ) ;
#372 = EDGE_LOOP ( 'NONE', ( #522, #613, #210, #425 ) ) ;
#373 = DATE_AND_TIME ( #384, #275 ) ;
#374 = CARTESIAN_POINT ( 'NONE',  ( -0.3448279077947252191, 28.25014482773046254, -0.000000000000000000 ) ) ;
#375 = CARTESIAN_POINT ( 'NONE',  ( 25.75000000000000000, 1.530808498934192557E-16, 5.000000000000000000 ) ) ;
#376 = DATE_AND_TIME ( #581, #568 ) ;
#377 = CYLINDRICAL_SURFACE ( 'NONE', #37, 1.250000000000001110 ) ;
#378 = ORIENTED_EDGE ( 'NONE', *, *, #56, .F. ) ;
#379 = COORDINATED_UNIVERSAL_TIME_OFFSET ( 3, 0, .AHEAD. ) ;
#380 = EDGE_CURVE ( 'NONE', #100, #603, #401, .T. ) ;
#381 = CARTESIAN_POINT ( 'NONE',  ( -1.127816037097994162, 27.64015573320866892, -0.000000000000000000 ) ) ;
#382 = CIRCLE ( 'NONE', #472, 1.250000000000000000 ) ;
#383 = DIRECTION ( 'NONE',  ( 1.000000000000000000, 0.000000000000000000, 0.000000000000000000 ) ) ;
#384 = CALENDAR_DATE ( 2026, 1, 10 ) ;
#385 = CARTESIAN_POINT ( 'NONE',  ( 0.6401557332083827045, 28.12781603709727918, -0.000000000000000000 ) ) ;
#386 = DIRECTION ( 'NONE',  ( 0.000000000000000000, 0.000000000000000000, 1.000000000000000000 ) ) ;
#387 = AXIS2_PLACEMENT_3D ( 'NONE', #45, #650, #160 ) ;
#388 = DIRECTION ( 'NONE',  ( -0.000000000000000000, -0.000000000000000000, 1.000000000000000000 ) ) ;
#389 = EDGE_CURVE ( 'NONE', #456, #624, #442, .T. ) ;
#390 = CARTESIAN_POINT ( 'NONE',  ( 18.88124394288606211, 14.49115414177719963, -0.000000000000000000 ) ) ;
#391 = FACE_BOUND ( 'NONE', #405, .T. ) ;
#392 = CARTESIAN_POINT ( 'NONE',  ( 27.00000000000000000, 0.000000000000000000, -1.200000000000000030E-05 ) ) ;
#393 = ORIENTED_EDGE ( 'NONE', *, *, #448, .T. ) ;
#394 = FACE_BOUND ( 'NONE', #364, .T. ) ;
#395 = CARTESIAN_POINT ( 'NONE',  ( -17.89625863920721471, 15.69136220697146733, -0.000000000000000000 ) ) ;
#396 = ORIENTED_EDGE ( 'NONE', *, *, #108, .T. ) ;
#397 = AXIS2_PLACEMENT_3D ( 'NONE', #196, #53, #451 ) ;
#398 = LINE ( 'NONE', #9, #617 ) ;
#399 = CARTESIAN_POINT ( 'NONE',  ( 1.127961158827728294, 26.35998926667019759, -0.000000000000000000 ) ) ;
#400 = EDGE_CURVE ( 'NONE', #69, #326, #596, .T. ) ;
#401 = LINE ( 'NONE', #13, #271 ) ;
#402 = VECTOR ( 'NONE', #118, 1000.000000000000000 ) ;
#403 = B_SPLINE_CURVE_WITH_KNOTS ( 'NONE', 3,
 ( #16, #212, #248, #569, #7, #110, #203, #399, #155, #345 ),
 .UNSPECIFIED., .F., .F.,
 ( 4, 2, 2, 2, 4 ),
 ( 0.5000000000000000000, 0.6250000000000000000, 0.7500000000000000000, 0.8750000000000000000, 1.000000000000000000 ),
 .UNSPECIFIED. ) ;
#404 = CARTESIAN_POINT ( 'NONE',  ( 1.127611219757985950, -26.36004908413091030, -0.000000000000000000 ) ) ;
#405 = EDGE_LOOP ( 'NONE', ( #227, #482 ) ) ;
#406 = DIRECTION ( 'NONE',  ( 0.000000000000000000, 0.000000000000000000, 1.000000000000000000 ) ) ;
#407 = DESIGN_CONTEXT ( 'detailed design', #542, 'design' ) ;
#408 = CARTESIAN_POINT ( 'NONE',  ( -11.89847022124845388, -20.61361995346332421, -0.000000000000000000 ) ) ;
#409 = ORIENTED_EDGE ( 'NONE', *, *, #95, .F. ) ;
#410 = CARTESIAN_POINT ( 'NONE',  ( -18.88124394289115671, -14.49115414178241679, -0.000000000000000000 ) ) ;
#411 = ORIENTED_EDGE ( 'NONE', *, *, #245, .F. ) ;
#412 = CARTESIAN_POINT ( 'NONE',  ( 0.000000000000000000, 0.000000000000000000, 0.000000000000000000 ) ) ;
#413 = AXIS2_PLACEMENT_3D ( 'NONE', #637, #643, #633 ) ;
#414 = CARTESIAN_POINT ( 'NONE',  ( 14.49115414181348171, -18.88124394286523966, -0.000000000000000000 ) ) ;
#415 = PRODUCT_RELATED_PRODUCT_CATEGORY ( 'detail', '', ( #267 ) ) ;
#416 = ORIENTED_EDGE ( 'NONE', *, *, #468, .T. ) ;
#417 = DIRECTION ( 'NONE',  ( -0.000000000000000000, -0.000000000000000000, -1.000000000000000000 ) ) ;
#418 = ADVANCED_BREP_SHAPE_REPRESENTATION ( '05_kolco_verhnee', ( #286, #413 ), #287 ) ;
#419 = ORIENTED_EDGE ( 'NONE', *, *, #89, .T. ) ;
#420 = CARTESIAN_POINT ( 'NONE',  ( -25.87203884117226949, -0.6400107333291967793, -0.000000000000000000 ) ) ;
#421 = CIRCLE ( 'NONE', #529, 1.250000000000000000 ) ;
#422 = VERTEX_POINT ( 'NONE', #557 ) ;
#423 = CARTESIAN_POINT ( 'NONE',  ( 0.6398057941386402492, -28.12775621963656647, 0.000000000000000000 ) ) ;
#424 = ADVANCED_FACE ( 'NONE', ( #149 ), #347, .F. ) ;
#425 = ORIENTED_EDGE ( 'NONE', *, *, #152, .T. ) ;
#426 = SHAPE_DEFINITION_REPRESENTATION ( #469, #418 ) ;
#427 = CARTESIAN_POINT ( 'NONE',  ( 0.000000000000000000, 0.000000000000000000, 5.000000000000000000 ) ) ;
#428 = EDGE_CURVE ( 'NONE', #350, #82, #555, .T. ) ;
#429 = DIRECTION ( 'NONE',  ( 1.000000000000000000, 0.000000000000000000, 0.000000000000000000 ) ) ;
#430 = APPROVAL_ROLE ( '' ) ;
#431 = CARTESIAN_POINT ( 'NONE',  ( -1.250000000000000000, 27.00000000000000000, 5.000000000000000000 ) ) ;
#432 = EDGE_CURVE ( 'NONE', #82, #624, #250, .T. ) ;
#433 = ORIENTED_EDGE ( 'NONE', *, *, #198, .T. ) ;
#434 = CARTESIAN_POINT ( 'NONE',  ( 28.25000000000000000, 0.000000000000000000, -6.000000000000000152E-06 ) ) ;
#435 = CARTESIAN_POINT ( 'NONE',  ( 22.53874773150428013, 7.648300319882253895, 0.000000000000000000 ) ) ;
#436 = DATE_TIME_ROLE ( 'creation_date' ) ;
#437 = CARTESIAN_POINT ( 'NONE',  ( -0.3448279077947252191, -25.74985517226953391, -0.000000000000000000 ) ) ;
#438 = CARTESIAN_POINT ( 'NONE',  ( -1.250000000000000000, 27.00000000000000000, -6.000000000000000152E-06 ) ) ;
#439 = PERSON_AND_ORGANIZATION ( #27, #369 ) ;
#440 = DIRECTION ( 'NONE',  ( 0.000000000000000000, 0.000000000000000000, 1.000000000000000000 ) ) ;
#441 = CARTESIAN_POINT ( 'NONE',  ( 23.75000000000000355, 1.559270502604634068, 0.000000000000000000 ) ) ;
#442 = LINE ( 'NONE', #610, #496 ) ;
#443 = EDGE_CURVE ( 'NONE', #624, #82, #75, .T. ) ;
#444 = CARTESIAN_POINT ( 'NONE',  ( 6.162528027415154597, 22.98945182902393825, 0.000000000000000000 ) ) ;
#445 = LOCAL_TIME ( 23, 16, 36.00000000000000000, #74 ) ;
#446 = DIRECTION ( 'NONE',  ( 0.000000000000000000, 0.000000000000000000, 1.000000000000000000 ) ) ;
#447 = DIRECTION ( 'NONE',  ( 0.000000000000000000, 0.000000000000000000, 1.000000000000000000 ) ) ;
#448 = EDGE_CURVE ( 'NONE', #259, #326, #92, .T. ) ;
#449 = B_SPLINE_CURVE_WITH_KNOTS ( 'NONE', 3,
 ( #494, #344, #204, #339, #48, #244, #61, #420, #21, #170 ),
 .UNSPECIFIED., .F., .F.,
 ( 4, 2, 2, 2, 4 ),
 ( 0.5000000000000000000, 0.6250000000000000000, 0.7500000000000000000, 0.8750000000000000000, 1.000000000000000000 ),
 .UNSPECIFIED. ) ;
#450 = EDGE_LOOP ( 'NONE', ( #396, #433 ) ) ;
#451 = DIRECTION ( 'NONE',  ( 1.000000000000000000, 0.000000000000000000, 0.000000000000000000 ) ) ;
#452 = CARTESIAN_POINT ( 'NONE',  ( -20.61356264147975992, -11.89843192664867111, 0.000000000000000000 ) ) ;
#453 = AXIS2_PLACEMENT_3D ( 'NONE', #94, #446, #342 ) ;
#454 = CARTESIAN_POINT ( 'NONE',  ( -28.25000000000000000, 1.530808498934192557E-16, -6.000000000000000152E-06 ) ) ;
#455 = CARTESIAN_POINT ( 'NONE',  ( -22.53874773148749711, -7.648300319920207535, 0.000000000000000000 ) ) ;
#456 = VERTEX_POINT ( 'NONE', #457 ) ;
#457 = CARTESIAN_POINT ( 'NONE',  ( 28.25000000000000000, 0.000000000000000000, -6.000000000000000152E-06 ) ) ;
#458 = CC_DESIGN_APPROVAL ( #537, ( #121 ) ) ;
#459 = CARTESIAN_POINT ( 'NONE',  ( -23.75000000000000000, 2.908536147974963319E-15, -6.000000000000000152E-06 ) ) ;
#460 = VERTEX_POINT ( 'NONE', #454 ) ;
#461 = FACE_BOUND ( 'NONE', #517, .T. ) ;
#462 = CARTESIAN_POINT ( 'NONE',  ( -23.75003446425570530, -1.559097219069282225, 0.000000000000000000 ) ) ;
#463 = ORIENTED_EDGE ( 'NONE', *, *, #630, .F. ) ;
#464 = DIRECTION ( 'NONE',  ( -0.000000000000000000, -0.000000000000000000, -1.000000000000000000 ) ) ;
#465 = CARTESIAN_POINT ( 'NONE',  ( -1.250000000000000000, -27.00000000000000000, -6.000000000000000152E-06 ) ) ;
#466 = ORIENTED_EDGE ( 'NONE', *, *, #276, .T. ) ;
#467 = LINE ( 'NONE', #575, #402 ) ;
#468 = EDGE_CURVE ( 'NONE', #460, #162, #398, .T. ) ;
#470 = ORIENTED_EDGE ( 'NONE', *, *, #189, .F. ) ;
#469 = PRODUCT_DEFINITION_SHAPE ( 'NONE', 'NONE',  #121 ) ;
#471 = CARTESIAN_POINT ( 'NONE',  ( -1.250000000000000000, -27.00000000000000000, -6.000000000000000152E-06 ) ) ;
#472 = AXIS2_PLACEMENT_3D ( 'NONE', #642, #386, #383 ) ;
#473 = ORIENTED_EDGE ( 'NONE', *, *, #520, .F. ) ;
#474 = EDGE_CURVE ( 'NONE', #326, #69, #332, .T. ) ;
#475 = PLANE ( 'NONE',  #120 ) ;
#476 = VECTOR ( 'NONE', #199, 1000.000000000000000 ) ;
#477 = ORIENTED_EDGE ( 'NONE', *, *, #276, .F. ) ;
#478 = CALENDAR_DATE ( 2026, 1, 10 ) ;
#479 = CARTESIAN_POINT ( 'NONE',  ( -27.00000000000000000, 0.000000000000000000, 5.000000000000000000 ) ) ;
#480 = CARTESIAN_POINT ( 'NONE',  ( -30.00000000000000000, 0.000000000000000000, 0.000000000000000000 ) ) ;
#481 = CARTESIAN_POINT ( 'NONE',  ( 28.12796115882773051, -0.6400107333291967793, -0.000000000000000000 ) ) ;
#482 = ORIENTED_EDGE ( 'NONE', *, *, #89, .F. ) ;
#483 = APPROVAL_DATE_TIME ( #28, #322 ) ;
#484 = CARTESIAN_POINT ( 'NONE',  ( 23.75000000000000000, 0.000000000000000000, -1.200000000000000030E-05 ) ) ;
#485 = AXIS2_PLACEMENT_3D ( 'NONE', #64, #18, #355 ) ;
#486 = CARTESIAN_POINT ( 'NONE',  ( -27.00000000000000000, 0.000000000000000000, -1.200000000000000030E-05 ) ) ;
#487 = LINE ( 'NONE', #180, #606 ) ;
#488 = FACE_OUTER_BOUND ( 'NONE', #305, .T. ) ;
#489 = PERSON_AND_ORGANIZATION ( #27, #369 ) ;
#490 = CARTESIAN_POINT ( 'NONE',  ( 27.64015573320752495, 1.127816037097994828, -0.000000000000000000 ) ) ;
#491 = B_SPLINE_CURVE_WITH_KNOTS ( 'NONE', 3,
 ( #102, #516, #59, #302, #19, #54, #349, #255, #261, #508 ),
 .UNSPECIFIED., .F., .F.,
 ( 4, 2, 2, 2, 4 ),
 ( 0.000000000000000000, 0.1250000000000000278, 0.2500000000000000000, 0.3750000000000000000, 0.5000000000000000000 ),
 .UNSPECIFIED. ) ;
#492 = CARTESIAN_POINT ( 'NONE',  ( -1.559097219077010710, 23.75003446425571596, -0.000000000000000000 ) ) ;
#493 = ADVANCED_FACE ( 'NONE', ( #506, #97, #394, #242, #391, #297 ), #604, .T. ) ;
#494 = CARTESIAN_POINT ( 'NONE',  ( -28.25000000000000000, 1.530808498934192557E-16, -6.000000000000000152E-06 ) ) ;
#495 = CARTESIAN_POINT ( 'NONE',  ( -22.98945182902393469, 6.162528027381535267, 0.000000000000000000 ) ) ;
#496 = VECTOR ( 'NONE', #247, 1000.000000000000000 ) ;
#497 = DIRECTION ( 'NONE',  ( -0.000000000000000000, -0.000000000000000000, 1.000000000000000000 ) ) ;
#498 = CARTESIAN_POINT ( 'NONE',  ( 10.52913633965822093, 21.34546638114083805, 0.000000000000000000 ) ) ;
#499 = CARTESIAN_POINT ( 'NONE',  ( 0.000000000000000000, 0.000000000000000000, -1.200000000000000030E-05 ) ) ;
#500 = CARTESIAN_POINT ( 'NONE',  ( -11.89843192663314220, 20.61356264149528528, 0.000000000000000000 ) ) ;
#501 = ORIENTED_EDGE ( 'NONE', *, *, #329, .T. ) ;
#502 = CARTESIAN_POINT ( 'NONE',  ( 0.000000000000000000, 27.00000000000000000, -1.200000000000000030E-05 ) ) ;
#503 = DIRECTION ( 'NONE',  ( -0.000000000000000000, -0.000000000000000000, -1.000000000000000000 ) ) ;
#504 = ORIENTED_EDGE ( 'NONE', *, *, #341, .T. ) ;
#505 = VECTOR ( 'NONE', #300, 1000.000000000000000 ) ;
#506 = FACE_BOUND ( 'NONE', #563, .T. ) ;
#507 = UNCERTAINTY_MEASURE_WITH_UNIT (LENGTH_MEASURE( 1.000000000000000082E-05 ), #526, 'distance_accuracy_value', 'NONE');
#508 = CARTESIAN_POINT ( 'NONE',  ( -28.25000000000000000, 1.530808498934192557E-16, -6.000000000000000152E-06 ) ) ;
#509 = ORIENTED_EDGE ( 'NONE', *, *, #311, .T. ) ;
#510 = ADVANCED_FACE ( 'NONE', ( #614 ), #289, .F. ) ;
#511 = CYLINDRICAL_SURFACE ( 'NONE', #549, 1.250000000000000000 ) ;
#512 = CARTESIAN_POINT ( 'NONE',  ( 23.59788346985890684, -3.104088947076870220, -0.000000000000000000 ) ) ;
#513 = ORIENTED_EDGE ( 'NONE', *, *, #311, .F. ) ;
#514 = ADVANCED_FACE ( 'NONE', ( #90 ), #608, .F. ) ;
#515 = FACE_OUTER_BOUND ( 'NONE', #39, .T. ) ;
#516 = CARTESIAN_POINT ( 'NONE',  ( -25.75000000000000355, 0.3449728572327484533, -0.000000000000000000 ) ) ;
#517 = EDGE_LOOP ( 'NONE', ( #509, #184 ) ) ;
#518 = DIRECTION ( 'NONE',  ( -1.000000000000000000, 0.000000000000000000, 0.000000000000000000 ) ) ;
#519 = AXIS2_PLACEMENT_3D ( 'NONE', #502, #497, #550 ) ;
#520 = EDGE_CURVE ( 'NONE', #460, #129, #449, .T. ) ;
#521 = CARTESIAN_POINT ( 'NONE',  ( 23.75000000000000000, 0.000000000000000000, -6.000000000000000152E-06 ) ) ;
#522 = ORIENTED_EDGE ( 'NONE', *, *, #33, .F. ) ;
#523 = FACE_BOUND ( 'NONE', #213, .T. ) ;
#524 = CC_DESIGN_PERSON_AND_ORGANIZATION_ASSIGNMENT ( #176, #77, ( #631 ) ) ;
#525 = ORIENTED_EDGE ( 'NONE', *, *, #229, .T. ) ;
#526 =( LENGTH_UNIT ( ) NAMED_UNIT ( * ) SI_UNIT ( .MILLI., .METRE. ) );
#527 = DIRECTION ( 'NONE',  ( -0.000000000000000000, -0.000000000000000000, 1.000000000000000000 ) ) ;
#528 = PERSON_AND_ORGANIZATION ( #27, #369 ) ;
#529 = AXIS2_PLACEMENT_3D ( 'NONE', #142, #93, #49 ) ;
#530 = EDGE_LOOP ( 'NONE', ( #207, #378 ) ) ;
#531 = APPROVAL_ROLE ( '' ) ;
#532 = EDGE_CURVE ( 'NONE', #73, #281, #194, .T. ) ;
#533 = CARTESIAN_POINT ( 'NONE',  ( 1.250000000000000000, -27.00000000000000000, 5.000000000000000000 ) ) ;
#534 = LOCAL_TIME ( 23, 16, 36.00000000000000000, #279 ) ;
#535 = ORIENTED_EDGE ( 'NONE', *, *, #448, .F. ) ;
#536 = COORDINATED_UNIVERSAL_TIME_OFFSET ( 3, 0, .AHEAD. ) ;
#537 = APPROVAL ( #185, 'UNSPECIFIED' ) ;
#538 = CARTESIAN_POINT ( 'NONE',  ( 25.87238878024209043, -0.6399509158683756027, -0.000000000000000000 ) ) ;
#539 = VERTEX_POINT ( 'NONE', #365 ) ;
#540 = PERSON_AND_ORGANIZATION_ROLE ( 'design_supplier' ) ;
#541 = CARTESIAN_POINT ( 'NONE',  ( -1.249855172270248671, 27.34482790779622263, 0.000000000000000000 ) ) ;
#542 = APPLICATION_CONTEXT ( 'configuration controlled 3d designs of mechanical parts and assemblies' ) ;
#543 = CIRCLE ( 'NONE', #282, 30.00000000000000000 ) ;
#544 = CARTESIAN_POINT ( 'NONE',  ( 1.559097219077010932, 23.74996553574428049, 0.000000000000000000 ) ) ;
#545 = PERSON_AND_ORGANIZATION ( #27, #369 ) ;
#546 = CARTESIAN_POINT ( 'NONE',  ( 25.75014482772932922, 0.3448279077960796912, -0.000000000000000000 ) ) ;
#547 = CC_DESIGN_DATE_AND_TIME_ASSIGNMENT ( #373, #436, ( #121 ) ) ;
#548 = CARTESIAN_POINT ( 'NONE',  ( 22.98951943308408374, 6.162541474703894906, -0.000000000000000000 ) ) ;
#549 = AXIS2_PLACEMENT_3D ( 'NONE', #263, #214, #72 ) ;
#550 = DIRECTION ( 'NONE',  ( 1.000000000000000000, 0.000000000000000000, 0.000000000000000000 ) ) ;
#551 = CARTESIAN_POINT ( 'NONE',  ( 23.75000000000000000, 0.000000000000000000, -6.000000000000000152E-06 ) ) ;
#552 = ADVANCED_FACE ( 'NONE', ( #622 ), #173, .T. ) ;
#553 = CARTESIAN_POINT ( 'NONE',  ( 27.00000000000000000, 0.000000000000000000, -1.200000000000000030E-05 ) ) ;
#554 = CARTESIAN_POINT ( 'NONE',  ( 15.69136220700256423, 17.89625863918641357, -0.000000000000000000 ) ) ;
#555 = LINE ( 'NONE', #294, #476 ) ;
#556 = CARTESIAN_POINT ( 'NONE',  ( -22.53881141313160086, 7.648326697718727196, -0.000000000000000000 ) ) ;
#557 = CARTESIAN_POINT ( 'NONE',  ( -30.00000000000000000, 0.000000000000000000, 5.000000000000000000 ) ) ;
#558 = CARTESIAN_POINT ( 'NONE',  ( -17.89620989939476203, -15.69131346714857145, 0.000000000000000000 ) ) ;
#559 = EDGE_LOOP ( 'NONE', ( #256, #80, #17, #201 ) ) ;
#560 = DIRECTION ( 'NONE',  ( 1.000000000000000000, 0.000000000000000000, 0.000000000000000000 ) ) ;
#561 = CARTESIAN_POINT ( 'NONE',  ( 10.52916271745721843, -21.34553006277995379, -0.000000000000000000 ) ) ;
#562 = ADVANCED_FACE ( 'NONE', ( #67 ), #511, .F. ) ;
#563 = EDGE_LOOP ( 'NONE', ( #57, #217 ) ) ;
#564 = AXIS2_PLACEMENT_3D ( 'NONE', #427, #280, #590 ) ;
#565 = CARTESIAN_POINT ( 'NONE',  ( 3.104248821041755146, -23.59778138607498832, 0.000000000000000000 ) ) ;
#566 = ORIENTED_EDGE ( 'NONE', *, *, #468, .F. ) ;
#567 = CARTESIAN_POINT ( 'NONE',  ( 28.25000000000000000, 0.000000000000000000, 5.000000000000000000 ) ) ;
#568 = LOCAL_TIME ( 23, 16, 36.00000000000000000, #370 ) ;
#569 = CARTESIAN_POINT ( 'NONE',  ( -0.6401557332085967555, 25.87218396290271372, -0.000000000000000000 ) ) ;
#570 = ORIENTED_EDGE ( 'NONE', *, *, #400, .T. ) ;
#571 = FACE_BOUND ( 'NONE', #450, .T. ) ;
#572 = EDGE_CURVE ( 'NONE', #129, #20, #467, .T. ) ;
#573 = CARTESIAN_POINT ( 'NONE',  ( -22.98951943308605195, -6.162541474696564769, -0.000000000000000000 ) ) ;
#574 = ORIENTED_EDGE ( 'NONE', *, *, #380, .F. ) ;
#575 = CARTESIAN_POINT ( 'NONE',  ( -25.75000000000000000, 0.000000000000000000, -1.200000000000000030E-05 ) ) ;
#576 = AXIS2_PLACEMENT_3D ( 'NONE', #254, #406, #560 ) ;
#577 = VERTEX_POINT ( 'NONE', #257 ) ;
#578 = CYLINDRICAL_SURFACE ( 'NONE', #206, 1.250000000000000000 ) ;
#579 = CC_DESIGN_APPROVAL ( #322, ( #631 ) ) ;
#580 = DIRECTION ( 'NONE',  ( -0.000000000000000000, -0.000000000000000000, 1.000000000000000000 ) ) ;
#581 = CALENDAR_DATE ( 2026, 1, 10 ) ;
#582 = DIRECTION ( 'NONE',  ( 1.000000000000000000, 0.000000000000000000, 0.000000000000000000 ) ) ;
#583 = DIRECTION ( 'NONE',  ( 1.000000000000000000, 0.000000000000000000, 0.000000000000000000 ) ) ;
#584 = AXIS2_PLACEMENT_3D ( 'NONE', #47, #241, #238 ) ;
#585 = CARTESIAN_POINT ( 'NONE',  ( -27.00000000000000000, 0.000000000000000000, 5.000000000000000000 ) ) ;
#586 = PERSON_AND_ORGANIZATION_ROLE ( 'design_owner' ) ;
#587 = CARTESIAN_POINT ( 'NONE',  ( 25.75000000000000000, 1.530808498934192557E-16, -6.000000000000000152E-06 ) ) ;
#588 = ORIENTED_EDGE ( 'NONE', *, *, #520, .T. ) ;
#589 = DATE_AND_TIME ( #478, #534 ) ;
#590 = DIRECTION ( 'NONE',  ( 1.000000000000000000, 0.000000000000000000, 0.000000000000000000 ) ) ;
#591 = VECTOR ( 'NONE', #140, 1000.000000000000000 ) ;
#592 = FACE_OUTER_BOUND ( 'NONE', #63, .T. ) ;
#593 = PERSON_AND_ORGANIZATION ( #27, #369 ) ;
#594 = DIRECTION ( 'NONE',  ( 1.000000000000000000, 0.000000000000000000, 0.000000000000000000 ) ) ;
#595 = ADVANCED_FACE ( 'NONE', ( #315, #523, #461, #571, #627, #269 ), #475, .F. ) ;
#596 = CIRCLE ( 'NONE', #453, 30.00000000000000000 ) ;
#597 = FACE_OUTER_BOUND ( 'NONE', #26, .T. ) ;
#598 = LINE ( 'NONE', #484, #321 ) ;
#599 = DIRECTION ( 'NONE',  ( 1.000000000000000000, 0.000000000000000000, 0.000000000000000000 ) ) ;
#600 = DIRECTION ( 'NONE',  ( -0.000000000000000000, -0.000000000000000000, 1.000000000000000000 ) ) ;
#601 = AXIS2_PLACEMENT_3D ( 'NONE', #122, #274, #181 ) ;
#602 = CARTESIAN_POINT ( 'NONE',  ( 1.250000000000000000, 27.00000000000000000, -6.000000000000000152E-06 ) ) ;
#603 = VERTEX_POINT ( 'NONE', #163 ) ;
#604 = PLANE ( 'NONE',  #127 ) ;
#605 = CARTESIAN_POINT ( 'NONE',  ( -21.34546638115453021, 10.52913633962304196, 0.000000000000000000 ) ) ;
#606 = VECTOR ( 'NONE', #388, 1000.000000000000000 ) ;
#607 = VERTEX_POINT ( 'NONE', #167 ) ;
#608 = CYLINDRICAL_SURFACE ( 'NONE', #225, 23.75000000000000000 ) ;
#609 = CARTESIAN_POINT ( 'NONE',  ( -1.559097219079737640, -23.74996553574428049, 0.000000000000000000 ) ) ;
#610 = CARTESIAN_POINT ( 'NONE',  ( 28.25000000000000000, 0.000000000000000000, -1.200000000000000030E-05 ) ) ;
#611 = CARTESIAN_POINT ( 'NONE',  ( 0.6401557332083827045, -25.87218396290271372, -0.000000000000000000 ) ) ;
#612 = CIRCLE ( 'NONE', #362, 1.250000000000001110 ) ;
#613 = ORIENTED_EDGE ( 'NONE', *, *, #229, .F. ) ;
#614 = FACE_OUTER_BOUND ( 'NONE', #621, .T. ) ;
#615 = CARTESIAN_POINT ( 'NONE',  ( -10.52913633966512741, -21.34546638114099437, 0.000000000000000000 ) ) ;
#616 = EDGE_LOOP ( 'NONE', ( #628, #71 ) ) ;
#617 = VECTOR ( 'NONE', #101, 1000.000000000000000 ) ;
#618 = CARTESIAN_POINT ( 'NONE',  ( -0.6401557332085967555, -28.12781603709727918, -0.000000000000000000 ) ) ;
#619 = CARTESIAN_POINT ( 'NONE',  ( -23.59778138606739617, -3.104248821069532038, -0.000000000000000000 ) ) ;
#620 = ADVANCED_FACE ( 'NONE', ( #515 ), #226, .T. ) ;
#621 = EDGE_LOOP ( 'NONE', ( #11, #175, #221, #574 ) ) ;
#622 = FACE_OUTER_BOUND ( 'NONE', #116, .T. ) ;
#623 = CARTESIAN_POINT ( 'NONE',  ( 18.88118663090195071, -14.49111584719620538, 0.000000000000000000 ) ) ;
#624 = VERTEX_POINT ( 'NONE', #567 ) ;
#625 = DIRECTION ( 'NONE',  ( 1.000000000000000000, 0.000000000000000000, 0.000000000000000000 ) ) ;
#626 = ORIENTED_EDGE ( 'NONE', *, *, #78, .T. ) ;
#627 = FACE_BOUND ( 'NONE', #66, .T. ) ;
#628 = ORIENTED_EDGE ( 'NONE', *, *, #400, .F. ) ;
#629 = DIRECTION ( 'NONE',  ( 0.000000000000000000, 0.000000000000000000, 1.000000000000000000 ) ) ;
#630 = EDGE_CURVE ( 'NONE', #171, #104, #358, .T. ) ;
#631 = SECURITY_CLASSIFICATION ( '', '', #182 ) ;
#632 = CYLINDRICAL_SURFACE ( 'NONE', #634, 1.250000000000001110 ) ;
#633 = DIRECTION ( 'NONE',  ( 1.000000000000000000, 0.000000000000000000, 0.000000000000000000 ) ) ;
#634 = AXIS2_PLACEMENT_3D ( 'NONE', #486, #527, #582 ) ;
#635 = CARTESIAN_POINT ( 'NONE',  ( -1.249855172270248671, -26.65517209220378092, 0.000000000000000000 ) ) ;
#636 = CARTESIAN_POINT ( 'NONE',  ( -1.250000000000000000, -27.00000000000000000, 5.000000000000000000 ) ) ;
#637 = CARTESIAN_POINT ( 'NONE',  ( 0.000000000000000000, 0.000000000000000000, 0.000000000000000000 ) ) ;
#638 = FACE_OUTER_BOUND ( 'NONE', #252, .T. ) ;
#639 = ORIENTED_EDGE ( 'NONE', *, *, #432, .T. ) ;
#640 = APPROVAL_STATUS ( 'not_yet_approved' ) ;
#641 = CARTESIAN_POINT ( 'NONE',  ( 28.25000000000000355, 0.3449728572327484533, -0.000000000000000000 ) ) ;
#642 = CARTESIAN_POINT ( 'NONE',  ( 0.000000000000000000, 27.00000000000000000, 5.000000000000000000 ) ) ;
#643 = DIRECTION ( 'NONE',  ( 0.000000000000000000, 0.000000000000000000, 1.000000000000000000 ) ) ;
#644 = CC_DESIGN_DATE_AND_TIME_ASSIGNMENT ( #376, #124, ( #631 ) ) ;
#645 = CARTESIAN_POINT ( 'NONE',  ( -0.6399509158683747145, -25.87238878024229649, 0.000000000000000000 ) ) ;
#646 = CARTESIAN_POINT ( 'NONE',  ( -15.69131346715379394, 17.89620989938953954, 0.000000000000000000 ) ) ;
#647 = B_SPLINE_CURVE_WITH_KNOTS ( 'NONE', 3,
 ( #251, #205, #404, #611, #158, #437, #645, #228, #635, #335 ),
 .UNSPECIFIED., .F., .F.,
 ( 4, 2, 2, 2, 4 ),
 ( 0.000000000000000000, 0.1250000000000000000, 0.2500000000000000000, 0.3750000000000000000, 0.5000000000000000000 ),
 .UNSPECIFIED. ) ;
#648 = DIRECTION ( 'NONE',  ( 1.000000000000000000, 0.000000000000000000, 0.000000000000000000 ) ) ;
#649 = CARTESIAN_POINT ( 'NONE',  ( 14.49111584716389700, 18.88118663091835359, 0.000000000000000000 ) ) ;
#650 = DIRECTION ( 'NONE',  ( 0.000000000000000000, 0.000000000000000000, 1.000000000000000000 ) ) ;
#651 = ADVANCED_FACE ( 'NONE', ( #223 ), #578, .F. ) ;
#652 = CYLINDRICAL_SURFACE ( 'NONE', #103, 1.250000000000001110 ) ;
#653 = LOCAL_TIME ( 23, 16, 36.00000000000000000, #536 ) ;
ENDSEC;
END-ISO-10303-21;
