ISO-10303-21;
HEADER;
FILE_DESCRIPTION (( 'STEP AP203' ),
    '1' );
FILE_NAME ('11_predplechye_levoe.step',
    '2026-10-01T20:18:30',
    ( '' ),
    ( '' ),
    'SwSTEP 2.0',
    'SolidWorks 2026',
    '' );
FILE_SCHEMA (( 'CONFIG_CONTROL_DESIGN' ));
ENDSEC;

DATA;
#1 = DIRECTION ( 'NONE',  ( -1.000000000000000000, 0.000000000000000000, 0.000000000000000000 ) ) ;
#2 = PRODUCT ( '11_predplechye_levoe', '11_predplechye_levoe', '', ( #231 ) ) ;
#3 = CARTESIAN_POINT ( 'NONE',  ( 66.67885295138451340, -1.012207030200199753, 0.000000000000000000 ) ) ;
#4 = VECTOR ( 'NONE', #95, 1000.000000000000000 ) ;
#5 = CARTESIAN_POINT ( 'NONE',  ( 44.00000000000000000, 0.000000000000000000, 0.000000000000000000 ) ) ;
#6 = ORIENTED_EDGE ( 'NONE', *, *, #265, .T. ) ;
#7 = DIRECTION ( 'NONE',  ( 1.000000000000000000, 0.000000000000000000, 0.000000000000000000 ) ) ;
#8 = CARTESIAN_POINT ( 'NONE',  ( 85.33085996509566939, -14.29619825512816966, 3.000000000000000000 ) ) ;
#9 = ADVANCED_FACE ( 'NONE', ( #346 ), #719, .F. ) ;
#10 = LINE ( 'NONE', #354, #1148 ) ;
#11 = CARTESIAN_POINT ( 'NONE',  ( 68.00000000000000000, 0.000000000000000000, -1.200000000000000030E-05 ) ) ;
#12 = ORIENTED_EDGE ( 'NONE', *, *, #494, .F. ) ;
#13 = EDGE_CURVE ( 'NONE', #895, #804, #831, .T. ) ;
#14 = DIRECTION ( 'NONE',  ( -1.000000000000000000, 0.000000000000000000, 0.000000000000000000 ) ) ;
#15 = CARTESIAN_POINT ( 'NONE',  ( 69.01230532930010497, 1.321245347715401364, -0.000000000000000000 ) ) ;
#16 = DIRECTION ( 'NONE',  ( -1.000000000000000000, 0.000000000000000000, 0.000000000000000000 ) ) ;
#17 = ORIENTED_EDGE ( 'NONE', *, *, #365, .T. ) ;
#18 = LOCAL_TIME ( 23, 18, 30.00000000000000000, #343 ) ;
#19 = CARTESIAN_POINT ( 'NONE',  ( 0.000000000000000000, 0.000000000000000000, -1.200000000000000030E-05 ) ) ;
#20 = DIRECTION ( 'NONE',  ( -0.01999910833082476844, 0.9997999978325524673, 0.000000000000000000 ) ) ;
#21 = CARTESIAN_POINT ( 'NONE',  ( -1.440866879057834504, -0.8332790561507706917, -0.000000000000000000 ) ) ;
#22 = ORIENTED_EDGE ( 'NONE', *, *, #299, .T. ) ;
#23 = CC_DESIGN_PERSON_AND_ORGANIZATION_ASSIGNMENT ( #983, #620, ( #1121 ) ) ;
#24 = CARTESIAN_POINT ( 'NONE',  ( 67.16672094384475145, 1.440866879050428651, -0.000000000000000000 ) ) ;
#25 = DIRECTION ( 'NONE',  ( -0.000000000000000000, -0.000000000000000000, 1.000000000000000000 ) ) ;
#26 = EDGE_LOOP ( 'NONE', ( #969, #902, #110, #69 ) ) ;
#27 = DIRECTION ( 'NONE',  ( -1.000000000000000000, 0.000000000000000000, 0.000000000000000000 ) ) ;
#28 = FACE_BOUND ( 'NONE', #1161, .T. ) ;
#29 = EDGE_CURVE ( 'NONE', #341, #261, #61, .T. ) ;
#30 = FACE_OUTER_BOUND ( 'NONE', #138, .T. ) ;
#31 = EDGE_LOOP ( 'NONE', ( #143, #241, #401, #67 ) ) ;
#32 = LINE ( 'NONE', #402, #278 ) ;
#33 = DIRECTION ( 'NONE',  ( 0.000000000000000000, 0.000000000000000000, 1.000000000000000000 ) ) ;
#34 = CARTESIAN_POINT ( 'NONE',  ( 69.65000000000000568, 0.000000000000000000, -1.200000000000000030E-05 ) ) ;
#35 = AXIS2_PLACEMENT_3D ( 'NONE', #1195, #823, #366 ) ;
#36 = ORIENTED_EDGE ( 'NONE', *, *, #29, .F. ) ;
#37 = AXIS2_PLACEMENT_3D ( 'NONE', #537, #910, #551 ) ;
#38 = CARTESIAN_POINT ( 'NONE',  ( 83.00000000000000000, -6.299999999999999822, 3.000000000000000000 ) ) ;
#39 = EDGE_CURVE ( 'NONE', #1147, #932, #629, .T. ) ;
#40 = DIRECTION ( 'NONE',  ( 1.000000000000000000, 0.000000000000000000, 0.000000000000000000 ) ) ;
#41 = APPROVAL ( #338, 'UNSPECIFIED' ) ;
#42 = EDGE_LOOP ( 'NONE', ( #682, #887, #475, #1060 ) ) ;
#43 = AXIS2_PLACEMENT_3D ( 'NONE', #1068, #1158, #232 ) ;
#44 = ORIENTED_EDGE ( 'NONE', *, *, #1102, .F. ) ;
#45 = EDGE_CURVE ( 'NONE', #1165, #75, #995, .T. ) ;
#46 = CARTESIAN_POINT ( 'NONE',  ( 0.000000000000000000, 0.000000000000000000, 3.000000000000000000 ) ) ;
#47 = PERSON_AND_ORGANIZATION ( #1061, #947 ) ;
#48 = CARTESIAN_POINT ( 'NONE',  ( 108.1965934567229795, 1.100144807671713965, -0.000000000000000000 ) ) ;
#49 = VERTEX_POINT ( 'NONE', #183 ) ;
#50 = ORIENTED_EDGE ( 'NONE', *, *, #780, .T. ) ;
#51 = DIRECTION ( 'NONE',  ( -1.000000000000000000, 0.000000000000000000, 0.000000000000000000 ) ) ;
#52 = LINE ( 'NONE', #422, #1201 ) ;
#53 = EDGE_LOOP ( 'NONE', ( #597, #335, #1037, #1153 ) ) ;
#54 = AXIS2_PLACEMENT_3D ( 'NONE', #1190, #1093, #270 ) ;
#55 = VERTEX_POINT ( 'NONE', #380 ) ;
#56 = CC_DESIGN_PERSON_AND_ORGANIZATION_ASSIGNMENT ( #47, #415, ( #2 ) ) ;
#57 = PLANE ( 'NONE',  #660 ) ;
#58 = AXIS2_PLACEMENT_3D ( 'NONE', #5, #1186, #987 ) ;
#59 = DIRECTION ( 'NONE',  ( 1.000000000000000000, 0.000000000000000000, 0.000000000000000000 ) ) ;
#60 = VERTEX_POINT ( 'NONE', #266 ) ;
#61 = B_SPLINE_CURVE_WITH_KNOTS ( 'NONE', 3,
 ( #930, #547, #1197, #1001, #3, #635, #169, #918, #541, #367, #99, #906, #443, #553, #913, #923, #737, #1101 ),
 .UNSPECIFIED., .F., .F.,
 ( 4, 2, 2, 2, 2, 2, 2, 2, 4 ),
 ( 0.5000000000000000000, 0.5625000000000000000, 0.6250000000000000000, 0.6875000000000000000, 0.7500000000000000000, 0.8125000000000000000, 0.8750000000000000000, 0.9375000000000000000, 1.000000000000000000 ),
 .UNSPECIFIED. ) ;
#62 = ORIENTED_EDGE ( 'NONE', *, *, #375, .F. ) ;
#63 = CARTESIAN_POINT ( 'NONE',  ( 36.01230532930215844, 1.321245347713347229, -0.000000000000000000 ) ) ;
#64 = CALENDAR_DATE ( 2026, 1, 10 ) ;
#65 = LINE ( 'NONE', #359, #542 ) ;
#66 = EDGE_CURVE ( 'NONE', #800, #702, #704, .T. ) ;
#67 = ORIENTED_EDGE ( 'NONE', *, *, #83, .T. ) ;
#68 = LINE ( 'NONE', #647, #596 ) ;
#69 = ORIENTED_EDGE ( 'NONE', *, *, #587, .T. ) ;
#70 = DIRECTION ( 'NONE',  ( 0.000000000000000000, -0.000000000000000000, 1.000000000000000000 ) ) ;
#71 = COORDINATED_UNIVERSAL_TIME_OFFSET ( 3, 0, .AHEAD. ) ;
#72 = CYLINDRICAL_SURFACE ( 'NONE', #981, 15.99999690409969944 ) ;
#73 = DIRECTION ( 'NONE',  ( -0.000000000000000000, -0.000000000000000000, -1.000000000000000000 ) ) ;
#74 = CARTESIAN_POINT ( 'NONE',  ( 106.2000000000000028, -6.299999999999999822, 3.000000000000000000 ) ) ;
#75 = VERTEX_POINT ( 'NONE', #1012 ) ;
#76 = AXIS2_PLACEMENT_3D ( 'NONE', #258, #264, #639 ) ;
#77 = CARTESIAN_POINT ( 'NONE',  ( 35.42962946973272409, 1.608064012194506232, -0.000000000000000000 ) ) ;
#78 = APPROVAL_DATE_TIME ( #710, #41 ) ;
#79 = CYLINDRICAL_SURFACE ( 'NONE', #308, 3.000000000000002665 ) ;
#80 = CARTESIAN_POINT ( 'NONE',  ( 48.99999972930055492, -149.4999991326300233, 0.000000000000000000 ) ) ;
#81 = DIRECTION ( 'NONE',  ( -0.000000000000000000, -0.000000000000000000, -1.000000000000000000 ) ) ;
#82 = ORIENTED_EDGE ( 'NONE', *, *, #641, .T. ) ;
#83 = EDGE_CURVE ( 'NONE', #840, #1066, #825, .T. ) ;
#84 = DIRECTION ( 'NONE',  ( 1.000000000000000000, 0.000000000000000000, 0.000000000000000000 ) ) ;
#85 = VECTOR ( 'NONE', #279, 1000.000000000000114 ) ;
#86 = CARTESIAN_POINT ( 'NONE',  ( 85.33085996509566939, -14.29619825512816966, 3.000000000000000000 ) ) ;
#87 = DIRECTION ( 'NONE',  ( 0.000000000000000000, 0.000000000000000000, 1.000000000000000000 ) ) ;
#88 = CYLINDRICAL_SURFACE ( 'NONE', #480, 3.000000000000002665 ) ;
#89 = ORIENTED_EDGE ( 'NONE', *, *, #387, .F. ) ;
#90 = CARTESIAN_POINT ( 'NONE',  ( 33.39193598780692440, 0.4296294697460623091, -0.000000000000000000 ) ) ;
#91 = DIRECTION ( 'NONE',  ( 0.9997999978325524673, 0.01999910833082476844, -0.000000000000000000 ) ) ;
#92 = CARTESIAN_POINT ( 'NONE',  ( 0.2792399999999999882, 15.99756000000000178, 0.000000000000000000 ) ) ;
#93 = CARTESIAN_POINT ( 'NONE',  ( 99.99990002037723968, 0.000000000000000000, 3.000000000000000000 ) ) ;
#94 = EDGE_LOOP ( 'NONE', ( #677, #753, #114, #974 ) ) ;
#95 = DIRECTION ( 'NONE',  ( -0.000000000000000000, -0.000000000000000000, -1.000000000000000000 ) ) ;
#96 = AXIS2_PLACEMENT_3D ( 'NONE', #307, #769, #678 ) ;
#97 = CARTESIAN_POINT ( 'NONE',  ( 66.35006950795943226, 0.2184535819870954965, -0.000000000000000000 ) ) ;
#98 = EDGE_CURVE ( 'NONE', #767, #349, #488, .T. ) ;
#99 = CARTESIAN_POINT ( 'NONE',  ( 68.42957627064950543, -1.607935578236796559, 0.000000000000000000 ) ) ;
#100 = ORIENTED_EDGE ( 'NONE', *, *, #675, .T. ) ;
#101 = DIRECTION ( 'NONE',  ( -1.000000000000000000, 0.000000000000000000, 0.000000000000000000 ) ) ;
#102 = CARTESIAN_POINT ( 'NONE',  ( 67.78154641799602587, 1.650069507959410098, -0.000000000000000000 ) ) ;
#103 = AXIS2_PLACEMENT_3D ( 'NONE', #1040, #495, #572 ) ;
#104 = LINE ( 'NONE', #491, #971 ) ;
#105 = ORIENTED_EDGE ( 'NONE', *, *, #311, .F. ) ;
#106 = CC_DESIGN_APPROVAL ( #616, ( #1121 ) ) ;
#107 = PLANE ( 'NONE',  #819 ) ;
#108 = CARTESIAN_POINT ( 'NONE',  ( 68.83322585707495023, 1.440738445092718534, 0.000000000000000000 ) ) ;
#109 = DIRECTION ( 'NONE',  ( -0.000000000000000000, -0.000000000000000000, 1.000000000000000000 ) ) ;
#110 = ORIENTED_EDGE ( 'NONE', *, *, #567, .T. ) ;
#111 =( GEOMETRIC_REPRESENTATION_CONTEXT ( 3 ) GLOBAL_UNCERTAINTY_ASSIGNED_CONTEXT ( ( #368 ) ) GLOBAL_UNIT_ASSIGNED_CONTEXT ( ( #770, #218, #134 ) ) REPRESENTATION_CONTEXT ( 'NONE', 'WORKASPACE' ) );
#112 = DIRECTION ( 'NONE',  ( 0.000000000000000000, 0.000000000000000000, 1.000000000000000000 ) ) ;
#113 = CARTESIAN_POINT ( 'NONE',  ( -0.2184535819885294883, -1.649930492034814344, 0.000000000000000000 ) ) ;
#114 = ORIENTED_EDGE ( 'NONE', *, *, #929, .T. ) ;
#115 = EDGE_CURVE ( 'NONE', #1085, #573, #449, .T. ) ;
#116 = DIRECTION ( 'NONE',  ( -1.000000000000000000, 0.000000000000000000, 0.000000000000000000 ) ) ;
#117 = CYLINDRICAL_SURFACE ( 'NONE', #991, 1.649999999999998579 ) ;
#118 = VECTOR ( 'NONE', #73, 1000.000000000000000 ) ;
#119 = ORIENTED_EDGE ( 'NONE', *, *, #487, .F. ) ;
#120 = DIRECTION ( 'NONE',  ( 1.000000000000000000, 0.000000000000000000, 0.000000000000000000 ) ) ;
#121 = CARTESIAN_POINT ( 'NONE',  ( 108.8034065432770063, -1.100144807671713520, -0.000000000000000000 ) ) ;
#122 = VERTEX_POINT ( 'NONE', #744 ) ;
#123 = EDGE_CURVE ( 'NONE', #747, #1165, #1110, .T. ) ;
#124 = DIRECTION ( 'NONE',  ( 0.000000000000000000, -1.000000000000000000, 0.000000000000000000 ) ) ;
#125 = CYLINDRICAL_SURFACE ( 'NONE', #271, 1.649999999999998579 ) ;
#126 = CARTESIAN_POINT ( 'NONE',  ( 1.649999999999999023, -0.2189853885585420767, -0.000000000000000000 ) ) ;
#127 = AXIS2_PLACEMENT_3D ( 'NONE', #244, #511, #886 ) ;
#128 = EDGE_CURVE ( 'NONE', #573, #767, #652, .T. ) ;
#129 = ORIENTED_EDGE ( 'NONE', *, *, #141, .F. ) ;
#130 = EDGE_LOOP ( 'NONE', ( #397, #458, #997, #613 ) ) ;
#131 = B_SPLINE_CURVE_WITH_KNOTS ( 'NONE', 3,
 ( #438, #548, #1008, #457, #280, #924, #464, #1111, #720, #1084, #260, #653, #1047, #847, #1145, #309, #776, #322 ),
 .UNSPECIFIED., .F., .F.,
 ( 4, 2, 2, 2, 2, 2, 2, 2, 4 ),
 ( 0.000000000000000000, 0.06250000000000000000, 0.1250000000000000000, 0.1875000000000000000, 0.2500000000000000000, 0.3125000000000000000, 0.3750000000000000000, 0.4375000000000000000, 0.5000000000000000000 ),
 .UNSPECIFIED. ) ;
#132 = VECTOR ( 'NONE', #939, 1000.000000000000000 ) ;
#133 = FACE_OUTER_BOUND ( 'NONE', #430, .T. ) ;
#134 =( NAMED_UNIT ( * ) SI_UNIT ( $, .STERADIAN. ) SOLID_ANGLE_UNIT ( ) );
#135 = CARTESIAN_POINT ( 'NONE',  ( 0.2792399999999999882, 15.99756000000000178, 3.000000000000000000 ) ) ;
#136 = VERTEX_POINT ( 'NONE', #1006 ) ;
#137 = CIRCLE ( 'NONE', #43, 139.9999970614144047 ) ;
#138 = EDGE_LOOP ( 'NONE', ( #526, #792, #549, #694 ) ) ;
#139 = CARTESIAN_POINT ( 'NONE',  ( 81.00340654327703760, 1.099855192328266229, 0.000000000000000000 ) ) ;
#140 = CARTESIAN_POINT ( 'NONE',  ( 66.35000000000000853, 1.010333609296565391E-16, -6.000000000000000152E-06 ) ) ;
#141 = EDGE_CURVE ( 'NONE', #418, #1147, #470, .T. ) ;
#142 = VERTEX_POINT ( 'NONE', #456 ) ;
#143 = ORIENTED_EDGE ( 'NONE', *, *, #994, .F. ) ;
#144 = DIRECTION ( 'NONE',  ( -0.9997999978325524673, 0.01999910833082476844, -0.000000000000000000 ) ) ;
#145 = PERSON_AND_ORGANIZATION ( #1061, #947 ) ;
#146 = CYLINDRICAL_SURFACE ( 'NONE', #173, 139.9999970614144047 ) ;
#147 = ORIENTED_EDGE ( 'NONE', *, *, #731, .F. ) ;
#148 = CIRCLE ( 'NONE', #35, 139.9999970614144047 ) ;
#149 = VERTEX_POINT ( 'NONE', #816 ) ;
#150 = CARTESIAN_POINT ( 'NONE',  ( 106.2000000000000028, 6.299999999999999822, 0.000000000000000000 ) ) ;
#151 = EDGE_CURVE ( 'NONE', #1075, #418, #188, .T. ) ;
#152 = DATE_TIME_ROLE ( 'classification_date' ) ;
#153 = CARTESIAN_POINT ( 'NONE',  ( 1.012207030210257042, -1.321147048604013774, 0.000000000000000000 ) ) ;
#154 = ORIENTED_EDGE ( 'NONE', *, *, #954, .T. ) ;
#155 = DIRECTION ( 'NONE',  ( -0.000000000000000000, -0.000000000000000000, 1.000000000000000000 ) ) ;
#156 = EDGE_LOOP ( 'NONE', ( #1070, #643, #207, #274 ) ) ;
#157 = AXIS2_PLACEMENT_3D ( 'NONE', #751, #756, #1116 ) ;
#158 = CARTESIAN_POINT ( 'NONE',  ( 35.83322585707208674, 1.440738445092719200, 0.000000000000000000 ) ) ;
#159 = DATE_TIME_ROLE ( 'creation_date' ) ;
#160 = CARTESIAN_POINT ( 'NONE',  ( 83.00000000000000000, 6.299999999999999822, 3.000000000000000000 ) ) ;
#161 = LOCAL_TIME ( 23, 18, 30.00000000000000000, #1181 ) ;
#162 = CARTESIAN_POINT ( 'NONE',  ( 80.70000000000000284, 0.000000000000000000, 3.000000000000000000 ) ) ;
#163 = DIRECTION ( 'NONE',  ( -0.01999910833082476844, -0.9997999978325524673, 0.000000000000000000 ) ) ;
#164 = ORIENTED_EDGE ( 'NONE', *, *, #39, .F. ) ;
#165 = LINE ( 'NONE', #729, #1045 ) ;
#166 = EDGE_CURVE ( 'NONE', #932, #833, #10, .T. ) ;
#167 = COORDINATED_UNIVERSAL_TIME_OFFSET ( 3, 0, .AHEAD. ) ;
#168 = CARTESIAN_POINT ( 'NONE',  ( 80.13662097041309096, -0.9924606780058002897, -0.000000000000000000 ) ) ;
#169 = CARTESIAN_POINT ( 'NONE',  ( 67.16677414292504977, -1.440738445092718534, 0.000000000000000000 ) ) ;
#170 = ADVANCED_FACE ( 'NONE', ( #761 ), #1138, .F. ) ;
#171 = DIRECTION ( 'NONE',  ( -1.000000000000000000, 0.000000000000000000, 0.000000000000000000 ) ) ;
#172 = ORIENTED_EDGE ( 'NONE', *, *, #567, .F. ) ;
#173 = AXIS2_PLACEMENT_3D ( 'NONE', #797, #880, #1163 ) ;
#174 = CARTESIAN_POINT ( 'NONE',  ( 35.21845358200107512, 1.649930492040559749, 0.000000000000000000 ) ) ;
#175 = CARTESIAN_POINT ( 'NONE',  ( 33.67885295138654556, -1.012207030202253666, 0.000000000000000000 ) ) ;
#176 = AXIS2_PLACEMENT_3D ( 'NONE', #46, #1051, #51 ) ;
#177 = CARTESIAN_POINT ( 'NONE',  ( 106.2000000000000028, 6.299999999999999822, 3.000000000000000000 ) ) ;
#178 = FACE_OUTER_BOUND ( 'NONE', #305, .T. ) ;
#179 = ORIENTED_EDGE ( 'NONE', *, *, #550, .T. ) ;
#180 = CARTESIAN_POINT ( 'NONE',  ( 40.99999999999999289, 0.000000000000000000, 3.000000000000000000 ) ) ;
#181 = AXIS2_PLACEMENT_3D ( 'NONE', #162, #87, #1094 ) ;
#182 = CARTESIAN_POINT ( 'NONE',  ( 36.32124534770534297, -1.012305329311587565, -0.000000000000000000 ) ) ;
#183 = CARTESIAN_POINT ( 'NONE',  ( 69.65000000000000568, 0.000000000000000000, 3.000000000000000000 ) ) ;
#184 = CARTESIAN_POINT ( 'NONE',  ( 79.60000000000000853, 1.347111479062092941E-16, -1.200000000000000030E-05 ) ) ;
#185 = ORIENTED_EDGE ( 'NONE', *, *, #892, .T. ) ;
#186 = DIRECTION ( 'NONE',  ( 0.000000000000000000, 0.000000000000000000, 1.000000000000000000 ) ) ;
#187 = CARTESIAN_POINT ( 'NONE',  ( 69.65000000000000568, 0.000000000000000000, -6.000000000000000152E-06 ) ) ;
#188 = LINE ( 'NONE', #844, #826 ) ;
#189 = CARTESIAN_POINT ( 'NONE',  ( -1.649999999999999245, 1.010333609296566131E-16, -6.000000000000000152E-06 ) ) ;
#190 = ORIENTED_EDGE ( 'NONE', *, *, #345, .F. ) ;
#191 = FACE_OUTER_BOUND ( 'NONE', #234, .T. ) ;
#192 = AXIS2_PLACEMENT_3D ( 'NONE', #1046, #20, #392 ) ;
#193 = CARTESIAN_POINT ( 'NONE',  ( 68.42962946972983218, 1.608064012194506232, -0.000000000000000000 ) ) ;
#194 = FACE_OUTER_BOUND ( 'NONE', #915, .T. ) ;
#195 = AXIS2_PLACEMENT_3D ( 'NONE', #447, #358, #1092 ) ;
#196 = EDGE_LOOP ( 'NONE', ( #216, #519 ) ) ;
#197 = CARTESIAN_POINT ( 'NONE',  ( 44.00000000000000000, -3.000000000000000000, 0.000000000000000000 ) ) ;
#198 = EDGE_CURVE ( 'NONE', #60, #136, #396, .T. ) ;
#199 = AXIS2_PLACEMENT_3D ( 'NONE', #558, #1089, #1083 ) ;
#200 = CARTESIAN_POINT ( 'NONE',  ( 66.98779296978376863, 1.321147048596611917, 0.000000000000000000 ) ) ;
#201 = VECTOR ( 'NONE', #663, 1000.000000000000000 ) ;
#202 = CARTESIAN_POINT ( 'NONE',  ( 107.5077441109765175, -0.5631742406045820992, 0.000000000000000000 ) ) ;
#203 = ORIENTED_EDGE ( 'NONE', *, *, #334, .F. ) ;
#204 = SECURITY_CLASSIFICATION ( '', '', #515 ) ;
#205 = LINE ( 'NONE', #856, #717 ) ;
#206 = CARTESIAN_POINT ( 'NONE',  ( -1.649999999999999245, 1.010333609296566131E-16, -6.000000000000000152E-06 ) ) ;
#207 = ORIENTED_EDGE ( 'NONE', *, *, #1154, .T. ) ;
#208 = ADVANCED_FACE ( 'NONE', ( #30 ), #303, .F. ) ;
#209 = CIRCLE ( 'NONE', #673, 15.99999690409969944 ) ;
#210 = CARTESIAN_POINT ( 'NONE',  ( -15.99999690409969944, 0.000000000000000000, 3.000000000000000000 ) ) ;
#211 = AXIS2_PLACEMENT_3D ( 'NONE', #302, #379, #940 ) ;
#212 = CARTESIAN_POINT ( 'NONE',  ( 33.35000000000000142, 1.010333609296565391E-16, -6.000000000000000152E-06 ) ) ;
#213 = DIRECTION ( 'NONE',  ( 0.000000000000000000, -1.000000000000000000, 0.000000000000000000 ) ) ;
#214 = ORIENTED_EDGE ( 'NONE', *, *, #128, .T. ) ;
#215 = AXIS2_PLACEMENT_3D ( 'NONE', #982, #459, #440 ) ;
#216 = ORIENTED_EDGE ( 'NONE', *, *, #587, .F. ) ;
#217 = LINE ( 'NONE', #860, #233 ) ;
#218 =( NAMED_UNIT ( * ) PLANE_ANGLE_UNIT ( ) SI_UNIT ( $, .RADIAN. ) );
#219 = B_SPLINE_CURVE_WITH_KNOTS ( 'NONE', 3,
 ( #1048, #942, #202, #958, #766, #121, #1025, #300, #295, #1133 ),
 .UNSPECIFIED., .F., .F.,
 ( 4, 2, 2, 2, 4 ),
 ( 0.5000000000000000000, 0.6250000000000000000, 0.7500000000000000000, 0.8750000000000000000, 1.000000000000000000 ),
 .UNSPECIFIED. ) ;
#220 = CARTESIAN_POINT ( 'NONE',  ( 85.33085996509566939, 14.29619825512816966, 3.000000000000000000 ) ) ;
#221 = ORIENTED_EDGE ( 'NONE', *, *, #1185, .T. ) ;
#222 = PRODUCT_RELATED_PRODUCT_CATEGORY ( 'detail', '', ( #2 ) ) ;
#223 = FACE_OUTER_BOUND ( 'NONE', #1026, .T. ) ;
#224 = ADVANCED_FACE ( 'NONE', ( #291 ), #658, .F. ) ;
#225 = EDGE_CURVE ( 'NONE', #695, #245, #104, .T. ) ;
#226 = FACE_OUTER_BOUND ( 'NONE', #503, .T. ) ;
#227 = CARTESIAN_POINT ( 'NONE',  ( 107.5075393220022306, 0.5633790295949588911, -0.000000000000000000 ) ) ;
#228 = ORIENTED_EDGE ( 'NONE', *, *, #550, .F. ) ;
#229 = VECTOR ( 'NONE', #1052, 1000.000000000000000 ) ;
#230 = CARTESIAN_POINT ( 'NONE',  ( 58.00000000000000000, 3.000000000000000000, 0.000000000000000000 ) ) ;
#231 = MECHANICAL_CONTEXT ( 'NONE', #454, 'mechanical' ) ;
#232 = DIRECTION ( 'NONE',  ( 1.000000000000000000, 0.000000000000000000, 0.000000000000000000 ) ) ;
#233 = VECTOR ( 'NONE', #298, 1000.000000000000000 ) ;
#234 = EDGE_LOOP ( 'NONE', ( #82, #518, #607, #618 ) ) ;
#235 = ORIENTED_EDGE ( 'NONE', *, *, #225, .F. ) ;
#236 = DIRECTION ( 'NONE',  ( 1.000000000000000000, 0.000000000000000000, 0.000000000000000000 ) ) ;
#237 = ADVANCED_FACE ( 'NONE', ( #194 ), #861, .F. ) ;
#238 = CARTESIAN_POINT ( 'NONE',  ( 1.608133742881205919, -0.4294612763593441684, -0.000000000000000000 ) ) ;
#239 = VERTEX_POINT ( 'NONE', #680 ) ;
#240 = VECTOR ( 'NONE', #109, 1000.000000000000000 ) ;
#241 = ORIENTED_EDGE ( 'NONE', *, *, #1154, .F. ) ;
#242 = DIRECTION ( 'NONE',  ( 0.000000000000000000, 0.000000000000000000, 1.000000000000000000 ) ) ;
#243 = PERSON_AND_ORGANIZATION ( #1061, #947 ) ;
#244 = CARTESIAN_POINT ( 'NONE',  ( 108.5000000000000000, 0.000000000000000000, 3.000000000000000000 ) ) ;
#245 = VERTEX_POINT ( 'NONE', #672 ) ;
#246 = ORIENTED_EDGE ( 'NONE', *, *, #780, .F. ) ;
#247 = ADVANCED_FACE ( 'NONE', ( #400 ), #117, .F. ) ;
#248 = DIRECTION ( 'NONE',  ( 1.000000000000000000, 0.000000000000000000, 0.000000000000000000 ) ) ;
#249 = APPROVAL_STATUS ( 'not_yet_approved' ) ;
#250 = DIRECTION ( 'NONE',  ( 0.000000000000000000, 0.000000000000000000, 1.000000000000000000 ) ) ;
#251 = CC_DESIGN_APPROVAL ( #41, ( #759 ) ) ;
#252 = ORIENTED_EDGE ( 'NONE', *, *, #98, .T. ) ;
#253 = AXIS2_PLACEMENT_3D ( 'NONE', #581, #657, #1132 ) ;
#254 = EDGE_LOOP ( 'NONE', ( #486, #12, #889, #370, #301, #190, #862, #1199, #246 ) ) ;
#255 = CYLINDRICAL_SURFACE ( 'NONE', #373, 1.649999999999998579 ) ;
#256 = VECTOR ( 'NONE', #1122, 1000.000000000000114 ) ;
#257 = CALENDAR_DATE ( 2026, 1, 10 ) ;
#258 = CARTESIAN_POINT ( 'NONE',  ( 44.00000000000000000, 0.000000000000000000, 3.000000000000000000 ) ) ;
#259 = DIRECTION ( 'NONE',  ( -1.000000000000000000, 0.000000000000000000, 0.000000000000000000 ) ) ;
#260 = CARTESIAN_POINT ( 'NONE',  ( -0.4295762706490943716, 1.607935578235778928, 0.000000000000000000 ) ) ;
#261 = VERTEX_POINT ( 'NONE', #589 ) ;
#262 = VECTOR ( 'NONE', #1146, 1000.000000000000000 ) ;
#263 = CARTESIAN_POINT ( 'NONE',  ( 33.35000000000000142, 1.010333609296565391E-16, -6.000000000000000152E-06 ) ) ;
#264 = DIRECTION ( 'NONE',  ( 0.000000000000000000, 0.000000000000000000, 1.000000000000000000 ) ) ;
#265 = EDGE_CURVE ( 'NONE', #357, #75, #385, .T. ) ;
#266 = CARTESIAN_POINT ( 'NONE',  ( 85.33085996509566939, 14.29619825512816966, 3.000000000000000000 ) ) ;
#267 = CARTESIAN_POINT ( 'NONE',  ( 106.2000000000000028, -6.299999999999999822, 3.000000000000000000 ) ) ;
#268 = ORIENTED_EDGE ( 'NONE', *, *, #1185, .F. ) ;
#269 = CARTESIAN_POINT ( 'NONE',  ( 35.00000000000000000, 0.000000000000000000, -1.200000000000000030E-05 ) ) ;
#270 = DIRECTION ( 'NONE',  ( -1.000000000000000000, 0.000000000000000000, 0.000000000000000000 ) ) ;
#271 = AXIS2_PLACEMENT_3D ( 'NONE', #11, #490, #602 ) ;
#272 = DIRECTION ( 'NONE',  ( -0.000000000000000000, -0.000000000000000000, -1.000000000000000000 ) ) ;
#273 = DIRECTION ( 'NONE',  ( -0.000000000000000000, -0.000000000000000000, 1.000000000000000000 ) ) ;
#274 = ORIENTED_EDGE ( 'NONE', *, *, #1074, .F. ) ;
#275 = CARTESIAN_POINT ( 'NONE',  ( 58.00000000000000000, -3.000000000000000000, 3.000000000000000000 ) ) ;
#276 = CARTESIAN_POINT ( 'NONE',  ( 36.44066871440603705, -0.8333940504454684373, 0.000000000000000000 ) ) ;
#277 = EDGE_CURVE ( 'NONE', #809, #55, #219, .T. ) ;
#278 = VECTOR ( 'NONE', #1062, 1000.000000000000114 ) ;
#279 = DIRECTION ( 'NONE',  ( -0.9997999978325524673, 0.01999910833082476844, -0.000000000000000000 ) ) ;
#280 = CARTESIAN_POINT ( 'NONE',  ( 1.321147048613450448, 1.012207030202253666, 0.000000000000000000 ) ) ;
#281 = ORIENTED_EDGE ( 'NONE', *, *, #1074, .T. ) ;
#282 = CARTESIAN_POINT ( 'NONE',  ( 107.3999999999999915, 1.347111479062092941E-16, 3.000000000000000000 ) ) ;
#283 = VECTOR ( 'NONE', #1019, 1000.000000000000000 ) ;
#284 = CARTESIAN_POINT ( 'NONE',  ( 33.98769467069786288, -1.321245347713347229, -0.000000000000000000 ) ) ;
#285 = CARTESIAN_POINT ( 'NONE',  ( 7.291149999999905873, 15.85730000000001816, 3.000000000000000000 ) ) ;
#286 = CARTESIAN_POINT ( 'NONE',  ( 100.2443299650956732, -13.99786825512816968, 0.000000000000000000 ) ) ;
#287 = ORIENTED_EDGE ( 'NONE', *, *, #748, .F. ) ;
#288 = EDGE_CURVE ( 'NONE', #925, #297, #1130, .T. ) ;
#289 = LINE ( 'NONE', #661, #740 ) ;
#290 = DIRECTION ( 'NONE',  ( 0.000000000000000000, 0.000000000000000000, 1.000000000000000000 ) ) ;
#291 = FACE_OUTER_BOUND ( 'NONE', #156, .T. ) ;
#292 = ORIENTED_EDGE ( 'NONE', *, *, #115, .T. ) ;
#293 = CARTESIAN_POINT ( 'NONE',  ( 1.649999999999999911, 0.000000000000000000, 3.000000000000000000 ) ) ;
#294 = CARTESIAN_POINT ( 'NONE',  ( 7.291150000000000020, -15.85730000000000040, 3.000000000000000000 ) ) ;
#295 = CARTESIAN_POINT ( 'NONE',  ( 109.6000000000000369, -0.3039615398675958868, -0.000000000000000000 ) ) ;
#296 = AXIS2_PLACEMENT_3D ( 'NONE', #1017, #186, #14 ) ;
#297 = VERTEX_POINT ( 'NONE', #870 ) ;
#298 = DIRECTION ( 'NONE',  ( -0.000000000000000000, -0.000000000000000000, 1.000000000000000000 ) ) ;
#299 = EDGE_CURVE ( 'NONE', #261, #49, #667, .T. ) ;
#300 = CARTESIAN_POINT ( 'NONE',  ( 109.4926058197684142, -0.5632340263026597293, -0.000000000000000000 ) ) ;
#301 = ORIENTED_EDGE ( 'NONE', *, *, #45, .F. ) ;
#302 = CARTESIAN_POINT ( 'NONE',  ( 0.000000000000000000, 0.000000000000000000, 0.000000000000000000 ) ) ;
#303 = CYLINDRICAL_SURFACE ( 'NONE', #611, 1.100000000000003642 ) ;
#304 = EDGE_LOOP ( 'NONE', ( #712, #496, #154, #900 ) ) ;
#305 = EDGE_LOOP ( 'NONE', ( #287, #119, #1140, #405 ) ) ;
#306 = AXIS2_PLACEMENT_3D ( 'NONE', #1177, #642, #1095 ) ;
#307 = CARTESIAN_POINT ( 'NONE',  ( 0.000000000000000000, 0.000000000000000000, 3.000000000000000000 ) ) ;
#308 = AXIS2_PLACEMENT_3D ( 'NONE', #718, #552, #993 ) ;
#309 = CARTESIAN_POINT ( 'NONE',  ( -1.608064012194520442, 0.4296294697460623091, -0.000000000000000000 ) ) ;
#310 = CARTESIAN_POINT ( 'NONE',  ( 0.2792399999999999882, 15.99756000000000178, 3.000000000000000000 ) ) ;
#311 = EDGE_CURVE ( 'NONE', #1171, #122, #768, .T. ) ;
#312 = ORIENTED_EDGE ( 'NONE', *, *, #45, .T. ) ;
#313 = VECTOR ( 'NONE', #521, 1000.000000000000000 ) ;
#314 = EDGE_CURVE ( 'NONE', #878, #932, #416, .T. ) ;
#315 = CARTESIAN_POINT ( 'NONE',  ( 44.00000000000000000, 0.000000000000000000, 0.000000000000000000 ) ) ;
#316 = DIRECTION ( 'NONE',  ( -0.9997999787516902437, 0.02000006220289382228, -0.000000000000000000 ) ) ;
#317 = CARTESIAN_POINT ( 'NONE',  ( 106.2000000000000028, 6.299999999999999822, 3.000000000000000000 ) ) ;
#318 = AXIS2_PLACEMENT_3D ( 'NONE', #583, #952, #474 ) ;
#319 = ORIENTED_EDGE ( 'NONE', *, *, #1027, .T. ) ;
#320 = CARTESIAN_POINT ( 'NONE',  ( 79.60000000000000853, 6.735557395310464703E-17, -6.000000000000000152E-06 ) ) ;
#321 = B_SPLINE_CURVE_WITH_KNOTS ( 'NONE', 3,
 ( #1099, #897, #1180, #453, #829, #63, #158, #77, #174, #741, #432, #1194, #715, #821, #834, #90, #1200, #263 ),
 .UNSPECIFIED., .F., .F.,
 ( 4, 2, 2, 2, 2, 2, 2, 2, 4 ),
 ( 0.000000000000000000, 0.06250000000000000000, 0.1250000000000000000, 0.1875000000000000000, 0.2500000000000000000, 0.3125000000000000000, 0.3750000000000000000, 0.4375000000000000000, 0.5000000000000000000 ),
 .UNSPECIFIED. ) ;
#322 = CARTESIAN_POINT ( 'NONE',  ( -1.649999999999999245, 1.010333609296566131E-16, -6.000000000000000152E-06 ) ) ;
#323 = CARTESIAN_POINT ( 'NONE',  ( 0.2184535819885294605, -1.650069507965211013, -0.000000000000000000 ) ) ;
#324 = ORIENTED_EDGE ( 'NONE', *, *, #562, .T. ) ;
#325 = ORIENTED_EDGE ( 'NONE', *, *, #815, .T. ) ;
#326 = CARTESIAN_POINT ( 'NONE',  ( 0.000000000000000000, 0.000000000000000000, -1.200000000000000030E-05 ) ) ;
#327 = DATE_AND_TIME ( #434, #441 ) ;
#328 = CARTESIAN_POINT ( 'NONE',  ( 107.4001448076797516, 0.3034065432689914688, 0.000000000000000000 ) ) ;
#329 = ORIENTED_EDGE ( 'NONE', *, *, #123, .T. ) ;
#330 = VERTEX_POINT ( 'NONE', #594 ) ;
#331 = AXIS2_PLACEMENT_3D ( 'NONE', #754, #996, #1002 ) ;
#332 = CARTESIAN_POINT ( 'NONE',  ( 7.291149999999905873, 15.85730000000001816, 3.000000000000000000 ) ) ;
#333 = CARTESIAN_POINT ( 'NONE',  ( 83.00000000000000000, -6.299999999999999822, 3.000000000000000000 ) ) ;
#334 = EDGE_CURVE ( 'NONE', #418, #878, #802, .T. ) ;
#335 = ORIENTED_EDGE ( 'NONE', *, *, #795, .F. ) ;
#336 = ORIENTED_EDGE ( 'NONE', *, *, #691, .T. ) ;
#337 = FACE_OUTER_BOUND ( 'NONE', #757, .T. ) ;
#338 = APPROVAL_STATUS ( 'not_yet_approved' ) ;
#339 = CARTESIAN_POINT ( 'NONE',  ( 109.5999999999999943, 0.3035514892483031080, 0.000000000000000000 ) ) ;
#340 = EDGE_LOOP ( 'NONE', ( #17, #591, #734, #784 ) ) ;
#341 = VERTEX_POINT ( 'NONE', #140 ) ;
#342 = CARTESIAN_POINT ( 'NONE',  ( 0.2792399999999991556, -15.99756000000000178, 3.000000000000000000 ) ) ;
#343 = COORDINATED_UNIVERSAL_TIME_OFFSET ( 3, 0, .AHEAD. ) ;
#344 = CARTESIAN_POINT ( 'NONE',  ( 81.80000000000001137, 0.000000000000000000, -6.000000000000000152E-06 ) ) ;
#345 = EDGE_CURVE ( 'NONE', #136, #1165, #137, .T. ) ;
#346 = FACE_OUTER_BOUND ( 'NONE', #953, .T. ) ;
#347 = VECTOR ( 'NONE', #1038, 1000.000000000000000 ) ;
#348 = DIRECTION ( 'NONE',  ( -1.000000000000000000, 0.000000000000000000, 0.000000000000000000 ) ) ;
#349 = VERTEX_POINT ( 'NONE', #962 ) ;
#350 = EDGE_CURVE ( 'NONE', #55, #809, #424, .T. ) ;
#351 = FACE_OUTER_BOUND ( 'NONE', #612, .T. ) ;
#352 = AXIS2_PLACEMENT_3D ( 'NONE', #315, #703, #1071 ) ;
#353 = CARTESIAN_POINT ( 'NONE',  ( 33.34993049203912818, -0.2184535819870955797, 0.000000000000000000 ) ) ;
#354 = CARTESIAN_POINT ( 'NONE',  ( 83.00000000000000000, 6.299999999999999822, 0.000000000000000000 ) ) ;
#355 = CARTESIAN_POINT ( 'NONE',  ( 81.80000000000001137, 0.000000000000000000, -6.000000000000000152E-06 ) ) ;
#356 = VECTOR ( 'NONE', #724, 1000.000000000000000 ) ;
#357 = VERTEX_POINT ( 'NONE', #135 ) ;
#358 = DIRECTION ( 'NONE',  ( -0.02000006220289382575, -0.9997999787516903547, 0.000000000000000000 ) ) ;
#359 = CARTESIAN_POINT ( 'NONE',  ( 7.291150000000000020, -15.85730000000000040, 0.000000000000000000 ) ) ;
#360 = DIRECTION ( 'NONE',  ( -0.000000000000000000, -0.000000000000000000, -1.000000000000000000 ) ) ;
#361 = CARTESIAN_POINT ( 'NONE',  ( 66.35000000000000853, 2.020667218593130783E-16, 3.000000000000000000 ) ) ;
#362 = ORIENTED_EDGE ( 'NONE', *, *, #13, .F. ) ;
#363 = EDGE_CURVE ( 'NONE', #895, #872, #622, .T. ) ;
#364 = CARTESIAN_POINT ( 'NONE',  ( 40.99999999999999289, 0.000000000000000000, 3.000000000000000000 ) ) ;
#365 = EDGE_CURVE ( 'NONE', #149, #136, #693, .T. ) ;
#366 = DIRECTION ( 'NONE',  ( 1.000000000000000000, 0.000000000000000000, 0.000000000000000000 ) ) ;
#367 = CARTESIAN_POINT ( 'NONE',  ( 68.21845358200395992, -1.650069507959410098, -0.000000000000000000 ) ) ;
#368 = UNCERTAINTY_MEASURE_WITH_UNIT (LENGTH_MEASURE( 1.000000000000000082E-05 ), #770, 'distance_accuracy_value', 'NONE');
#369 = DIRECTION ( 'NONE',  ( 0.9997999978325524673, -0.01999910833082476844, 0.000000000000000000 ) ) ;
#370 = ORIENTED_EDGE ( 'NONE', *, *, #586, .F. ) ;
#371 = CARTESIAN_POINT ( 'NONE',  ( 40.99999999999999289, 0.000000000000000000, 0.000000000000000000 ) ) ;
#372 = CYLINDRICAL_SURFACE ( 'NONE', #54, 139.9999970614144047 ) ;
#373 = AXIS2_PLACEMENT_3D ( 'NONE', #269, #644, #248 ) ;
#374 = DIRECTION ( 'NONE',  ( 1.000000000000000000, 0.000000000000000000, 0.000000000000000000 ) ) ;
#375 = EDGE_CURVE ( 'NONE', #49, #1127, #937, .T. ) ;
#376 = CARTESIAN_POINT ( 'NONE',  ( 79.60000000000000853, 6.735557395310464703E-17, -6.000000000000000152E-06 ) ) ;
#377 = ORIENTED_EDGE ( 'NONE', *, *, #1078, .T. ) ;
#378 = CARTESIAN_POINT ( 'NONE',  ( 99.99990002037723968, 0.000000000000000000, 3.000000000000000000 ) ) ;
#379 = DIRECTION ( 'NONE',  ( 0.000000000000000000, 0.000000000000000000, 1.000000000000000000 ) ) ;
#380 = CARTESIAN_POINT ( 'NONE',  ( 109.6000000000000085, 0.000000000000000000, -6.000000000000000152E-06 ) ) ;
#381 = FACE_BOUND ( 'NONE', #858, .T. ) ;
#382 = EDGE_LOOP ( 'NONE', ( #62, #631 ) ) ;
#383 = CYLINDRICAL_SURFACE ( 'NONE', #331, 1.100000000000003642 ) ;
#384 = DIRECTION ( 'NONE',  ( 0.000000000000000000, 0.000000000000000000, 1.000000000000000000 ) ) ;
#385 = LINE ( 'NONE', #310, #763 ) ;
#386 = EDGE_CURVE ( 'NONE', #297, #840, #524, .T. ) ;
#387 = EDGE_CURVE ( 'NONE', #425, #1075, #610, .T. ) ;
#388 = APPROVAL_PERSON_ORGANIZATION ( #999, #616, #523 ) ;
#389 = ORIENTED_EDGE ( 'NONE', *, *, #956, .T. ) ;
#390 = DIRECTION ( 'NONE',  ( -0.000000000000000000, -0.000000000000000000, 1.000000000000000000 ) ) ;
#391 = EDGE_CURVE ( 'NONE', #1014, #605, #466, .T. ) ;
#392 = DIRECTION ( 'NONE',  ( -0.9997999978325524673, -0.01999910833082476844, 0.000000000000000000 ) ) ;
#393 = CARTESIAN_POINT ( 'NONE',  ( -1.321147048613450448, -1.012207030202253666, 0.000000000000000000 ) ) ;
#394 = ORIENTED_EDGE ( 'NONE', *, *, #599, .T. ) ;
#395 = CARTESIAN_POINT ( 'NONE',  ( 68.21845358200395992, 1.649930492040559749, 0.000000000000000000 ) ) ;
#396 = LINE ( 'NONE', #220, #201 ) ;
#397 = ORIENTED_EDGE ( 'NONE', *, *, #437, .F. ) ;
#398 = CARTESIAN_POINT ( 'NONE',  ( 66.55926155490728036, 0.8332258570552533161, 0.000000000000000000 ) ) ;
#399 = FACE_BOUND ( 'NONE', #492, .T. ) ;
#400 = FACE_OUTER_BOUND ( 'NONE', #970, .T. ) ;
#401 = ORIENTED_EDGE ( 'NONE', *, *, #386, .T. ) ;
#402 = CARTESIAN_POINT ( 'NONE',  ( 100.2443299650956732, -13.99786825512816968, 0.000000000000000000 ) ) ;
#403 = DIRECTION ( 'NONE',  ( -0.000000000000000000, -0.000000000000000000, -1.000000000000000000 ) ) ;
#404 = CARTESIAN_POINT ( 'NONE',  ( 108.8034065432770205, 1.099855192328266229, 0.000000000000000000 ) ) ;
#405 = ORIENTED_EDGE ( 'NONE', *, *, #334, .T. ) ;
#406 = VECTOR ( 'NONE', #683, 1000.000000000000000 ) ;
#407 = CARTESIAN_POINT ( 'NONE',  ( 79.60000000000000853, 1.347111479062092941E-16, 3.000000000000000000 ) ) ;
#408 = CARTESIAN_POINT ( 'NONE',  ( 0.000000000000000000, 0.000000000000000000, 0.000000000000000000 ) ) ;
#409 = CARTESIAN_POINT ( 'NONE',  ( 0.4295762706480766857, -1.607935578236796559, 0.000000000000000000 ) ) ;
#410 = EDGE_CURVE ( 'NONE', #872, #1069, #52, .T. ) ;
#411 = ORIENTED_EDGE ( 'NONE', *, *, #765, .T. ) ;
#412 = EDGE_LOOP ( 'NONE', ( #721, #664 ) ) ;
#413 = APPROVAL_PERSON_ORGANIZATION ( #807, #1041, #627 ) ;
#414 = CARTESIAN_POINT ( 'NONE',  ( 81.80000000000001137, 0.3035514892483031080, 0.000000000000000000 ) ) ;
#415 = PERSON_AND_ORGANIZATION_ROLE ( 'design_owner' ) ;
#416 = LINE ( 'NONE', #788, #262 ) ;
#417 = ORIENTED_EDGE ( 'NONE', *, *, #410, .F. ) ;
#418 = VERTEX_POINT ( 'NONE', #1057 ) ;
#419 = FACE_BOUND ( 'NONE', #1096, .T. ) ;
#420 = ADVANCED_FACE ( 'NONE', ( #505 ), #146, .F. ) ;
#421 = APPROVAL_DATE_TIME ( #705, #616 ) ;
#422 = CARTESIAN_POINT ( 'NONE',  ( 44.00000000000000000, 3.000000000000000000, 3.000000000000000000 ) ) ;
#423 = ORIENTED_EDGE ( 'NONE', *, *, #522, .F. ) ;
#424 = B_SPLINE_CURVE_WITH_KNOTS ( 'NONE', 3,
 ( #711, #339, #1053, #603, #404, #48, #978, #227, #328, #968 ),
 .UNSPECIFIED., .F., .F.,
 ( 4, 2, 2, 2, 4 ),
 ( 0.000000000000000000, 0.1250000000000000000, 0.2500000000000000000, 0.3750000000000000000, 0.5000000000000000000 ),
 .UNSPECIFIED. ) ;
#425 = VERTEX_POINT ( 'NONE', #333 ) ;
#426 = CIRCLE ( 'NONE', #215, 1.649999999999999911 ) ;
#427 = DIRECTION ( 'NONE',  ( -0.000000000000000000, -0.000000000000000000, 1.000000000000000000 ) ) ;
#428 = DATE_AND_TIME ( #885, #161 ) ;
#429 = CARTESIAN_POINT ( 'NONE',  ( 106.2000000000000028, -6.299999999999999822, 0.000000000000000000 ) ) ;
#430 = EDGE_LOOP ( 'NONE', ( #235, #44, #6, #1091 ) ) ;
#431 = ORIENTED_EDGE ( 'NONE', *, *, #277, .F. ) ;
#432 = CARTESIAN_POINT ( 'NONE',  ( 34.57042372934843399, 1.607935578234761298, 0.000000000000000000 ) ) ;
#433 = CC_DESIGN_DATE_AND_TIME_ASSIGNMENT ( #539, #152, ( #204 ) ) ;
#434 = CALENDAR_DATE ( 2026, 1, 10 ) ;
#435 = CARTESIAN_POINT ( 'NONE',  ( 36.60813374288120770, -0.4294612763593441684, -0.000000000000000000 ) ) ;
#436 = ORIENTED_EDGE ( 'NONE', *, *, #562, .F. ) ;
#437 = EDGE_CURVE ( 'NONE', #1066, #804, #813, .T. ) ;
#438 = CARTESIAN_POINT ( 'NONE',  ( 1.649999999999999245, 0.000000000000000000, -6.000000000000000152E-06 ) ) ;
#439 = VERTEX_POINT ( 'NONE', #429 ) ;
#440 = DIRECTION ( 'NONE',  ( 1.000000000000000000, 0.000000000000000000, 0.000000000000000000 ) ) ;
#441 = LOCAL_TIME ( 23, 18, 30.00000000000000000, #796 ) ;
#442 = FACE_OUTER_BOUND ( 'NONE', #1003, .T. ) ;
#443 = CARTESIAN_POINT ( 'NONE',  ( 69.01220703021623137, -1.321147048596611917, 0.000000000000000000 ) ) ;
#444 = VECTOR ( 'NONE', #478, 1000.000000000000000 ) ;
#445 = FACE_OUTER_BOUND ( 'NONE', #943, .T. ) ;
#446 = VERTEX_POINT ( 'NONE', #1108 ) ;
#447 = CARTESIAN_POINT ( 'NONE',  ( 85.33085996509566939, 14.29619825512816966, 3.000000000000000000 ) ) ;
#448 = CARTESIAN_POINT ( 'NONE',  ( 106.2000000000000028, -6.299999999999999822, 3.000000000000000000 ) ) ;
#449 = LINE ( 'NONE', #533, #648 ) ;
#450 = EDGE_CURVE ( 'NONE', #1134, #1131, #606, .T. ) ;
#451 = DIRECTION ( 'NONE',  ( -1.000000000000000000, 0.000000000000000000, 0.000000000000000000 ) ) ;
#452 = EDGE_LOOP ( 'NONE', ( #688, #818, #482, #417 ) ) ;
#453 = CARTESIAN_POINT ( 'NONE',  ( 36.44086687905782185, 0.8332790561507706917, -0.000000000000000000 ) ) ;
#454 = APPLICATION_CONTEXT ( 'configuration controlled 3d designs of mechanical parts and assemblies' ) ;
#455 = DIRECTION ( 'NONE',  ( 0.000000000000000000, -1.000000000000000000, 0.000000000000000000 ) ) ;
#456 = CARTESIAN_POINT ( 'NONE',  ( 44.00000000000000000, -3.000000000000000000, 0.000000000000000000 ) ) ;
#457 = CARTESIAN_POINT ( 'NONE',  ( 1.440866879057834504, 0.8332790561507706917, -0.000000000000000000 ) ) ;
#458 = ORIENTED_EDGE ( 'NONE', *, *, #83, .F. ) ;
#459 = DIRECTION ( 'NONE',  ( 0.000000000000000000, 0.000000000000000000, 1.000000000000000000 ) ) ;
#460 = CARTESIAN_POINT ( 'NONE',  ( 81.00340654327699497, -1.100144807671713520, -0.000000000000000000 ) ) ;
#461 = EDGE_CURVE ( 'NONE', #1193, #909, #824, .T. ) ;
#462 = EDGE_CURVE ( 'NONE', #872, #925, #601, .T. ) ;
#463 = CARTESIAN_POINT ( 'NONE',  ( 58.00000000000000000, -3.000000000000000000, 3.000000000000000000 ) ) ;
#464 = CARTESIAN_POINT ( 'NONE',  ( 0.8332258570581373425, 1.440738445098492582, 0.000000000000000000 ) ) ;
#465 = VERTEX_POINT ( 'NONE', #86 ) ;
#466 = CIRCLE ( 'NONE', #127, 1.100000000000003642 ) ;
#467 = DIRECTION ( 'NONE',  ( 0.000000000000000000, 0.000000000000000000, 1.000000000000000000 ) ) ;
#468 = CARTESIAN_POINT ( 'NONE',  ( 100.2443299650956732, 13.99786825512816968, 3.000000000000000000 ) ) ;
#469 = CIRCLE ( 'NONE', #577, 14.00000220306411869 ) ;
#470 = LINE ( 'NONE', #177, #1109 ) ;
#471 = ORIENTED_EDGE ( 'NONE', *, *, #494, .T. ) ;
#472 = FACE_OUTER_BOUND ( 'NONE', #304, .T. ) ;
#473 = CARTESIAN_POINT ( 'NONE',  ( 66.39193598780549621, 0.4296294697495595116, -0.000000000000000000 ) ) ;
#474 = DIRECTION ( 'NONE',  ( 1.000000000000000000, 0.000000000000000000, 0.000000000000000000 ) ) ;
#475 = ORIENTED_EDGE ( 'NONE', *, *, #598, .T. ) ;
#476 = ADVANCED_FACE ( 'NONE', ( #645 ), #79, .F. ) ;
#477 = CARTESIAN_POINT ( 'NONE',  ( 44.00000000000000000, -3.000000000000000000, 3.000000000000000000 ) ) ;
#478 = DIRECTION ( 'NONE',  ( -0.000000000000000000, -0.000000000000000000, 1.000000000000000000 ) ) ;
#479 = CARTESIAN_POINT ( 'NONE',  ( -1.650069507959423865, -0.2184535819905927823, 0.000000000000000000 ) ) ;
#480 = AXIS2_PLACEMENT_3D ( 'NONE', #817, #81, #1192 ) ;
#481 = ORIENTED_EDGE ( 'NONE', *, *, #391, .F. ) ;
#482 = ORIENTED_EDGE ( 'NONE', *, *, #765, .F. ) ;
#483 = DIRECTION ( 'NONE',  ( 1.000000000000000000, 0.000000000000000000, 0.000000000000000000 ) ) ;
#484 = CARTESIAN_POINT ( 'NONE',  ( 68.00000000000000000, 0.000000000000000000, -1.200000000000000030E-05 ) ) ;
#485 = VECTOR ( 'NONE', #144, 1000.000000000000114 ) ;
#486 = ORIENTED_EDGE ( 'NONE', *, *, #98, .F. ) ;
#487 = EDGE_CURVE ( 'NONE', #1075, #439, #922, .T. ) ;
#488 = CIRCLE ( 'NONE', #1166, 139.9999970614144047 ) ;
#489 = CARTESIAN_POINT ( 'NONE',  ( 81.80000000000001137, 0.000000000000000000, 3.000000000000000000 ) ) ;
#490 = DIRECTION ( 'NONE',  ( -0.000000000000000000, -0.000000000000000000, 1.000000000000000000 ) ) ;
#491 = CARTESIAN_POINT ( 'NONE',  ( -15.99999690409969944, 0.000000000000000000, 3.000000000000000000 ) ) ;
#492 = EDGE_LOOP ( 'NONE', ( #512, #949, #674, #654 ) ) ;
#493 = FACE_OUTER_BOUND ( 'NONE', #1058, .T. ) ;
#494 = EDGE_CURVE ( 'NONE', #1187, #767, #65, .T. ) ;
#495 = DIRECTION ( 'NONE',  ( 0.000000000000000000, 0.000000000000000000, 1.000000000000000000 ) ) ;
#496 = ORIENTED_EDGE ( 'NONE', *, *, #803, .F. ) ;
#497 = CARTESIAN_POINT ( 'NONE',  ( 7.291150000000000020, -15.85730000000000040, 0.000000000000000000 ) ) ;
#498 = CIRCLE ( 'NONE', #96, 1.649999999999999911 ) ;
#499 = PLANE ( 'NONE',  #1136 ) ;
#500 = DIRECTION ( 'NONE',  ( -0.9997999787516902437, 0.02000006220289382228, -0.000000000000000000 ) ) ;
#501 = ORIENTED_EDGE ( 'NONE', *, *, #123, .F. ) ;
#502 = AXIS2_PLACEMENT_3D ( 'NONE', #600, #242, #120 ) ;
#503 = EDGE_LOOP ( 'NONE', ( #268, #228, #22, #960 ) ) ;
#504 = DIRECTION ( 'NONE',  ( 0.000000000000000000, 0.000000000000000000, 1.000000000000000000 ) ) ;
#505 = FACE_OUTER_BOUND ( 'NONE', #1065, .T. ) ;
#506 = VECTOR ( 'NONE', #783, 1000.000000000000000 ) ;
#507 = ORIENTED_EDGE ( 'NONE', *, *, #314, .F. ) ;
#508 = ORIENTED_EDGE ( 'NONE', *, *, #151, .F. ) ;
#509 = EDGE_CURVE ( 'NONE', #1147, #425, #1000, .T. ) ;
#510 = CARTESIAN_POINT ( 'NONE',  ( 48.99999972930055492, -149.4999991326300233, 3.000000000000000000 ) ) ;
#511 = DIRECTION ( 'NONE',  ( 0.000000000000000000, 0.000000000000000000, 1.000000000000000000 ) ) ;
#512 = ORIENTED_EDGE ( 'NONE', *, *, #845, .T. ) ;
#513 = ORIENTED_EDGE ( 'NONE', *, *, #803, .T. ) ;
#514 = FACE_BOUND ( 'NONE', #1033, .T. ) ;
#515 = SECURITY_CLASSIFICATION_LEVEL ( 'unclassified' ) ;
#516 = VECTOR ( 'NONE', #899, 1000.000000000000000 ) ;
#517 = CARTESIAN_POINT ( 'NONE',  ( 58.00000000000000000, 0.000000000000000000, 0.000000000000000000 ) ) ;
#518 = ORIENTED_EDGE ( 'NONE', *, *, #944, .F. ) ;
#519 = ORIENTED_EDGE ( 'NONE', *, *, #871, .F. ) ;
#520 = ADVANCED_FACE ( 'NONE', ( #532 ), #72, .T. ) ;
#521 = DIRECTION ( 'NONE',  ( -0.000000000000000000, -0.000000000000000000, -1.000000000000000000 ) ) ;
#522 = EDGE_CURVE ( 'NONE', #573, #465, #148, .T. ) ;
#523 = APPROVAL_ROLE ( '' ) ;
#524 = LINE ( 'NONE', #984, #1043 ) ;
#525 = ADVANCED_FACE ( 'NONE', ( #442 ), #372, .F. ) ;
#526 = ORIENTED_EDGE ( 'NONE', *, *, #450, .F. ) ;
#527 = DIRECTION ( 'NONE',  ( 0.000000000000000000, 0.000000000000000000, 1.000000000000000000 ) ) ;
#528 = ORIENTED_EDGE ( 'NONE', *, *, #576, .F. ) ;
#529 = DIRECTION ( 'NONE',  ( 0.000000000000000000, 1.000000000000000000, 0.000000000000000000 ) ) ;
#530 = CC_DESIGN_SECURITY_CLASSIFICATION ( #204, ( #1121 ) ) ;
#531 = APPROVAL_DATE_TIME ( #428, #1041 ) ;
#532 = FACE_OUTER_BOUND ( 'NONE', #42, .T. ) ;
#533 = CARTESIAN_POINT ( 'NONE',  ( 7.291150000000000020, -15.85730000000000040, 3.000000000000000000 ) ) ;
#534 = DIRECTION ( 'NONE',  ( 0.000000000000000000, 0.000000000000000000, 1.000000000000000000 ) ) ;
#535 = ORIENTED_EDGE ( 'NONE', *, *, #363, .T. ) ;
#536 = B_SPLINE_CURVE_WITH_KNOTS ( 'NONE', 3,
 ( #794, #414, #608, #972, #139, #781, #1056, #1067, #1149, #320 ),
 .UNSPECIFIED., .F., .F.,
 ( 4, 2, 2, 2, 4 ),
 ( 0.000000000000000000, 0.1250000000000000000, 0.2500000000000000000, 0.3750000000000000000, 0.5000000000000000000 ),
 .UNSPECIFIED. ) ;
#537 = CARTESIAN_POINT ( 'NONE',  ( 106.2000000000000028, 6.299999999999999822, 3.000000000000000000 ) ) ;
#538 = LOCAL_TIME ( 23, 18, 30.00000000000000000, #167 ) ;
#539 = DATE_AND_TIME ( #698, #687 ) ;
#540 = CARTESIAN_POINT ( 'NONE',  ( 79.70774411097653456, -0.5631742406045820992, 0.000000000000000000 ) ) ;
#541 = CARTESIAN_POINT ( 'NONE',  ( 67.78154641799606850, -1.649930492040559749, 0.000000000000000000 ) ) ;
#542 = VECTOR ( 'NONE', #91, 1000.000000000000114 ) ;
#543 = CYLINDRICAL_SURFACE ( 'NONE', #841, 1.649999999999998579 ) ;
#544 = ORIENTED_EDGE ( 'NONE', *, *, #604, .F. ) ;
#545 = CARTESIAN_POINT ( 'NONE',  ( 83.00000000000000000, -6.299999999999999822, 0.000000000000000000 ) ) ;
#546 = CARTESIAN_POINT ( 'NONE',  ( 35.83327905615571751, -1.440866879051446281, -0.000000000000000000 ) ) ;
#547 = CARTESIAN_POINT ( 'NONE',  ( 66.34993049204057058, -0.2184535819870953577, -0.000000000000000000 ) ) ;
#548 = CARTESIAN_POINT ( 'NONE',  ( 1.649999999999998579, 0.2186215401836685279, 0.000000000000000000 ) ) ;
#549 = ORIENTED_EDGE ( 'NONE', *, *, #66, .T. ) ;
#550 = EDGE_CURVE ( 'NONE', #261, #341, #1042, .T. ) ;
#551 = DIRECTION ( 'NONE',  ( 0.000000000000000000, -0.000000000000000000, -1.000000000000000000 ) ) ;
#552 = DIRECTION ( 'NONE',  ( -0.000000000000000000, -0.000000000000000000, -1.000000000000000000 ) ) ;
#553 = CARTESIAN_POINT ( 'NONE',  ( 69.32124534769936020, -1.012305329318988978, -0.000000000000000000 ) ) ;
#554 = FACE_OUTER_BOUND ( 'NONE', #452, .T. ) ;
#555 = VERTEX_POINT ( 'NONE', #468 ) ;
#556 = CARTESIAN_POINT ( 'NONE',  ( 100.2443299650956732, -13.99786825512816968, 3.000000000000000000 ) ) ;
#557 = CARTESIAN_POINT ( 'NONE',  ( 36.64999999999999858, -0.2189853885585420767, -0.000000000000000000 ) ) ;
#558 = CARTESIAN_POINT ( 'NONE',  ( 100.2443299650956732, -13.99786825512816968, 3.000000000000000000 ) ) ;
#559 = APPLICATION_PROTOCOL_DEFINITION ( 'international standard', 'config_control_design', 1994, #454 ) ;
#560 = VERTEX_POINT ( 'NONE', #843 ) ;
#561 = CIRCLE ( 'NONE', #1179, 1.100000000000003642 ) ;
#562 = EDGE_CURVE ( 'NONE', #465, #349, #755, .T. ) ;
#563 = CYLINDRICAL_SURFACE ( 'NONE', #1104, 1.649999999999999911 ) ;
#564 = CARTESIAN_POINT ( 'NONE',  ( 36.64999999999999858, 0.000000000000000000, -1.200000000000000030E-05 ) ) ;
#565 = AXIS2_PLACEMENT_3D ( 'NONE', #619, #529, #70 ) ;
#566 = EDGE_CURVE ( 'NONE', #702, #800, #621, .T. ) ;
#567 = EDGE_CURVE ( 'NONE', #122, #979, #1124, .T. ) ;
#568 = DIRECTION ( 'NONE',  ( 1.000000000000000000, 0.000000000000000000, 0.000000000000000000 ) ) ;
#569 = ORIENTED_EDGE ( 'NONE', *, *, #604, .T. ) ;
#570 = CARTESIAN_POINT ( 'NONE',  ( 58.00000000000000000, 0.000000000000000000, 3.000000000000000000 ) ) ;
#571 = DIRECTION ( 'NONE',  ( 1.000000000000000000, 0.000000000000000000, 0.000000000000000000 ) ) ;
#572 = DIRECTION ( 'NONE',  ( 1.000000000000000000, 0.000000000000000000, 0.000000000000000000 ) ) ;
#573 = VERTEX_POINT ( 'NONE', #294 ) ;
#574 = CARTESIAN_POINT ( 'NONE',  ( 108.5000000000000000, 0.000000000000000000, 3.000000000000000000 ) ) ;
#575 = CARTESIAN_POINT ( 'NONE',  ( -0.8332258570581373425, -1.440738445098492582, 0.000000000000000000 ) ) ;
#576 = EDGE_CURVE ( 'NONE', #605, #1014, #561, .T. ) ;
#577 = AXIS2_PLACEMENT_3D ( 'NONE', #93, #527, #348 ) ;
#578 = EDGE_LOOP ( 'NONE', ( #1164, #590 ) ) ;
#579 = APPLICATION_CONTEXT ( 'configuration controlled 3d designs of mechanical parts and assemblies' ) ;
#580 = AXIS2_PLACEMENT_3D ( 'NONE', #517, #893, #59 ) ;
#581 = CARTESIAN_POINT ( 'NONE',  ( 35.00000000000000000, 0.000000000000000000, 3.000000000000000000 ) ) ;
#582 = LINE ( 'NONE', #684, #229 ) ;
#583 = CARTESIAN_POINT ( 'NONE',  ( 108.5000000000000000, 0.000000000000000000, -1.200000000000000030E-05 ) ) ;
#584 = VECTOR ( 'NONE', #84, 1000.000000000000000 ) ;
#585 = ORIENTED_EDGE ( 'NONE', *, *, #599, .F. ) ;
#586 = EDGE_CURVE ( 'NONE', #75, #245, #1077, .T. ) ;
#587 = EDGE_CURVE ( 'NONE', #979, #330, #498, .T. ) ;
#588 = FACE_BOUND ( 'NONE', #789, .T. ) ;
#589 = CARTESIAN_POINT ( 'NONE',  ( 69.65000000000000568, 0.000000000000000000, -6.000000000000000152E-06 ) ) ;
#590 = ORIENTED_EDGE ( 'NONE', *, *, #66, .F. ) ;
#591 = ORIENTED_EDGE ( 'NONE', *, *, #198, .F. ) ;
#592 = PLANE ( 'NONE',  #1183 ) ;
#593 = FACE_BOUND ( 'NONE', #867, .T. ) ;
#594 = CARTESIAN_POINT ( 'NONE',  ( -1.649999999999999911, 2.020667218593132262E-16, 3.000000000000000000 ) ) ;
#595 = ORIENTED_EDGE ( 'NONE', *, *, #311, .T. ) ;
#596 = VECTOR ( 'NONE', #273, 1000.000000000000000 ) ;
#597 = ORIENTED_EDGE ( 'NONE', *, *, #845, .F. ) ;
#598 = EDGE_CURVE ( 'NONE', #245, #1187, #965, .T. ) ;
#599 = EDGE_CURVE ( 'NONE', #239, #446, #774, .T. ) ;
#600 = CARTESIAN_POINT ( 'NONE',  ( 35.00000000000000000, 0.000000000000000000, 3.000000000000000000 ) ) ;
#601 = CIRCLE ( 'NONE', #76, 3.000000000000002665 ) ;
#602 = DIRECTION ( 'NONE',  ( 1.000000000000000000, 0.000000000000000000, 0.000000000000000000 ) ) ;
#603 = CARTESIAN_POINT ( 'NONE',  ( 109.0633790295788970, 0.9924606780058002897, -0.000000000000000000 ) ) ;
#604 = EDGE_CURVE ( 'NONE', #804, #1069, #205, .T. ) ;
#605 = VERTEX_POINT ( 'NONE', #764 ) ;
#606 = B_SPLINE_CURVE_WITH_KNOTS ( 'NONE', 3,
 ( #808, #814, #540, #168, #1005, #460, #905, #1011, #1175, #344 ),
 .UNSPECIFIED., .F., .F.,
 ( 4, 2, 2, 2, 4 ),
 ( 0.5000000000000000000, 0.6250000000000000000, 0.7500000000000000000, 0.8750000000000000000, 1.000000000000000000 ),
 .UNSPECIFIED. ) ;
#607 = ORIENTED_EDGE ( 'NONE', *, *, #1078, .F. ) ;
#608 = CARTESIAN_POINT ( 'NONE',  ( 81.69225588903152868, 0.5631742406045823213, -0.000000000000000000 ) ) ;
#609 = VECTOR ( 'NONE', #360, 1000.000000000000000 ) ;
#610 = LINE ( 'NONE', #973, #516 ) ;
#611 = AXIS2_PLACEMENT_3D ( 'NONE', #936, #866, #568 ) ;
#612 = EDGE_LOOP ( 'NONE', ( #1044, #779, #1151, #686 ) ) ;
#613 = ORIENTED_EDGE ( 'NONE', *, *, #13, .T. ) ;
#614 = CARTESIAN_POINT ( 'NONE',  ( 107.3999999999999915, 6.735557395310464703E-17, -6.000000000000000152E-06 ) ) ;
#615 = DIRECTION ( 'NONE',  ( 1.000000000000000000, 0.000000000000000000, 0.000000000000000000 ) ) ;
#616 = APPROVAL ( #249, 'UNSPECIFIED' ) ;
#617 = ORIENTED_EDGE ( 'NONE', *, *, #795, .T. ) ;
#618 = ORIENTED_EDGE ( 'NONE', *, *, #907, .T. ) ;
#619 = CARTESIAN_POINT ( 'NONE',  ( 83.00000000000000000, -6.299999999999999822, 3.000000000000000000 ) ) ;
#620 = PERSON_AND_ORGANIZATION_ROLE ( 'design_supplier' ) ;
#621 = CIRCLE ( 'NONE', #697, 1.100000000000003642 ) ;
#622 = LINE ( 'NONE', #1073, #725 ) ;
#623 = ORIENTED_EDGE ( 'NONE', *, *, #437, .T. ) ;
#624 = ORIENTED_EDGE ( 'NONE', *, *, #299, .F. ) ;
#625 = VECTOR ( 'NONE', #916, 1000.000000000000000 ) ;
#626 = LINE ( 'NONE', #545, #584 ) ;
#627 = APPROVAL_ROLE ( '' ) ;
#628 = CARTESIAN_POINT ( 'NONE',  ( 34.57037053026729012, -1.608064012194506232, -0.000000000000000000 ) ) ;
#629 = LINE ( 'NONE', #732, #609 ) ;
#630 = PLANE ( 'NONE',  #1007 ) ;
#631 = ORIENTED_EDGE ( 'NONE', *, *, #691, .F. ) ;
#632 = ADVANCED_FACE ( 'NONE', ( #750 ), #670, .F. ) ;
#633 = CARTESIAN_POINT ( 'NONE',  ( 100.2443299650956732, -13.99786825512816968, 3.000000000000000000 ) ) ;
#634 = DIRECTION ( 'NONE',  ( -0.000000000000000000, -0.000000000000000000, -1.000000000000000000 ) ) ;
#635 = CARTESIAN_POINT ( 'NONE',  ( 66.98769467069986661, -1.321245347715401364, -0.000000000000000000 ) ) ;
#636 = CARTESIAN_POINT ( 'NONE',  ( 35.00000000000000000, 0.000000000000000000, -1.200000000000000030E-05 ) ) ;
#637 = ORIENTED_EDGE ( 'NONE', *, *, #509, .T. ) ;
#638 = LINE ( 'NONE', #342, #313 ) ;
#639 = DIRECTION ( 'NONE',  ( 1.000000000000000000, 0.000000000000000000, 0.000000000000000000 ) ) ;
#640 = CARTESIAN_POINT ( 'NONE',  ( 7.291150000000000020, -15.85730000000000040, 3.000000000000000000 ) ) ;
#641 = EDGE_CURVE ( 'NONE', #1049, #149, #758, .T. ) ;
#642 = DIRECTION ( 'NONE',  ( 1.000000000000000000, 0.000000000000000000, -0.000000000000000000 ) ) ;
#643 = ORIENTED_EDGE ( 'NONE', *, *, #288, .T. ) ;
#644 = DIRECTION ( 'NONE',  ( -0.000000000000000000, -0.000000000000000000, 1.000000000000000000 ) ) ;
#645 = FACE_OUTER_BOUND ( 'NONE', #130, .T. ) ;
#646 = CARTESIAN_POINT ( 'NONE',  ( 58.00000000000000000, 3.000000000000000000, 3.000000000000000000 ) ) ;
#647 = CARTESIAN_POINT ( 'NONE',  ( 107.3999999999999915, 1.347111479062092941E-16, -1.200000000000000030E-05 ) ) ;
#648 = VECTOR ( 'NONE', #1191, 1000.000000000000114 ) ;
#649 = ORIENTED_EDGE ( 'NONE', *, *, #386, .F. ) ;
#650 = CARTESIAN_POINT ( 'NONE',  ( 100.2443299650956732, 13.99786825512816968, 3.000000000000000000 ) ) ;
#651 = CARTESIAN_POINT ( 'NONE',  ( 69.60793557822698574, 0.4295762706565213751, 0.000000000000000000 ) ) ;
#652 = LINE ( 'NONE', #640, #283 ) ;
#653 = CARTESIAN_POINT ( 'NONE',  ( -0.8332790561557044118, 1.440866879051446725, -0.000000000000000000 ) ) ;
#654 = ORIENTED_EDGE ( 'NONE', *, *, #166, .T. ) ;
#655 = DIRECTION ( 'NONE',  ( 1.000000000000000000, 0.000000000000000000, 0.000000000000000000 ) ) ;
#656 = EDGE_CURVE ( 'NONE', #909, #239, #1034, .T. ) ;
#657 = DIRECTION ( 'NONE',  ( 0.000000000000000000, 0.000000000000000000, 1.000000000000000000 ) ) ;
#658 = CYLINDRICAL_SURFACE ( 'NONE', #848, 3.000000000000002665 ) ;
#659 = ORIENTED_EDGE ( 'NONE', *, *, #166, .F. ) ;
#660 = AXIS2_PLACEMENT_3D ( 'NONE', #510, #504, #1155 ) ;
#661 = CARTESIAN_POINT ( 'NONE',  ( 81.80000000000001137, 0.000000000000000000, -1.200000000000000030E-05 ) ) ;
#662 = CARTESIAN_POINT ( 'NONE',  ( 0.000000000000000000, 0.000000000000000000, 0.000000000000000000 ) ) ;
#663 = DIRECTION ( 'NONE',  ( -0.000000000000000000, -0.000000000000000000, -1.000000000000000000 ) ) ;
#664 = ORIENTED_EDGE ( 'NONE', *, *, #277, .T. ) ;
#665 = AXIS2_PLACEMENT_3D ( 'NONE', #876, #250, #615 ) ;
#666 = CARTESIAN_POINT ( 'NONE',  ( 68.00000000000000000, 0.000000000000000000, 3.000000000000000000 ) ) ;
#667 = LINE ( 'NONE', #34, #240 ) ;
#668 = ORIENTED_EDGE ( 'NONE', *, *, #907, .F. ) ;
#669 = ORIENTED_EDGE ( 'NONE', *, *, #198, .T. ) ;
#670 = PLANE ( 'NONE',  #192 ) ;
#671 = CARTESIAN_POINT ( 'NONE',  ( 85.33085996509566939, 14.29619825512816966, 3.000000000000000000 ) ) ;
#672 = CARTESIAN_POINT ( 'NONE',  ( -15.99999690409969944, 0.000000000000000000, 0.000000000000000000 ) ) ;
#673 = AXIS2_PLACEMENT_3D ( 'NONE', #1105, #901, #171 ) ;
#674 = ORIENTED_EDGE ( 'NONE', *, *, #314, .T. ) ;
#675 = EDGE_CURVE ( 'NONE', #1171, #330, #217, .T. ) ;
#676 = VECTOR ( 'NONE', #634, 1000.000000000000000 ) ;
#677 = ORIENTED_EDGE ( 'NONE', *, *, #1123, .F. ) ;
#678 = DIRECTION ( 'NONE',  ( 1.000000000000000000, 0.000000000000000000, 0.000000000000000000 ) ) ;
#679 = PRODUCT_DEFINITION_SHAPE ( 'NONE', 'NONE',  #759 ) ;
#680 = CARTESIAN_POINT ( 'NONE',  ( 36.64999999999999858, 0.000000000000000000, 3.000000000000000000 ) ) ;
#681 = CIRCLE ( 'NONE', #296, 15.99999690409969944 ) ;
#682 = ORIENTED_EDGE ( 'NONE', *, *, #1027, .F. ) ;
#683 = DIRECTION ( 'NONE',  ( -0.000000000000000000, -0.000000000000000000, -1.000000000000000000 ) ) ;
#684 = CARTESIAN_POINT ( 'NONE',  ( 66.35000000000000853, 2.020667218593130783E-16, -1.200000000000000030E-05 ) ) ;
#685 = CARTESIAN_POINT ( 'NONE',  ( 1.440668714406033502, -0.8333940504454684373, 0.000000000000000000 ) ) ;
#686 = ORIENTED_EDGE ( 'NONE', *, *, #656, .F. ) ;
#687 = LOCAL_TIME ( 23, 18, 30.00000000000000000, #71 ) ;
#688 = ORIENTED_EDGE ( 'NONE', *, *, #462, .T. ) ;
#689 = ADVANCED_BREP_SHAPE_REPRESENTATION ( '11_predplechye_levoe', ( #1098, #791 ), #111 ) ;
#690 = LINE ( 'NONE', #38, #406 ) ;
#691 = EDGE_CURVE ( 'NONE', #1127, #49, #1125, .T. ) ;
#692 = LINE ( 'NONE', #671, #927 ) ;
#693 = LINE ( 'NONE', #699, #1189 ) ;
#694 = ORIENTED_EDGE ( 'NONE', *, *, #954, .F. ) ;
#695 = VERTEX_POINT ( 'NONE', #210 ) ;
#696 = CARTESIAN_POINT ( 'NONE',  ( 106.2000000000000028, -6.299999999999999822, 0.000000000000000000 ) ) ;
#697 = AXIS2_PLACEMENT_3D ( 'NONE', #864, #384, #571 ) ;
#698 = CALENDAR_DATE ( 2026, 1, 10 ) ;
#699 = CARTESIAN_POINT ( 'NONE',  ( 85.33085996509566939, 14.29619825512816966, 0.000000000000000000 ) ) ;
#700 = AXIS2_PLACEMENT_3D ( 'NONE', #378, #749, #101 ) ;
#701 = ORIENTED_EDGE ( 'NONE', *, *, #871, .T. ) ;
#702 = VERTEX_POINT ( 'NONE', #489 ) ;
#703 = DIRECTION ( 'NONE',  ( 0.000000000000000000, 0.000000000000000000, 1.000000000000000000 ) ) ;
#704 = CIRCLE ( 'NONE', #181, 1.100000000000003642 ) ;
#705 = DATE_AND_TIME ( #64, #538 ) ;
#706 = CARTESIAN_POINT ( 'NONE',  ( 1.649999999999999245, 0.000000000000000000, -6.000000000000000152E-06 ) ) ;
#707 = ORIENTED_EDGE ( 'NONE', *, *, #265, .F. ) ;
#708 = ORIENTED_EDGE ( 'NONE', *, *, #892, .F. ) ;
#709 = CARTESIAN_POINT ( 'NONE',  ( 58.00000000000000000, 3.000000000000000000, 3.000000000000000000 ) ) ;
#710 = DATE_AND_TIME ( #257, #18 ) ;
#711 = CARTESIAN_POINT ( 'NONE',  ( 109.6000000000000085, 0.000000000000000000, -6.000000000000000152E-06 ) ) ;
#712 = ORIENTED_EDGE ( 'NONE', *, *, #1113, .F. ) ;
#713 = ORIENTED_EDGE ( 'NONE', *, *, #1142, .T. ) ;
#714 = EDGE_CURVE ( 'NONE', #1193, #446, #801, .T. ) ;
#715 = CARTESIAN_POINT ( 'NONE',  ( 33.98779296978872111, 1.321147048601534424, 0.000000000000000000 ) ) ;
#716 = PERSON_AND_ORGANIZATION_ROLE ( 'creator' ) ;
#717 = VECTOR ( 'NONE', #27, 1000.000000000000000 ) ;
#718 = CARTESIAN_POINT ( 'NONE',  ( 58.00000000000000000, 0.000000000000000000, 3.000000000000000000 ) ) ;
#719 = PLANE ( 'NONE',  #199 ) ;
#720 = CARTESIAN_POINT ( 'NONE',  ( 0.2184535819870815909, 1.649930492034814344, 0.000000000000000000 ) ) ;
#721 = ORIENTED_EDGE ( 'NONE', *, *, #350, .T. ) ;
#722 = CARTESIAN_POINT ( 'NONE',  ( 36.64999999999999858, 0.000000000000000000, -6.000000000000000152E-06 ) ) ;
#723 = CARTESIAN_POINT ( 'NONE',  ( 33.55913312094218526, -0.8332790561507706917, -0.000000000000000000 ) ) ;
#724 = DIRECTION ( 'NONE',  ( -0.000000000000000000, -0.000000000000000000, -1.000000000000000000 ) ) ;
#725 = VECTOR ( 'NONE', #777, 1000.000000000000000 ) ;
#726 = CARTESIAN_POINT ( 'NONE',  ( 0.2792399999999991556, -15.99756000000000178, 3.000000000000000000 ) ) ;
#727 = ORIENTED_EDGE ( 'NONE', *, *, #1156, .T. ) ;
#728 = ADVANCED_FACE ( 'NONE', ( #1144, #419, #961, #884, #514, #337, #1167, #588 ), #57, .T. ) ;
#729 = CARTESIAN_POINT ( 'NONE',  ( 109.6000000000000085, 0.000000000000000000, -1.200000000000000030E-05 ) ) ;
#730 = CARTESIAN_POINT ( 'NONE',  ( 33.39206442177059131, -0.4295762706540418585, -0.000000000000000000 ) ) ;
#731 = EDGE_CURVE ( 'NONE', #446, #239, #1059, .T. ) ;
#732 = CARTESIAN_POINT ( 'NONE',  ( 83.00000000000000000, 6.299999999999999822, 3.000000000000000000 ) ) ;
#733 = PLANE ( 'NONE',  #306 ) ;
#734 = ORIENTED_EDGE ( 'NONE', *, *, #1156, .F. ) ;
#735 = LINE ( 'NONE', #633, #894 ) ;
#736 = CARTESIAN_POINT ( 'NONE',  ( 34.78154641799893199, -1.649930492040559749, 0.000000000000000000 ) ) ;
#737 = CARTESIAN_POINT ( 'NONE',  ( 69.65000000000000568, -0.2189853885655179966, -0.000000000000000000 ) ) ;
#738 = DIRECTION ( 'NONE',  ( 1.000000000000000000, 0.000000000000000000, 0.000000000000000000 ) ) ;
#739 = ORIENTED_EDGE ( 'NONE', *, *, #714, .F. ) ;
#740 = VECTOR ( 'NONE', #1029, 1000.000000000000000 ) ;
#741 = CARTESIAN_POINT ( 'NONE',  ( 34.78154641799893199, 1.650069507959410098, -0.000000000000000000 ) ) ;
#742 = CARTESIAN_POINT ( 'NONE',  ( 69.65000000000001990, 0.2186215401801713254, -0.000000000000000000 ) ) ;
#743 = ADVANCED_FACE ( 'NONE', ( #493 ), #879, .F. ) ;
#744 = CARTESIAN_POINT ( 'NONE',  ( 1.649999999999999245, 0.000000000000000000, -6.000000000000000152E-06 ) ) ;
#745 = ADVANCED_FACE ( 'NONE', ( #223 ), #592, .T. ) ;
#746 = PLANE ( 'NONE',  #835 ) ;
#747 = VERTEX_POINT ( 'NONE', #332 ) ;
#748 = EDGE_CURVE ( 'NONE', #439, #878, #869, .T. ) ;
#749 = DIRECTION ( 'NONE',  ( -0.000000000000000000, -0.000000000000000000, -1.000000000000000000 ) ) ;
#750 = FACE_OUTER_BOUND ( 'NONE', #920, .T. ) ;
#751 = CARTESIAN_POINT ( 'NONE',  ( 108.5000000000000000, 0.000000000000000000, -1.200000000000000030E-05 ) ) ;
#752 = FACE_BOUND ( 'NONE', #1009, .T. ) ;
#753 = ORIENTED_EDGE ( 'NONE', *, *, #350, .F. ) ;
#754 = CARTESIAN_POINT ( 'NONE',  ( 80.70000000000000284, 0.000000000000000000, -1.200000000000000030E-05 ) ) ;
#755 = LINE ( 'NONE', #8, #837 ) ;
#756 = DIRECTION ( 'NONE',  ( -0.000000000000000000, -0.000000000000000000, 1.000000000000000000 ) ) ;
#757 = EDGE_LOOP ( 'NONE', ( #1120, #389, #377, #727, #762, #325, #1112, #319, #292 ) ) ;
#758 = CIRCLE ( 'NONE', #873, 14.00000220306411869 ) ;
#759 = PRODUCT_DEFINITION ( 'UNKNOWN', '', #1121, #790 ) ;
#760 = DIRECTION ( 'NONE',  ( -1.000000000000000000, 0.000000000000000000, 0.000000000000000000 ) ) ;
#761 = FACE_OUTER_BOUND ( 'NONE', #94, .T. ) ;
#762 = ORIENTED_EDGE ( 'NONE', *, *, #1118, .T. ) ;
#763 = VECTOR ( 'NONE', #1126, 1000.000000000000000 ) ;
#764 = CARTESIAN_POINT ( 'NONE',  ( 109.6000000000000085, 0.000000000000000000, 3.000000000000000000 ) ) ;
#765 = EDGE_CURVE ( 'NONE', #1069, #828, #778, .T. ) ;
#766 = CARTESIAN_POINT ( 'NONE',  ( 108.1965934567229652, -1.099855192328266229, 0.000000000000000000 ) ) ;
#767 = VERTEX_POINT ( 'NONE', #497 ) ;
#768 = B_SPLINE_CURVE_WITH_KNOTS ( 'NONE', 3,
 ( #206, #479, #857, #21, #393, #1035, #575, #948, #113, #323, #409, #1063, #153, #1170, #685, #238, #126, #706 ),
 .UNSPECIFIED., .F., .F.,
 ( 4, 2, 2, 2, 2, 2, 2, 2, 4 ),
 ( 0.5000000000000000000, 0.5625000000000000000, 0.6250000000000000000, 0.6875000000000000000, 0.7500000000000000000, 0.8125000000000000000, 0.8750000000000000000, 0.9375000000000000000, 1.000000000000000000 ),
 .UNSPECIFIED. ) ;
#769 = DIRECTION ( 'NONE',  ( 0.000000000000000000, 0.000000000000000000, 1.000000000000000000 ) ) ;
#770 =( LENGTH_UNIT ( ) NAMED_UNIT ( * ) SI_UNIT ( .MILLI., .METRE. ) );
#771 = DIRECTION ( 'NONE',  ( 1.000000000000000000, 0.000000000000000000, 0.000000000000000000 ) ) ;
#772 = APPROVAL_PERSON_ORGANIZATION ( #145, #41, #898 ) ;
#773 = ORIENTED_EDGE ( 'NONE', *, *, #461, .T. ) ;
#774 = CIRCLE ( 'NONE', #253, 1.649999999999998579 ) ;
#775 = DIRECTION ( 'NONE',  ( 0.000000000000000000, 1.000000000000000000, 0.000000000000000000 ) ) ;
#776 = CARTESIAN_POINT ( 'NONE',  ( -1.649930492040573959, 0.2184535819905926990, -0.000000000000000000 ) ) ;
#777 = DIRECTION ( 'NONE',  ( -1.000000000000000000, 0.000000000000000000, 0.000000000000000000 ) ) ;
#778 = CIRCLE ( 'NONE', #352, 3.000000000000002665 ) ;
#779 = ORIENTED_EDGE ( 'NONE', *, *, #714, .T. ) ;
#780 = EDGE_CURVE ( 'NONE', #349, #1049, #32, .T. ) ;
#781 = CARTESIAN_POINT ( 'NONE',  ( 80.39659345672296809, 1.100144807671713965, -0.000000000000000000 ) ) ;
#782 = DIRECTION ( 'NONE',  ( 1.000000000000000000, 0.000000000000000000, 0.000000000000000000 ) ) ;
#783 = DIRECTION ( 'NONE',  ( -0.000000000000000000, -0.000000000000000000, -1.000000000000000000 ) ) ;
#784 = ORIENTED_EDGE ( 'NONE', *, *, #944, .T. ) ;
#785 = ORIENTED_EDGE ( 'NONE', *, *, #462, .F. ) ;
#786 = CARTESIAN_POINT ( 'NONE',  ( 33.35000000000000142, 2.020667218593130783E-16, -1.200000000000000030E-05 ) ) ;
#787 = CARTESIAN_POINT ( 'NONE',  ( 83.00000000000000000, 6.299999999999999822, 3.000000000000000000 ) ) ;
#788 = CARTESIAN_POINT ( 'NONE',  ( 106.2000000000000028, 6.299999999999999822, 0.000000000000000000 ) ) ;
#789 = EDGE_LOOP ( 'NONE', ( #508, #89, #811, #129 ) ) ;
#790 = DESIGN_CONTEXT ( 'detailed design', #579, 'design' ) ;
#791 = AXIS2_PLACEMENT_3D ( 'NONE', #408, #33, #782 ) ;
#792 = ORIENTED_EDGE ( 'NONE', *, *, #1113, .T. ) ;
#793 = ADVANCED_FACE ( 'NONE', ( #133 ), #874, .T. ) ;
#794 = CARTESIAN_POINT ( 'NONE',  ( 81.80000000000001137, 0.000000000000000000, -6.000000000000000152E-06 ) ) ;
#795 = EDGE_CURVE ( 'NONE', #425, #833, #690, .T. ) ;
#796 = COORDINATED_UNIVERSAL_TIME_OFFSET ( 3, 0, .AHEAD. ) ;
#797 = CARTESIAN_POINT ( 'NONE',  ( 48.99999972930055492, 149.4999991326300233, 3.000000000000000000 ) ) ;
#798 = CIRCLE ( 'NONE', #58, 3.000000000000002665 ) ;
#799 = ORIENTED_EDGE ( 'NONE', *, *, #846, .T. ) ;
#800 = VERTEX_POINT ( 'NONE', #407 ) ;
#801 = LINE ( 'NONE', #786, #1024 ) ;
#802 = LINE ( 'NONE', #317, #506 ) ;
#803 = EDGE_CURVE ( 'NONE', #1131, #1134, #536, .T. ) ;
#804 = VERTEX_POINT ( 'NONE', #230 ) ;
#805 = ORIENTED_EDGE ( 'NONE', *, *, #929, .F. ) ;
#806 = CARTESIAN_POINT ( 'NONE',  ( 58.00000000000000000, 3.000000000000000000, 3.000000000000000000 ) ) ;
#807 = PERSON_AND_ORGANIZATION ( #1061, #947 ) ;
#808 = CARTESIAN_POINT ( 'NONE',  ( 79.60000000000000853, 6.735557395310464703E-17, -6.000000000000000152E-06 ) ) ;
#809 = VERTEX_POINT ( 'NONE', #614 ) ;
#810 = DIRECTION ( 'NONE',  ( 1.000000000000000000, 0.000000000000000000, 0.000000000000000000 ) ) ;
#811 = ORIENTED_EDGE ( 'NONE', *, *, #509, .F. ) ;
#812 = PLANE ( 'NONE',  #565 ) ;
#813 = CIRCLE ( 'NONE', #580, 3.000000000000002665 ) ;
#814 = CARTESIAN_POINT ( 'NONE',  ( 79.59985519232024842, -0.3034065432689914132, -0.000000000000000000 ) ) ;
#815 = EDGE_CURVE ( 'NONE', #747, #357, #1162, .T. ) ;
#816 = CARTESIAN_POINT ( 'NONE',  ( 100.2443299650956732, 13.99786825512816968, 0.000000000000000000 ) ) ;
#817 = CARTESIAN_POINT ( 'NONE',  ( 44.00000000000000000, 0.000000000000000000, 3.000000000000000000 ) ) ;
#818 = ORIENTED_EDGE ( 'NONE', *, *, #820, .T. ) ;
#819 = AXIS2_PLACEMENT_3D ( 'NONE', #477, #1022, #926 ) ;
#820 = EDGE_CURVE ( 'NONE', #925, #828, #891, .T. ) ;
#821 = CARTESIAN_POINT ( 'NONE',  ( 33.67875465229567311, 1.012305329314067137, -0.000000000000000000 ) ) ;
#822 = PERSON_AND_ORGANIZATION ( #1061, #947 ) ;
#823 = DIRECTION ( 'NONE',  ( -0.000000000000000000, -0.000000000000000000, -1.000000000000000000 ) ) ;
#824 = B_SPLINE_CURVE_WITH_KNOTS ( 'NONE', 3,
 ( #1182, #353, #730, #723, #175, #284, #1081, #628, #736, #1088, #1100, #546, #917, #182, #276, #435, #557, #912 ),
 .UNSPECIFIED., .F., .F.,
 ( 4, 2, 2, 2, 2, 2, 2, 2, 4 ),
 ( 0.5000000000000000000, 0.5625000000000000000, 0.6250000000000000000, 0.6875000000000000000, 0.7500000000000000000, 0.8125000000000000000, 0.8750000000000000000, 0.9375000000000000000, 1.000000000000000000 ),
 .UNSPECIFIED. ) ;
#825 = LINE ( 'NONE', #463, #863 ) ;
#826 = VECTOR ( 'NONE', #1184, 1000.000000000000000 ) ;
#827 = CARTESIAN_POINT ( 'NONE',  ( 58.00000000000000000, -3.000000000000002665, 0.000000000000000000 ) ) ;
#828 = VERTEX_POINT ( 'NONE', #371 ) ;
#829 = CARTESIAN_POINT ( 'NONE',  ( 36.32114704861346866, 1.012207030202253666, 0.000000000000000000 ) ) ;
#830 = CARTESIAN_POINT ( 'NONE',  ( 0.000000000000000000, 0.000000000000000000, 3.000000000000000000 ) ) ;
#831 = LINE ( 'NONE', #646, #356 ) ;
#832 = FACE_OUTER_BOUND ( 'NONE', #883, .T. ) ;
#833 = VERTEX_POINT ( 'NONE', #1188 ) ;
#834 = CARTESIAN_POINT ( 'NONE',  ( 33.55926155490584506, 0.8332258570587504076, 0.000000000000000000 ) ) ;
#835 = AXIS2_PLACEMENT_3D ( 'NONE', #908, #163, #369 ) ;
#836 = DIRECTION ( 'NONE',  ( -0.000000000000000000, -0.000000000000000000, -1.000000000000000000 ) ) ;
#837 = VECTOR ( 'NONE', #1115, 1000.000000000000000 ) ;
#838 = DIRECTION ( 'NONE',  ( -0.000000000000000000, -0.000000000000000000, -1.000000000000000000 ) ) ;
#839 = CARTESIAN_POINT ( 'NONE',  ( 48.99999972930055492, 149.4999991326300233, 3.000000000000000000 ) ) ;
#840 = VERTEX_POINT ( 'NONE', #275 ) ;
#841 = AXIS2_PLACEMENT_3D ( 'NONE', #636, #155, #738 ) ;
#842 = LINE ( 'NONE', #556, #256 ) ;
#843 = CARTESIAN_POINT ( 'NONE',  ( 100.2443299650956732, -13.99786825512816968, 3.000000000000000000 ) ) ;
#844 = CARTESIAN_POINT ( 'NONE',  ( 106.2000000000000028, -6.299999999999999822, 3.000000000000000000 ) ) ;
#845 = EDGE_CURVE ( 'NONE', #833, #439, #626, .T. ) ;
#846 = EDGE_CURVE ( 'NONE', #1085, #1187, #638, .T. ) ;
#847 = CARTESIAN_POINT ( 'NONE',  ( -1.321245347702878936, 1.012305329314067137, -0.000000000000000000 ) ) ;
#848 = AXIS2_PLACEMENT_3D ( 'NONE', #1032, #1129, #16 ) ;
#849 = ORIENTED_EDGE ( 'NONE', *, *, #994, .T. ) ;
#850 = CYLINDRICAL_SURFACE ( 'NONE', #700, 14.00000220306411869 ) ;
#851 = CARTESIAN_POINT ( 'NONE',  ( 67.57042372935049457, 1.607935578236796559, 0.000000000000000000 ) ) ;
#852 = DIRECTION ( 'NONE',  ( -0.000000000000000000, -0.000000000000000000, -1.000000000000000000 ) ) ;
#853 = ADVANCED_FACE ( 'NONE', ( #351 ), #255, .F. ) ;
#854 = ORIENTED_EDGE ( 'NONE', *, *, #976, .F. ) ;
#855 = FACE_OUTER_BOUND ( 'NONE', #26, .T. ) ;
#856 = CARTESIAN_POINT ( 'NONE',  ( 58.00000000000000000, 3.000000000000000000, 0.000000000000000000 ) ) ;
#857 = CARTESIAN_POINT ( 'NONE',  ( -1.607935578229418239, -0.4295762706540418585, -0.000000000000000000 ) ) ;
#858 = EDGE_LOOP ( 'NONE', ( #179, #1036 ) ) ;
#859 = ADVANCED_FACE ( 'NONE', ( #990 ), #812, .T. ) ;
#860 = CARTESIAN_POINT ( 'NONE',  ( -1.649999999999999911, 2.020667218593132262E-16, -1.200000000000000030E-05 ) ) ;
#861 = CYLINDRICAL_SURFACE ( 'NONE', #318, 1.100000000000003642 ) ;
#862 = ORIENTED_EDGE ( 'NONE', *, *, #365, .F. ) ;
#863 = VECTOR ( 'NONE', #272, 1000.000000000000000 ) ;
#864 = CARTESIAN_POINT ( 'NONE',  ( 80.70000000000000284, 0.000000000000000000, 3.000000000000000000 ) ) ;
#865 = LINE ( 'NONE', #931, #1159 ) ;
#866 = DIRECTION ( 'NONE',  ( -0.000000000000000000, -0.000000000000000000, 1.000000000000000000 ) ) ;
#867 = EDGE_LOOP ( 'NONE', ( #713, #595 ) ) ;
#868 = CC_DESIGN_PERSON_AND_ORGANIZATION_ASSIGNMENT ( #822, #1072, ( #1121 ) ) ;
#869 = LINE ( 'NONE', #696, #877 ) ;
#870 = CARTESIAN_POINT ( 'NONE',  ( 44.00000000000000000, -3.000000000000002665, 3.000000000000000000 ) ) ;
#871 = EDGE_CURVE ( 'NONE', #330, #979, #426, .T. ) ;
#872 = VERTEX_POINT ( 'NONE', #1004 ) ;
#873 = AXIS2_PLACEMENT_3D ( 'NONE', #1023, #1128, #760 ) ;
#874 = CYLINDRICAL_SURFACE ( 'NONE', #176, 15.99999690409969944 ) ;
#875 = CARTESIAN_POINT ( 'NONE',  ( 48.99999972930055492, -149.4999991326300233, 0.000000000000000000 ) ) ;
#876 = CARTESIAN_POINT ( 'NONE',  ( 68.00000000000000000, 0.000000000000000000, 3.000000000000000000 ) ) ;
#877 = VECTOR ( 'NONE', #775, 1000.000000000000000 ) ;
#878 = VERTEX_POINT ( 'NONE', #150 ) ;
#879 = CYLINDRICAL_SURFACE ( 'NONE', #1143, 1.649999999999999911 ) ;
#880 = DIRECTION ( 'NONE',  ( -0.000000000000000000, -0.000000000000000000, -1.000000000000000000 ) ) ;
#881 = EDGE_LOOP ( 'NONE', ( #739, #708, #938, #394 ) ) ;
#882 = CC_DESIGN_APPROVAL ( #1041, ( #204 ) ) ;
#883 = EDGE_LOOP ( 'NONE', ( #659, #164, #637, #617 ) ) ;
#884 = FACE_BOUND ( 'NONE', #578, .T. ) ;
#885 = CALENDAR_DATE ( 2026, 1, 10 ) ;
#886 = DIRECTION ( 'NONE',  ( 1.000000000000000000, 0.000000000000000000, 0.000000000000000000 ) ) ;
#887 = ORIENTED_EDGE ( 'NONE', *, *, #225, .T. ) ;
#888 = AXIS2_PLACEMENT_3D ( 'NONE', #839, #1198, #810 ) ;
#889 = ORIENTED_EDGE ( 'NONE', *, *, #598, .F. ) ;
#890 = AXIS2_PLACEMENT_3D ( 'NONE', #662, #946, #116 ) ;
#891 = LINE ( 'NONE', #364, #625 ) ;
#892 = EDGE_CURVE ( 'NONE', #909, #1193, #321, .T. ) ;
#893 = DIRECTION ( 'NONE',  ( 0.000000000000000000, 0.000000000000000000, 1.000000000000000000 ) ) ;
#894 = VECTOR ( 'NONE', #1010, 1000.000000000000000 ) ;
#895 = VERTEX_POINT ( 'NONE', #806 ) ;
#896 = ORIENTED_EDGE ( 'NONE', *, *, #815, .F. ) ;
#897 = CARTESIAN_POINT ( 'NONE',  ( 36.64999999999999858, 0.2186215401836499872, 0.000000000000000000 ) ) ;
#898 = APPROVAL_ROLE ( '' ) ;
#899 = DIRECTION ( 'NONE',  ( 1.000000000000000000, 0.000000000000000000, 0.000000000000000000 ) ) ;
#900 = ORIENTED_EDGE ( 'NONE', *, *, #566, .T. ) ;
#901 = DIRECTION ( 'NONE',  ( 0.000000000000000000, 0.000000000000000000, 1.000000000000000000 ) ) ;
#902 = ORIENTED_EDGE ( 'NONE', *, *, #1142, .F. ) ;
#903 = CARTESIAN_POINT ( 'NONE',  ( 83.00000000000000000, 6.299999999999999822, 0.000000000000000000 ) ) ;
#904 = CC_DESIGN_DATE_AND_TIME_ASSIGNMENT ( #327, #159, ( #759 ) ) ;
#905 = CARTESIAN_POINT ( 'NONE',  ( 81.26302909884203984, -0.9924008923077229927, 0.000000000000000000 ) ) ;
#906 = CARTESIAN_POINT ( 'NONE',  ( 68.83327905615529119, -1.440866879050428651, -0.000000000000000000 ) ) ;
#907 = EDGE_CURVE ( 'NONE', #560, #1049, #735, .T. ) ;
#908 = CARTESIAN_POINT ( 'NONE',  ( 0.2792399999999999882, 15.99756000000000178, 3.000000000000000000 ) ) ;
#909 = VERTEX_POINT ( 'NONE', #722 ) ;
#910 = DIRECTION ( 'NONE',  ( 0.000000000000000000, -1.000000000000000000, 0.000000000000000000 ) ) ;
#911 = AXIS2_PLACEMENT_3D ( 'NONE', #666, #112, #483 ) ;
#912 = CARTESIAN_POINT ( 'NONE',  ( 36.64999999999999858, 0.000000000000000000, -6.000000000000000152E-06 ) ) ;
#913 = CARTESIAN_POINT ( 'NONE',  ( 69.44066871440605837, -0.8333940504384926840, 0.000000000000000000 ) ) ;
#914 = LINE ( 'NONE', #184, #963 ) ;
#915 = EDGE_LOOP ( 'NONE', ( #431, #975, #964, #805 ) ) ;
#916 = DIRECTION ( 'NONE',  ( -0.000000000000000000, -0.000000000000000000, -1.000000000000000000 ) ) ;
#917 = CARTESIAN_POINT ( 'NONE',  ( 36.01220703021026992, -1.321147048604013774, 0.000000000000000000 ) ) ;
#918 = CARTESIAN_POINT ( 'NONE',  ( 67.57037053027019624, -1.608064012194506232, -0.000000000000000000 ) ) ;
#919 = CARTESIAN_POINT ( 'NONE',  ( 44.00000000000000000, 3.000000000000000000, 0.000000000000000000 ) ) ;
#920 = EDGE_LOOP ( 'NONE', ( #471, #959, #945, #799 ) ) ;
#921 = FACE_OUTER_BOUND ( 'NONE', #340, .T. ) ;
#922 = LINE ( 'NONE', #448, #676 ) ;
#923 = CARTESIAN_POINT ( 'NONE',  ( 69.60813374288123612, -0.4294612763663201438, -0.000000000000000000 ) ) ;
#924 = CARTESIAN_POINT ( 'NONE',  ( 1.012305329302151113, 1.321245347713347451, -0.000000000000000000 ) ) ;
#925 = VERTEX_POINT ( 'NONE', #180 ) ;
#926 = DIRECTION ( 'NONE',  ( 0.000000000000000000, -0.000000000000000000, 1.000000000000000000 ) ) ;
#927 = VECTOR ( 'NONE', #316, 1000.000000000000114 ) ;
#928 = CARTESIAN_POINT ( 'NONE',  ( 69.32114704861550081, 1.012207030200199753, 0.000000000000000000 ) ) ;
#929 = EDGE_CURVE ( 'NONE', #55, #605, #165, .T. ) ;
#930 = CARTESIAN_POINT ( 'NONE',  ( 66.35000000000000853, 1.010333609296565391E-16, -6.000000000000000152E-06 ) ) ;
#931 = CARTESIAN_POINT ( 'NONE',  ( 44.00000000000000000, -3.000000000000000000, 3.000000000000000000 ) ) ;
#932 = VERTEX_POINT ( 'NONE', #903 ) ;
#933 = FACE_OUTER_BOUND ( 'NONE', #31, .T. ) ;
#934 = CARTESIAN_POINT ( 'NONE',  ( 66.67875465230062559, 1.012305329318988756, -0.000000000000000000 ) ) ;
#935 = ADVANCED_FACE ( 'NONE', ( #1086 ), #1173, .T. ) ;
#936 = CARTESIAN_POINT ( 'NONE',  ( 80.70000000000000284, 0.000000000000000000, -1.200000000000000030E-05 ) ) ;
#937 = CIRCLE ( 'NONE', #665, 1.649999999999998579 ) ;
#938 = ORIENTED_EDGE ( 'NONE', *, *, #656, .T. ) ;
#939 = DIRECTION ( 'NONE',  ( 1.000000000000000000, 0.000000000000000000, 0.000000000000000000 ) ) ;
#940 = DIRECTION ( 'NONE',  ( -1.000000000000000000, 0.000000000000000000, 0.000000000000000000 ) ) ;
#941 = ADVANCED_FACE ( 'NONE', ( #921 ), #1079, .F. ) ;
#942 = CARTESIAN_POINT ( 'NONE',  ( 107.3998551923202456, -0.3034065432689914132, -0.000000000000000000 ) ) ;
#943 = EDGE_LOOP ( 'NONE', ( #312, #707, #896, #329 ) ) ;
#944 = EDGE_CURVE ( 'NONE', #555, #149, #1114, .T. ) ;
#945 = ORIENTED_EDGE ( 'NONE', *, *, #115, .F. ) ;
#946 = DIRECTION ( 'NONE',  ( 0.000000000000000000, 0.000000000000000000, 1.000000000000000000 ) ) ;
#947 = ORGANIZATION ( 'UNSPECIFIED', 'UNSPECIFIED', '' ) ;
#948 = CARTESIAN_POINT ( 'NONE',  ( -0.4296294697466613854, -1.608064012188732850, -0.000000000000000000 ) ) ;
#949 = ORIENTED_EDGE ( 'NONE', *, *, #748, .T. ) ;
#950 = CARTESIAN_POINT ( 'NONE',  ( 1.649999999999999911, 0.000000000000000000, -1.200000000000000030E-05 ) ) ;
#951 = CARTESIAN_POINT ( 'NONE',  ( 0.2792399999999991556, -15.99756000000000178, 0.000000000000000000 ) ) ;
#952 = DIRECTION ( 'NONE',  ( -0.000000000000000000, -0.000000000000000000, 1.000000000000000000 ) ) ;
#953 = EDGE_LOOP ( 'NONE', ( #50, #668, #1172, #324 ) ) ;
#954 = EDGE_CURVE ( 'NONE', #1131, #702, #289, .T. ) ;
#955 = DIRECTION ( 'NONE',  ( 0.000000000000000000, -0.000000000000000000, -1.000000000000000000 ) ) ;
#956 = EDGE_CURVE ( 'NONE', #465, #560, #842, .T. ) ;
#957 = FACE_BOUND ( 'NONE', #412, .T. ) ;
#958 = CARTESIAN_POINT ( 'NONE',  ( 107.9366209704130597, -0.9924606780058002897, -0.000000000000000000 ) ) ;
#959 = ORIENTED_EDGE ( 'NONE', *, *, #128, .F. ) ;
#960 = ORIENTED_EDGE ( 'NONE', *, *, #375, .T. ) ;
#961 = FACE_BOUND ( 'NONE', #382, .T. ) ;
#962 = CARTESIAN_POINT ( 'NONE',  ( 85.33085996509566939, -14.29619825512816966, 0.000000000000000000 ) ) ;
#963 = VECTOR ( 'NONE', #1013, 1000.000000000000000 ) ;
#964 = ORIENTED_EDGE ( 'NONE', *, *, #391, .T. ) ;
#965 = CIRCLE ( 'NONE', #890, 15.99999690409969944 ) ;
#966 = DIRECTION ( 'NONE',  ( -0.000000000000000000, -0.000000000000000000, 1.000000000000000000 ) ) ;
#967 = FACE_OUTER_BOUND ( 'NONE', #254, .T. ) ;
#968 = CARTESIAN_POINT ( 'NONE',  ( 107.3999999999999915, 6.735557395310464703E-17, -6.000000000000000152E-06 ) ) ;
#969 = ORIENTED_EDGE ( 'NONE', *, *, #675, .F. ) ;
#970 = EDGE_LOOP ( 'NONE', ( #36, #221, #336, #624 ) ) ;
#971 = VECTOR ( 'NONE', #852, 1000.000000000000000 ) ;
#972 = CARTESIAN_POINT ( 'NONE',  ( 81.26337902957889980, 0.9924606780058002897, -0.000000000000000000 ) ) ;
#973 = CARTESIAN_POINT ( 'NONE',  ( 83.00000000000000000, -6.299999999999999822, 3.000000000000000000 ) ) ;
#974 = ORIENTED_EDGE ( 'NONE', *, *, #576, .T. ) ;
#975 = ORIENTED_EDGE ( 'NONE', *, *, #1123, .T. ) ;
#976 = EDGE_CURVE ( 'NONE', #840, #895, #985, .T. ) ;
#977 = CARTESIAN_POINT ( 'NONE',  ( 0.2792399999999999882, 15.99756000000000178, 3.000000000000000000 ) ) ;
#978 = CARTESIAN_POINT ( 'NONE',  ( 107.9368257593873608, 0.9922558890154238309, 0.000000000000000000 ) ) ;
#979 = VERTEX_POINT ( 'NONE', #293 ) ;
#980 = ORIENTED_EDGE ( 'NONE', *, *, #450, .T. ) ;
#981 = AXIS2_PLACEMENT_3D ( 'NONE', #830, #836, #1 ) ;
#982 = CARTESIAN_POINT ( 'NONE',  ( 0.000000000000000000, 0.000000000000000000, 3.000000000000000000 ) ) ;
#983 = PERSON_AND_ORGANIZATION ( #1061, #947 ) ;
#984 = CARTESIAN_POINT ( 'NONE',  ( 44.00000000000000000, -3.000000000000000000, 3.000000000000000000 ) ) ;
#985 = CIRCLE ( 'NONE', #1082, 3.000000000000002665 ) ;
#986 = ORIENTED_EDGE ( 'NONE', *, *, #39, .T. ) ;
#987 = DIRECTION ( 'NONE',  ( 1.000000000000000000, 0.000000000000000000, 0.000000000000000000 ) ) ;
#988 = ORIENTED_EDGE ( 'NONE', *, *, #141, .T. ) ;
#989 = CC_DESIGN_PERSON_AND_ORGANIZATION_ASSIGNMENT ( #243, #1174, ( #204 ) ) ;
#990 = FACE_OUTER_BOUND ( 'NONE', #53, .T. ) ;
#991 = AXIS2_PLACEMENT_3D ( 'NONE', #484, #25, #771 ) ;
#992 = SHAPE_DEFINITION_REPRESENTATION ( #679, #689 ) ;
#993 = DIRECTION ( 'NONE',  ( -1.000000000000000000, 0.000000000000000000, 0.000000000000000000 ) ) ;
#994 = EDGE_CURVE ( 'NONE', #142, #1066, #1107, .T. ) ;
#995 = LINE ( 'NONE', #92, #85 ) ;
#996 = DIRECTION ( 'NONE',  ( -0.000000000000000000, -0.000000000000000000, 1.000000000000000000 ) ) ;
#997 = ORIENTED_EDGE ( 'NONE', *, *, #976, .T. ) ;
#998 = DIRECTION ( 'NONE',  ( -0.000000000000000000, -0.000000000000000000, 1.000000000000000000 ) ) ;
#999 = PERSON_AND_ORGANIZATION ( #1061, #947 ) ;
#1000 = LINE ( 'NONE', #160, #1139 ) ;
#1001 = CARTESIAN_POINT ( 'NONE',  ( 66.55913312093970546, -0.8332790561482912306, -0.000000000000000000 ) ) ;
#1002 = DIRECTION ( 'NONE',  ( 1.000000000000000000, 0.000000000000000000, 0.000000000000000000 ) ) ;
#1003 = EDGE_LOOP ( 'NONE', ( #252, #436, #423, #214 ) ) ;
#1004 = CARTESIAN_POINT ( 'NONE',  ( 44.00000000000000000, 3.000000000000000000, 3.000000000000000000 ) ) ;
#1005 = CARTESIAN_POINT ( 'NONE',  ( 80.39659345672296809, -1.099855192328266229, 0.000000000000000000 ) ) ;
#1006 = CARTESIAN_POINT ( 'NONE',  ( 85.33085996509566939, 14.29619825512816966, 0.000000000000000000 ) ) ;
#1007 = AXIS2_PLACEMENT_3D ( 'NONE', #74, #451, #534 ) ;
#1008 = CARTESIAN_POINT ( 'NONE',  ( 1.607935578229418239, 0.4295762706540418585, -0.000000000000000000 ) ) ;
#1009 = EDGE_LOOP ( 'NONE', ( #513, #980 ) ) ;
#1010 = DIRECTION ( 'NONE',  ( -0.000000000000000000, -0.000000000000000000, -1.000000000000000000 ) ) ;
#1011 = CARTESIAN_POINT ( 'NONE',  ( 81.69260581976843127, -0.5632340263026597293, -0.000000000000000000 ) ) ;
#1012 = CARTESIAN_POINT ( 'NONE',  ( 0.2792399999999999882, 15.99756000000000178, 0.000000000000000000 ) ) ;
#1013 = DIRECTION ( 'NONE',  ( -0.000000000000000000, -0.000000000000000000, 1.000000000000000000 ) ) ;
#1014 = VERTEX_POINT ( 'NONE', #282 ) ;
#1015 = ADVANCED_FACE ( 'NONE', ( #933 ), #107, .T. ) ;
#1016 = ADVANCED_FACE ( 'NONE', ( #855 ), #563, .F. ) ;
#1017 = CARTESIAN_POINT ( 'NONE',  ( 0.000000000000000000, 0.000000000000000000, 3.000000000000000000 ) ) ;
#1018 = CARTESIAN_POINT ( 'NONE',  ( 69.44086687906029454, 0.8332790561482912306, -0.000000000000000000 ) ) ;
#1019 = DIRECTION ( 'NONE',  ( -0.000000000000000000, -0.000000000000000000, -1.000000000000000000 ) ) ;
#1020 = CARTESIAN_POINT ( 'NONE',  ( 7.291149999999905873, 15.85730000000001816, 0.000000000000000000 ) ) ;
#1021 = EDGE_LOOP ( 'NONE', ( #1160, #854, #649, #1178, #785 ) ) ;
#1022 = DIRECTION ( 'NONE',  ( 0.000000000000000000, 1.000000000000000000, 0.000000000000000000 ) ) ;
#1023 = CARTESIAN_POINT ( 'NONE',  ( 99.99990002037723968, 0.000000000000000000, 0.000000000000000000 ) ) ;
#1024 = VECTOR ( 'NONE', #427, 1000.000000000000000 ) ;
#1025 = CARTESIAN_POINT ( 'NONE',  ( 109.0630290988420228, -0.9924008923077229927, 0.000000000000000000 ) ) ;
#1026 = EDGE_LOOP ( 'NONE', ( #544, #362, #535, #1106 ) ) ;
#1027 = EDGE_CURVE ( 'NONE', #695, #1085, #681, .T. ) ;
#1028 = ADVANCED_FACE ( 'NONE', ( #191 ), #850, .T. ) ;
#1029 = DIRECTION ( 'NONE',  ( -0.000000000000000000, -0.000000000000000000, 1.000000000000000000 ) ) ;
#1030 = DIRECTION ( 'NONE',  ( 1.000000000000000000, 0.000000000000000000, 0.000000000000000000 ) ) ;
#1031 = ADVANCED_FACE ( 'NONE', ( #472 ), #383, .F. ) ;
#1032 = CARTESIAN_POINT ( 'NONE',  ( 44.00000000000000000, 0.000000000000000000, 3.000000000000000000 ) ) ;
#1033 = EDGE_LOOP ( 'NONE', ( #528, #481 ) ) ;
#1034 = LINE ( 'NONE', #564, #347 ) ;
#1035 = CARTESIAN_POINT ( 'NONE',  ( -1.012305329302151113, -1.321245347713347451, -0.000000000000000000 ) ) ;
#1036 = ORIENTED_EDGE ( 'NONE', *, *, #29, .T. ) ;
#1037 = ORIENTED_EDGE ( 'NONE', *, *, #387, .T. ) ;
#1038 = DIRECTION ( 'NONE',  ( -0.000000000000000000, -0.000000000000000000, 1.000000000000000000 ) ) ;
#1039 = DIRECTION ( 'NONE',  ( 1.000000000000000000, 0.000000000000000000, -0.000000000000000000 ) ) ;
#1040 = CARTESIAN_POINT ( 'NONE',  ( 44.00000000000000000, 0.000000000000000000, 3.000000000000000000 ) ) ;
#1041 = APPROVAL ( #1080, 'UNSPECIFIED' ) ;
#1042 = B_SPLINE_CURVE_WITH_KNOTS ( 'NONE', 3,
 ( #187, #742, #651, #1018, #928, #15, #108, #193, #395, #102, #851, #24, #200, #934, #398, #473, #97, #1135 ),
 .UNSPECIFIED., .F., .F.,
 ( 4, 2, 2, 2, 2, 2, 2, 2, 4 ),
 ( 0.000000000000000000, 0.06250000000000001388, 0.1250000000000000000, 0.1874999999999999722, 0.2499999999999999722, 0.3124999999999999445, 0.3749999999999999445, 0.4375000000000000000, 0.5000000000000000000 ),
 .UNSPECIFIED. ) ;
#1043 = VECTOR ( 'NONE', #40, 1000.000000000000000 ) ;
#1044 = ORIENTED_EDGE ( 'NONE', *, *, #461, .F. ) ;
#1045 = VECTOR ( 'NONE', #998, 1000.000000000000000 ) ;
#1046 = CARTESIAN_POINT ( 'NONE',  ( 7.291150000000000020, -15.85730000000000040, 3.000000000000000000 ) ) ;
#1047 = CARTESIAN_POINT ( 'NONE',  ( -1.012207030212722181, 1.321147048601534424, 0.000000000000000000 ) ) ;
#1048 = CARTESIAN_POINT ( 'NONE',  ( 107.3999999999999915, 6.735557395310464703E-17, -6.000000000000000152E-06 ) ) ;
#1049 = VERTEX_POINT ( 'NONE', #286 ) ;
#1050 = ADVANCED_FACE ( 'NONE', ( #178 ), #630, .T. ) ;
#1051 = DIRECTION ( 'NONE',  ( -0.000000000000000000, -0.000000000000000000, -1.000000000000000000 ) ) ;
#1052 = DIRECTION ( 'NONE',  ( -0.000000000000000000, -0.000000000000000000, 1.000000000000000000 ) ) ;
#1053 = CARTESIAN_POINT ( 'NONE',  ( 109.4922558890315116, 0.5631742406045823213, -0.000000000000000000 ) ) ;
#1054 = ORIENTED_EDGE ( 'NONE', *, *, #345, .T. ) ;
#1055 = EDGE_LOOP ( 'NONE', ( #507, #203, #988, #986 ) ) ;
#1056 = CARTESIAN_POINT ( 'NONE',  ( 80.13682575938736363, 0.9922558890154238309, 0.000000000000000000 ) ) ;
#1057 = CARTESIAN_POINT ( 'NONE',  ( 106.2000000000000028, 6.299999999999999822, 3.000000000000000000 ) ) ;
#1058 = EDGE_LOOP ( 'NONE', ( #105, #100, #701, #172 ) ) ;
#1059 = CIRCLE ( 'NONE', #502, 1.649999999999998579 ) ;
#1060 = ORIENTED_EDGE ( 'NONE', *, *, #846, .F. ) ;
#1061 = PERSON ( 'UNSPECIFIED', 'UNSPECIFIED', 'UNSPECIFIED', ('UNSPECIFIED'), ('UNSPECIFIED'), ('UNSPECIFIED') ) ;
#1062 = DIRECTION ( 'NONE',  ( 0.9997999787516902437, 0.02000006220289382228, -0.000000000000000000 ) ) ;
#1063 = CARTESIAN_POINT ( 'NONE',  ( 0.8332790561567220422, -1.440866879050428651, -0.000000000000000000 ) ) ;
#1064 = ADVANCED_FACE ( 'NONE', ( #1090 ), #543, .F. ) ;
#1065 = EDGE_LOOP ( 'NONE', ( #1054, #501, #1176, #669 ) ) ;
#1066 = VERTEX_POINT ( 'NONE', #827 ) ;
#1067 = CARTESIAN_POINT ( 'NONE',  ( 79.70753932200220504, 0.5633790295949588911, -0.000000000000000000 ) ) ;
#1068 = CARTESIAN_POINT ( 'NONE',  ( 48.99999972930055492, 149.4999991326300233, 0.000000000000000000 ) ) ;
#1069 = VERTEX_POINT ( 'NONE', #919 ) ;
#1070 = ORIENTED_EDGE ( 'NONE', *, *, #820, .F. ) ;
#1071 = DIRECTION ( 'NONE',  ( 1.000000000000000000, 0.000000000000000000, 0.000000000000000000 ) ) ;
#1072 = PERSON_AND_ORGANIZATION_ROLE ( 'creator' ) ;
#1073 = CARTESIAN_POINT ( 'NONE',  ( 58.00000000000000000, 3.000000000000000000, 3.000000000000000000 ) ) ;
#1074 = EDGE_CURVE ( 'NONE', #828, #142, #798, .T. ) ;
#1075 = VERTEX_POINT ( 'NONE', #267 ) ;
#1076 = EDGE_LOOP ( 'NONE', ( #185, #773 ) ) ;
#1077 = CIRCLE ( 'NONE', #211, 15.99999690409969944 ) ;
#1078 = EDGE_CURVE ( 'NONE', #560, #555, #469, .T. ) ;
#1079 = PLANE ( 'NONE',  #195 ) ;
#1080 = APPROVAL_STATUS ( 'not_yet_approved' ) ;
#1081 = CARTESIAN_POINT ( 'NONE',  ( 34.16677414292792747, -1.440738445092719200, 0.000000000000000000 ) ) ;
#1082 = AXIS2_PLACEMENT_3D ( 'NONE', #570, #467, #655 ) ;
#1083 = DIRECTION ( 'NONE',  ( -0.9997999787516902437, -0.02000006220289382228, 0.000000000000000000 ) ) ;
#1084 = CARTESIAN_POINT ( 'NONE',  ( -0.2184535819870815632, 1.650069507965211235, -0.000000000000000000 ) ) ;
#1085 = VERTEX_POINT ( 'NONE', #726 ) ;
#1086 = FACE_OUTER_BOUND ( 'NONE', #1055, .T. ) ;
#1087 = CLOSED_SHELL ( 'NONE', ( #743, #853, #247, #208, #237, #1117, #520, #728, #1196, #525, #9, #1028, #941, #420, #1103, #793, #632, #476, #745, #224, #1015, #859, #1050, #935, #1141, #170, #1031, #1168, #1064, #1016 ) ) ;
#1088 = CARTESIAN_POINT ( 'NONE',  ( 35.21845358200107512, -1.650069507959410320, -0.000000000000000000 ) ) ;
#1089 = DIRECTION ( 'NONE',  ( -0.02000006220289382575, 0.9997999787516903547, 0.000000000000000000 ) ) ;
#1090 = FACE_OUTER_BOUND ( 'NONE', #881, .T. ) ;
#1091 = ORIENTED_EDGE ( 'NONE', *, *, #586, .T. ) ;
#1092 = DIRECTION ( 'NONE',  ( 0.9997999787516902437, -0.02000006220289382228, 0.000000000000000000 ) ) ;
#1093 = DIRECTION ( 'NONE',  ( -0.000000000000000000, -0.000000000000000000, -1.000000000000000000 ) ) ;
#1094 = DIRECTION ( 'NONE',  ( 1.000000000000000000, 0.000000000000000000, 0.000000000000000000 ) ) ;
#1095 = DIRECTION ( 'NONE',  ( -0.000000000000000000, 0.000000000000000000, -1.000000000000000000 ) ) ;
#1096 = EDGE_LOOP ( 'NONE', ( #585, #147 ) ) ;
#1097 = CIRCLE ( 'NONE', #888, 139.9999970614144047 ) ;
#1098 = MANIFOLD_SOLID_BREP ( 'Otverstiya', #1087 ) ;
#1099 = CARTESIAN_POINT ( 'NONE',  ( 36.64999999999999858, 0.000000000000000000, -6.000000000000000152E-06 ) ) ;
#1100 = CARTESIAN_POINT ( 'NONE',  ( 35.42957627064910753, -1.607935578235779150, 0.000000000000000000 ) ) ;
#1101 = CARTESIAN_POINT ( 'NONE',  ( 69.65000000000000568, 0.000000000000000000, -6.000000000000000152E-06 ) ) ;
#1102 = EDGE_CURVE ( 'NONE', #357, #695, #209, .T. ) ;
#1103 = ADVANCED_FACE ( 'NONE', ( #445 ), #746, .F. ) ;
#1104 = AXIS2_PLACEMENT_3D ( 'NONE', #19, #390, #7 ) ;
#1105 = CARTESIAN_POINT ( 'NONE',  ( 0.000000000000000000, 0.000000000000000000, 3.000000000000000000 ) ) ;
#1106 = ORIENTED_EDGE ( 'NONE', *, *, #410, .T. ) ;
#1107 = LINE ( 'NONE', #197, #132 ) ;
#1108 = CARTESIAN_POINT ( 'NONE',  ( 33.35000000000000142, 2.020667218593130783E-16, 3.000000000000000000 ) ) ;
#1109 = VECTOR ( 'NONE', #259, 1000.000000000000000 ) ;
#1110 = LINE ( 'NONE', #285, #118 ) ;
#1111 = CARTESIAN_POINT ( 'NONE',  ( 0.4296294697466613854, 1.608064012188732850, -0.000000000000000000 ) ) ;
#1112 = ORIENTED_EDGE ( 'NONE', *, *, #1102, .T. ) ;
#1113 = EDGE_CURVE ( 'NONE', #1134, #800, #914, .T. ) ;
#1114 = LINE ( 'NONE', #650, #4 ) ;
#1115 = DIRECTION ( 'NONE',  ( -0.000000000000000000, -0.000000000000000000, -1.000000000000000000 ) ) ;
#1116 = DIRECTION ( 'NONE',  ( 1.000000000000000000, 0.000000000000000000, 0.000000000000000000 ) ) ;
#1117 = ADVANCED_FACE ( 'NONE', ( #554 ), #88, .F. ) ;
#1118 = EDGE_CURVE ( 'NONE', #60, #747, #1097, .T. ) ;
#1119 = DIRECTION ( 'NONE',  ( 0.000000000000000000, 0.000000000000000000, 1.000000000000000000 ) ) ;
#1120 = ORIENTED_EDGE ( 'NONE', *, *, #522, .T. ) ;
#1121 = PRODUCT_DEFINITION_FORMATION_WITH_SPECIFIED_SOURCE ( 'ANY', '', #2, .NOT_KNOWN. ) ;
#1122 = DIRECTION ( 'NONE',  ( 0.9997999787516902437, 0.02000006220289382228, -0.000000000000000000 ) ) ;
#1123 = EDGE_CURVE ( 'NONE', #809, #1014, #68, .T. ) ;
#1124 = LINE ( 'NONE', #950, #444 ) ;
#1125 = CIRCLE ( 'NONE', #911, 1.649999999999998579 ) ;
#1126 = DIRECTION ( 'NONE',  ( -0.000000000000000000, -0.000000000000000000, -1.000000000000000000 ) ) ;
#1127 = VERTEX_POINT ( 'NONE', #361 ) ;
#1128 = DIRECTION ( 'NONE',  ( 0.000000000000000000, 0.000000000000000000, 1.000000000000000000 ) ) ;
#1129 = DIRECTION ( 'NONE',  ( -0.000000000000000000, -0.000000000000000000, -1.000000000000000000 ) ) ;
#1130 = CIRCLE ( 'NONE', #103, 3.000000000000002665 ) ;
#1131 = VERTEX_POINT ( 'NONE', #355 ) ;
#1132 = DIRECTION ( 'NONE',  ( 1.000000000000000000, 0.000000000000000000, 0.000000000000000000 ) ) ;
#1133 = CARTESIAN_POINT ( 'NONE',  ( 109.6000000000000085, 0.000000000000000000, -6.000000000000000152E-06 ) ) ;
#1134 = VERTEX_POINT ( 'NONE', #376 ) ;
#1135 = CARTESIAN_POINT ( 'NONE',  ( 66.35000000000000853, 1.010333609296565391E-16, -6.000000000000000152E-06 ) ) ;
#1136 = AXIS2_PLACEMENT_3D ( 'NONE', #875, #1119, #1039 ) ;
#1137 = FACE_BOUND ( 'NONE', #1076, .T. ) ;
#1138 = CYLINDRICAL_SURFACE ( 'NONE', #157, 1.100000000000003642 ) ;
#1139 = VECTOR ( 'NONE', #455, 1000.000000000000000 ) ;
#1140 = ORIENTED_EDGE ( 'NONE', *, *, #151, .T. ) ;
#1141 = ADVANCED_FACE ( 'NONE', ( #832 ), #733, .T. ) ;
#1142 = EDGE_CURVE ( 'NONE', #122, #1171, #131, .T. ) ;
#1143 = AXIS2_PLACEMENT_3D ( 'NONE', #326, #966, #236 ) ;
#1144 = FACE_BOUND ( 'NONE', #196, .T. ) ;
#1145 = CARTESIAN_POINT ( 'NONE',  ( -1.440738445092732745, 0.8332258570587504076, 0.000000000000000000 ) ) ;
#1146 = DIRECTION ( 'NONE',  ( -1.000000000000000000, 0.000000000000000000, 0.000000000000000000 ) ) ;
#1147 = VERTEX_POINT ( 'NONE', #787 ) ;
#1148 = VECTOR ( 'NONE', #213, 1000.000000000000000 ) ;
#1149 = CARTESIAN_POINT ( 'NONE',  ( 79.60014480767976863, 0.3034065432689914688, 0.000000000000000000 ) ) ;
#1150 = DIRECTION ( 'NONE',  ( -0.000000000000000000, -0.000000000000000000, -1.000000000000000000 ) ) ;
#1151 = ORIENTED_EDGE ( 'NONE', *, *, #731, .T. ) ;
#1152 = CC_DESIGN_PERSON_AND_ORGANIZATION_ASSIGNMENT ( #1169, #716, ( #759 ) ) ;
#1153 = ORIENTED_EDGE ( 'NONE', *, *, #487, .T. ) ;
#1154 = EDGE_CURVE ( 'NONE', #297, #142, #865, .T. ) ;
#1155 = DIRECTION ( 'NONE',  ( 1.000000000000000000, 0.000000000000000000, -0.000000000000000000 ) ) ;
#1156 = EDGE_CURVE ( 'NONE', #555, #60, #692, .T. ) ;
#1157 = APPLICATION_PROTOCOL_DEFINITION ( 'international standard', 'config_control_design', 1994, #579 ) ;
#1158 = DIRECTION ( 'NONE',  ( -0.000000000000000000, -0.000000000000000000, -1.000000000000000000 ) ) ;
#1159 = VECTOR ( 'NONE', #403, 1000.000000000000000 ) ;
#1160 = ORIENTED_EDGE ( 'NONE', *, *, #363, .F. ) ;
#1161 = EDGE_LOOP ( 'NONE', ( #623, #569, #411, #281, #849 ) ) ;
#1162 = LINE ( 'NONE', #977, #485 ) ;
#1163 = DIRECTION ( 'NONE',  ( -1.000000000000000000, 0.000000000000000000, 0.000000000000000000 ) ) ;
#1164 = ORIENTED_EDGE ( 'NONE', *, *, #566, .F. ) ;
#1165 = VERTEX_POINT ( 'NONE', #1020 ) ;
#1166 = AXIS2_PLACEMENT_3D ( 'NONE', #80, #838, #374 ) ;
#1167 = FACE_BOUND ( 'NONE', #1021, .T. ) ;
#1168 = ADVANCED_FACE ( 'NONE', ( #226 ), #125, .F. ) ;
#1169 = PERSON_AND_ORGANIZATION ( #1061, #947 ) ;
#1170 = CARTESIAN_POINT ( 'NONE',  ( 1.321245347705344741, -1.012305329311587565, -0.000000000000000000 ) ) ;
#1171 = VERTEX_POINT ( 'NONE', #189 ) ;
#1172 = ORIENTED_EDGE ( 'NONE', *, *, #956, .F. ) ;
#1173 = PLANE ( 'NONE',  #37 ) ;
#1174 = PERSON_AND_ORGANIZATION_ROLE ( 'classification_officer' ) ;
#1175 = CARTESIAN_POINT ( 'NONE',  ( 81.80000000000001137, -0.3039615398675958868, -0.000000000000000000 ) ) ;
#1176 = ORIENTED_EDGE ( 'NONE', *, *, #1118, .F. ) ;
#1177 = CARTESIAN_POINT ( 'NONE',  ( 83.00000000000000000, 6.299999999999999822, 3.000000000000000000 ) ) ;
#1178 = ORIENTED_EDGE ( 'NONE', *, *, #288, .F. ) ;
#1179 = AXIS2_PLACEMENT_3D ( 'NONE', #574, #290, #1030 ) ;
#1180 = CARTESIAN_POINT ( 'NONE',  ( 36.60793557822942290, 0.4295762706540418585, -0.000000000000000000 ) ) ;
#1181 = COORDINATED_UNIVERSAL_TIME_OFFSET ( 3, 0, .AHEAD. ) ;
#1182 = CARTESIAN_POINT ( 'NONE',  ( 33.35000000000000142, 1.010333609296565391E-16, -6.000000000000000152E-06 ) ) ;
#1183 = AXIS2_PLACEMENT_3D ( 'NONE', #709, #124, #955 ) ;
#1184 = DIRECTION ( 'NONE',  ( 0.000000000000000000, 1.000000000000000000, 0.000000000000000000 ) ) ;
#1185 = EDGE_CURVE ( 'NONE', #341, #1127, #582, .T. ) ;
#1186 = DIRECTION ( 'NONE',  ( 0.000000000000000000, 0.000000000000000000, 1.000000000000000000 ) ) ;
#1187 = VERTEX_POINT ( 'NONE', #951 ) ;
#1188 = CARTESIAN_POINT ( 'NONE',  ( 83.00000000000000000, -6.299999999999999822, 0.000000000000000000 ) ) ;
#1189 = VECTOR ( 'NONE', #500, 1000.000000000000114 ) ;
#1190 = CARTESIAN_POINT ( 'NONE',  ( 48.99999972930055492, -149.4999991326300233, 3.000000000000000000 ) ) ;
#1191 = DIRECTION ( 'NONE',  ( 0.9997999978325524673, 0.01999910833082476844, -0.000000000000000000 ) ) ;
#1192 = DIRECTION ( 'NONE',  ( -1.000000000000000000, 0.000000000000000000, 0.000000000000000000 ) ) ;
#1193 = VERTEX_POINT ( 'NONE', #212 ) ;
#1194 = CARTESIAN_POINT ( 'NONE',  ( 34.16672094384678360, 1.440866879052464355, -0.000000000000000000 ) ) ;
#1195 = CARTESIAN_POINT ( 'NONE',  ( 48.99999972930055492, -149.4999991326300233, 3.000000000000000000 ) ) ;
#1196 = ADVANCED_FACE ( 'NONE', ( #593, #1137, #381, #752, #957, #28, #967, #399 ), #499, .F. ) ;
#1197 = CARTESIAN_POINT ( 'NONE',  ( 66.39206442177305689, -0.4295762706565214306, 0.000000000000000000 ) ) ;
#1198 = DIRECTION ( 'NONE',  ( -0.000000000000000000, -0.000000000000000000, -1.000000000000000000 ) ) ;
#1199 = ORIENTED_EDGE ( 'NONE', *, *, #641, .F. ) ;
#1200 = CARTESIAN_POINT ( 'NONE',  ( 33.35006950796087466, 0.2184535819870954965, -0.000000000000000000 ) ) ;
#1201 = VECTOR ( 'NONE', #1150, 1000.000000000000000 ) ;
ENDSEC;
END-ISO-10303-21;
