ISO-10303-21;
HEADER;
FILE_DESCRIPTION (( 'STEP AP203' ),
    '1' );
FILE_NAME ('14_kist_B.step',
    '2026-10-01T20:19:30',
    ( '' ),
    ( '' ),
    'SwSTEP 2.0',
    'SolidWorks 2026',
    '' );
FILE_SCHEMA (( 'CONFIG_CONTROL_DESIGN' ));
ENDSEC;

DATA;
#1 = VERTEX_POINT ( 'NONE', #86 ) ;
#2 = DIRECTION ( 'NONE',  ( 0.4138108491198072558, 0.9103628843218204425, -0.000000000000000000 ) ) ;
#3 = ADVANCED_FACE ( 'NONE', ( #800 ), #805, .T. ) ;
#4 = AXIS2_PLACEMENT_3D ( 'NONE', #902, #276, #768 ) ;
#5 = CARTESIAN_POINT ( 'NONE',  ( 38.10000000000000142, 10.09999999999999964, 0.000000000000000000 ) ) ;
#6 = ORIENTED_EDGE ( 'NONE', *, *, #53, .F. ) ;
#7 = CARTESIAN_POINT ( 'NONE',  ( 38.14999999999999858, -5.000000000000000000, -6.000000000000000152E-06 ) ) ;
#8 = CARTESIAN_POINT ( 'NONE',  ( 34.85000000000000142, -5.000000000000000000, -6.000000000000000152E-06 ) ) ;
#9 = LINE ( 'NONE', #715, #837 ) ;
#10 = VECTOR ( 'NONE', #891, 1000.000000000000000 ) ;
#11 = EDGE_CURVE ( 'NONE', #428, #368, #786, .T. ) ;
#12 = ORIENTED_EDGE ( 'NONE', *, *, #186, .F. ) ;
#13 = CARTESIAN_POINT ( 'NONE',  ( 38.10000000000000142, 1.899999999999999911, 0.000000000000000000 ) ) ;
#14 = DIRECTION ( 'NONE',  ( 0.000000000000000000, -0.000000000000000000, -1.000000000000000000 ) ) ;
#15 = VERTEX_POINT ( 'NONE', #230 ) ;
#16 = EDGE_CURVE ( 'NONE', #860, #131, #842, .T. ) ;
#17 = ORIENTED_EDGE ( 'NONE', *, *, #174, .T. ) ;
#18 = FACE_OUTER_BOUND ( 'NONE', #231, .T. ) ;
#19 = DIRECTION ( 'NONE',  ( 1.000000000000000000, 0.000000000000000000, 0.000000000000000000 ) ) ;
#20 = CARTESIAN_POINT ( 'NONE',  ( 13.07083384600390552, -5.726961351275244638, 0.000000000000000000 ) ) ;
#21 = APPROVAL ( #110, 'UNSPECIFIED' ) ;
#22 = ORIENTED_EDGE ( 'NONE', *, *, #806, .T. ) ;
#23 = CARTESIAN_POINT ( 'NONE',  ( -0.2184535819896701592, 1.650069507960235438, -0.000000000000000000 ) ) ;
#24 = DIRECTION ( 'NONE',  ( 0.000000000000000000, -1.000000000000000000, 0.000000000000000000 ) ) ;
#25 = CARTESIAN_POINT ( 'NONE',  ( 18.17105898948799592, -12.38562107431061499, 0.000000000000000000 ) ) ;
#26 = AXIS2_PLACEMENT_3D ( 'NONE', #724, #729, #19 ) ;
#27 = ORIENTED_EDGE ( 'NONE', *, *, #352, .F. ) ;
#28 = DIRECTION ( 'NONE',  ( -1.000000000000000000, 0.000000000000000000, 0.000000000000000000 ) ) ;
#29 = EDGE_CURVE ( 'NONE', #260, #45, #790, .T. ) ;
#30 = LINE ( 'NONE', #645, #389 ) ;
#31 = CARTESIAN_POINT ( 'NONE',  ( 19.76022195751993138, -11.60364067430803381, 0.000000000000000000 ) ) ;
#32 = ORIENTED_EDGE ( 'NONE', *, *, #314, .F. ) ;
#33 = CARTESIAN_POINT ( 'NONE',  ( -1.649999999999999911, 2.020667218593132262E-16, -1.200000000000000030E-05 ) ) ;
#34 = PLANE ( 'NONE',  #866 ) ;
#35 = CARTESIAN_POINT ( 'NONE',  ( 34.89999999999999858, 1.899999999999999911, 3.000000000000000000 ) ) ;
#36 = VECTOR ( 'NONE', #124, 1000.000000000000000 ) ;
#37 = ORIENTED_EDGE ( 'NONE', *, *, #828, .F. ) ;
#38 = APPROVAL_PERSON_ORGANIZATION ( #394, #21, #609 ) ;
#39 = CARTESIAN_POINT ( 'NONE',  ( 38.10000000000000142, -11.90000000000000036, 3.000000000000000000 ) ) ;
#40 = EDGE_CURVE ( 'NONE', #237, #603, #104, .T. ) ;
#41 = ORIENTED_EDGE ( 'NONE', *, *, #553, .F. ) ;
#42 = CARTESIAN_POINT ( 'NONE',  ( 0.000000000000000000, 0.000000000000000000, -1.200000000000000030E-05 ) ) ;
#43 = CARTESIAN_POINT ( 'NONE',  ( 36.50000000000000000, -5.000000000000000000, -1.200000000000000030E-05 ) ) ;
#44 = EDGE_CURVE ( 'NONE', #664, #704, #596, .T. ) ;
#45 = VERTEX_POINT ( 'NONE', #655 ) ;
#46 = CALENDAR_DATE ( 2026, 1, 10 ) ;
#47 = CARTESIAN_POINT ( 'NONE',  ( 34.89999999999999858, -20.10000000000000142, 3.000000000000000000 ) ) ;
#48 = CIRCLE ( 'NONE', #264, 11.99999886465577248 ) ;
#49 = VERTEX_POINT ( 'NONE', #98 ) ;
#50 = DATE_TIME_ROLE ( 'classification_date' ) ;
#51 = PRODUCT_DEFINITION ( 'UNKNOWN', '', #111, #373 ) ;
#52 = LINE ( 'NONE', #880, #36 ) ;
#53 = EDGE_CURVE ( 'NONE', #860, #81, #9, .T. ) ;
#54 = PLANE ( 'NONE',  #240 ) ;
#55 = ORIENTED_EDGE ( 'NONE', *, *, #795, .F. ) ;
#56 = AXIS2_PLACEMENT_3D ( 'NONE', #43, #552, #546 ) ;
#57 = CARTESIAN_POINT ( 'NONE',  ( -2.503777292916717356E-07, 3.181348342748413494E-06, 3.000000000000000000 ) ) ;
#58 = CIRCLE ( 'NONE', #775, 11.99999886465577248 ) ;
#59 = EDGE_CURVE ( 'NONE', #131, #860, #565, .T. ) ;
#60 = DIRECTION ( 'NONE',  ( 1.000000000000000000, 0.000000000000000000, 0.000000000000000000 ) ) ;
#61 = EDGE_LOOP ( 'NONE', ( #543, #12, #573, #879 ) ) ;
#62 = FACE_BOUND ( 'NONE', #579, .T. ) ;
#63 = FACE_OUTER_BOUND ( 'NONE', #116, .T. ) ;
#64 = ORIENTED_EDGE ( 'NONE', *, *, #754, .F. ) ;
#65 = DIRECTION ( 'NONE',  ( -1.000000000000000000, 0.000000000000000000, 0.000000000000000000 ) ) ;
#66 = CARTESIAN_POINT ( 'NONE',  ( 25.99999842625834745, -24.99999972250671831, 3.000000000000000000 ) ) ;
#67 = DIRECTION ( 'NONE',  ( 0.000000000000000000, 0.000000000000000000, 1.000000000000000000 ) ) ;
#68 = VECTOR ( 'NONE', #259, 1000.000000000000114 ) ;
#69 = FACE_OUTER_BOUND ( 'NONE', #82, .T. ) ;
#70 = AXIS2_PLACEMENT_3D ( 'NONE', #816, #732, #28 ) ;
#71 = EDGE_CURVE ( 'NONE', #905, #407, #302, .T. ) ;
#72 = VERTEX_POINT ( 'NONE', #469 ) ;
#73 = PLANE ( 'NONE',  #233 ) ;
#74 = CARTESIAN_POINT ( 'NONE',  ( -1.440866879057169925, -0.8332790561512460892, -0.000000000000000000 ) ) ;
#75 = ORIENTED_EDGE ( 'NONE', *, *, #646, .T. ) ;
#76 = CC_DESIGN_DATE_AND_TIME_ASSIGNMENT ( #771, #50, ( #832 ) ) ;
#77 = CARTESIAN_POINT ( 'NONE',  ( 25.99999842625834745, -24.99999972250671831, 3.000000000000000000 ) ) ;
#78 = VECTOR ( 'NONE', #357, 1000.000000000000000 ) ;
#79 = ADVANCED_FACE ( 'NONE', ( #749 ), #54, .F. ) ;
#80 = DIRECTION ( 'NONE',  ( 1.000000000000000000, 0.000000000000000000, 0.000000000000000000 ) ) ;
#81 = VERTEX_POINT ( 'NONE', #666 ) ;
#82 = EDGE_LOOP ( 'NONE', ( #64, #100, #227, #336 ) ) ;
#83 = LINE ( 'NONE', #868, #637 ) ;
#84 = PLANE ( 'NONE',  #99 ) ;
#85 = EDGE_CURVE ( 'NONE', #131, #257, #827, .T. ) ;
#86 = CARTESIAN_POINT ( 'NONE',  ( 34.89999999999999858, -20.10000000000000142, 0.000000000000000000 ) ) ;
#87 = VERTEX_POINT ( 'NONE', #758 ) ;
#88 = DIRECTION ( 'NONE',  ( 0.000000000000000000, 0.000000000000000000, 1.000000000000000000 ) ) ;
#89 = CARTESIAN_POINT ( 'NONE',  ( 36.50000000000000000, -5.000000000000000000, 3.000000000000000000 ) ) ;
#90 = DIRECTION ( 'NONE',  ( -0.000000000000000000, -0.000000000000000000, -1.000000000000000000 ) ) ;
#91 = ORIENTED_EDGE ( 'NONE', *, *, #16, .F. ) ;
#92 = CARTESIAN_POINT ( 'NONE',  ( 35.05926155490582374, -4.166774142937474501, 0.000000000000000000 ) ) ;
#93 = CARTESIAN_POINT ( 'NONE',  ( 34.89999999999999858, 1.899999999999999911, 3.000000000000000000 ) ) ;
#94 = CARTESIAN_POINT ( 'NONE',  ( 17.59638709401850321, -12.50006957849477729, -0.000000000000000000 ) ) ;
#95 = ORIENTED_EDGE ( 'NONE', *, *, #16, .T. ) ;
#96 = PLANE ( 'NONE',  #212 ) ;
#97 = CARTESIAN_POINT ( 'NONE',  ( 38.10000000000000142, -11.90000000000000036, 3.000000000000000000 ) ) ;
#98 = CARTESIAN_POINT ( 'NONE',  ( 34.89999999999999858, -20.10000000000000142, 3.000000000000000000 ) ) ;
#99 = AXIS2_PLACEMENT_3D ( 'NONE', #93, #386, #305 ) ;
#100 = ORIENTED_EDGE ( 'NONE', *, *, #698, .F. ) ;
#101 = CYLINDRICAL_SURFACE ( 'NONE', #70, 11.99999886465577248 ) ;
#102 = ADVANCED_FACE ( 'NONE', ( #183 ), #197, .F. ) ;
#103 = FACE_OUTER_BOUND ( 'NONE', #500, .T. ) ;
#104 = LINE ( 'NONE', #164, #344 ) ;
#105 = ORIENTED_EDGE ( 'NONE', *, *, #215, .F. ) ;
#106 = APPROVAL_ROLE ( '' ) ;
#107 = CARTESIAN_POINT ( 'NONE',  ( 34.89999999999999858, 10.09999999999999964, 3.000000000000000000 ) ) ;
#108 = DIRECTION ( 'NONE',  ( 1.000000000000000000, 0.000000000000000000, 0.000000000000000000 ) ) ;
#109 = ORIENTED_EDGE ( 'NONE', *, *, #828, .T. ) ;
#110 = APPROVAL_STATUS ( 'not_yet_approved' ) ;
#111 = PRODUCT_DEFINITION_FORMATION_WITH_SPECIFIED_SOURCE ( 'ANY', '', #915, .NOT_KNOWN. ) ;
#112 = CARTESIAN_POINT ( 'NONE',  ( 34.89999999999999858, 1.899999999999999911, 0.000000000000000000 ) ) ;
#113 = FACE_OUTER_BOUND ( 'NONE', #416, .T. ) ;
#114 = EDGE_CURVE ( 'NONE', #905, #856, #745, .T. ) ;
#115 = CLOSED_SHELL ( 'NONE', ( #199, #479, #474, #894, #709, #273, #79, #341, #624, #672, #776, #157, #525, #245, #286, #3, #418, #635, #840, #578, #444, #122, #102 ) ) ;
#116 = EDGE_LOOP ( 'NONE', ( #375, #791, #815, #897 ) ) ;
#117 =( NAMED_UNIT ( * ) PLANE_ANGLE_UNIT ( ) SI_UNIT ( $, .RADIAN. ) );
#118 = AXIS2_PLACEMENT_3D ( 'NONE', #528, #519, #153 ) ;
#119 = CARTESIAN_POINT ( 'NONE',  ( 34.89999999999999858, -11.90000000000000036, 0.000000000000000000 ) ) ;
#120 = DIRECTION ( 'NONE',  ( 1.000000000000000000, 0.000000000000000000, 0.000000000000000000 ) ) ;
#121 = B_SPLINE_CURVE_WITH_KNOTS ( 'NONE', 3,
 ( #8, #513, #793, #591, #366, #799, #438, #650, #662, #168, #443, #172, #449, #854, #507, #453, #434, #714 ),
 .UNSPECIFIED., .F., .F.,
 ( 4, 2, 2, 2, 2, 2, 2, 2, 4 ),
 ( 0.5000000000000000000, 0.5625000000000000000, 0.6250000000000000000, 0.6875000000000000000, 0.7500000000000000000, 0.8125000000000000000, 0.8750000000000000000, 0.9375000000000000000, 1.000000000000000000 ),
 .UNSPECIFIED. ) ;
#122 = ADVANCED_FACE ( 'NONE', ( #113 ), #534, .F. ) ;
#123 = ORIENTED_EDGE ( 'NONE', *, *, #499, .F. ) ;
#124 = DIRECTION ( 'NONE',  ( 0.000000000000000000, -1.000000000000000000, 0.000000000000000000 ) ) ;
#125 = LINE ( 'NONE', #397, #589 ) ;
#126 = VECTOR ( 'NONE', #132, 1000.000000000000000 ) ;
#127 = ORIENTED_EDGE ( 'NONE', *, *, #256, .F. ) ;
#128 = EDGE_CURVE ( 'NONE', #762, #608, #405, .T. ) ;
#129 = CARTESIAN_POINT ( 'NONE',  ( -2.503777292916717356E-07, 3.181348342748413494E-06, 0.000000000000000000 ) ) ;
#130 = CARTESIAN_POINT ( 'NONE',  ( 38.10000000000000142, -20.10000000000000142, 3.000000000000000000 ) ) ;
#131 = VERTEX_POINT ( 'NONE', #811 ) ;
#132 = DIRECTION ( 'NONE',  ( 1.000000000000000000, -0.000000000000000000, -0.000000000000000000 ) ) ;
#133 = DIRECTION ( 'NONE',  ( 0.000000000000000000, 0.000000000000000000, 1.000000000000000000 ) ) ;
#134 = VECTOR ( 'NONE', #848, 1000.000000000000000 ) ;
#135 = VERTEX_POINT ( 'NONE', #478 ) ;
#136 = PERSON_AND_ORGANIZATION ( #889, #839 ) ;
#137 = DIRECTION ( 'NONE',  ( -1.000000000000000000, 0.000000000000000000, 0.000000000000000000 ) ) ;
#138 = CARTESIAN_POINT ( 'NONE',  ( 41.49999842625835100, -24.99999972250671831, 3.000000000000000000 ) ) ;
#139 = EDGE_CURVE ( 'NONE', #45, #349, #125, .T. ) ;
#140 = FACE_BOUND ( 'NONE', #204, .T. ) ;
#141 = CARTESIAN_POINT ( 'NONE',  ( -0.4296294697431491394, -1.608064012193706205, -0.000000000000000000 ) ) ;
#142 = EDGE_CURVE ( 'NONE', #368, #515, #263, .T. ) ;
#143 = APPROVAL_ROLE ( '' ) ;
#144 = EDGE_LOOP ( 'NONE', ( #17, #435, #37, #620 ) ) ;
#145 = LINE ( 'NONE', #205, #906 ) ;
#146 = AXIS2_PLACEMENT_3D ( 'NONE', #761, #843, #355 ) ;
#147 = DIRECTION ( 'NONE',  ( -1.000000000000000000, 0.000000000000000000, 0.000000000000000000 ) ) ;
#148 = VECTOR ( 'NONE', #423, 1000.000000000000000 ) ;
#149 = EDGE_CURVE ( 'NONE', #549, #200, #605, .T. ) ;
#150 = EDGE_CURVE ( 'NONE', #412, #135, #188, .T. ) ;
#151 = ORIENTED_EDGE ( 'NONE', *, *, #44, .F. ) ;
#152 = CARTESIAN_POINT ( 'NONE',  ( 37.33322585706054042, -3.559261554906370861, 0.000000000000000000 ) ) ;
#153 = DIRECTION ( 'NONE',  ( 1.000000000000000000, 0.000000000000000000, 0.000000000000000000 ) ) ;
#154 = ORIENTED_EDGE ( 'NONE', *, *, #40, .T. ) ;
#155 = ORIENTED_EDGE ( 'NONE', *, *, #850, .T. ) ;
#156 = DIRECTION ( 'NONE',  ( -1.000000000000000000, -0.000000000000000000, -0.000000000000000000 ) ) ;
#157 = ADVANCED_FACE ( 'NONE', ( #330 ), #325, .F. ) ;
#158 = DIRECTION ( 'NONE',  ( 0.000000000000000000, -1.000000000000000000, 0.000000000000000000 ) ) ;
#159 = CARTESIAN_POINT ( 'NONE',  ( 20.60364067430886337, -5.239778042479919407, 0.000000000000000000 ) ) ;
#160 = LOCAL_TIME ( 23, 19, 30.00000000000000000, #261 ) ;
#161 = EDGE_LOOP ( 'NONE', ( #95, #166 ) ) ;
#162 = CARTESIAN_POINT ( 'NONE',  ( -1.649930492039763941, 0.2184535819897198694, -0.000000000000000000 ) ) ;
#163 = CARTESIAN_POINT ( 'NONE',  ( 26.00000000000000000, 14.00000000000000000, 3.000000000000000000 ) ) ;
#164 = CARTESIAN_POINT ( 'NONE',  ( 38.10000000000000142, 10.09999999999999964, 3.000000000000000000 ) ) ;
#165 = VECTOR ( 'NONE', #343, 1000.000000000000000 ) ;
#166 = ORIENTED_EDGE ( 'NONE', *, *, #59, .T. ) ;
#167 = CARTESIAN_POINT ( 'NONE',  ( -1.608064012193706427, 0.4296294697430954601, -0.000000000000000000 ) ) ;
#168 = CARTESIAN_POINT ( 'NONE',  ( 36.71845358198883957, -6.650069507960325588, -0.000000000000000000 ) ) ;
#169 = CARTESIAN_POINT ( 'NONE',  ( 14.23967964362742045, -11.60373907315730868, -0.000000000000000000 ) ) ;
#170 = ORIENTED_EDGE ( 'NONE', *, *, #44, .T. ) ;
#171 = LINE ( 'NONE', #13, #794 ) ;
#172 = CARTESIAN_POINT ( 'NONE',  ( 37.33327905615231401, -6.440866879057002947, -0.000000000000000000 ) ) ;
#173 = CARTESIAN_POINT ( 'NONE',  ( 20.92929471828922416, -5.726908098199459118, -0.000000000000000000 ) ) ;
#174 = EDGE_CURVE ( 'NONE', #597, #367, #739, .T. ) ;
#175 = ORIENTED_EDGE ( 'NONE', *, *, #862, .F. ) ;
#176 = APPROVAL_DATE_TIME ( #467, #801 ) ;
#177 = CARTESIAN_POINT ( 'NONE',  ( -0.9415099999999991809, 11.96300999999999881, 0.000000000000000000 ) ) ;
#178 = DIRECTION ( 'NONE',  ( -0.000000000000000000, 0.000000000000000000, -1.000000000000000000 ) ) ;
#179 = VECTOR ( 'NONE', #774, 1000.000000000000000 ) ;
#180 = ORIENTED_EDGE ( 'NONE', *, *, #307, .T. ) ;
#181 = LINE ( 'NONE', #408, #550 ) ;
#182 = LINE ( 'NONE', #890, #769 ) ;
#183 = FACE_OUTER_BOUND ( 'NONE', #420, .T. ) ;
#184 = EDGE_LOOP ( 'NONE', ( #105, #755, #716, #656 ) ) ;
#185 = PERSON_AND_ORGANIZATION ( #889, #839 ) ;
#186 = EDGE_CURVE ( 'NONE', #49, #1, #675, .T. ) ;
#187 = CARTESIAN_POINT ( 'NONE',  ( 17.00000000000000000, -8.000000000000000000, -1.200000000000000030E-05 ) ) ;
#188 = LINE ( 'NONE', #39, #165 ) ;
#189 = ORIENTED_EDGE ( 'NONE', *, *, #877, .F. ) ;
#190 = APPROVAL_DATE_TIME ( #527, #21 ) ;
#191 = DIRECTION ( 'NONE',  ( 0.000000000000000000, -0.000000000000000000, 1.000000000000000000 ) ) ;
#192 = CC_DESIGN_PERSON_AND_ORGANIZATION_ASSIGNMENT ( #185, #668, ( #915 ) ) ;
#193 = DIRECTION ( 'NONE',  ( 0.000000000000000000, 0.000000000000000000, 1.000000000000000000 ) ) ;
#194 = AXIS2_PLACEMENT_3D ( 'NONE', #207, #133, #706 ) ;
#195 = VERTEX_POINT ( 'NONE', #615 ) ;
#196 = DATE_TIME_ROLE ( 'creation_date' ) ;
#197 = CYLINDRICAL_SURFACE ( 'NONE', #269, 1.649999999999998579 ) ;
#198 = VECTOR ( 'NONE', #803, 1000.000000000000000 ) ;
#199 = ADVANCED_FACE ( 'NONE', ( #896 ), #814, .F. ) ;
#200 = VERTEX_POINT ( 'NONE', #618 ) ;
#201 = CARTESIAN_POINT ( 'NONE',  ( 1.649999999999999911, 0.000000000000000000, -1.200000000000000030E-05 ) ) ;
#202 = CARTESIAN_POINT ( 'NONE',  ( -11.99999911503350170, 3.181348342748413494E-06, 3.000000000000000000 ) ) ;
#203 = VECTOR ( 'NONE', #292, 1000.000000000000000 ) ;
#204 = EDGE_LOOP ( 'NONE', ( #886, #829 ) ) ;
#205 = CARTESIAN_POINT ( 'NONE',  ( 26.00000000000000000, 14.00000000000000000, 0.000000000000000000 ) ) ;
#206 = APPROVAL_PERSON_ORGANIZATION ( #136, #463, #143 ) ;
#207 = CARTESIAN_POINT ( 'NONE',  ( 36.50000000000000000, -5.000000000000000000, 3.000000000000000000 ) ) ;
#208 = ORIENTED_EDGE ( 'NONE', *, *, #149, .T. ) ;
#209 = ORIENTED_EDGE ( 'NONE', *, *, #765, .T. ) ;
#210 = DIRECTION ( 'NONE',  ( -0.000000000000000000, -0.000000000000000000, -1.000000000000000000 ) ) ;
#211 = DIRECTION ( 'NONE',  ( -0.000000000000000000, 0.000000000000000000, -1.000000000000000000 ) ) ;
#212 = AXIS2_PLACEMENT_3D ( 'NONE', #779, #792, #784 ) ;
#213 = ORIENTED_EDGE ( 'NONE', *, *, #326, .T. ) ;
#214 = CARTESIAN_POINT ( 'NONE',  ( 38.14999999999999858, -5.000000000000000000, -6.000000000000000152E-06 ) ) ;
#215 = EDGE_CURVE ( 'NONE', #195, #253, #899, .T. ) ;
#216 = FACE_OUTER_BOUND ( 'NONE', #447, .T. ) ;
#217 = AXIS2_PLACEMENT_3D ( 'NONE', #545, #821, #400 ) ;
#218 = PRODUCT_DEFINITION_SHAPE ( 'NONE', 'NONE',  #51 ) ;
#219 = FACE_OUTER_BOUND ( 'NONE', #298, .T. ) ;
#220 = FACE_BOUND ( 'NONE', #462, .T. ) ;
#221 = VERTEX_POINT ( 'NONE', #130 ) ;
#222 = CARTESIAN_POINT ( 'NONE',  ( 37.51230532930817674, -3.678754652293030336, -0.000000000000000000 ) ) ;
#223 = VECTOR ( 'NONE', #90, 1000.000000000000000 ) ;
#224 = FACE_BOUND ( 'NONE', #280, .T. ) ;
#225 = EDGE_CURVE ( 'NONE', #722, #648, #777, .T. ) ;
#226 = APPROVAL_PERSON_ORGANIZATION ( #679, #801, #106 ) ;
#227 = ORIENTED_EDGE ( 'NONE', *, *, #361, .T. ) ;
#228 = CARTESIAN_POINT ( 'NONE',  ( 34.85000000000000142, -5.000000000000000000, -6.000000000000000152E-06 ) ) ;
#229 = CARTESIAN_POINT ( 'NONE',  ( 26.00000000000000000, 14.00000000000000000, 0.000000000000000000 ) ) ;
#230 = CARTESIAN_POINT ( 'NONE',  ( 38.10000000000000142, -20.10000000000000142, 0.000000000000000000 ) ) ;
#231 = EDGE_LOOP ( 'NONE', ( #327, #530, #75, #647 ) ) ;
#232 = CARTESIAN_POINT ( 'NONE',  ( 0.000000000000000000, 0.000000000000000000, 3.000000000000000000 ) ) ;
#233 = AXIS2_PLACEMENT_3D ( 'NONE', #641, #2, #644 ) ;
#234 = CARTESIAN_POINT ( 'NONE',  ( -0.9415099999999991809, 11.96300999999999881, 3.000000000000000000 ) ) ;
#235 = CARTESIAN_POINT ( 'NONE',  ( 14.72690809820079672, -4.070705281709935619, -0.000000000000000000 ) ) ;
#236 = CC_DESIGN_APPROVAL ( #21, ( #111 ) ) ;
#237 = VERTEX_POINT ( 'NONE', #766 ) ;
#238 = CARTESIAN_POINT ( 'NONE',  ( 1.440866879057249417, 0.8332790561511670413, -0.000000000000000000 ) ) ;
#239 = LINE ( 'NONE', #710, #634 ) ;
#240 = AXIS2_PLACEMENT_3D ( 'NONE', #823, #881, #686 ) ;
#241 = DIRECTION ( 'NONE',  ( 1.000000000000000000, 0.000000000000000000, -0.000000000000000000 ) ) ;
#242 = EDGE_LOOP ( 'NONE', ( #22, #639 ) ) ;
#243 = CARTESIAN_POINT ( 'NONE',  ( 1.012305329308547330, 1.321245347707134865, -0.000000000000000000 ) ) ;
#244 = VECTOR ( 'NONE', #381, 1000.000000000000000 ) ;
#245 = ADVANCED_FACE ( 'NONE', ( #69 ), #487, .T. ) ;
#246 = CARTESIAN_POINT ( 'NONE',  ( 16.40361290597952859, -3.499930421505714317, -0.000000000000000000 ) ) ;
#247 = ORIENTED_EDGE ( 'NONE', *, *, #256, .T. ) ;
#248 = COORDINATED_UNIVERSAL_TIME_OFFSET ( 3, 0, .AHEAD. ) ;
#249 = DIRECTION ( 'NONE',  ( -0.000000000000000000, -0.000000000000000000, -1.000000000000000000 ) ) ;
#250 = CARTESIAN_POINT ( 'NONE',  ( 18.17111224256056801, -3.614250361394022448, -0.000000000000000000 ) ) ;
#251 = CC_DESIGN_PERSON_AND_ORGANIZATION_ASSIGNMENT ( #476, #751, ( #111 ) ) ;
#252 = EDGE_CURVE ( 'NONE', #704, #87, #533, .T. ) ;
#253 = VERTEX_POINT ( 'NONE', #700 ) ;
#254 = CARTESIAN_POINT ( 'NONE',  ( -4.976321573741648407, -10.91952972250671827, 0.000000000000000000 ) ) ;
#255 = DIRECTION ( 'NONE',  ( -0.000000000000000000, -0.000000000000000000, 1.000000000000000000 ) ) ;
#256 = EDGE_CURVE ( 'NONE', #257, #81, #701, .T. ) ;
#257 = VERTEX_POINT ( 'NONE', #633 ) ;
#258 = DIRECTION ( 'NONE',  ( -1.000000000000000000, 0.000000000000000000, 0.000000000000000000 ) ) ;
#259 = DIRECTION ( 'NONE',  ( -0.9971539220298137884, -0.07539267723433132340, -0.000000000000000000 ) ) ;
#260 = VERTEX_POINT ( 'NONE', #568 ) ;
#261 = COORDINATED_UNIVERSAL_TIME_OFFSET ( 3, 0, .AHEAD. ) ;
#262 = DIRECTION ( 'NONE',  ( -0.000000000000000000, -0.000000000000000000, -1.000000000000000000 ) ) ;
#263 = LINE ( 'NONE', #885, #68 ) ;
#264 = AXIS2_PLACEMENT_3D ( 'NONE', #342, #600, #271 ) ;
#265 = ORIENTED_EDGE ( 'NONE', *, *, #721, .T. ) ;
#266 = PERSON_AND_ORGANIZATION_ROLE ( 'creator' ) ;
#267 = LINE ( 'NONE', #477, #495 ) ;
#268 = DIRECTION ( 'NONE',  ( 1.000000000000000000, 0.000000000000000000, 0.000000000000000000 ) ) ;
#269 = AXIS2_PLACEMENT_3D ( 'NONE', #671, #255, #268 ) ;
#270 = ORIENTED_EDGE ( 'NONE', *, *, #307, .F. ) ;
#271 = DIRECTION ( 'NONE',  ( -1.000000000000000000, 0.000000000000000000, 0.000000000000000000 ) ) ;
#272 = CARTESIAN_POINT ( 'NONE',  ( 0.000000000000000000, 0.000000000000000000, -1.200000000000000030E-05 ) ) ;
#273 = ADVANCED_FACE ( 'NONE', ( #913, #296, #220, #224, #216, #419 ), #494, .F. ) ;
#274 = ORIENTED_EDGE ( 'NONE', *, *, #29, .T. ) ;
#275 = APPROVAL_DATE_TIME ( #626, #463 ) ;
#276 = DIRECTION ( 'NONE',  ( 0.07539267723433133728, -0.9971539220298138995, 0.000000000000000000 ) ) ;
#277 = CARTESIAN_POINT ( 'NONE',  ( -2.503777292916717356E-07, 3.181348342748413494E-06, 0.000000000000000000 ) ) ;
#278 = PRODUCT_RELATED_PRODUCT_CATEGORY ( 'detail', '', ( #915 ) ) ;
#279 = B_SPLINE_CURVE_WITH_KNOTS ( 'NONE', 3,
 ( #7, #517, #723, #304, #365, #222, #152, #385, #522, #299, #575, #369, #853, #584, #92, #713, #313, #228 ),
 .UNSPECIFIED., .F., .F.,
 ( 4, 2, 2, 2, 2, 2, 2, 2, 4 ),
 ( 0.000000000000000000, 0.06249999999999987510, 0.1249999999999997502, 0.1874999999999997780, 0.2499999999999998335, 0.3124999999999998890, 0.3749999999999998890, 0.4374999999999999445, 0.5000000000000000000 ),
 .UNSPECIFIED. ) ;
#280 = EDGE_LOOP ( 'NONE', ( #456, #678, #41, #403 ) ) ;
#281 = COORDINATED_UNIVERSAL_TIME_OFFSET ( 3, 0, .AHEAD. ) ;
#282 = VERTEX_POINT ( 'NONE', #66 ) ;
#283 = LINE ( 'NONE', #414, #411 ) ;
#284 = CARTESIAN_POINT ( 'NONE',  ( -2.503777292916717356E-07, 3.181348342748413494E-06, 3.000000000000000000 ) ) ;
#285 = ORIENTED_EDGE ( 'NONE', *, *, #567, .T. ) ;
#286 = ADVANCED_FACE ( 'NONE', ( #63 ), #348, .T. ) ;
#287 = VECTOR ( 'NONE', #482, 1000.000000000000000 ) ;
#288 = FACE_OUTER_BOUND ( 'NONE', #659, .T. ) ;
#289 = CARTESIAN_POINT ( 'NONE',  ( 0.8332790561513053751, -1.440866879057157046, -0.000000000000000000 ) ) ;
#290 = COORDINATED_UNIVERSAL_TIME_OFFSET ( 3, 0, .AHEAD. ) ;
#291 = ORIENTED_EDGE ( 'NONE', *, *, #737, .T. ) ;
#292 = DIRECTION ( 'NONE',  ( 0.000000000000000000, 1.000000000000000000, 0.000000000000000000 ) ) ;
#293 = CARTESIAN_POINT ( 'NONE',  ( 0.2184535819896925302, -1.650069507960235882, -0.000000000000000000 ) ) ;
#294 = ORIENTED_EDGE ( 'NONE', *, *, #11, .T. ) ;
#295 = CARTESIAN_POINT ( 'NONE',  ( 21.50000000000000000, -8.000000000000000000, -6.000000000000000152E-06 ) ) ;
#296 = FACE_BOUND ( 'NONE', #345, .T. ) ;
#297 = EDGE_CURVE ( 'NONE', #1, #15, #490, .T. ) ;
#298 = EDGE_LOOP ( 'NONE', ( #797, #450, #364, #154 ) ) ;
#299 = CARTESIAN_POINT ( 'NONE',  ( 36.28154641801139491, -3.349930492039677077, -0.000000000000000000 ) ) ;
#300 = CARTESIAN_POINT ( 'NONE',  ( 34.89999999999999858, -11.90000000000000036, 0.000000000000000000 ) ) ;
#301 = AXIS2_PLACEMENT_3D ( 'NONE', #277, #831, #147 ) ;
#302 = LINE ( 'NONE', #577, #883 ) ;
#303 = ORIENTED_EDGE ( 'NONE', *, *, #314, .T. ) ;
#304 = CARTESIAN_POINT ( 'NONE',  ( 37.94086687905691946, -4.166720943847968428, -0.000000000000000000 ) ) ;
#305 = DIRECTION ( 'NONE',  ( 0.000000000000000000, -0.000000000000000000, 1.000000000000000000 ) ) ;
#306 = CARTESIAN_POINT ( 'NONE',  ( 15.82894101051340208, -3.614378925688485733, 0.000000000000000000 ) ) ;
#307 = EDGE_CURVE ( 'NONE', #253, #597, #548, .T. ) ;
#308 = ORIENTED_EDGE ( 'NONE', *, *, #402, .T. ) ;
#309 = CARTESIAN_POINT ( 'NONE',  ( 1.649999999999999689, 0.2186215401846504369, 0.000000000000000000 ) ) ;
#310 = FACE_OUTER_BOUND ( 'NONE', #746, .T. ) ;
#311 = DIRECTION ( 'NONE',  ( -0.000000000000000000, -0.000000000000000000, 1.000000000000000000 ) ) ;
#312 = VERTEX_POINT ( 'NONE', #430 ) ;
#313 = CARTESIAN_POINT ( 'NONE',  ( 34.85006950796086755, -4.781546418011831889, 0.000000000000000000 ) ) ;
#314 = EDGE_CURVE ( 'NONE', #260, #72, #849, .T. ) ;
#315 = CARTESIAN_POINT ( 'NONE',  ( 25.99999842625834745, -24.99999972250671831, 0.000000000000000000 ) ) ;
#316 = AXIS2_PLACEMENT_3D ( 'NONE', #284, #211, #425 ) ;
#317 = CARTESIAN_POINT ( 'NONE',  ( 19.27309190179781595, -11.92929471829096677, -0.000000000000000000 ) ) ;
#318 = VECTOR ( 'NONE', #338, 1000.000000000000000 ) ;
#319 = ORIENTED_EDGE ( 'NONE', *, *, #511, .T. ) ;
#320 = CARTESIAN_POINT ( 'NONE',  ( 34.89999999999999858, 1.899999999999999911, 3.000000000000000000 ) ) ;
#321 = CARTESIAN_POINT ( 'NONE',  ( 34.89999999999999858, 10.09999999999999964, 0.000000000000000000 ) ) ;
#322 = CARTESIAN_POINT ( 'NONE',  ( 21.50000000000000000, -8.000000000000000000, -6.000000000000000152E-06 ) ) ;
#323 = ORIENTED_EDGE ( 'NONE', *, *, #252, .F. ) ;
#324 = CARTESIAN_POINT ( 'NONE',  ( -4.976321573741648407, -10.91952972250671827, 3.000000000000000000 ) ) ;
#325 = PLANE ( 'NONE',  #691 ) ;
#326 = EDGE_CURVE ( 'NONE', #603, #312, #697, .T. ) ;
#327 = ORIENTED_EDGE ( 'NONE', *, *, #326, .F. ) ;
#328 = APPLICATION_PROTOCOL_DEFINITION ( 'international standard', 'config_control_design', 1994, #702 ) ;
#329 = CARTESIAN_POINT ( 'NONE',  ( -2.503777292916717356E-07, 3.181348342748413494E-06, 3.000000000000000000 ) ) ;
#330 = FACE_OUTER_BOUND ( 'NONE', #707, .T. ) ;
#331 = VECTOR ( 'NONE', #378, 1000.000000000000000 ) ;
#332 = ORIENTED_EDGE ( 'NONE', *, *, #142, .T. ) ;
#333 = PERSON_AND_ORGANIZATION_ROLE ( 'creator' ) ;
#334 = DIRECTION ( 'NONE',  ( -0.000000000000000000, -0.000000000000000000, 1.000000000000000000 ) ) ;
#335 = DIRECTION ( 'NONE',  ( 0.000000000000000000, 0.000000000000000000, 1.000000000000000000 ) ) ;
#336 = ORIENTED_EDGE ( 'NONE', *, *, #150, .T. ) ;
#337 = DIRECTION ( 'NONE',  ( 0.000000000000000000, -1.000000000000000000, 0.000000000000000000 ) ) ;
#338 = DIRECTION ( 'NONE',  ( 1.000000000000000000, 0.000000000000000000, 0.000000000000000000 ) ) ;
#339 = DIRECTION ( 'NONE',  ( -0.000000000000000000, -0.000000000000000000, -1.000000000000000000 ) ) ;
#340 = ORIENTED_EDGE ( 'NONE', *, *, #754, .T. ) ;
#341 = ADVANCED_FACE ( 'NONE', ( #503 ), #780, .F. ) ;
#342 = CARTESIAN_POINT ( 'NONE',  ( -2.503777292916717356E-07, 3.181348342748413494E-06, 0.000000000000000000 ) ) ;
#343 = DIRECTION ( 'NONE',  ( -0.000000000000000000, -0.000000000000000000, -1.000000000000000000 ) ) ;
#344 = VECTOR ( 'NONE', #720, 1000.000000000000000 ) ;
#345 = EDGE_LOOP ( 'NONE', ( #521, #353 ) ) ;
#346 = AXIS2_PLACEMENT_3D ( 'NONE', #42, #334, #532 ) ;
#347 = DIRECTION ( 'NONE',  ( -0.9971539220298137884, -0.07539267723433132340, -0.000000000000000000 ) ) ;
#348 = PLANE ( 'NONE',  #809 ) ;
#349 = VERTEX_POINT ( 'NONE', #789 ) ;
#350 = FACE_BOUND ( 'NONE', #436, .T. ) ;
#351 = CARTESIAN_POINT ( 'NONE',  ( 1.321245347707254103, -1.012305329308382573, -0.000000000000000000 ) ) ;
#352 = EDGE_CURVE ( 'NONE', #87, #704, #518, .T. ) ;
#353 = ORIENTED_EDGE ( 'NONE', *, *, #149, .F. ) ;
#354 = CARTESIAN_POINT ( 'NONE',  ( 38.10000000000000142, -11.90000000000000036, 0.000000000000000000 ) ) ;
#355 = DIRECTION ( 'NONE',  ( 0.000000000000000000, 0.000000000000000000, 1.000000000000000000 ) ) ;
#356 = AXIS2_PLACEMENT_3D ( 'NONE', #187, #395, #669 ) ;
#357 = DIRECTION ( 'NONE',  ( -1.000000000000000000, 0.000000000000000000, 0.000000000000000000 ) ) ;
#358 = CARTESIAN_POINT ( 'NONE',  ( -1.012305329308460289, -1.321245347707222129, -0.000000000000000000 ) ) ;
#359 = EDGE_LOOP ( 'NONE', ( #504, #484, #712, #270, #390, #393, #727 ) ) ;
#360 = LINE ( 'NONE', #201, #599 ) ;
#361 = EDGE_CURVE ( 'NONE', #221, #412, #30, .T. ) ;
#362 = CARTESIAN_POINT ( 'NONE',  ( 17.00000000000000000, -8.000000000000000000, 3.000000000000000000 ) ) ;
#363 = AXIS2_PLACEMENT_3D ( 'NONE', #627, #830, #67 ) ;
#364 = ORIENTED_EDGE ( 'NONE', *, *, #617, .T. ) ;
#365 = CARTESIAN_POINT ( 'NONE',  ( 37.82114704860743615, -3.987792969791365660, 0.000000000000000000 ) ) ;
#366 = CARTESIAN_POINT ( 'NONE',  ( 35.17885295139240753, -6.012207030208481129, 0.000000000000000000 ) ) ;
#367 = VERTEX_POINT ( 'NONE', #315 ) ;
#368 = VERTEX_POINT ( 'NONE', #229 ) ;
#369 = CARTESIAN_POINT ( 'NONE',  ( 35.66672094384753677, -3.559133120942971296, -0.000000000000000000 ) ) ;
#370 = AXIS2_PLACEMENT_3D ( 'NONE', #582, #241, #178 ) ;
#371 = CARTESIAN_POINT ( 'NONE',  ( 26.00000000000000000, 14.00000000000000000, 3.000000000000000000 ) ) ;
#372 = CARTESIAN_POINT ( 'NONE',  ( 41.49999842625835100, 14.00000000000000000, 3.000000000000000000 ) ) ;
#373 = DESIGN_CONTEXT ( 'detailed design', #845, 'design' ) ;
#374 =( GEOMETRIC_REPRESENTATION_CONTEXT ( 3 ) GLOBAL_UNCERTAINTY_ASSIGNED_CONTEXT ( ( #914 ) ) GLOBAL_UNIT_ASSIGNED_CONTEXT ( ( #813, #117, #598 ) ) REPRESENTATION_CONTEXT ( 'NONE', 'WORKASPACE' ) );
#375 = ORIENTED_EDGE ( 'NONE', *, *, #726, .F. ) ;
#376 = CARTESIAN_POINT ( 'NONE',  ( -1.649999999999999911, 2.020666485129553934E-16, -6.000000000000000152E-06 ) ) ;
#377 = LINE ( 'NONE', #300, #501 ) ;
#378 = DIRECTION ( 'NONE',  ( -0.000000000000000000, -0.000000000000000000, 1.000000000000000000 ) ) ;
#379 = EDGE_CURVE ( 'NONE', #664, #630, #121, .T. ) ;
#380 = ORIENTED_EDGE ( 'NONE', *, *, #379, .F. ) ;
#381 = DIRECTION ( 'NONE',  ( 1.000000000000000000, -0.000000000000000000, -0.000000000000000000 ) ) ;
#382 = LINE ( 'NONE', #863, #590 ) ;
#383 = CARTESIAN_POINT ( 'NONE',  ( 21.50000000000000000, -8.000000000000000000, -6.000000000000000152E-06 ) ) ;
#384 = EDGE_LOOP ( 'NONE', ( #692, #759, #873, #750 ) ) ;
#385 = CARTESIAN_POINT ( 'NONE',  ( 36.92962946974425620, -3.391935987806385278, -0.000000000000000000 ) ) ;
#386 = DIRECTION ( 'NONE',  ( 0.000000000000000000, 1.000000000000000000, 0.000000000000000000 ) ) ;
#387 = B_SPLINE_CURVE_WITH_KNOTS ( 'NONE', 3,
 ( #570, #309, #502, #238, #433, #243, #728, #708, #657, #23, #580, #857, #441, #510, #788, #167, #162, #376 ),
 .UNSPECIFIED., .F., .F.,
 ( 4, 2, 2, 2, 2, 2, 2, 2, 4 ),
 ( 0.000000000000000000, 0.06250000000000000000, 0.1250000000000000000, 0.1875000000000000000, 0.2500000000000000000, 0.3125000000000000000, 0.3750000000000000000, 0.4375000000000000000, 0.5000000000000000000 ),
 .UNSPECIFIED. ) ;
#388 = CARTESIAN_POINT ( 'NONE',  ( 12.50000000000000000, -8.000000000000000000, -6.000000000000000152E-06 ) ) ;
#389 = VECTOR ( 'NONE', #523, 1000.000000000000000 ) ;
#390 = ORIENTED_EDGE ( 'NONE', *, *, #595, .F. ) ;
#391 = EDGE_CURVE ( 'NONE', #608, #1, #377, .T. ) ;
#392 = DIRECTION ( 'NONE',  ( -0.000000000000000000, 1.000000000000000000, -0.000000000000000000 ) ) ;
#393 = ORIENTED_EDGE ( 'NONE', *, *, #142, .F. ) ;
#394 = PERSON_AND_ORGANIZATION ( #889, #839 ) ;
#395 = DIRECTION ( 'NONE',  ( -0.000000000000000000, -0.000000000000000000, 1.000000000000000000 ) ) ;
#396 = VECTOR ( 'NONE', #760, 1000.000000000000000 ) ;
#397 = CARTESIAN_POINT ( 'NONE',  ( 41.49999842625835100, 14.00000000000000000, 3.000000000000000000 ) ) ;
#398 = EDGE_LOOP ( 'NONE', ( #852, #509, #285, #838 ) ) ;
#399 = FACE_OUTER_BOUND ( 'NONE', #535, .T. ) ;
#400 = DIRECTION ( 'NONE',  ( -0.000000000000000000, 0.000000000000000000, -1.000000000000000000 ) ) ;
#401 = DIRECTION ( 'NONE',  ( -0.000000000000000000, -0.000000000000000000, 1.000000000000000000 ) ) ;
#402 = EDGE_CURVE ( 'NONE', #81, #257, #822, .T. ) ;
#403 = ORIENTED_EDGE ( 'NONE', *, *, #361, .F. ) ;
#404 = CARTESIAN_POINT ( 'NONE',  ( 38.10000000000000142, 1.899999999999999911, 0.000000000000000000 ) ) ;
#405 = LINE ( 'NONE', #611, #912 ) ;
#406 = EDGE_CURVE ( 'NONE', #312, #407, #585, .T. ) ;
#407 = VERTEX_POINT ( 'NONE', #576 ) ;
#408 = CARTESIAN_POINT ( 'NONE',  ( 34.89999999999999858, -11.90000000000000036, 3.000000000000000000 ) ) ;
#409 = DIRECTION ( 'NONE',  ( -1.000000000000000000, 0.000000000000000000, 0.000000000000000000 ) ) ;
#410 = CARTESIAN_POINT ( 'NONE',  ( 0.000000000000000000, 0.000000000000000000, 3.000000000000000000 ) ) ;
#411 = VECTOR ( 'NONE', #489, 1000.000000000000000 ) ;
#412 = VERTEX_POINT ( 'NONE', #97 ) ;
#413 = APPROVAL_STATUS ( 'not_yet_approved' ) ;
#414 = CARTESIAN_POINT ( 'NONE',  ( 38.10000000000000142, 10.09999999999999964, 3.000000000000000000 ) ) ;
#415 = CARTESIAN_POINT ( 'NONE',  ( -1.649999999999999911, 2.020666485129553934E-16, -6.000000000000000152E-06 ) ) ;
#416 = EDGE_LOOP ( 'NONE', ( #807, #682, #291, #778 ) ) ;
#417 = CARTESIAN_POINT ( 'NONE',  ( 34.85000000000000142, -5.000000000000000000, -6.000000000000000152E-06 ) ) ;
#418 = ADVANCED_FACE ( 'NONE', ( #310 ), #84, .T. ) ;
#419 = FACE_BOUND ( 'NONE', #526, .T. ) ;
#420 = EDGE_LOOP ( 'NONE', ( #151, #687, #882, #802 ) ) ;
#421 = CALENDAR_DATE ( 2026, 1, 10 ) ;
#422 = LINE ( 'NONE', #699, #483 ) ;
#423 = DIRECTION ( 'NONE',  ( -0.000000000000000000, -0.000000000000000000, -1.000000000000000000 ) ) ;
#424 = CARTESIAN_POINT ( 'NONE',  ( -1.649999999999999911, 2.020666485129553934E-16, -6.000000000000000152E-06 ) ) ;
#425 = DIRECTION ( 'NONE',  ( -1.000000000000000000, 0.000000000000000000, 0.000000000000000000 ) ) ;
#426 = EDGE_CURVE ( 'NONE', #583, #597, #382, .T. ) ;
#427 = VECTOR ( 'NONE', #392, 1000.000000000000000 ) ;
#428 = VERTEX_POINT ( 'NONE', #371 ) ;
#429 = CARTESIAN_POINT ( 'NONE',  ( 34.85000000000000142, -5.000000000000000000, 3.000000000000000000 ) ) ;
#430 = CARTESIAN_POINT ( 'NONE',  ( 34.89999999999999858, 10.09999999999999964, 0.000000000000000000 ) ) ;
#431 = EDGE_CURVE ( 'NONE', #856, #616, #875, .T. ) ;
#432 = ORIENTED_EDGE ( 'NONE', *, *, #29, .F. ) ;
#433 = CARTESIAN_POINT ( 'NONE',  ( 1.321147048607059560, 1.012207030208471803, 0.000000000000000000 ) ) ;
#434 = CARTESIAN_POINT ( 'NONE',  ( 38.14999999999999858, -5.218985388554925997, -0.000000000000000000 ) ) ;
#435 = ORIENTED_EDGE ( 'NONE', *, *, #540, .F. ) ;
#436 = EDGE_LOOP ( 'NONE', ( #492, #505, #340, #783 ) ) ;
#437 = LINE ( 'NONE', #660, #870 ) ;
#438 = CARTESIAN_POINT ( 'NONE',  ( 35.66677414293923931, -6.440738445093627362, 0.000000000000000000 ) ) ;
#439 = CARTESIAN_POINT ( 'NONE',  ( 13.07070528171071366, -10.27309190179949816, -0.000000000000000000 ) ) ;
#440 = EDGE_LOOP ( 'NONE', ( #787, #480, #825, #736 ) ) ;
#441 = CARTESIAN_POINT ( 'NONE',  ( -1.012207030208346348, 1.321147048607184571, 0.000000000000000000 ) ) ;
#442 = AXIS2_PLACEMENT_3D ( 'NONE', #410, #335, #818 ) ;
#443 = CARTESIAN_POINT ( 'NONE',  ( 36.92957627065247550, -6.607935578230239138, 0.000000000000000000 ) ) ;
#444 = ADVANCED_FACE ( 'NONE', ( #581 ), #858, .F. ) ;
#445 = CARTESIAN_POINT ( 'NONE',  ( 34.85000000000000142, -5.000000000000000000, -1.200000000000000030E-05 ) ) ;
#446 = LOCAL_TIME ( 23, 19, 30.00000000000000000, #874 ) ;
#447 = EDGE_LOOP ( 'NONE', ( #274, #155, #265, #711, #673, #109, #901 ) ) ;
#448 = LINE ( 'NONE', #717, #198 ) ;
#449 = CARTESIAN_POINT ( 'NONE',  ( 37.51220703020617009, -6.321147048610262331, 0.000000000000000000 ) ) ;
#450 = ORIENTED_EDGE ( 'NONE', *, *, #431, .F. ) ;
#451 = VERTEX_POINT ( 'NONE', #234 ) ;
#452 = LINE ( 'NONE', #649, #244 ) ;
#453 = CARTESIAN_POINT ( 'NONE',  ( 38.10813374288119348, -5.429461276355725730, -0.000000000000000000 ) ) ;
#454 = CARTESIAN_POINT ( 'NONE',  ( 21.38562107431235759, -6.828941010514733456, -0.000000000000000000 ) ) ;
#455 = EDGE_CURVE ( 'NONE', #559, #312, #239, .T. ) ;
#456 = ORIENTED_EDGE ( 'NONE', *, *, #485, .F. ) ;
#457 = APPROVAL_STATUS ( 'not_yet_approved' ) ;
#458 = LINE ( 'NONE', #112, #733 ) ;
#459 = VECTOR ( 'NONE', #108, 1000.000000000000000 ) ;
#460 = CARTESIAN_POINT ( 'NONE',  ( 19.27303864872524741, -4.070833846004396683, 0.000000000000000000 ) ) ;
#461 = VECTOR ( 'NONE', #571, 1000.000000000000000 ) ;
#462 = EDGE_LOOP ( 'NONE', ( #847, #127 ) ) ;
#463 = APPROVAL ( #413, 'UNSPECIFIED' ) ;
#464 = FACE_OUTER_BOUND ( 'NONE', #398, .T. ) ;
#465 = DIRECTION ( 'NONE',  ( -0.000000000000000000, -0.000000000000000000, -1.000000000000000000 ) ) ;
#466 = ORIENTED_EDGE ( 'NONE', *, *, #904, .T. ) ;
#467 = DATE_AND_TIME ( #887, #446 ) ;
#468 = CYLINDRICAL_SURFACE ( 'NONE', #346, 1.649999999999999911 ) ;
#469 = CARTESIAN_POINT ( 'NONE',  ( 41.49999842625835100, -24.99999972250671831, 0.000000000000000000 ) ) ;
#470 = ORIENTED_EDGE ( 'NONE', *, *, #114, .F. ) ;
#471 = DIRECTION ( 'NONE',  ( -0.000000000000000000, -0.000000000000000000, 1.000000000000000000 ) ) ;
#472 = CARTESIAN_POINT ( 'NONE',  ( -2.503777292916717356E-07, 3.181348342748413494E-06, 3.000000000000000000 ) ) ;
#473 = DIRECTION ( 'NONE',  ( 0.9103628843218204425, -0.4138108491198072003, -0.000000000000000000 ) ) ;
#474 = ADVANCED_FACE ( 'NONE', ( #103 ), #614, .F. ) ;
#475 = EDGE_LOOP ( 'NONE', ( #781, #91, #833, #308 ) ) ;
#476 = PERSON_AND_ORGANIZATION ( #889, #839 ) ;
#477 = CARTESIAN_POINT ( 'NONE',  ( 25.99999842625834745, -24.99999972250671831, 3.000000000000000000 ) ) ;
#478 = CARTESIAN_POINT ( 'NONE',  ( 38.10000000000000142, -11.90000000000000036, 0.000000000000000000 ) ) ;
#479 = ADVANCED_FACE ( 'NONE', ( #604 ), #468, .F. ) ;
#480 = ORIENTED_EDGE ( 'NONE', *, *, #11, .F. ) ;
#481 = LINE ( 'NONE', #841, #629 ) ;
#482 = DIRECTION ( 'NONE',  ( -0.000000000000000000, -0.000000000000000000, -1.000000000000000000 ) ) ;
#483 = VECTOR ( 'NONE', #347, 1000.000000000000114 ) ;
#484 = ORIENTED_EDGE ( 'NONE', *, *, #661, .F. ) ;
#485 = EDGE_CURVE ( 'NONE', #49, #221, #541, .T. ) ;
#486 = CARTESIAN_POINT ( 'NONE',  ( 38.10000000000000142, 1.899999999999999911, 3.000000000000000000 ) ) ;
#487 = PLANE ( 'NONE',  #146 ) ;
#488 = EDGE_LOOP ( 'NONE', ( #587, #466, #208, #643 ) ) ;
#489 = DIRECTION ( 'NONE',  ( -1.000000000000000000, 0.000000000000000000, 0.000000000000000000 ) ) ;
#490 = LINE ( 'NONE', #498, #179 ) ;
#491 = CALENDAR_DATE ( 2026, 1, 10 ) ;
#492 = ORIENTED_EDGE ( 'NONE', *, *, #391, .T. ) ;
#493 = CARTESIAN_POINT ( 'NONE',  ( 1.649999999999999911, 0.000000000000000000, -6.000000000000000152E-06 ) ) ;
#494 = PLANE ( 'NONE',  #316 ) ;
#495 = VECTOR ( 'NONE', #685, 1000.000000000000000 ) ;
#496 = PERSON_AND_ORGANIZATION_ROLE ( 'classification_officer' ) ;
#497 = PLANE ( 'NONE',  #878 ) ;
#498 = CARTESIAN_POINT ( 'NONE',  ( 34.89999999999999858, -20.10000000000000142, 0.000000000000000000 ) ) ;
#499 = EDGE_CURVE ( 'NONE', #195, #583, #58, .T. ) ;
#500 = EDGE_LOOP ( 'NONE', ( #740, #916, #247, #6 ) ) ;
#501 = VECTOR ( 'NONE', #24, 1000.000000000000000 ) ;
#502 = CARTESIAN_POINT ( 'NONE',  ( 1.607935578229996665, 0.4295762706536290221, -0.000000000000000000 ) ) ;
#503 = FACE_OUTER_BOUND ( 'NONE', #440, .T. ) ;
#504 = ORIENTED_EDGE ( 'NONE', *, *, #765, .F. ) ;
#505 = ORIENTED_EDGE ( 'NONE', *, *, #297, .T. ) ;
#506 = DIRECTION ( 'NONE',  ( 0.000000000000000000, 1.000000000000000000, 0.000000000000000000 ) ) ;
#507 = CARTESIAN_POINT ( 'NONE',  ( 37.94066871440602284, -5.833394050449073553, 0.000000000000000000 ) ) ;
#508 = CARTESIAN_POINT ( 'NONE',  ( 12.61437892568770280, -9.171058989486306601, -0.000000000000000000 ) ) ;
#509 = ORIENTED_EDGE ( 'NONE', *, *, #455, .F. ) ;
#510 = CARTESIAN_POINT ( 'NONE',  ( -1.321245347707259876, 1.012305329308421653, -0.000000000000000000 ) ) ;
#511 = EDGE_CURVE ( 'NONE', #407, #616, #458, .T. ) ;
#512 = LOCAL_TIME ( 23, 19, 30.00000000000000000, #248 ) ;
#513 = CARTESIAN_POINT ( 'NONE',  ( 34.84993049203914239, -5.218453581988167223, 0.000000000000000000 ) ) ;
#514 = CARTESIAN_POINT ( 'NONE',  ( 26.00000000000000000, 14.00000000000000000, 3.000000000000000000 ) ) ;
#515 = VERTEX_POINT ( 'NONE', #177 ) ;
#516 = ADVANCED_BREP_SHAPE_REPRESENTATION ( '14_kist_B', ( #819, #621 ), #374 ) ;
#517 = CARTESIAN_POINT ( 'NONE',  ( 38.14999999999999858, -4.781378459815441850, 0.000000000000000000 ) ) ;
#518 = CIRCLE ( 'NONE', #851, 1.649999999999998579 ) ;
#519 = DIRECTION ( 'NONE',  ( -0.000000000000000000, -0.000000000000000000, 1.000000000000000000 ) ) ;
#520 = CARTESIAN_POINT ( 'NONE',  ( 17.59638709402047496, -3.500069578494287015, 0.000000000000000000 ) ) ;
#521 = ORIENTED_EDGE ( 'NONE', *, *, #824, .F. ) ;
#522 = CARTESIAN_POINT ( 'NONE',  ( 36.71845358198859088, -3.350069507960326654, 0.000000000000000000 ) ) ;
#523 = DIRECTION ( 'NONE',  ( 0.000000000000000000, 1.000000000000000000, 0.000000000000000000 ) ) ;
#524 = CARTESIAN_POINT ( 'NONE',  ( 13.39626092684101266, -5.239679643629595596, -0.000000000000000000 ) ) ;
#525 = ADVANCED_FACE ( 'NONE', ( #738 ), #34, .T. ) ;
#526 = EDGE_LOOP ( 'NONE', ( #470, #631, #772, #562 ) ) ;
#527 = DATE_AND_TIME ( #539, #160 ) ;
#528 = CARTESIAN_POINT ( 'NONE',  ( 17.00000000000000000, -8.000000000000000000, -1.200000000000000030E-05 ) ) ;
#529 = CARTESIAN_POINT ( 'NONE',  ( 20.60373907315899444, -10.76032035637089734, -0.000000000000000000 ) ) ;
#530 = ORIENTED_EDGE ( 'NONE', *, *, #40, .F. ) ;
#531 = DIRECTION ( 'NONE',  ( 0.000000000000000000, 0.000000000000000000, 1.000000000000000000 ) ) ;
#532 = DIRECTION ( 'NONE',  ( 1.000000000000000000, 0.000000000000000000, 0.000000000000000000 ) ) ;
#533 = CIRCLE ( 'NONE', #194, 1.649999999999998579 ) ;
#534 = CYLINDRICAL_SURFACE ( 'NONE', #547, 1.649999999999999911 ) ;
#535 = EDGE_LOOP ( 'NONE', ( #123, #554, #180, #731 ) ) ;
#536 = MECHANICAL_CONTEXT ( 'NONE', #702, 'mechanical' ) ;
#537 = CARTESIAN_POINT ( 'NONE',  ( 12.50000000000000000, -8.000000000000000000, -1.200000000000000030E-05 ) ) ;
#538 = EDGE_LOOP ( 'NONE', ( #27, #323 ) ) ;
#539 = CALENDAR_DATE ( 2026, 1, 10 ) ;
#540 = EDGE_CURVE ( 'NONE', #282, #367, #267, .T. ) ;
#541 = LINE ( 'NONE', #734, #318 ) ;
#542 = DIRECTION ( 'NONE',  ( 0.000000000000000000, 1.000000000000000000, -0.000000000000000000 ) ) ;
#543 = ORIENTED_EDGE ( 'NONE', *, *, #297, .F. ) ;
#544 = APPLICATION_PROTOCOL_DEFINITION ( 'international standard', 'config_control_design', 1994, #845 ) ;
#545 = CARTESIAN_POINT ( 'NONE',  ( 34.89999999999999858, 10.09999999999999964, 3.000000000000000000 ) ) ;
#546 = DIRECTION ( 'NONE',  ( 1.000000000000000000, 0.000000000000000000, 0.000000000000000000 ) ) ;
#547 = AXIS2_PLACEMENT_3D ( 'NONE', #272, #401, #120 ) ;
#548 = CIRCLE ( 'NONE', #301, 11.99999886465577248 ) ;
#549 = VERTEX_POINT ( 'NONE', #610 ) ;
#550 = VECTOR ( 'NONE', #337, 1000.000000000000000 ) ;
#551 = PLANE ( 'NONE',  #363 ) ;
#552 = DIRECTION ( 'NONE',  ( -0.000000000000000000, -0.000000000000000000, 1.000000000000000000 ) ) ;
#553 = EDGE_CURVE ( 'NONE', #412, #762, #182, .T. ) ;
#554 = ORIENTED_EDGE ( 'NONE', *, *, #215, .T. ) ;
#555 = CYLINDRICAL_SURFACE ( 'NONE', #756, 11.99999886465577248 ) ;
#556 = CARTESIAN_POINT ( 'NONE',  ( 0.4295762706534918540, -1.607935578230088813, 0.000000000000000000 ) ) ;
#557 = AXIS2_PLACEMENT_3D ( 'NONE', #472, #810, #258 ) ;
#558 = CC_DESIGN_APPROVAL ( #801, ( #51 ) ) ;
#559 = VERTEX_POINT ( 'NONE', #107 ) ;
#560 = FACE_OUTER_BOUND ( 'NONE', #184, .T. ) ;
#561 = CARTESIAN_POINT ( 'NONE',  ( -1.607935578230076379, -0.4295762706535495301, -0.000000000000000000 ) ) ;
#562 = ORIENTED_EDGE ( 'NONE', *, *, #617, .F. ) ;
#563 = CARTESIAN_POINT ( 'NONE',  ( 34.89999999999999858, -11.90000000000000036, 3.000000000000000000 ) ) ;
#564 = CARTESIAN_POINT ( 'NONE',  ( 1.440668714406037498, -0.8333940504468468902, 0.000000000000000000 ) ) ;
#565 = B_SPLINE_CURVE_WITH_KNOTS ( 'NONE', 3,
 ( #388, #876, #508, #439, #586, #169, #864, #725, #663, #94, #25, #317, #31, #529, #592, #651, #872, #322 ),
 .UNSPECIFIED., .F., .F.,
 ( 4, 2, 2, 2, 2, 2, 2, 2, 4 ),
 ( 0.5000000000000000000, 0.5624999999999997780, 0.6249999999999996669, 0.6874999999999995559, 0.7499999999999993339, 0.8124999999999995559, 0.8749999999999996669, 0.9374999999999997780, 1.000000000000000000 ),
 .UNSPECIFIED. ) ;
#566 = DIRECTION ( 'NONE',  ( -0.000000000000000000, 1.000000000000000000, -0.000000000000000000 ) ) ;
#567 = EDGE_CURVE ( 'NONE', #559, #905, #52, .T. ) ;
#568 = CARTESIAN_POINT ( 'NONE',  ( 41.49999842625835100, -24.99999972250671831, 3.000000000000000000 ) ) ;
#569 = ORIENTED_EDGE ( 'NONE', *, *, #834, .T. ) ;
#570 = CARTESIAN_POINT ( 'NONE',  ( 1.649999999999999911, 0.000000000000000000, -6.000000000000000152E-06 ) ) ;
#571 = DIRECTION ( 'NONE',  ( -1.000000000000000000, 0.000000000000000000, 0.000000000000000000 ) ) ;
#572 = AXIS2_PLACEMENT_3D ( 'NONE', #362, #690, #60 ) ;
#573 = ORIENTED_EDGE ( 'NONE', *, *, #485, .T. ) ;
#574 = AXIS2_PLACEMENT_3D ( 'NONE', #163, #718, #14 ) ;
#575 = CARTESIAN_POINT ( 'NONE',  ( 36.07042372934766661, -3.392064421769786620, 0.000000000000000000 ) ) ;
#576 = CARTESIAN_POINT ( 'NONE',  ( 34.89999999999999858, 1.899999999999999911, 0.000000000000000000 ) ) ;
#577 = CARTESIAN_POINT ( 'NONE',  ( 34.89999999999999858, 1.899999999999999911, 3.000000000000000000 ) ) ;
#578 = ADVANCED_FACE ( 'NONE', ( #464 ), #752, .T. ) ;
#579 = EDGE_LOOP ( 'NONE', ( #767, #319, #569, #213 ) ) ;
#580 = CARTESIAN_POINT ( 'NONE',  ( -0.4295762706535840580, 1.607935578230041518, 0.000000000000000000 ) ) ;
#581 = FACE_OUTER_BOUND ( 'NONE', #475, .T. ) ;
#582 = CARTESIAN_POINT ( 'NONE',  ( 34.89999999999999858, -11.90000000000000036, 3.000000000000000000 ) ) ;
#583 = VERTEX_POINT ( 'NONE', #324 ) ;
#584 = CARTESIAN_POINT ( 'NONE',  ( 35.17875465229030851, -3.987694670695091315, -0.000000000000000000 ) ) ;
#585 = LINE ( 'NONE', #321, #703 ) ;
#586 = CARTESIAN_POINT ( 'NONE',  ( 13.39635932569365195, -10.76022195752161714, 0.000000000000000000 ) ) ;
#587 = ORIENTED_EDGE ( 'NONE', *, *, #225, .F. ) ;
#588 = DIRECTION ( 'NONE',  ( -0.000000000000000000, -0.000000000000000000, 1.000000000000000000 ) ) ;
#589 = VECTOR ( 'NONE', #465, 1000.000000000000000 ) ;
#590 = VECTOR ( 'NONE', #594, 1000.000000000000000 ) ;
#591 = CARTESIAN_POINT ( 'NONE',  ( 35.05913312094319423, -5.833279056152158581, -0.000000000000000000 ) ) ;
#592 = CARTESIAN_POINT ( 'NONE',  ( 20.92909649383465265, -10.27320676775264019, 0.000000000000000000 ) ) ;
#593 = ORIENTED_EDGE ( 'NONE', *, *, #540, .T. ) ;
#594 = DIRECTION ( 'NONE',  ( -0.000000000000000000, -0.000000000000000000, -1.000000000000000000 ) ) ;
#595 = EDGE_CURVE ( 'NONE', #515, #253, #48, .T. ) ;
#596 = LINE ( 'NONE', #445, #331 ) ;
#597 = VERTEX_POINT ( 'NONE', #254 ) ;
#598 =( NAMED_UNIT ( * ) SI_UNIT ( $, .STERADIAN. ) SOLID_ANGLE_UNIT ( ) );
#599 = VECTOR ( 'NONE', #917, 1000.000000000000000 ) ;
#600 = DIRECTION ( 'NONE',  ( 0.000000000000000000, 0.000000000000000000, 1.000000000000000000 ) ) ;
#601 = CC_DESIGN_APPROVAL ( #463, ( #832 ) ) ;
#602 = CARTESIAN_POINT ( 'NONE',  ( 41.49999842625835100, -24.99999972250671831, 3.000000000000000000 ) ) ;
#603 = VERTEX_POINT ( 'NONE', #884 ) ;
#604 = FACE_OUTER_BOUND ( 'NONE', #488, .T. ) ;
#605 = CIRCLE ( 'NONE', #442, 1.649999999999999911 ) ;
#606 = DIRECTION ( 'NONE',  ( -0.000000000000000000, -0.000000000000000000, -1.000000000000000000 ) ) ;
#607 = EDGE_CURVE ( 'NONE', #451, #195, #684, .T. ) ;
#608 = VERTEX_POINT ( 'NONE', #119 ) ;
#609 = APPROVAL_ROLE ( '' ) ;
#610 = CARTESIAN_POINT ( 'NONE',  ( -1.649999999999999911, 2.020667218593132262E-16, 3.000000000000000000 ) ) ;
#611 = CARTESIAN_POINT ( 'NONE',  ( 34.89999999999999858, -11.90000000000000036, 3.000000000000000000 ) ) ;
#612 = ORIENTED_EDGE ( 'NONE', *, *, #252, .T. ) ;
#613 = DATE_AND_TIME ( #46, #512 ) ;
#614 = CYLINDRICAL_SURFACE ( 'NONE', #356, 4.500000000000000888 ) ;
#615 = CARTESIAN_POINT ( 'NONE',  ( -11.99999911503350170, 3.181348342748413494E-06, 3.000000000000000000 ) ) ;
#616 = VERTEX_POINT ( 'NONE', #404 ) ;
#617 = EDGE_CURVE ( 'NONE', #856, #237, #680, .T. ) ;
#618 = CARTESIAN_POINT ( 'NONE',  ( 1.649999999999999911, 0.000000000000000000, 3.000000000000000000 ) ) ;
#619 = VECTOR ( 'NONE', #249, 1000.000000000000000 ) ;
#620 = ORIENTED_EDGE ( 'NONE', *, *, #426, .T. ) ;
#621 = AXIS2_PLACEMENT_3D ( 'NONE', #674, #531, #808 ) ;
#622 = CARTESIAN_POINT ( 'NONE',  ( 38.10000000000000142, -20.10000000000000142, 0.000000000000000000 ) ) ;
#623 = CARTESIAN_POINT ( 'NONE',  ( -1.321147048607147045, -1.012207030208383873, 0.000000000000000000 ) ) ;
#624 = ADVANCED_FACE ( 'NONE', ( #288 ), #693, .F. ) ;
#625 = ORIENTED_EDGE ( 'NONE', *, *, #661, .T. ) ;
#626 = DATE_AND_TIME ( #421, #670 ) ;
#627 = CARTESIAN_POINT ( 'NONE',  ( 38.10000000000000142, 1.899999999999999911, 3.000000000000000000 ) ) ;
#628 = CARTESIAN_POINT ( 'NONE',  ( 1.649999999999999911, 0.000000000000000000, -6.000000000000000152E-06 ) ) ;
#629 = VECTOR ( 'NONE', #566, 1000.000000000000000 ) ;
#630 = VERTEX_POINT ( 'NONE', #214 ) ;
#631 = ORIENTED_EDGE ( 'NONE', *, *, #567, .F. ) ;
#632 = LINE ( 'NONE', #844, #742 ) ;
#633 = CARTESIAN_POINT ( 'NONE',  ( 12.50000000000000000, -8.000000000000000000, 3.000000000000000000 ) ) ;
#634 = VECTOR ( 'NONE', #262, 1000.000000000000000 ) ;
#635 = ADVANCED_FACE ( 'NONE', ( #219 ), #551, .T. ) ;
#636 = DIRECTION ( 'NONE',  ( -0.000000000000000000, -0.000000000000000000, -1.000000000000000000 ) ) ;
#637 = VECTOR ( 'NONE', #156, 1000.000000000000000 ) ;
#638 = DIRECTION ( 'NONE',  ( 0.000000000000000000, -1.000000000000000000, 0.000000000000000000 ) ) ;
#639 = ORIENTED_EDGE ( 'NONE', *, *, #379, .T. ) ;
#640 = CC_DESIGN_DATE_AND_TIME_ASSIGNMENT ( #613, #196, ( #51 ) ) ;
#641 = CARTESIAN_POINT ( 'NONE',  ( 25.99999842625834745, -24.99999972250671831, 3.000000000000000000 ) ) ;
#642 = CARTESIAN_POINT ( 'NONE',  ( 1.608133742881207917, -0.4294612763579511716, -0.000000000000000000 ) ) ;
#643 = ORIENTED_EDGE ( 'NONE', *, *, #737, .F. ) ;
#644 = DIRECTION ( 'NONE',  ( -0.9103628843218204425, 0.4138108491198072558, 0.000000000000000000 ) ) ;
#645 = CARTESIAN_POINT ( 'NONE',  ( 38.10000000000000142, -20.10000000000000142, 3.000000000000000000 ) ) ;
#646 = EDGE_CURVE ( 'NONE', #237, #559, #283, .T. ) ;
#647 = ORIENTED_EDGE ( 'NONE', *, *, #455, .T. ) ;
#648 = VERTEX_POINT ( 'NONE', #493 ) ;
#649 = CARTESIAN_POINT ( 'NONE',  ( 41.49999842625835100, -24.99999972250671831, 3.000000000000000000 ) ) ;
#650 = CARTESIAN_POINT ( 'NONE',  ( 36.07037053025595696, -6.608064012193614722, -0.000000000000000000 ) ) ;
#651 = CARTESIAN_POINT ( 'NONE',  ( 21.38581929876693266, -9.170944123533175230, -0.000000000000000000 ) ) ;
#652 = EDGE_LOOP ( 'NONE', ( #209, #820, #432, #303 ) ) ;
#653 = DIRECTION ( 'NONE',  ( 1.000000000000000000, 0.000000000000000000, 0.000000000000000000 ) ) ;
#654 = DIRECTION ( 'NONE',  ( 0.000000000000000000, 0.000000000000000000, 1.000000000000000000 ) ) ;
#655 = CARTESIAN_POINT ( 'NONE',  ( 41.49999842625835100, 14.00000000000000000, 3.000000000000000000 ) ) ;
#656 = ORIENTED_EDGE ( 'NONE', *, *, #595, .T. ) ;
#657 = CARTESIAN_POINT ( 'NONE',  ( 0.2184535819896701869, 1.649930492039763941, 0.000000000000000000 ) ) ;
#658 = CARTESIAN_POINT ( 'NONE',  ( 21.50000000000000355, -7.403444873188962383, 0.000000000000000000 ) ) ;
#659 = EDGE_LOOP ( 'NONE', ( #332, #189, #867, #294 ) ) ;
#660 = CARTESIAN_POINT ( 'NONE',  ( 38.14999999999999858, -5.000000000000000000, -1.200000000000000030E-05 ) ) ;
#661 = EDGE_CURVE ( 'NONE', #367, #72, #907, .T. ) ;
#662 = CARTESIAN_POINT ( 'NONE',  ( 36.28154641801116753, -6.649930492039675123, 0.000000000000000000 ) ) ;
#663 = CARTESIAN_POINT ( 'NONE',  ( 16.40361290598150390, -12.49993042150522449, 0.000000000000000000 ) ) ;
#664 = VERTEX_POINT ( 'NONE', #417 ) ;
#665 = LINE ( 'NONE', #33, #719 ) ;
#666 = CARTESIAN_POINT ( 'NONE',  ( 21.50000000000000000, -8.000000000000000000, 3.000000000000000000 ) ) ;
#667 = ORIENTED_EDGE ( 'NONE', *, *, #511, .F. ) ;
#668 = PERSON_AND_ORGANIZATION_ROLE ( 'design_owner' ) ;
#669 = DIRECTION ( 'NONE',  ( 1.000000000000000000, 0.000000000000000000, 0.000000000000000000 ) ) ;
#670 = LOCAL_TIME ( 23, 19, 30.00000000000000000, #281 ) ;
#671 = CARTESIAN_POINT ( 'NONE',  ( 36.50000000000000000, -5.000000000000000000, -1.200000000000000030E-05 ) ) ;
#672 = ADVANCED_FACE ( 'NONE', ( #560 ), #555, .T. ) ;
#673 = ORIENTED_EDGE ( 'NONE', *, *, #499, .T. ) ;
#674 = CARTESIAN_POINT ( 'NONE',  ( 0.000000000000000000, 0.000000000000000000, 0.000000000000000000 ) ) ;
#675 = LINE ( 'NONE', #47, #865 ) ;
#676 = CC_DESIGN_PERSON_AND_ORGANIZATION_ASSIGNMENT ( #893, #266, ( #111 ) ) ;
#677 = CIRCLE ( 'NONE', #900, 1.649999999999999911 ) ;
#678 = ORIENTED_EDGE ( 'NONE', *, *, #888, .F. ) ;
#679 = PERSON_AND_ORGANIZATION ( #889, #839 ) ;
#680 = LINE ( 'NONE', #486, #396 ) ;
#681 = CARTESIAN_POINT ( 'NONE',  ( 25.99999842625834745, -24.99999972250671831, 0.000000000000000000 ) ) ;
#682 = ORIENTED_EDGE ( 'NONE', *, *, #871, .F. ) ;
#683 = SHAPE_DEFINITION_REPRESENTATION ( #218, #516 ) ;
#684 = CIRCLE ( 'NONE', #557, 11.99999886465577248 ) ;
#685 = DIRECTION ( 'NONE',  ( -0.000000000000000000, -0.000000000000000000, -1.000000000000000000 ) ) ;
#686 = DIRECTION ( 'NONE',  ( 0.000000000000000000, 0.000000000000000000, 1.000000000000000000 ) ) ;
#687 = ORIENTED_EDGE ( 'NONE', *, *, #806, .F. ) ;
#688 = EDGE_CURVE ( 'NONE', #349, #368, #145, .T. ) ;
#689 = DIRECTION ( 'NONE',  ( -0.000000000000000000, 0.000000000000000000, -1.000000000000000000 ) ) ;
#690 = DIRECTION ( 'NONE',  ( 0.000000000000000000, 0.000000000000000000, 1.000000000000000000 ) ) ;
#691 = AXIS2_PLACEMENT_3D ( 'NONE', #602, #542, #193 ) ;
#692 = ORIENTED_EDGE ( 'NONE', *, *, #391, .F. ) ;
#693 = PLANE ( 'NONE',  #4 ) ;
#694 = CARTESIAN_POINT ( 'NONE',  ( 1.650000000000000133, -0.2189853885571514946, -0.000000000000000000 ) ) ;
#695 = ORIENTED_EDGE ( 'NONE', *, *, #114, .T. ) ;
#696 = LINE ( 'NONE', #354, #78 ) ;
#697 = LINE ( 'NONE', #5, #461 ) ;
#698 = EDGE_CURVE ( 'NONE', #221, #15, #632, .T. ) ;
#699 = CARTESIAN_POINT ( 'NONE',  ( -0.9415099999999999580, 11.96301000000000059, 3.000000000000000000 ) ) ;
#700 = CARTESIAN_POINT ( 'NONE',  ( -11.99999911503350170, 3.181348342748413494E-06, 0.000000000000000000 ) ) ;
#701 = CIRCLE ( 'NONE', #572, 4.500000000000000888 ) ;
#702 = APPLICATION_CONTEXT ( 'configuration controlled 3d designs of mechanical parts and assemblies' ) ;
#703 = VECTOR ( 'NONE', #158, 1000.000000000000000 ) ;
#704 = VERTEX_POINT ( 'NONE', #429 ) ;
#705 = LINE ( 'NONE', #622, #203 ) ;
#706 = DIRECTION ( 'NONE',  ( 1.000000000000000000, 0.000000000000000000, 0.000000000000000000 ) ) ;
#707 = EDGE_LOOP ( 'NONE', ( #625, #32, #175, #593 ) ) ;
#708 = CARTESIAN_POINT ( 'NONE',  ( 0.4296294697432724852, 1.608064012193706205, -0.000000000000000000 ) ) ;
#709 = ADVANCED_FACE ( 'NONE', ( #140, #62, #350, #764, #826, #757 ), #497, .T. ) ;
#710 = CARTESIAN_POINT ( 'NONE',  ( 34.89999999999999858, 10.09999999999999964, 3.000000000000000000 ) ) ;
#711 = ORIENTED_EDGE ( 'NONE', *, *, #607, .T. ) ;
#712 = ORIENTED_EDGE ( 'NONE', *, *, #174, .F. ) ;
#713 = CARTESIAN_POINT ( 'NONE',  ( 34.89193598780692440, -4.570370530257729769, -0.000000000000000000 ) ) ;
#714 = CARTESIAN_POINT ( 'NONE',  ( 38.14999999999999858, -5.000000000000000000, -6.000000000000000152E-06 ) ) ;
#715 = CARTESIAN_POINT ( 'NONE',  ( 21.50000000000000000, -8.000000000000000000, -1.200000000000000030E-05 ) ) ;
#716 = ORIENTED_EDGE ( 'NONE', *, *, #877, .T. ) ;
#717 = CARTESIAN_POINT ( 'NONE',  ( -0.9415099999999991809, 11.96300999999999881, 3.000000000000000000 ) ) ;
#718 = DIRECTION ( 'NONE',  ( 0.000000000000000000, -1.000000000000000000, 0.000000000000000000 ) ) ;
#719 = VECTOR ( 'NONE', #471, 1000.000000000000000 ) ;
#720 = DIRECTION ( 'NONE',  ( -0.000000000000000000, -0.000000000000000000, -1.000000000000000000 ) ) ;
#721 = EDGE_CURVE ( 'NONE', #428, #451, #422, .T. ) ;
#722 = VERTEX_POINT ( 'NONE', #424 ) ;
#723 = CARTESIAN_POINT ( 'NONE',  ( 38.10793557823031108, -4.570423729347236730, -0.000000000000000000 ) ) ;
#724 = CARTESIAN_POINT ( 'NONE',  ( 17.00000000000000000, -8.000000000000000000, 3.000000000000000000 ) ) ;
#725 = CARTESIAN_POINT ( 'NONE',  ( 15.82888775743706056, -12.38574963860548550, -0.000000000000000000 ) ) ;
#726 = EDGE_CURVE ( 'NONE', #135, #608, #696, .T. ) ;
#727 = ORIENTED_EDGE ( 'NONE', *, *, #688, .F. ) ;
#728 = CARTESIAN_POINT ( 'NONE',  ( 0.8332258570615240778, 1.440738445093539655, 0.000000000000000000 ) ) ;
#729 = DIRECTION ( 'NONE',  ( 0.000000000000000000, 0.000000000000000000, 1.000000000000000000 ) ) ;
#730 = CARTESIAN_POINT ( 'NONE',  ( 14.23977804248006684, -4.396359325691477693, 0.000000000000000000 ) ) ;
#731 = ORIENTED_EDGE ( 'NONE', *, *, #426, .F. ) ;
#732 = DIRECTION ( 'NONE',  ( -0.000000000000000000, -0.000000000000000000, -1.000000000000000000 ) ) ;
#733 = VECTOR ( 'NONE', #804, 1000.000000000000000 ) ;
#734 = CARTESIAN_POINT ( 'NONE',  ( 34.89999999999999858, -20.10000000000000142, 3.000000000000000000 ) ) ;
#735 = CARTESIAN_POINT ( 'NONE',  ( 12.50006957849478084, -7.403612905979120917, 0.000000000000000000 ) ) ;
#736 = ORIENTED_EDGE ( 'NONE', *, *, #139, .T. ) ;
#737 = EDGE_CURVE ( 'NONE', #648, #200, #360, .T. ) ;
#738 = FACE_OUTER_BOUND ( 'NONE', #61, .T. ) ;
#739 = LINE ( 'NONE', #681, #747 ) ;
#740 = ORIENTED_EDGE ( 'NONE', *, *, #59, .F. ) ;
#741 = PERSON_AND_ORGANIZATION ( #889, #839 ) ;
#742 = VECTOR ( 'NONE', #210, 1000.000000000000000 ) ;
#743 = DIRECTION ( 'NONE',  ( -1.000000000000000000, 0.000000000000000000, 0.000000000000000000 ) ) ;
#744 = LOCAL_TIME ( 23, 19, 30.00000000000000000, #290 ) ;
#745 = LINE ( 'NONE', #35, #459 ) ;
#746 = EDGE_LOOP ( 'NONE', ( #667, #812, #695, #910 ) ) ;
#747 = VECTOR ( 'NONE', #473, 1000.000000000000000 ) ;
#748 = CARTESIAN_POINT ( 'NONE',  ( 34.89999999999999858, -20.10000000000000142, 3.000000000000000000 ) ) ;
#749 = FACE_OUTER_BOUND ( 'NONE', #652, .T. ) ;
#750 = ORIENTED_EDGE ( 'NONE', *, *, #186, .T. ) ;
#751 = PERSON_AND_ORGANIZATION_ROLE ( 'design_supplier' ) ;
#752 = PLANE ( 'NONE',  #217 ) ;
#753 = DIRECTION ( 'NONE',  ( -0.000000000000000000, -0.000000000000000000, -1.000000000000000000 ) ) ;
#754 = EDGE_CURVE ( 'NONE', #15, #135, #705, .T. ) ;
#755 = ORIENTED_EDGE ( 'NONE', *, *, #607, .F. ) ;
#756 = AXIS2_PLACEMENT_3D ( 'NONE', #57, #636, #65 ) ;
#757 = FACE_BOUND ( 'NONE', #242, .T. ) ;
#758 = CARTESIAN_POINT ( 'NONE',  ( 38.14999999999999858, -5.000000000000000000, 3.000000000000000000 ) ) ;
#759 = ORIENTED_EDGE ( 'NONE', *, *, #128, .F. ) ;
#760 = DIRECTION ( 'NONE',  ( 0.000000000000000000, 1.000000000000000000, 0.000000000000000000 ) ) ;
#761 = CARTESIAN_POINT ( 'NONE',  ( 38.10000000000000142, -20.10000000000000142, 3.000000000000000000 ) ) ;
#762 = VERTEX_POINT ( 'NONE', #563 ) ;
#763 = SECURITY_CLASSIFICATION_LEVEL ( 'unclassified' ) ;
#764 = FACE_OUTER_BOUND ( 'NONE', #359, .T. ) ;
#765 = EDGE_CURVE ( 'NONE', #72, #349, #481, .T. ) ;
#766 = CARTESIAN_POINT ( 'NONE',  ( 38.10000000000000142, 10.09999999999999964, 3.000000000000000000 ) ) ;
#767 = ORIENTED_EDGE ( 'NONE', *, *, #406, .T. ) ;
#768 = DIRECTION ( 'NONE',  ( 0.9971539220298138995, 0.07539267723433133728, 0.000000000000000000 ) ) ;
#769 = VECTOR ( 'NONE', #409, 1000.000000000000000 ) ;
#770 = CARTESIAN_POINT ( 'NONE',  ( -0.8332258570616489779, -1.440738445093539433, 0.000000000000000000 ) ) ;
#771 = DATE_AND_TIME ( #491, #744 ) ;
#772 = ORIENTED_EDGE ( 'NONE', *, *, #646, .F. ) ;
#773 = FACE_OUTER_BOUND ( 'NONE', #144, .T. ) ;
#774 = DIRECTION ( 'NONE',  ( 1.000000000000000000, 0.000000000000000000, 0.000000000000000000 ) ) ;
#775 = AXIS2_PLACEMENT_3D ( 'NONE', #329, #895, #743 ) ;
#776 = ADVANCED_FACE ( 'NONE', ( #773 ), #73, .F. ) ;
#777 = B_SPLINE_CURVE_WITH_KNOTS ( 'NONE', 3,
 ( #415, #836, #561, #74, #623, #358, #770, #141, #846, #293, #556, #289, #908, #351, #564, #642, #694, #628 ),
 .UNSPECIFIED., .F., .F.,
 ( 4, 2, 2, 2, 2, 2, 2, 2, 4 ),
 ( 0.5000000000000000000, 0.5625000000000000000, 0.6250000000000000000, 0.6875000000000000000, 0.7500000000000000000, 0.8125000000000000000, 0.8750000000000000000, 0.9375000000000000000, 1.000000000000000000 ),
 .UNSPECIFIED. ) ;
#778 = ORIENTED_EDGE ( 'NONE', *, *, #824, .T. ) ;
#779 = CARTESIAN_POINT ( 'NONE',  ( 38.10000000000000142, 10.09999999999999964, 3.000000000000000000 ) ) ;
#780 = PLANE ( 'NONE',  #574 ) ;
#781 = ORIENTED_EDGE ( 'NONE', *, *, #85, .F. ) ;
#782 = CC_DESIGN_PERSON_AND_ORGANIZATION_ASSIGNMENT ( #898, #496, ( #832 ) ) ;
#783 = ORIENTED_EDGE ( 'NONE', *, *, #726, .T. ) ;
#784 = DIRECTION ( 'NONE',  ( 0.000000000000000000, -0.000000000000000000, -1.000000000000000000 ) ) ;
#785 = CARTESIAN_POINT ( 'NONE',  ( 38.10000000000000142, 1.899999999999999911, 3.000000000000000000 ) ) ;
#786 = LINE ( 'NONE', #514, #223 ) ;
#787 = ORIENTED_EDGE ( 'NONE', *, *, #688, .T. ) ;
#788 = CARTESIAN_POINT ( 'NONE',  ( -1.440738445093539433, 0.8332258570617010474, 0.000000000000000000 ) ) ;
#789 = CARTESIAN_POINT ( 'NONE',  ( 41.49999842625835100, 14.00000000000000000, 0.000000000000000000 ) ) ;
#790 = LINE ( 'NONE', #372, #427 ) ;
#791 = ORIENTED_EDGE ( 'NONE', *, *, #150, .F. ) ;
#792 = DIRECTION ( 'NONE',  ( 0.000000000000000000, -1.000000000000000000, 0.000000000000000000 ) ) ;
#793 = CARTESIAN_POINT ( 'NONE',  ( 34.89206442176956102, -5.429576270652636261, -0.000000000000000000 ) ) ;
#794 = VECTOR ( 'NONE', #506, 1000.000000000000000 ) ;
#795 = EDGE_CURVE ( 'NONE', #630, #87, #437, .T. ) ;
#796 = CARTESIAN_POINT ( 'NONE',  ( 19.76032035637005535, -4.396260926841152994, -0.000000000000000000 ) ) ;
#797 = ORIENTED_EDGE ( 'NONE', *, *, #834, .F. ) ;
#798 = LINE ( 'NONE', #77, #134 ) ;
#799 = CARTESIAN_POINT ( 'NONE',  ( 35.48769467069197958, -6.321245347707125539, -0.000000000000000000 ) ) ;
#800 = FACE_OUTER_BOUND ( 'NONE', #384, .T. ) ;
#801 = APPROVAL ( #457, 'UNSPECIFIED' ) ;
#802 = ORIENTED_EDGE ( 'NONE', *, *, #352, .T. ) ;
#803 = DIRECTION ( 'NONE',  ( -0.000000000000000000, -0.000000000000000000, -1.000000000000000000 ) ) ;
#804 = DIRECTION ( 'NONE',  ( 1.000000000000000000, 0.000000000000000000, 0.000000000000000000 ) ) ;
#805 = PLANE ( 'NONE',  #370 ) ;
#806 = EDGE_CURVE ( 'NONE', #630, #664, #279, .T. ) ;
#807 = ORIENTED_EDGE ( 'NONE', *, *, #904, .F. ) ;
#808 = DIRECTION ( 'NONE',  ( 1.000000000000000000, 0.000000000000000000, 0.000000000000000000 ) ) ;
#809 = AXIS2_PLACEMENT_3D ( 'NONE', #903, #638, #918 ) ;
#810 = DIRECTION ( 'NONE',  ( 0.000000000000000000, 0.000000000000000000, 1.000000000000000000 ) ) ;
#811 = CARTESIAN_POINT ( 'NONE',  ( 12.50000000000000000, -8.000000000000000000, -6.000000000000000152E-06 ) ) ;
#812 = ORIENTED_EDGE ( 'NONE', *, *, #71, .F. ) ;
#813 =( LENGTH_UNIT ( ) NAMED_UNIT ( * ) SI_UNIT ( .MILLI., .METRE. ) );
#814 = CYLINDRICAL_SURFACE ( 'NONE', #56, 1.649999999999998579 ) ;
#815 = ORIENTED_EDGE ( 'NONE', *, *, #553, .T. ) ;
#816 = CARTESIAN_POINT ( 'NONE',  ( -2.503777292916717356E-07, 3.181348342748413494E-06, 3.000000000000000000 ) ) ;
#817 = DIRECTION ( 'NONE',  ( 0.000000000000000000, 1.000000000000000000, 0.000000000000000000 ) ) ;
#818 = DIRECTION ( 'NONE',  ( 1.000000000000000000, 0.000000000000000000, 0.000000000000000000 ) ) ;
#819 = MANIFOLD_SOLID_BREP ( 'Otverstiya', #115 ) ;
#820 = ORIENTED_EDGE ( 'NONE', *, *, #139, .F. ) ;
#821 = DIRECTION ( 'NONE',  ( 1.000000000000000000, 0.000000000000000000, -0.000000000000000000 ) ) ;
#822 = CIRCLE ( 'NONE', #26, 4.500000000000000888 ) ;
#823 = CARTESIAN_POINT ( 'NONE',  ( 41.49999842625835100, 14.00000000000000000, 3.000000000000000000 ) ) ;
#824 = EDGE_CURVE ( 'NONE', #200, #549, #677, .T. ) ;
#825 = ORIENTED_EDGE ( 'NONE', *, *, #850, .F. ) ;
#826 = FACE_BOUND ( 'NONE', #161, .T. ) ;
#827 = LINE ( 'NONE', #537, #10 ) ;
#828 = EDGE_CURVE ( 'NONE', #583, #282, #798, .T. ) ;
#829 = ORIENTED_EDGE ( 'NONE', *, *, #225, .T. ) ;
#830 = DIRECTION ( 'NONE',  ( -1.000000000000000000, 0.000000000000000000, 0.000000000000000000 ) ) ;
#831 = DIRECTION ( 'NONE',  ( 0.000000000000000000, 0.000000000000000000, 1.000000000000000000 ) ) ;
#832 = SECURITY_CLASSIFICATION ( '', '', #763 ) ;
#833 = ORIENTED_EDGE ( 'NONE', *, *, #53, .T. ) ;
#834 = EDGE_CURVE ( 'NONE', #616, #603, #171, .T. ) ;
#835 = DIRECTION ( 'NONE',  ( -1.000000000000000000, -0.000000000000000000, -0.000000000000000000 ) ) ;
#836 = CARTESIAN_POINT ( 'NONE',  ( -1.650069507960235660, -0.2184535819897194253, 0.000000000000000000 ) ) ;
#837 = VECTOR ( 'NONE', #311, 1000.000000000000000 ) ;
#838 = ORIENTED_EDGE ( 'NONE', *, *, #71, .T. ) ;
#839 = ORGANIZATION ( 'UNSPECIFIED', 'UNSPECIFIED', '' ) ;
#840 = ADVANCED_FACE ( 'NONE', ( #18 ), #96, .T. ) ;
#841 = CARTESIAN_POINT ( 'NONE',  ( 41.49999842625835100, 14.00000000000000000, 0.000000000000000000 ) ) ;
#842 = B_SPLINE_CURVE_WITH_KNOTS ( 'NONE', 3,
 ( #383, #658, #454, #173, #159, #796, #460, #250, #520, #246, #306, #235, #730, #524, #20, #855, #735, #859 ),
 .UNSPECIFIED., .F., .F.,
 ( 4, 2, 2, 2, 2, 2, 2, 2, 4 ),
 ( 0.000000000000000000, 0.06250000000000016653, 0.1250000000000003331, 0.1875000000000004996, 0.2500000000000006661, 0.3125000000000004996, 0.3750000000000003331, 0.4375000000000001665, 0.5000000000000000000 ),
 .UNSPECIFIED. ) ;
#843 = DIRECTION ( 'NONE',  ( -1.000000000000000000, 0.000000000000000000, 0.000000000000000000 ) ) ;
#844 = CARTESIAN_POINT ( 'NONE',  ( 38.10000000000000142, -20.10000000000000142, 3.000000000000000000 ) ) ;
#845 = APPLICATION_CONTEXT ( 'configuration controlled 3d designs of mechanical parts and assemblies' ) ;
#846 = CARTESIAN_POINT ( 'NONE',  ( -0.2184535819896930020, -1.649930492039763719, 0.000000000000000000 ) ) ;
#847 = ORIENTED_EDGE ( 'NONE', *, *, #402, .F. ) ;
#848 = DIRECTION ( 'NONE',  ( 0.9103628843218204425, -0.4138108491198072003, -0.000000000000000000 ) ) ;
#849 = LINE ( 'NONE', #138, #148 ) ;
#850 = EDGE_CURVE ( 'NONE', #45, #428, #83, .T. ) ;
#851 = AXIS2_PLACEMENT_3D ( 'NONE', #89, #654, #80 ) ;
#852 = ORIENTED_EDGE ( 'NONE', *, *, #406, .F. ) ;
#853 = CARTESIAN_POINT ( 'NONE',  ( 35.48779296979408571, -3.678852951389302461, 0.000000000000000000 ) ) ;
#854 = CARTESIAN_POINT ( 'NONE',  ( 37.82124534770942859, -6.012305329305343449, -0.000000000000000000 ) ) ;
#855 = CARTESIAN_POINT ( 'NONE',  ( 12.61425036139451805, -6.828887757438944384, -0.000000000000000000 ) ) ;
#856 = VERTEX_POINT ( 'NONE', #861 ) ;
#857 = CARTESIAN_POINT ( 'NONE',  ( -0.8332790561512123384, 1.440866879057204564, -0.000000000000000000 ) ) ;
#858 = CYLINDRICAL_SURFACE ( 'NONE', #118, 4.500000000000000888 ) ;
#859 = CARTESIAN_POINT ( 'NONE',  ( 12.50000000000000000, -8.000000000000000000, -6.000000000000000152E-06 ) ) ;
#860 = VERTEX_POINT ( 'NONE', #295 ) ;
#861 = CARTESIAN_POINT ( 'NONE',  ( 38.10000000000000142, 1.899999999999999911, 3.000000000000000000 ) ) ;
#862 = EDGE_CURVE ( 'NONE', #282, #260, #452, .T. ) ;
#863 = CARTESIAN_POINT ( 'NONE',  ( -4.976321573741648407, -10.91952972250671827, 3.000000000000000000 ) ) ;
#864 = CARTESIAN_POINT ( 'NONE',  ( 14.72696135127712935, -11.92916615399609448, 0.000000000000000000 ) ) ;
#865 = VECTOR ( 'NONE', #339, 1000.000000000000000 ) ;
#866 = AXIS2_PLACEMENT_3D ( 'NONE', #748, #817, #191 ) ;
#867 = ORIENTED_EDGE ( 'NONE', *, *, #721, .F. ) ;
#868 = CARTESIAN_POINT ( 'NONE',  ( 26.00000000000000000, 14.00000000000000000, 3.000000000000000000 ) ) ;
#869 = CC_DESIGN_PERSON_AND_ORGANIZATION_ASSIGNMENT ( #741, #333, ( #51 ) ) ;
#870 = VECTOR ( 'NONE', #588, 1000.000000000000000 ) ;
#871 = EDGE_CURVE ( 'NONE', #648, #722, #387, .T. ) ;
#872 = CARTESIAN_POINT ( 'NONE',  ( 21.50000000000000000, -8.596918974985536366, 0.000000000000000000 ) ) ;
#873 = ORIENTED_EDGE ( 'NONE', *, *, #888, .T. ) ;
#874 = COORDINATED_UNIVERSAL_TIME_OFFSET ( 3, 0, .AHEAD. ) ;
#875 = LINE ( 'NONE', #785, #619 ) ;
#876 = CARTESIAN_POINT ( 'NONE',  ( 12.49993042150522093, -8.596387094020879971, 0.000000000000000000 ) ) ;
#877 = EDGE_CURVE ( 'NONE', #451, #515, #448, .T. ) ;
#878 = AXIS2_PLACEMENT_3D ( 'NONE', #129, #689, #137 ) ;
#879 = ORIENTED_EDGE ( 'NONE', *, *, #698, .T. ) ;
#880 = CARTESIAN_POINT ( 'NONE',  ( 34.89999999999999858, 10.09999999999999964, 3.000000000000000000 ) ) ;
#881 = DIRECTION ( 'NONE',  ( -1.000000000000000000, 0.000000000000000000, 0.000000000000000000 ) ) ;
#882 = ORIENTED_EDGE ( 'NONE', *, *, #795, .T. ) ;
#883 = VECTOR ( 'NONE', #753, 1000.000000000000000 ) ;
#884 = CARTESIAN_POINT ( 'NONE',  ( 38.10000000000000142, 10.09999999999999964, 0.000000000000000000 ) ) ;
#885 = CARTESIAN_POINT ( 'NONE',  ( -0.9415099999999999580, 11.96301000000000059, 0.000000000000000000 ) ) ;
#886 = ORIENTED_EDGE ( 'NONE', *, *, #871, .T. ) ;
#887 = CALENDAR_DATE ( 2026, 1, 10 ) ;
#888 = EDGE_CURVE ( 'NONE', #762, #49, #181, .T. ) ;
#889 = PERSON ( 'UNSPECIFIED', 'UNSPECIFIED', 'UNSPECIFIED', ('UNSPECIFIED'), ('UNSPECIFIED'), ('UNSPECIFIED') ) ;
#890 = CARTESIAN_POINT ( 'NONE',  ( 38.10000000000000142, -11.90000000000000036, 3.000000000000000000 ) ) ;
#891 = DIRECTION ( 'NONE',  ( -0.000000000000000000, -0.000000000000000000, 1.000000000000000000 ) ) ;
#892 = EDGE_LOOP ( 'NONE', ( #380, #170, #612, #55 ) ) ;
#893 = PERSON_AND_ORGANIZATION ( #889, #839 ) ;
#894 = ADVANCED_FACE ( 'NONE', ( #399 ), #101, .T. ) ;
#895 = DIRECTION ( 'NONE',  ( 0.000000000000000000, 0.000000000000000000, 1.000000000000000000 ) ) ;
#896 = FACE_OUTER_BOUND ( 'NONE', #892, .T. ) ;
#897 = ORIENTED_EDGE ( 'NONE', *, *, #128, .T. ) ;
#898 = PERSON_AND_ORGANIZATION ( #889, #839 ) ;
#899 = LINE ( 'NONE', #202, #287 ) ;
#900 = AXIS2_PLACEMENT_3D ( 'NONE', #232, #88, #653 ) ;
#901 = ORIENTED_EDGE ( 'NONE', *, *, #862, .T. ) ;
#902 = CARTESIAN_POINT ( 'NONE',  ( -0.9415099999999999580, 11.96301000000000059, 3.000000000000000000 ) ) ;
#903 = CARTESIAN_POINT ( 'NONE',  ( 38.10000000000000142, -11.90000000000000036, 3.000000000000000000 ) ) ;
#904 = EDGE_CURVE ( 'NONE', #722, #549, #665, .T. ) ;
#905 = VERTEX_POINT ( 'NONE', #320 ) ;
#906 = VECTOR ( 'NONE', #835, 1000.000000000000000 ) ;
#907 = LINE ( 'NONE', #911, #126 ) ;
#908 = CARTESIAN_POINT ( 'NONE',  ( 1.012207030208351899, -1.321147048607224317, 0.000000000000000000 ) ) ;
#909 = CC_DESIGN_SECURITY_CLASSIFICATION ( #832, ( #111 ) ) ;
#910 = ORIENTED_EDGE ( 'NONE', *, *, #431, .T. ) ;
#911 = CARTESIAN_POINT ( 'NONE',  ( 41.49999842625835100, -24.99999972250671831, 0.000000000000000000 ) ) ;
#912 = VECTOR ( 'NONE', #606, 1000.000000000000000 ) ;
#913 = FACE_BOUND ( 'NONE', #538, .T. ) ;
#914 = UNCERTAINTY_MEASURE_WITH_UNIT (LENGTH_MEASURE( 1.000000000000000082E-05 ), #813, 'distance_accuracy_value', 'NONE');
#915 = PRODUCT ( '14_kist_B', '14_kist_B', '', ( #536 ) ) ;
#916 = ORIENTED_EDGE ( 'NONE', *, *, #85, .T. ) ;
#917 = DIRECTION ( 'NONE',  ( -0.000000000000000000, -0.000000000000000000, 1.000000000000000000 ) ) ;
#918 = DIRECTION ( 'NONE',  ( 0.000000000000000000, -0.000000000000000000, -1.000000000000000000 ) ) ;
ENDSEC;
END-ISO-10303-21;
