  0
SECTION
  2
HEADER
  9
$ACADVER
  1
AC1027
  9
$ACADMAINTVER
 70
105
  9
$DWGCODEPAGE
  3
ANSI_1252
  9
$LASTSAVEDBY
  1
ezdxf
  9
$REQUIREDVERSIONS
160
0
  9
$INSBASE
 10
0.0
 20
0.0
 30
0.0
  9
$EXTMIN
 10
1e+20
 20
1e+20
 30
1e+20
  9
$EXTMAX
 10
-1e+20
 20
-1e+20
 30
-1e+20
  9
$LIMMIN
 10
0.0
 20
0.0
  9
$LIMMAX
 10
420.0
 20
297.0
  9
$ORTHOMODE
 70
0
  9
$REGENMODE
 70
1
  9
$FILLMODE
 70
1
  9
$QTEXTMODE
 70
0
  9
$MIRRTEXT
 70
1
  9
$LTSCALE
 40
1.0
  9
$ATTMODE
 70
1
  9
$TEXTSIZE
 40
2.5
  9
$TRACEWID
 40
1.0
  9
$TEXTSTYLE
  7
Standard
  9
$CLAYER
  8
0
  9
$CELTYPE
  6
ByLayer
  9
$CECOLOR
 62
256
  9
$CELTSCALE
 40
1.0
  9
$DISPSILH
 70
0
  9
$DIMSCALE
 40
1.0
  9
$DIMASZ
 40
2.5
  9
$DIMEXO
 40
0.625
  9
$DIMDLI
 40
3.75
  9
$DIMRND
 40
0.0
  9
$DIMDLE
 40
0.0
  9
$DIMEXE
 40
1.25
  9
$DIMTP
 40
0.0
  9
$DIMTM
 40
0.0
  9
$DIMTXT
 40
2.5
  9
$DIMCEN
 40
2.5
  9
$DIMTSZ
 40
0.0
  9
$DIMTOL
 70
0
  9
$DIMLIM
 70
0
  9
$DIMTIH
 70
0
  9
$DIMTOH
 70
0
  9
$DIMSE1
 70
0
  9
$DIMSE2
 70
0
  9
$DIMTAD
 70
1
  9
$DIMZIN
 70
8
  9
$DIMBLK
  1

  9
$DIMASO
 70
1
  9
$DIMSHO
 70
1
  9
$DIMPOST
  1

  9
$DIMAPOST
  1

  9
$DIMALT
 70
0
  9
$DIMALTD
 70
3
  9
$DIMALTF
 40
0.03937007874
  9
$DIMLFAC
 40
1.0
  9
$DIMTOFL
 70
1
  9
$DIMTVP
 40
0.0
  9
$DIMTIX
 70
0
  9
$DIMSOXD
 70
0
  9
$DIMSAH
 70
0
  9
$DIMBLK1
  1

  9
$DIMBLK2
  1

  9
$DIMSTYLE
  2
ISO-25
  9
$DIMCLRD
 70
0
  9
$DIMCLRE
 70
0
  9
$DIMCLRT
 70
0
  9
$DIMTFAC
 40
1.0
  9
$DIMGAP
 40
0.625
  9
$DIMJUST
 70
0
  9
$DIMSD1
 70
0
  9
$DIMSD2
 70
0
  9
$DIMTOLJ
 70
0
  9
$DIMTZIN
 70
8
  9
$DIMALTZ
 70
0
  9
$DIMALTTZ
 70
0
  9
$DIMUPT
 70
0
  9
$DIMDEC
 70
2
  9
$DIMTDEC
 70
2
  9
$DIMALTU
 70
2
  9
$DIMALTTD
 70
3
  9
$DIMTXSTY
  7
Standard
  9
$DIMAUNIT
 70
0
  9
$DIMADEC
 70
0
  9
$DIMALTRND
 40
0.0
  9
$DIMAZIN
 70
0
  9
$DIMDSEP
 70
44
  9
$DIMATFIT
 70
3
  9
$DIMFRAC
 70
0
  9
$DIMLDRBLK
  1

  9
$DIMLUNIT
 70
2
  9
$DIMLWD
 70
-2
  9
$DIMLWE
 70
-2
  9
$DIMTMOVE
 70
0
  9
$DIMFXL
 40
1.0
  9
$DIMFXLON
 70
0
  9
$DIMJOGANG
 40
0.785398163397
  9
$DIMTFILL
 70
0
  9
$DIMTFILLCLR
 70
0
  9
$DIMARCSYM
 70
0
  9
$DIMLTYPE
  6

  9
$DIMLTEX1
  6

  9
$DIMLTEX2
  6

  9
$DIMTXTDIRECTION
 70
0
  9
$LUNITS
 70
2
  9
$LUPREC
 70
4
  9
$SKETCHINC
 40
1.0
  9
$FILLETRAD
 40
10.0
  9
$AUNITS
 70
0
  9
$AUPREC
 70
2
  9
$MENU
  1
.
  9
$ELEVATION
 40
0.0
  9
$PELEVATION
 40
0.0
  9
$THICKNESS
 40
0.0
  9
$LIMCHECK
 70
0
  9
$CHAMFERA
 40
0.0
  9
$CHAMFERB
 40
0.0
  9
$CHAMFERC
 40
0.0
  9
$CHAMFERD
 40
0.0
  9
$SKPOLY
 70
0
  9
$TDCREATE
 40
2461309.839699074
  9
$TDUCREATE
 40
2458532.153996898
  9
$TDUPDATE
 40
2461309.839699074
  9
$TDUUPDATE
 40
2458532.1544311
  9
$TDINDWG
 40
0.0
  9
$TDUSRTIMER
 40
0.0
  9
$USRTIMER
 70
1
  9
$ANGBASE
 50
0.0
  9
$ANGDIR
 70
0
  9
$PDMODE
 70
0
  9
$PDSIZE
 40
0.0
  9
$PLINEWID
 40
0.0
  9
$SPLFRAME
 70
0
  9
$SPLINETYPE
 70
6
  9
$SPLINESEGS
 70
8
  9
$HANDSEED
  5
1AD
  9
$SURFTAB1
 70
6
  9
$SURFTAB2
 70
6
  9
$SURFTYPE
 70
6
  9
$SURFU
 70
6
  9
$SURFV
 70
6
  9
$UCSBASE
  2

  9
$UCSNAME
  2

  9
$UCSORG
 10
0.0
 20
0.0
 30
0.0
  9
$UCSXDIR
 10
1.0
 20
0.0
 30
0.0
  9
$UCSYDIR
 10
0.0
 20
1.0
 30
0.0
  9
$UCSORTHOREF
  2

  9
$UCSORTHOVIEW
 70
0
  9
$UCSORGTOP
 10
0.0
 20
0.0
 30
0.0
  9
$UCSORGBOTTOM
 10
0.0
 20
0.0
 30
0.0
  9
$UCSORGLEFT
 10
0.0
 20
0.0
 30
0.0
  9
$UCSORGRIGHT
 10
0.0
 20
0.0
 30
0.0
  9
$UCSORGFRONT
 10
0.0
 20
0.0
 30
0.0
  9
$UCSORGBACK
 10
0.0
 20
0.0
 30
0.0
  9
$PUCSBASE
  2

  9
$PUCSNAME
  2

  9
$PUCSORG
 10
0.0
 20
0.0
 30
0.0
  9
$PUCSXDIR
 10
1.0
 20
0.0
 30
0.0
  9
$PUCSYDIR
 10
0.0
 20
1.0
 30
0.0
  9
$PUCSORTHOREF
  2

  9
$PUCSORTHOVIEW
 70
0
  9
$PUCSORGTOP
 10
0.0
 20
0.0
 30
0.0
  9
$PUCSORGBOTTOM
 10
0.0
 20
0.0
 30
0.0
  9
$PUCSORGLEFT
 10
0.0
 20
0.0
 30
0.0
  9
$PUCSORGRIGHT
 10
0.0
 20
0.0
 30
0.0
  9
$PUCSORGFRONT
 10
0.0
 20
0.0
 30
0.0
  9
$PUCSORGBACK
 10
0.0
 20
0.0
 30
0.0
  9
$USERI1
 70
0
  9
$USERI2
 70
0
  9
$USERI3
 70
0
  9
$USERI4
 70
0
  9
$USERI5
 70
0
  9
$USERR1
 40
0.0
  9
$USERR2
 40
0.0
  9
$USERR3
 40
0.0
  9
$USERR4
 40
0.0
  9
$USERR5
 40
0.0
  9
$WORLDVIEW
 70
1
  9
$SHADEDGE
 70
3
  9
$SHADEDIF
 70
70
  9
$TILEMODE
 70
1
  9
$MAXACTVP
 70
64
  9
$PINSBASE
 10
0.0
 20
0.0
 30
0.0
  9
$PLIMCHECK
 70
0
  9
$PEXTMIN
 10
1e+20
 20
1e+20
 30
1e+20
  9
$PEXTMAX
 10
-1e+20
 20
-1e+20
 30
-1e+20
  9
$PLIMMIN
 10
0.0
 20
0.0
  9
$PLIMMAX
 10
420.0
 20
297.0
  9
$UNITMODE
 70
0
  9
$VISRETAIN
 70
1
  9
$PLINEGEN
 70
0
  9
$PSLTSCALE
 70
1
  9
$TREEDEPTH
 70
3020
  9
$CMLSTYLE
  2
Standard
  9
$CMLJUST
 70
0
  9
$CMLSCALE
 40
20.0
  9
$PROXYGRAPHICS
 70
1
  9
$MEASUREMENT
 70
1
  9
$CELWEIGHT
370
-1
  9
$ENDCAPS
280
0
  9
$JOINSTYLE
280
0
  9
$LWDISPLAY
290
0
  9
$INSUNITS
 70
4
  9
$HYPERLINKBASE
  1

  9
$STYLESHEET
  1

  9
$XEDIT
290
1
  9
$CEPSNTYPE
380
0
  9
$PSTYLEMODE
290
1
  9
$FINGERPRINTGUID
  2
{8F76FF42-2DBF-4C6A-8263-C87FE2EF1D9B}
  9
$VERSIONGUID
  2
{D5448982-0039-468D-8B08-2D701AC106B5}
  9
$EXTNAMES
290
1
  9
$PSVPSCALE
 40
0.0
  9
$OLESTARTUP
290
0
  9
$SORTENTS
280
127
  9
$INDEXCTL
280
0
  9
$HIDETEXT
280
1
  9
$XCLIPFRAME
280
1
  9
$HALOGAP
280
0
  9
$OBSCOLOR
 70
257
  9
$OBSLTYPE
280
0
  9
$INTERSECTIONDISPLAY
280
0
  9
$INTERSECTIONCOLOR
 70
257
  9
$DIMASSOC
280
2
  9
$PROJECTNAME
  1

  9
$CAMERADISPLAY
290
0
  9
$LENSLENGTH
 40
50.0
  9
$CAMERAHEIGHT
 40
0.0
  9
$STEPSPERSEC
 40
24.0
  9
$STEPSIZE
 40
100.0
  9
$3DDWFPREC
 40
2.0
  9
$PSOLWIDTH
 40
0.005
  9
$PSOLHEIGHT
 40
0.08
  9
$LOFTANG1
 40
1.570796326795
  9
$LOFTANG2
 40
1.570796326795
  9
$LOFTMAG1
 40
0.0
  9
$LOFTMAG2
 40
0.0
  9
$LOFTPARAM
 70
7
  9
$LOFTNORMALS
280
1
  9
$LATITUDE
 40
37.795
  9
$LONGITUDE
 40
-122.394
  9
$NORTHDIRECTION
 40
0.0
  9
$TIMEZONE
 70
-8000
  9
$LIGHTGLYPHDISPLAY
280
1
  9
$TILEMODELIGHTSYNCH
280
1
  9
$CMATERIAL
347
20
  9
$SOLIDHIST
280
0
  9
$SHOWHIST
280
1
  9
$DWFFRAME
280
2
  9
$DGNFRAME
280
2
  9
$REALWORLDSCALE
290
1
  9
$INTERFERECOLOR
 62
256
  9
$CSHADOW
280
0
  9
$SHADOWPLANELOCATION
 40
0.0
  0
ENDSEC
  0
SECTION
  2
CLASSES
  0
CLASS
  1
ACDBDICTIONARYWDFLT
  2
AcDbDictionaryWithDefault
  3
ObjectDBX Classes
 90
0
 91
0
280
0
281
0
  0
CLASS
  1
SUN
  2
AcDbSun
  3
SCENEOE
 90
1153
 91
0
280
0
281
0
  0
CLASS
  1
VISUALSTYLE
  2
AcDbVisualStyle
  3
ObjectDBX Classes
 90
4095
 91
0
280
0
281
0
  0
CLASS
  1
MATERIAL
  2
AcDbMaterial
  3
ObjectDBX Classes
 90
1153
 91
0
280
0
281
0
  0
CLASS
  1
SCALE
  2
AcDbScale
  3
ObjectDBX Classes
 90
1153
 91
0
280
0
281
0
  0
CLASS
  1
TABLESTYLE
  2
AcDbTableStyle
  3
ObjectDBX Classes
 90
4095
 91
0
280
0
281
0
  0
CLASS
  1
MLEADERSTYLE
  2
AcDbMLeaderStyle
  3
ACDB_MLEADERSTYLE_CLASS
 90
4095
 91
0
280
0
281
0
  0
CLASS
  1
DICTIONARYVAR
  2
AcDbDictionaryVar
  3
ObjectDBX Classes
 90
0
 91
0
280
0
281
0
  0
CLASS
  1
CELLSTYLEMAP
  2
AcDbCellStyleMap
  3
ObjectDBX Classes
 90
1152
 91
0
280
0
281
0
  0
CLASS
  1
MENTALRAYRENDERSETTINGS
  2
AcDbMentalRayRenderSettings
  3
SCENEOE
 90
1024
 91
0
280
0
281
0
  0
CLASS
  1
ACDBDETAILVIEWSTYLE
  2
AcDbDetailViewStyle
  3
ObjectDBX Classes
 90
1025
 91
0
280
0
281
0
  0
CLASS
  1
ACDBSECTIONVIEWSTYLE
  2
AcDbSectionViewStyle
  3
ObjectDBX Classes
 90
1025
 91
0
280
0
281
0
  0
CLASS
  1
RASTERVARIABLES
  2
AcDbRasterVariables
  3
ISM
 90
0
 91
0
280
0
281
0
  0
CLASS
  1
ACDBPLACEHOLDER
  2
AcDbPlaceHolder
  3
ObjectDBX Classes
 90
0
 91
0
280
0
281
0
  0
CLASS
  1
LAYOUT
  2
AcDbLayout
  3
ObjectDBX Classes
 90
0
 91
0
280
0
281
0
  0
ENDSEC
  0
SECTION
  2
TABLES
  0
TABLE
  2
VPORT
  5
8
330
0
100
AcDbSymbolTable
 70
1
  0
VPORT
  5
1A9
330
8
100
AcDbSymbolTableRecord
100
AcDbViewportTableRecord
  2
*Active
 70
0
 10
0.0
 20
0.0
 11
1.0
 21
1.0
 12
12.0
 22
11.84432559535794
 13
0.0
 23
0.0
 14
0.5
 24
0.5
 15
0.5
 25
0.5
 16
0.0
 26
0.0
 36
1.0
 17
0.0
 27
0.0
 37
0.0
 40
50.674113850010144
 41
1.34
 42
50.0
 43
0.0
 44
0.0
 50
0.0
 51
0.0
 71
0
 72
1000
 73
1
 74
3
 75
0
 76
0
 77
0
 78
0
281
0
 65
1
110
0.0
120
0.0
130
0.0
111
1.0
121
0.0
131
0.0
112
0.0
122
1.0
132
0.0
 79
0
146
0.0
  0
ENDTAB
  0
TABLE
  2
LTYPE
  5
2
330
0
100
AcDbSymbolTable
 70
3
  0
LTYPE
  5
24
330
2
100
AcDbSymbolTableRecord
100
AcDbLinetypeTableRecord
  2
ByBlock
 70
0
  3

 72
65
 73
0
 40
0.0
  0
LTYPE
  5
25
330
2
100
AcDbSymbolTableRecord
100
AcDbLinetypeTableRecord
  2
ByLayer
 70
0
  3

 72
65
 73
0
 40
0.0
  0
LTYPE
  5
26
330
2
100
AcDbSymbolTableRecord
100
AcDbLinetypeTableRecord
  2
Continuous
 70
0
  3

 72
65
 73
0
 40
0.0
  0
ENDTAB
  0
TABLE
  2
LAYER
  5
1
330
0
100
AcDbSymbolTable
 70
2
  0
LAYER
  5
27
330
1
100
AcDbSymbolTableRecord
100
AcDbLayerTableRecord
  2
0
 70
0
 62
7
  6
Continuous
370
-3
390
13
347
21
  0
LAYER
  5
28
330
1
100
AcDbSymbolTableRecord
100
AcDbLayerTableRecord
  2
Defpoints
 70
0
 62
7
  6
Continuous
290
0
370
-3
390
13
347
21
  0
ENDTAB
  0
TABLE
  2
STYLE
  5
5
330
0
100
AcDbSymbolTable
 70
1
  0
STYLE
  5
29
330
5
100
AcDbSymbolTableRecord
100
AcDbTextStyleTableRecord
  2
Standard
 70
0
 40
0.0
 41
1.0
 50
0.0
 71
0
 42
2.5
  3
txt
  4

  0
ENDTAB
  0
TABLE
  2
VIEW
  5
7
330
0
100
AcDbSymbolTable
 70
0
  0
ENDTAB
  0
TABLE
  2
UCS
  5
6
330
0
100
AcDbSymbolTable
 70
0
  0
ENDTAB
  0
TABLE
  2
APPID
  5
3
330
0
100
AcDbSymbolTable
 70
3
  0
APPID
  5
2A
330
3
100
AcDbSymbolTableRecord
100
AcDbRegAppTableRecord
  2
ACAD
 70
0
  0
APPID
  5
1AA
330
3
100
AcDbSymbolTableRecord
100
AcDbRegAppTableRecord
  2
HATCHBACKGROUNDCOLOR
 70
0
  0
APPID
  5
1AB
330
3
100
AcDbSymbolTableRecord
100
AcDbRegAppTableRecord
  2
EZDXF
 70
0
  0
ENDTAB
  0
TABLE
  2
DIMSTYLE
  5
4
330
0
100
AcDbSymbolTable
 70
1
100
AcDbDimStyleTable
  0
DIMSTYLE
105
2B
330
4
100
AcDbSymbolTableRecord
100
AcDbDimStyleTableRecord
  2
Standard
 70
0
 40
1.0
 41
2.5
 42
0.625
 43
3.75
 44
1.25
 45
0.0
 46
0.0
 47
0.0
 48
0.0
 49
2.5
140
2.5
141
2.5
142
0.0
143
0.03937007874
144
1.0
145
0.0
146
1.0
147
0.625
148
0.0
 69
0
 70
0
 71
0
 72
0
 73
0
 74
0
 75
0
 76
0
 77
1
 78
8
 79
3
170
0
171
3
172
1
173
0
174
0
175
0
176
0
177
0
178
0
179
2
271
2
272
2
273
2
274
3
275
0
276
0
277
2
278
44
279
0
280
0
281
0
282
0
283
0
284
8
285
0
286
0
288
0
289
3
290
0
371
-2
372
-2
  0
ENDTAB
  0
TABLE
  2
BLOCK_RECORD
  5
9
330
0
100
AcDbSymbolTable
 70
2
  0
BLOCK_RECORD
  5
17
330
9
100
AcDbSymbolTableRecord
100
AcDbBlockTableRecord
  2
*Model_Space
340
1A
 70
0
280
1
281
0
  0
BLOCK_RECORD
  5
1B
330
9
100
AcDbSymbolTableRecord
100
AcDbBlockTableRecord
  2
*Paper_Space
340
1E
 70
0
280
1
281
0
  0
ENDTAB
  0
ENDSEC
  0
SECTION
  2
BLOCKS
  0
BLOCK
  5
18
330
17
100
AcDbEntity
  8
0
100
AcDbBlockBegin
  2
*Model_Space
 70
0
 10
0.0
 20
0.0
 30
0.0
  3
*Model_Space
  1

  0
ENDBLK
  5
19
330
17
100
AcDbEntity
  8
0
100
AcDbBlockEnd
  0
BLOCK
  5
1C
330
1B
100
AcDbEntity
  8
0
100
AcDbBlockBegin
  2
*Paper_Space
 70
0
 10
0.0
 20
0.0
 30
0.0
  3
*Paper_Space
  1

  0
ENDBLK
  5
1D
330
1B
100
AcDbEntity
  8
0
100
AcDbBlockEnd
  0
ENDSEC
  0
SECTION
  2
ENTITIES
  0
LINE
  5
2F
330
17
100
AcDbEntity
  8
0
100
AcDbLine
 10
1.9349916838089278
 20
1.1005601278460686
 30
0.0
 11
1.992708366873016
 21
1.5393957157101157
 31
0.0
  0
LINE
  5
30
330
17
100
AcDbEntity
  8
0
100
AcDbLine
 10
1.992708366873016
 20
1.5393957157101157
 30
0.0
 11
2.069549035917291
 21
1.9752895104132957
 31
0.0
  0
LINE
  5
31
330
17
100
AcDbEntity
  8
0
100
AcDbLine
 10
2.069549035917291
 20
1.9752895104132957
 30
0.0
 11
2.1653668480264727
 21
2.407408516663351
 31
0.0
  0
LINE
  5
32
330
17
100
AcDbEntity
  8
0
100
AcDbLine
 10
2.1653668480264727
 20
2.407408516663351
 30
0.0
 11
2.279978694866889
 21
2.834926952808202
 31
0.0
  0
LINE
  5
33
330
17
100
AcDbEntity
  8
0
100
AcDbLine
 10
2.279978694866889
 20
2.834926952808202
 30
0.0
 11
1.1747172808113788
 21
3.1572858524692724
 31
0.0
  0
LINE
  5
34
330
17
100
AcDbEntity
  8
0
100
AcDbLine
 10
1.1747172808113788
 20
3.1572858524692724
 30
0.0
 11
0.9696118665546152
 21
3.2481050430001743
 31
0.0
  0
LINE
  5
35
330
17
100
AcDbEntity
  8
0
100
AcDbLine
 10
0.9696118665546152
 20
3.2481050430001743
 30
0.0
 11
0.7718803419107658
 21
3.3633796015457604
 31
0.0
  0
LINE
  5
36
330
17
100
AcDbEntity
  8
0
100
AcDbLine
 10
0.7718803419107658
 20
3.3633796015457604
 30
0.0
 11
0.579500249309227
 21
3.4953425176916184
 31
0.0
  0
LINE
  5
37
330
17
100
AcDbEntity
  8
0
100
AcDbLine
 10
0.579500249309227
 20
3.4953425176916184
 30
0.0
 11
0.39194396210672267
 21
3.6413466161690247
 31
0.0
  0
LINE
  5
38
330
17
100
AcDbEntity
  8
0
100
AcDbLine
 10
0.39194396210672267
 20
3.6413466161690247
 30
0.0
 11
0.20902446680978137
 21
3.799907661445183
 31
0.0
  0
LINE
  5
39
330
17
100
AcDbEntity
  8
0
100
AcDbLine
 10
0.20902446680978137
 20
3.799907661445183
 30
0.0
 11
0.030702832980542993
 21
3.970044773629495
 31
0.0
  0
LINE
  5
3A
330
17
100
AcDbEntity
  8
0
100
AcDbLine
 10
0.030702832980542993
 20
3.970044773629495
 30
0.0
 11
-0.14298031334609185
 21
4.151046015087455
 31
0.0
  0
LINE
  5
3B
330
17
100
AcDbEntity
  8
0
100
AcDbLine
 10
-0.14298031334609185
 20
4.151046015087455
 30
0.0
 11
-0.3119363306581633
 21
4.34236079195911
 31
0.0
  0
LINE
  5
3C
330
17
100
AcDbEntity
  8
0
100
AcDbLine
 10
-0.3119363306581633
 20
4.34236079195911
 30
0.0
 11
-0.4760454001738008
 21
4.5435426699839505
 31
0.0
  0
LINE
  5
3D
330
17
100
AcDbEntity
  8
0
100
AcDbLine
 10
-0.4760454001738008
 20
4.5435426699839505
 30
0.0
 11
-0.6351664550069724
 21
4.754215882168849
 31
0.0
  0
LINE
  5
3E
330
17
100
AcDbEntity
  8
0
100
AcDbLine
 10
-0.6351664550069724
 20
4.754215882168849
 30
0.0
 11
-0.2961501712625889
 21
5.572673592249863
 31
0.0
  0
LINE
  5
3F
330
17
100
AcDbEntity
  8
0
100
AcDbLine
 10
-0.2961501712625889
 20
5.572673592249863
 30
0.0
 11
-0.034666137410203746
 21
5.609126472298064
 31
0.0
  0
LINE
  5
40
330
17
100
AcDbEntity
  8
0
100
AcDbLine
 10
-0.034666137410203746
 20
5.609126472298064
 30
0.0
 11
0.2236335687017288
 21
5.635340906592552
 31
0.0
  0
LINE
  5
41
330
17
100
AcDbEntity
  8
0
100
AcDbLine
 10
0.2236335687017288
 20
5.635340906592552
 30
0.0
 11
0.47838349033250616
 21
5.651150937096052
 31
0.0
  0
LINE
  5
42
330
17
100
AcDbEntity
  8
0
100
AcDbLine
 10
0.47838349033250616
 20
5.651150937096052
 30
0.0
 11
0.7291832261159907
 21
5.6563256117887795
 31
0.0
  0
LINE
  5
43
330
17
100
AcDbEntity
  8
0
100
AcDbLine
 10
0.7291832261159907
 20
5.6563256117887795
 30
0.0
 11
0.9755807683859334
 21
5.650538281032884
 31
0.0
  0
LINE
  5
44
330
17
100
AcDbEntity
  8
0
100
AcDbLine
 10
0.9755807683859334
 20
5.650538281032884
 30
0.0
 11
1.217043974268421
 21
5.633314255843994
 31
0.0
  0
LINE
  5
45
330
17
100
AcDbEntity
  8
0
100
AcDbLine
 10
1.217043974268421
 20
5.633314255843994
 30
0.0
 11
1.452906784917884
 21
5.603932421423334
 31
0.0
  0
LINE
  5
46
330
17
100
AcDbEntity
  8
0
100
AcDbLine
 10
1.452906784917884
 20
5.603932421423334
 30
0.0
 11
1.6822519258336168
 21
5.561211026251377
 31
0.0
  0
LINE
  5
47
330
17
100
AcDbEntity
  8
0
100
AcDbLine
 10
1.6822519258336168
 20
5.561211026251377
 30
0.0
 11
1.9035806498095074
 21
5.502905146367226
 31
0.0
  0
LINE
  5
48
330
17
100
AcDbEntity
  8
0
100
AcDbLine
 10
1.9035806498095074
 20
5.502905146367226
 30
0.0
 11
2.1128309445748137
 21
5.422092582574467
 31
0.0
  0
LINE
  5
49
330
17
100
AcDbEntity
  8
0
100
AcDbLine
 10
2.1128309445748137
 20
5.422092582574467
 30
0.0
 11
3.1223109493634738
 21
4.868496905638159
 31
0.0
  0
LINE
  5
4A
330
17
100
AcDbEntity
  8
0
100
AcDbLine
 10
3.1223109493634738
 20
4.868496905638159
 30
0.0
 11
3.3435693205385935
 21
5.251840905023622
 31
0.0
  0
LINE
  5
4B
330
17
100
AcDbEntity
  8
0
100
AcDbLine
 10
3.3435693205385935
 20
5.251840905023622
 30
0.0
 11
3.5813701754367404
 21
5.625148609323489
 31
0.0
  0
LINE
  5
4C
330
17
100
AcDbEntity
  8
0
100
AcDbLine
 10
3.5813701754367404
 20
5.625148609323489
 30
0.0
 11
3.835259075396378
 21
5.987706625587362
 31
0.0
  0
LINE
  5
4D
330
17
100
AcDbEntity
  8
0
100
AcDbLine
 10
3.835259075396378
 20
5.987706625587362
 30
0.0
 11
4.104750837418823
 21
6.3388221035742305
 31
0.0
  0
LINE
  5
4E
330
17
100
AcDbEntity
  8
0
100
AcDbLine
 10
4.104750837418823
 20
6.3388221035742305
 30
0.0
 11
3.206983849074188
 21
7.0596081246854085
 31
0.0
  0
LINE
  5
4F
330
17
100
AcDbEntity
  8
0
100
AcDbLine
 10
3.206983849074188
 20
7.0596081246854085
 30
0.0
 11
3.052246154392101
 21
7.2220045599005935
 31
0.0
  0
LINE
  5
50
330
17
100
AcDbEntity
  8
0
100
AcDbLine
 10
3.052246154392101
 20
7.2220045599005935
 30
0.0
 11
2.9136797095699922
 21
7.404172943697626
 31
0.0
  0
LINE
  5
51
330
17
100
AcDbEntity
  8
0
100
AcDbLine
 10
2.9136797095699922
 20
7.404172943697626
 30
0.0
 11
2.786443701248409
 21
7.599711455130757
 31
0.0
  0
LINE
  5
52
330
17
100
AcDbEntity
  8
0
100
AcDbLine
 10
2.786443701248409
 20
7.599711455130757
 30
0.0
 11
2.669037635852911
 21
7.806376337125102
 31
0.0
  0
LINE
  5
53
330
17
100
AcDbEntity
  8
0
100
AcDbLine
 10
2.669037635852911
 20
7.806376337125102
 30
0.0
 11
2.5607207430964483
 21
8.022867901816063
 31
0.0
  0
LINE
  5
54
330
17
100
AcDbEntity
  8
0
100
AcDbLine
 10
2.5607207430964483
 20
8.022867901816063
 30
0.0
 11
2.4610816894610217
 21
8.24829483238245
 31
0.0
  0
LINE
  5
55
330
17
100
AcDbEntity
  8
0
100
AcDbLine
 10
2.4610816894610217
 20
8.24829483238245
 30
0.0
 11
2.369885561771154
 21
8.481983837304837
 31
0.0
  0
LINE
  5
56
330
17
100
AcDbEntity
  8
0
100
AcDbLine
 10
2.369885561771154
 20
8.481983837304837
 30
0.0
 11
2.287003550957314
 21
8.723392312547242
 31
0.0
  0
LINE
  5
57
330
17
100
AcDbEntity
  8
0
100
AcDbLine
 10
2.287003550957314
 20
8.723392312547242
 30
0.0
 11
2.212375512144545
 21
8.97206195397106
 31
0.0
  0
LINE
  5
58
330
17
100
AcDbEntity
  8
0
100
AcDbLine
 10
2.212375512144545
 20
8.97206195397106
 30
0.0
 11
2.1459879743388672
 21
9.227591614182208
 31
0.0
  0
LINE
  5
59
330
17
100
AcDbEntity
  8
0
100
AcDbLine
 10
2.1459879743388672
 20
9.227591614182208
 30
0.0
 11
2.7724083858178172
 21
9.854012025661154
 31
0.0
  0
LINE
  5
5A
330
17
100
AcDbEntity
  8
0
100
AcDbLine
 10
2.7724083858178172
 20
9.854012025661154
 30
0.0
 11
3.0279380460289627
 21
9.787624487855476
 31
0.0
  0
LINE
  5
5B
330
17
100
AcDbEntity
  8
0
100
AcDbLine
 10
3.0279380460289627
 20
9.787624487855476
 30
0.0
 11
3.276607687452783
 21
9.712996449042707
 31
0.0
  0
LINE
  5
5C
330
17
100
AcDbEntity
  8
0
100
AcDbLine
 10
3.276607687452783
 20
9.712996449042707
 30
0.0
 11
3.5180161626951865
 21
9.630114438228865
 31
0.0
  0
LINE
  5
5D
330
17
100
AcDbEntity
  8
0
100
AcDbLine
 10
3.5180161626951865
 20
9.630114438228865
 30
0.0
 11
3.7517051676175743
 21
9.538918310539
 31
0.0
  0
LINE
  5
5E
330
17
100
AcDbEntity
  8
0
100
AcDbLine
 10
3.7517051676175743
 20
9.538918310539
 30
0.0
 11
3.9771320981839597
 21
9.439279256903571
 31
0.0
  0
LINE
  5
5F
330
17
100
AcDbEntity
  8
0
100
AcDbLine
 10
3.9771320981839597
 20
9.439279256903571
 30
0.0
 11
4.193623662874921
 21
9.330962364147108
 31
0.0
  0
LINE
  5
60
330
17
100
AcDbEntity
  8
0
100
AcDbLine
 10
4.193623662874921
 20
9.330962364147108
 30
0.0
 11
4.400288544869265
 21
9.21355629875161
 31
0.0
  0
LINE
  5
61
330
17
100
AcDbEntity
  8
0
100
AcDbLine
 10
4.400288544869265
 20
9.21355629875161
 30
0.0
 11
4.595827056302396
 21
9.086320290430026
 31
0.0
  0
LINE
  5
62
330
17
100
AcDbEntity
  8
0
100
AcDbLine
 10
4.595827056302396
 20
9.086320290430026
 30
0.0
 11
4.777995440099429
 21
8.947753845607917
 31
0.0
  0
LINE
  5
63
330
17
100
AcDbEntity
  8
0
100
AcDbLine
 10
4.777995440099429
 20
8.947753845607917
 30
0.0
 11
4.940391875314613
 21
8.79301615092583
 31
0.0
  0
LINE
  5
64
330
17
100
AcDbEntity
  8
0
100
AcDbLine
 10
4.940391875314613
 20
8.79301615092583
 30
0.0
 11
5.661177896425789
 21
7.895249162581192
 31
0.0
  0
LINE
  5
65
330
17
100
AcDbEntity
  8
0
100
AcDbLine
 10
5.661177896425789
 20
7.895249162581192
 30
0.0
 11
6.0122933744126446
 21
8.164740924603626
 31
0.0
  0
LINE
  5
66
330
17
100
AcDbEntity
  8
0
100
AcDbLine
 10
6.0122933744126446
 20
8.164740924603626
 30
0.0
 11
6.3748513906765325
 21
8.418629824563274
 31
0.0
  0
LINE
  5
67
330
17
100
AcDbEntity
  8
0
100
AcDbLine
 10
6.3748513906765325
 20
8.418629824563274
 30
0.0
 11
6.748159094976383
 21
8.65643067946141
 31
0.0
  0
LINE
  5
68
330
17
100
AcDbEntity
  8
0
100
AcDbLine
 10
6.748159094976383
 20
8.65643067946141
 30
0.0
 11
7.131503094361848
 21
8.87768905063653
 31
0.0
  0
LINE
  5
69
330
17
100
AcDbEntity
  8
0
100
AcDbLine
 10
7.131503094361848
 20
8.87768905063653
 30
0.0
 11
6.57790741742554
 21
9.88716905542519
 31
0.0
  0
LINE
  5
6A
330
17
100
AcDbEntity
  8
0
100
AcDbLine
 10
6.57790741742554
 20
9.88716905542519
 30
0.0
 11
6.497094853632781
 21
10.096419350190496
 31
0.0
  0
LINE
  5
6B
330
17
100
AcDbEntity
  8
0
100
AcDbLine
 10
6.497094853632781
 20
10.096419350190496
 30
0.0
 11
6.438788973748629
 21
10.317748074166389
 31
0.0
  0
LINE
  5
6C
330
17
100
AcDbEntity
  8
0
100
AcDbLine
 10
6.438788973748629
 20
10.317748074166389
 30
0.0
 11
6.396067578576673
 21
10.547093215082118
 31
0.0
  0
LINE
  5
6D
330
17
100
AcDbEntity
  8
0
100
AcDbLine
 10
6.396067578576673
 20
10.547093215082118
 30
0.0
 11
6.366685744156013
 21
10.782956025731584
 31
0.0
  0
LINE
  5
6E
330
17
100
AcDbEntity
  8
0
100
AcDbLine
 10
6.366685744156013
 20
10.782956025731584
 30
0.0
 11
6.349461718967123
 21
11.02441923161407
 31
0.0
  0
LINE
  5
6F
330
17
100
AcDbEntity
  8
0
100
AcDbLine
 10
6.349461718967123
 20
11.02441923161407
 30
0.0
 11
6.343674388211228
 21
11.270816773884013
 31
0.0
  0
LINE
  5
70
330
17
100
AcDbEntity
  8
0
100
AcDbLine
 10
6.343674388211228
 20
11.270816773884013
 30
0.0
 11
6.348849062903956
 21
11.5216165096675
 31
0.0
  0
LINE
  5
71
330
17
100
AcDbEntity
  8
0
100
AcDbLine
 10
6.348849062903956
 20
11.5216165096675
 30
0.0
 11
6.364659093407456
 21
11.776366431298275
 31
0.0
  0
LINE
  5
72
330
17
100
AcDbEntity
  8
0
100
AcDbLine
 10
6.364659093407456
 20
11.776366431298275
 30
0.0
 11
6.390873527701944
 21
12.034666137410207
 31
0.0
  0
LINE
  5
73
330
17
100
AcDbEntity
  8
0
100
AcDbLine
 10
6.390873527701944
 20
12.034666137410207
 30
0.0
 11
6.427326407750145
 21
12.296150171262594
 31
0.0
  0
LINE
  5
74
330
17
100
AcDbEntity
  8
0
100
AcDbLine
 10
6.427326407750145
 20
12.296150171262594
 30
0.0
 11
7.2457841178311595
 21
12.635166455006976
 31
0.0
  0
LINE
  5
75
330
17
100
AcDbEntity
  8
0
100
AcDbLine
 10
7.2457841178311595
 20
12.635166455006976
 30
0.0
 11
7.4564573300160575
 21
12.476045400173804
 31
0.0
  0
LINE
  5
76
330
17
100
AcDbEntity
  8
0
100
AcDbLine
 10
7.4564573300160575
 20
12.476045400173804
 30
0.0
 11
7.657639208040899
 21
12.311936330658167
 31
0.0
  0
LINE
  5
77
330
17
100
AcDbEntity
  8
0
100
AcDbLine
 10
7.657639208040899
 20
12.311936330658167
 30
0.0
 11
7.848953984912553
 21
12.142980313346094
 31
0.0
  0
LINE
  5
78
330
17
100
AcDbEntity
  8
0
100
AcDbLine
 10
7.848953984912553
 20
12.142980313346094
 30
0.0
 11
8.029955226370513
 21
11.969297167019459
 31
0.0
  0
LINE
  5
79
330
17
100
AcDbEntity
  8
0
100
AcDbLine
 10
8.029955226370513
 20
11.969297167019459
 30
0.0
 11
8.200092338554825
 21
11.790975533190222
 31
0.0
  0
LINE
  5
7A
330
17
100
AcDbEntity
  8
0
100
AcDbLine
 10
8.200092338554825
 20
11.790975533190222
 30
0.0
 11
8.358653383830983
 21
11.608056037893279
 31
0.0
  0
LINE
  5
7B
330
17
100
AcDbEntity
  8
0
100
AcDbLine
 10
8.358653383830983
 20
11.608056037893279
 30
0.0
 11
8.504657482308389
 21
11.420499750690775
 31
0.0
  0
LINE
  5
7C
330
17
100
AcDbEntity
  8
0
100
AcDbLine
 10
8.504657482308389
 20
11.420499750690775
 30
0.0
 11
8.636620398454246
 21
11.228119658089236
 31
0.0
  0
LINE
  5
7D
330
17
100
AcDbEntity
  8
0
100
AcDbLine
 10
8.636620398454246
 20
11.228119658089236
 30
0.0
 11
8.698014854490193
 21
11.122809175448204
 31
0.0
  0
LINE
  5
7E
330
17
100
AcDbEntity
  8
0
100
AcDbLine
 10
8.698014854490193
 20
11.122809175448204
 30
0.0
 11
14.504421
 21
33.405581
 31
0.0
  0
ARC
  5
7F
330
17
100
AcDbEntity
  8
0
100
AcDbCircle
 10
18.861085481931756
 20
32.27887057380866
 30
0.0
 40
4.500000199179324
100
AcDbArc
 50
-9.4999911513734
 51
165.4999952908392
  0
LINE
  5
80
330
17
100
AcDbEntity
  8
0
100
AcDbLine
 10
23.299371
 20
31.536157
 30
0.0
 11
19.60664023048369
 21
9.217492527511634
 31
0.0
  0
LINE
  5
81
330
17
100
AcDbEntity
  8
0
100
AcDbLine
 10
19.60664023048369
 20
9.217492527511634
 30
0.0
 11
19.806376337125094
 21
9.330962364147098
 31
0.0
  0
LINE
  5
82
330
17
100
AcDbEntity
  8
0
100
AcDbLine
 10
19.806376337125094
 20
9.330962364147098
 30
0.0
 11
20.022867901816056
 21
9.43927925690356
 31
0.0
  0
LINE
  5
83
330
17
100
AcDbEntity
  8
0
100
AcDbLine
 10
20.022867901816056
 20
9.43927925690356
 30
0.0
 11
20.24829483238244
 21
9.538918310538987
 31
0.0
  0
LINE
  5
84
330
17
100
AcDbEntity
  8
0
100
AcDbLine
 10
20.24829483238244
 20
9.538918310538987
 30
0.0
 11
20.48198383730484
 21
9.630114438228846
 31
0.0
  0
LINE
  5
85
330
17
100
AcDbEntity
  8
0
100
AcDbLine
 10
20.48198383730484
 20
9.630114438228846
 30
0.0
 11
20.723392312547226
 21
9.712996449042702
 31
0.0
  0
LINE
  5
86
330
17
100
AcDbEntity
  8
0
100
AcDbLine
 10
20.723392312547226
 20
9.712996449042702
 30
0.0
 11
20.97206195397105
 21
9.787624487855464
 31
0.0
  0
LINE
  5
87
330
17
100
AcDbEntity
  8
0
100
AcDbLine
 10
20.97206195397105
 20
9.787624487855464
 30
0.0
 11
21.2275916141822
 21
9.854012025661142
 31
0.0
  0
LINE
  5
88
330
17
100
AcDbEntity
  8
0
100
AcDbLine
 10
21.2275916141822
 20
9.854012025661142
 30
0.0
 11
21.854012025661145
 21
9.227591614182192
 31
0.0
  0
LINE
  5
89
330
17
100
AcDbEntity
  8
0
100
AcDbLine
 10
21.854012025661145
 20
9.227591614182192
 30
0.0
 11
21.787624487855467
 21
8.972061953971046
 31
0.0
  0
LINE
  5
8A
330
17
100
AcDbEntity
  8
0
100
AcDbLine
 10
21.787624487855467
 20
8.972061953971046
 30
0.0
 11
21.712996449042706
 21
8.723392312547219
 31
0.0
  0
LINE
  5
8B
330
17
100
AcDbEntity
  8
0
100
AcDbLine
 10
21.712996449042706
 20
8.723392312547219
 30
0.0
 11
21.63011443822885
 21
8.481983837304831
 31
0.0
  0
LINE
  5
8C
330
17
100
AcDbEntity
  8
0
100
AcDbLine
 10
21.63011443822885
 20
8.481983837304831
 30
0.0
 11
21.538918310538993
 21
8.248294832382436
 31
0.0
  0
LINE
  5
8D
330
17
100
AcDbEntity
  8
0
100
AcDbLine
 10
21.538918310538993
 20
8.248294832382436
 30
0.0
 11
21.439279256903564
 21
8.022867901816051
 31
0.0
  0
LINE
  5
8E
330
17
100
AcDbEntity
  8
0
100
AcDbLine
 10
21.439279256903564
 20
8.022867901816051
 30
0.0
 11
21.3309623641471
 21
7.806376337125088
 31
0.0
  0
LINE
  5
8F
330
17
100
AcDbEntity
  8
0
100
AcDbLine
 10
21.3309623641471
 20
7.806376337125088
 30
0.0
 11
21.213556298751598
 21
7.599711455130751
 31
0.0
  0
LINE
  5
90
330
17
100
AcDbEntity
  8
0
100
AcDbLine
 10
21.213556298751598
 20
7.599711455130751
 30
0.0
 11
21.086320290430024
 21
7.404172943697604
 31
0.0
  0
LINE
  5
91
330
17
100
AcDbEntity
  8
0
100
AcDbLine
 10
21.086320290430024
 20
7.404172943697604
 30
0.0
 11
20.94775384560791
 21
7.222004559900579
 31
0.0
  0
LINE
  5
92
330
17
100
AcDbEntity
  8
0
100
AcDbLine
 10
20.94775384560791
 20
7.222004559900579
 30
0.0
 11
20.79301615092583
 21
7.059608124685388
 31
0.0
  0
LINE
  5
93
330
17
100
AcDbEntity
  8
0
100
AcDbLine
 10
20.79301615092583
 20
7.059608124685388
 30
0.0
 11
19.89524916258119
 21
6.338822103574212
 31
0.0
  0
LINE
  5
94
330
17
100
AcDbEntity
  8
0
100
AcDbLine
 10
19.89524916258119
 20
6.338822103574212
 30
0.0
 11
20.16474092460363
 21
5.987706625587349
 31
0.0
  0
LINE
  5
95
330
17
100
AcDbEntity
  8
0
100
AcDbLine
 10
20.16474092460363
 20
5.987706625587349
 30
0.0
 11
20.41862982456327
 21
5.6251486093234755
 31
0.0
  0
LINE
  5
96
330
17
100
AcDbEntity
  8
0
100
AcDbLine
 10
20.41862982456327
 20
5.6251486093234755
 30
0.0
 11
20.656430679461405
 21
5.2518409050236246
 31
0.0
  0
LINE
  5
97
330
17
100
AcDbEntity
  8
0
100
AcDbLine
 10
20.656430679461405
 20
5.2518409050236246
 30
0.0
 11
20.877689050636526
 21
4.86849690563816
 31
0.0
  0
LINE
  5
98
330
17
100
AcDbEntity
  8
0
100
AcDbLine
 10
20.877689050636526
 20
4.86849690563816
 30
0.0
 11
21.887169055425183
 21
5.42209258257447
 31
0.0
  0
LINE
  5
99
330
17
100
AcDbEntity
  8
0
100
AcDbLine
 10
21.887169055425183
 20
5.42209258257447
 30
0.0
 11
22.096419350190494
 21
5.50290514636722
 31
0.0
  0
LINE
  5
9A
330
17
100
AcDbEntity
  8
0
100
AcDbLine
 10
22.096419350190494
 20
5.50290514636722
 30
0.0
 11
22.31774807416638
 21
5.561211026251381
 31
0.0
  0
LINE
  5
9B
330
17
100
AcDbEntity
  8
0
100
AcDbLine
 10
22.31774807416638
 20
5.561211026251381
 30
0.0
 11
22.54709321508212
 21
5.603932421423318
 31
0.0
  0
LINE
  5
9C
330
17
100
AcDbEntity
  8
0
100
AcDbLine
 10
22.54709321508212
 20
5.603932421423318
 30
0.0
 11
22.782956025731586
 21
5.633314255843988
 31
0.0
  0
LINE
  5
9D
330
17
100
AcDbEntity
  8
0
100
AcDbLine
 10
22.782956025731586
 20
5.633314255843988
 30
0.0
 11
23.02441923161407
 21
5.650538281032878
 31
0.0
  0
LINE
  5
9E
330
17
100
AcDbEntity
  8
0
100
AcDbLine
 10
23.02441923161407
 20
5.650538281032878
 30
0.0
 11
23.270816773884015
 21
5.656325611788773
 31
0.0
  0
LINE
  5
9F
330
17
100
AcDbEntity
  8
0
100
AcDbLine
 10
23.270816773884015
 20
5.656325611788773
 30
0.0
 11
23.521616509667503
 21
5.651150937096035
 31
0.0
  0
LINE
  5
A0
330
17
100
AcDbEntity
  8
0
100
AcDbLine
 10
23.521616509667503
 20
5.651150937096035
 30
0.0
 11
23.77636643129827
 21
5.635340906592555
 31
0.0
  0
LINE
  5
A1
330
17
100
AcDbEntity
  8
0
100
AcDbLine
 10
23.77636643129827
 20
5.635340906592555
 30
0.0
 11
24.034666137410206
 21
5.6091264722980565
 31
0.0
  0
LINE
  5
A2
330
17
100
AcDbEntity
  8
0
100
AcDbLine
 10
24.034666137410206
 20
5.6091264722980565
 30
0.0
 11
24.296150171262592
 21
5.572673592249855
 31
0.0
  0
LINE
  5
A3
330
17
100
AcDbEntity
  8
0
100
AcDbLine
 10
24.296150171262592
 20
5.572673592249855
 30
0.0
 11
24.635166455006974
 21
4.754215882168841
 31
0.0
  0
LINE
  5
A4
330
17
100
AcDbEntity
  8
0
100
AcDbLine
 10
24.635166455006974
 20
4.754215882168841
 30
0.0
 11
24.476045400173803
 21
4.543542669983943
 31
0.0
  0
LINE
  5
A5
330
17
100
AcDbEntity
  8
0
100
AcDbLine
 10
24.476045400173803
 20
4.543542669983943
 30
0.0
 11
24.31193633065817
 21
4.342360791959091
 31
0.0
  0
LINE
  5
A6
330
17
100
AcDbEntity
  8
0
100
AcDbLine
 10
24.31193633065817
 20
4.342360791959091
 30
0.0
 11
24.14298031334609
 21
4.151046015087458
 31
0.0
  0
LINE
  5
A7
330
17
100
AcDbEntity
  8
0
100
AcDbLine
 10
24.14298031334609
 20
4.151046015087458
 30
0.0
 11
23.96929716701946
 21
3.9700447736294877
 31
0.0
  0
LINE
  5
A8
330
17
100
AcDbEntity
  8
0
100
AcDbLine
 10
23.96929716701946
 20
3.9700447736294877
 30
0.0
 11
23.79097553319022
 21
3.7999076614451757
 31
0.0
  0
LINE
  5
A9
330
17
100
AcDbEntity
  8
0
100
AcDbLine
 10
23.79097553319022
 20
3.7999076614451757
 30
0.0
 11
23.608056037893277
 21
3.641346616169018
 31
0.0
  0
LINE
  5
AA
330
17
100
AcDbEntity
  8
0
100
AcDbLine
 10
23.608056037893277
 20
3.641346616169018
 30
0.0
 11
23.420499750690773
 21
3.4953425176916215
 31
0.0
  0
LINE
  5
AB
330
17
100
AcDbEntity
  8
0
100
AcDbLine
 10
23.420499750690773
 20
3.4953425176916215
 30
0.0
 11
23.22811965808924
 21
3.3633796015457436
 31
0.0
  0
LINE
  5
AC
330
17
100
AcDbEntity
  8
0
100
AcDbLine
 10
23.22811965808924
 20
3.3633796015457436
 30
0.0
 11
23.030388133445385
 21
3.2481050430001672
 31
0.0
  0
LINE
  5
AD
330
17
100
AcDbEntity
  8
0
100
AcDbLine
 10
23.030388133445385
 20
3.2481050430001672
 30
0.0
 11
22.82528271918863
 21
3.1572858524692564
 31
0.0
  0
LINE
  5
AE
330
17
100
AcDbEntity
  8
0
100
AcDbLine
 10
22.82528271918863
 20
3.1572858524692564
 30
0.0
 11
21.720021305133116
 21
2.8349269528081873
 31
0.0
  0
LINE
  5
AF
330
17
100
AcDbEntity
  8
0
100
AcDbLine
 10
21.720021305133116
 20
2.8349269528081873
 30
0.0
 11
21.83463315197353
 21
2.4074085166633363
 31
0.0
  0
LINE
  5
B0
330
17
100
AcDbEntity
  8
0
100
AcDbLine
 10
21.83463315197353
 20
2.4074085166633363
 30
0.0
 11
21.93045096408271
 21
1.9752895104132986
 31
0.0
  0
LINE
  5
B1
330
17
100
AcDbEntity
  8
0
100
AcDbLine
 10
21.93045096408271
 20
1.9752895104132986
 30
0.0
 11
22.007291633126982
 21
1.5393957157101184
 31
0.0
  0
LINE
  5
B2
330
17
100
AcDbEntity
  8
0
100
AcDbLine
 10
22.007291633126982
 20
1.5393957157101184
 30
0.0
 11
22.065008316191072
 21
1.1005601278460648
 31
0.0
  0
LINE
  5
B3
330
17
100
AcDbEntity
  8
0
100
AcDbLine
 10
22.065008316191072
 20
1.1005601278460648
 30
0.0
 11
23.209498124887173
 21
1.2257045699177993
 31
0.0
  0
LINE
  5
B4
330
17
100
AcDbEntity
  8
0
100
AcDbLine
 10
23.209498124887173
 20
1.2257045699177993
 30
0.0
 11
23.433745818683228
 21
1.220289022551488
 31
0.0
  0
LINE
  5
B5
330
17
100
AcDbEntity
  8
0
100
AcDbLine
 10
23.433745818683228
 20
1.220289022551488
 30
0.0
 11
23.66053959096253
 21
1.1894577958294477
 31
0.0
  0
LINE
  5
B6
330
17
100
AcDbEntity
  8
0
100
AcDbLine
 10
23.66053959096253
 20
1.1894577958294477
 30
0.0
 11
23.88877564267532
 21
1.1411606327072363
 31
0.0
  0
LINE
  5
B7
330
17
100
AcDbEntity
  8
0
100
AcDbLine
 10
23.88877564267532
 20
1.1411606327072363
 30
0.0
 11
24.11792840716023
 21
1.078045118209516
 31
0.0
  0
LINE
  5
B8
330
17
100
AcDbEntity
  8
0
100
AcDbLine
 10
24.11792840716023
 20
1.078045118209516
 30
0.0
 11
24.347602670008044
 21
1.0015540741320015
 31
0.0
  0
LINE
  5
B9
330
17
100
AcDbEntity
  8
0
100
AcDbLine
 10
24.347602670008044
 20
1.0015540741320015
 30
0.0
 11
24.577459031770225
 21
0.9126086133630626
 31
0.0
  0
LINE
  5
BA
330
17
100
AcDbEntity
  8
0
100
AcDbLine
 10
24.577459031770225
 20
0.9126086133630626
 30
0.0
 11
24.80718751214704
 21
0.8118509336011532
 31
0.0
  0
LINE
  5
BB
330
17
100
AcDbEntity
  8
0
100
AcDbLine
 10
24.80718751214704
 20
0.8118509336011532
 30
0.0
 11
25.03649551391169
 21
0.6997557956062104
 31
0.0
  0
LINE
  5
BC
330
17
100
AcDbEntity
  8
0
100
AcDbLine
 10
25.03649551391169
 20
0.6997557956062104
 30
0.0
 11
25.265101495948862
 21
0.5766897981913509
 31
0.0
  0
LINE
  5
BD
330
17
100
AcDbEntity
  8
0
100
AcDbLine
 10
25.265101495948862
 20
0.5766897981913509
 30
0.0
 11
25.492731329647132
 21
0.44294612083042845
 31
0.0
  0
LINE
  5
BE
330
17
100
AcDbEntity
  8
0
100
AcDbLine
 10
25.492731329647132
 20
0.44294612083042845
 30
0.0
 11
25.492731329647132
 21
-0.442946120830435
 31
0.0
  0
LINE
  5
BF
330
17
100
AcDbEntity
  8
0
100
AcDbLine
 10
25.492731329647132
 20
-0.442946120830435
 30
0.0
 11
25.265101495948862
 21
-0.5766897981913575
 31
0.0
  0
LINE
  5
C0
330
17
100
AcDbEntity
  8
0
100
AcDbLine
 10
25.265101495948862
 20
-0.5766897981913575
 30
0.0
 11
25.03649551391169
 21
-0.6997557956062168
 31
0.0
  0
LINE
  5
C1
330
17
100
AcDbEntity
  8
0
100
AcDbLine
 10
25.03649551391169
 20
-0.6997557956062168
 30
0.0
 11
24.80718751214704
 21
-0.8118509336011596
 31
0.0
  0
LINE
  5
C2
330
17
100
AcDbEntity
  8
0
100
AcDbLine
 10
24.80718751214704
 20
-0.8118509336011596
 30
0.0
 11
24.577459031770225
 21
-0.9126086133630688
 31
0.0
  0
LINE
  5
C3
330
17
100
AcDbEntity
  8
0
100
AcDbLine
 10
24.577459031770225
 20
-0.9126086133630688
 30
0.0
 11
24.347602670008044
 21
-1.0015540741320077
 31
0.0
  0
LINE
  5
C4
330
17
100
AcDbEntity
  8
0
100
AcDbLine
 10
24.347602670008044
 20
-1.0015540741320077
 30
0.0
 11
24.11792840716023
 21
-1.0780451182095219
 31
0.0
  0
LINE
  5
C5
330
17
100
AcDbEntity
  8
0
100
AcDbLine
 10
24.11792840716023
 20
-1.0780451182095219
 30
0.0
 11
23.88877564267532
 21
-1.141160632707242
 31
0.0
  0
LINE
  5
C6
330
17
100
AcDbEntity
  8
0
100
AcDbLine
 10
23.88877564267532
 20
-1.141160632707242
 30
0.0
 11
23.66053959096253
 21
-1.1894577958294534
 31
0.0
  0
LINE
  5
C7
330
17
100
AcDbEntity
  8
0
100
AcDbLine
 10
23.66053959096253
 20
-1.1894577958294534
 30
0.0
 11
23.433745818683228
 21
-1.2202890225514935
 31
0.0
  0
LINE
  5
C8
330
17
100
AcDbEntity
  8
0
100
AcDbLine
 10
23.433745818683228
 20
-1.2202890225514935
 30
0.0
 11
23.209498124887173
 21
-1.2257045699178046
 31
0.0
  0
LINE
  5
C9
330
17
100
AcDbEntity
  8
0
100
AcDbLine
 10
23.209498124887173
 20
-1.2257045699178046
 30
0.0
 11
22.065008316191072
 21
-1.1005601278460697
 31
0.0
  0
LINE
  5
CA
330
17
100
AcDbEntity
  8
0
100
AcDbLine
 10
22.065008316191072
 20
-1.1005601278460697
 30
0.0
 11
22.007291633126982
 21
-1.5393957157101232
 31
0.0
  0
LINE
  5
CB
330
17
100
AcDbEntity
  8
0
100
AcDbLine
 10
22.007291633126982
 20
-1.5393957157101232
 30
0.0
 11
21.93045096408271
 21
-1.9752895104133033
 31
0.0
  0
LINE
  5
CC
330
17
100
AcDbEntity
  8
0
100
AcDbLine
 10
21.93045096408271
 20
-1.9752895104133033
 30
0.0
 11
21.83463315197353
 21
-2.407408516663341
 31
0.0
  0
LINE
  5
CD
330
17
100
AcDbEntity
  8
0
100
AcDbLine
 10
21.83463315197353
 20
-2.407408516663341
 30
0.0
 11
21.720021305133116
 21
-2.8349269528081926
 31
0.0
  0
LINE
  5
CE
330
17
100
AcDbEntity
  8
0
100
AcDbLine
 10
21.720021305133116
 20
-2.8349269528081926
 30
0.0
 11
22.825282719188625
 21
-3.1572858524692617
 31
0.0
  0
LINE
  5
CF
330
17
100
AcDbEntity
  8
0
100
AcDbLine
 10
22.825282719188625
 20
-3.1572858524692617
 30
0.0
 11
23.030388133445385
 21
-3.248105043000172
 31
0.0
  0
LINE
  5
D0
330
17
100
AcDbEntity
  8
0
100
AcDbLine
 10
23.030388133445385
 20
-3.248105043000172
 30
0.0
 11
23.228119658089238
 21
-3.3633796015457498
 31
0.0
  0
LINE
  5
D1
330
17
100
AcDbEntity
  8
0
100
AcDbLine
 10
23.228119658089238
 20
-3.3633796015457498
 30
0.0
 11
23.42049975069077
 21
-3.495342517691627
 31
0.0
  0
LINE
  5
D2
330
17
100
AcDbEntity
  8
0
100
AcDbLine
 10
23.42049975069077
 20
-3.495342517691627
 30
0.0
 11
23.608056037893277
 21
-3.6413466161690233
 31
0.0
  0
LINE
  5
D3
330
17
100
AcDbEntity
  8
0
100
AcDbLine
 10
23.608056037893277
 20
-3.6413466161690233
 30
0.0
 11
23.79097553319022
 21
-3.799907661445182
 31
0.0
  0
LINE
  5
D4
330
17
100
AcDbEntity
  8
0
100
AcDbLine
 10
23.79097553319022
 20
-3.799907661445182
 30
0.0
 11
23.969297167019455
 21
-3.9700447736294935
 31
0.0
  0
LINE
  5
D5
330
17
100
AcDbEntity
  8
0
100
AcDbLine
 10
23.969297167019455
 20
-3.9700447736294935
 30
0.0
 11
24.142980313346087
 21
-4.151046015087464
 31
0.0
  0
LINE
  5
D6
330
17
100
AcDbEntity
  8
0
100
AcDbLine
 10
24.142980313346087
 20
-4.151046015087464
 30
0.0
 11
24.31193633065817
 21
-4.342360791959097
 31
0.0
  0
LINE
  5
D7
330
17
100
AcDbEntity
  8
0
100
AcDbLine
 10
24.31193633065817
 20
-4.342360791959097
 30
0.0
 11
24.476045400173803
 21
-4.54354266998395
 31
0.0
  0
LINE
  5
D8
330
17
100
AcDbEntity
  8
0
100
AcDbLine
 10
24.476045400173803
 20
-4.54354266998395
 30
0.0
 11
24.635166455006974
 21
-4.754215882168848
 31
0.0
  0
LINE
  5
D9
330
17
100
AcDbEntity
  8
0
100
AcDbLine
 10
24.635166455006974
 20
-4.754215882168848
 30
0.0
 11
24.29615017126259
 21
-5.572673592249862
 31
0.0
  0
LINE
  5
DA
330
17
100
AcDbEntity
  8
0
100
AcDbLine
 10
24.29615017126259
 20
-5.572673592249862
 30
0.0
 11
24.034666137410206
 21
-5.609126472298063
 31
0.0
  0
LINE
  5
DB
330
17
100
AcDbEntity
  8
0
100
AcDbLine
 10
24.034666137410206
 20
-5.609126472298063
 30
0.0
 11
23.776366431298264
 21
-5.63534090659256
 31
0.0
  0
LINE
  5
DC
330
17
100
AcDbEntity
  8
0
100
AcDbLine
 10
23.776366431298264
 20
-5.63534090659256
 30
0.0
 11
23.521616509667503
 21
-5.65115093709604
 31
0.0
  0
LINE
  5
DD
330
17
100
AcDbEntity
  8
0
100
AcDbLine
 10
23.521616509667503
 20
-5.65115093709604
 30
0.0
 11
23.270816773884007
 21
-5.656325611788779
 31
0.0
  0
LINE
  5
DE
330
17
100
AcDbEntity
  8
0
100
AcDbLine
 10
23.270816773884007
 20
-5.656325611788779
 30
0.0
 11
23.02441923161407
 21
-5.650538281032883
 31
0.0
  0
LINE
  5
DF
330
17
100
AcDbEntity
  8
0
100
AcDbLine
 10
23.02441923161407
 20
-5.650538281032883
 30
0.0
 11
22.78295602573158
 21
-5.6333142558439935
 31
0.0
  0
LINE
  5
E0
330
17
100
AcDbEntity
  8
0
100
AcDbLine
 10
22.78295602573158
 20
-5.6333142558439935
 30
0.0
 11
22.54709321508212
 21
-5.603932421423323
 31
0.0
  0
LINE
  5
E1
330
17
100
AcDbEntity
  8
0
100
AcDbLine
 10
22.54709321508212
 20
-5.603932421423323
 30
0.0
 11
22.31774807416638
 21
-5.561211026251386
 31
0.0
  0
LINE
  5
E2
330
17
100
AcDbEntity
  8
0
100
AcDbLine
 10
22.31774807416638
 20
-5.561211026251386
 30
0.0
 11
22.096419350190494
 21
-5.502905146367224
 31
0.0
  0
LINE
  5
E3
330
17
100
AcDbEntity
  8
0
100
AcDbLine
 10
22.096419350190494
 20
-5.502905146367224
 30
0.0
 11
21.887169055425183
 21
-5.422092582574474
 31
0.0
  0
LINE
  5
E4
330
17
100
AcDbEntity
  8
0
100
AcDbLine
 10
21.887169055425183
 20
-5.422092582574474
 30
0.0
 11
20.877689050636523
 21
-4.868496905638165
 31
0.0
  0
LINE
  5
E5
330
17
100
AcDbEntity
  8
0
100
AcDbLine
 10
20.877689050636523
 20
-4.868496905638165
 30
0.0
 11
20.6564306794614
 21
-5.251840905023629
 31
0.0
  0
LINE
  5
E6
330
17
100
AcDbEntity
  8
0
100
AcDbLine
 10
20.6564306794614
 20
-5.251840905023629
 30
0.0
 11
20.41862982456327
 21
-5.625148609323472
 31
0.0
  0
LINE
  5
E7
330
17
100
AcDbEntity
  8
0
100
AcDbLine
 10
20.41862982456327
 20
-5.625148609323472
 30
0.0
 11
20.164740924603635
 21
-5.987706625587347
 31
0.0
  0
LINE
  5
E8
330
17
100
AcDbEntity
  8
0
100
AcDbLine
 10
20.164740924603635
 20
-5.987706625587347
 30
0.0
 11
19.895249162581187
 21
-6.338822103574215
 31
0.0
  0
LINE
  5
E9
330
17
100
AcDbEntity
  8
0
100
AcDbLine
 10
19.895249162581187
 20
-6.338822103574215
 30
0.0
 11
20.793016150925826
 21
-7.059608124685393
 31
0.0
  0
LINE
  5
EA
330
17
100
AcDbEntity
  8
0
100
AcDbLine
 10
20.793016150925826
 20
-7.059608124685393
 30
0.0
 11
20.947753845607906
 21
-7.222004559900585
 31
0.0
  0
LINE
  5
EB
330
17
100
AcDbEntity
  8
0
100
AcDbLine
 10
20.947753845607906
 20
-7.222004559900585
 30
0.0
 11
21.086320290430024
 21
-7.404172943697609
 31
0.0
  0
LINE
  5
EC
330
17
100
AcDbEntity
  8
0
100
AcDbLine
 10
21.086320290430024
 20
-7.404172943697609
 30
0.0
 11
21.21355629875159
 21
-7.599711455130756
 31
0.0
  0
LINE
  5
ED
330
17
100
AcDbEntity
  8
0
100
AcDbLine
 10
21.21355629875159
 20
-7.599711455130756
 30
0.0
 11
21.330962364147098
 21
-7.8063763371250925
 31
0.0
  0
LINE
  5
EE
330
17
100
AcDbEntity
  8
0
100
AcDbLine
 10
21.330962364147098
 20
-7.8063763371250925
 30
0.0
 11
21.43927925690356
 21
-8.022867901816054
 31
0.0
  0
LINE
  5
EF
330
17
100
AcDbEntity
  8
0
100
AcDbLine
 10
21.43927925690356
 20
-8.022867901816054
 30
0.0
 11
21.53891831053899
 21
-8.24829483238244
 31
0.0
  0
LINE
  5
F0
330
17
100
AcDbEntity
  8
0
100
AcDbLine
 10
21.53891831053899
 20
-8.24829483238244
 30
0.0
 11
21.630114438228844
 21
-8.481983837304837
 31
0.0
  0
LINE
  5
F1
330
17
100
AcDbEntity
  8
0
100
AcDbLine
 10
21.630114438228844
 20
-8.481983837304837
 30
0.0
 11
21.712996449042706
 21
-8.723392312547224
 31
0.0
  0
LINE
  5
F2
330
17
100
AcDbEntity
  8
0
100
AcDbLine
 10
21.712996449042706
 20
-8.723392312547224
 30
0.0
 11
21.787624487855464
 21
-8.972061953971052
 31
0.0
  0
LINE
  5
F3
330
17
100
AcDbEntity
  8
0
100
AcDbLine
 10
21.787624487855464
 20
-8.972061953971052
 30
0.0
 11
21.85401202566114
 21
-9.227591614182197
 31
0.0
  0
LINE
  5
F4
330
17
100
AcDbEntity
  8
0
100
AcDbLine
 10
21.85401202566114
 20
-9.227591614182197
 30
0.0
 11
21.227591614182195
 21
-9.854012025661145
 31
0.0
  0
LINE
  5
F5
330
17
100
AcDbEntity
  8
0
100
AcDbLine
 10
21.227591614182195
 20
-9.854012025661145
 30
0.0
 11
20.97206195397105
 21
-9.787624487855467
 31
0.0
  0
LINE
  5
F6
330
17
100
AcDbEntity
  8
0
100
AcDbLine
 10
20.97206195397105
 20
-9.787624487855467
 30
0.0
 11
20.72339231254722
 21
-9.712996449042706
 31
0.0
  0
LINE
  5
F7
330
17
100
AcDbEntity
  8
0
100
AcDbLine
 10
20.72339231254722
 20
-9.712996449042706
 30
0.0
 11
20.48198383730483
 21
-9.630114438228851
 31
0.0
  0
LINE
  5
F8
330
17
100
AcDbEntity
  8
0
100
AcDbLine
 10
20.48198383730483
 20
-9.630114438228851
 30
0.0
 11
20.248294832382435
 21
-9.538918310538993
 31
0.0
  0
LINE
  5
F9
330
17
100
AcDbEntity
  8
0
100
AcDbLine
 10
20.248294832382435
 20
-9.538918310538993
 30
0.0
 11
20.02286790181605
 21
-9.439279256903562
 31
0.0
  0
LINE
  5
FA
330
17
100
AcDbEntity
  8
0
100
AcDbLine
 10
20.02286790181605
 20
-9.439279256903562
 30
0.0
 11
19.806376337125087
 21
-9.330962364147101
 31
0.0
  0
LINE
  5
FB
330
17
100
AcDbEntity
  8
0
100
AcDbLine
 10
19.806376337125087
 20
-9.330962364147101
 30
0.0
 11
19.599711455130752
 21
-9.213556298751596
 31
0.0
  0
LINE
  5
FC
330
17
100
AcDbEntity
  8
0
100
AcDbLine
 10
19.599711455130752
 20
-9.213556298751596
 30
0.0
 11
19.404172943697606
 21
-9.086320290430026
 31
0.0
  0
LINE
  5
FD
330
17
100
AcDbEntity
  8
0
100
AcDbLine
 10
19.404172943697606
 20
-9.086320290430026
 30
0.0
 11
19.22200455990058
 21
-8.94775384560791
 31
0.0
  0
LINE
  5
FE
330
17
100
AcDbEntity
  8
0
100
AcDbLine
 10
19.22200455990058
 20
-8.94775384560791
 30
0.0
 11
19.05960812468539
 21
-8.79301615092583
 31
0.0
  0
LINE
  5
FF
330
17
100
AcDbEntity
  8
0
100
AcDbLine
 10
19.05960812468539
 20
-8.79301615092583
 30
0.0
 11
18.338822103574213
 21
-7.895249162581191
 31
0.0
  0
LINE
  5
100
330
17
100
AcDbEntity
  8
0
100
AcDbLine
 10
18.338822103574213
 20
-7.895249162581191
 30
0.0
 11
17.98770662558735
 21
-8.164740924603631
 31
0.0
  0
LINE
  5
101
330
17
100
AcDbEntity
  8
0
100
AcDbLine
 10
17.98770662558735
 20
-8.164740924603631
 30
0.0
 11
17.625148609323475
 21
-8.418629824563268
 31
0.0
  0
LINE
  5
102
330
17
100
AcDbEntity
  8
0
100
AcDbLine
 10
17.625148609323475
 20
-8.418629824563268
 30
0.0
 11
17.251840905023627
 21
-8.656430679461405
 31
0.0
  0
LINE
  5
103
330
17
100
AcDbEntity
  8
0
100
AcDbLine
 10
17.251840905023627
 20
-8.656430679461405
 30
0.0
 11
16.86849690563816
 21
-8.877689050636524
 31
0.0
  0
LINE
  5
104
330
17
100
AcDbEntity
  8
0
100
AcDbLine
 10
16.86849690563816
 20
-8.877689050636524
 30
0.0
 11
17.42209258257447
 21
-9.887169055425185
 31
0.0
  0
LINE
  5
105
330
17
100
AcDbEntity
  8
0
100
AcDbLine
 10
17.42209258257447
 20
-9.887169055425185
 30
0.0
 11
17.50290514636722
 21
-10.096419350190496
 31
0.0
  0
LINE
  5
106
330
17
100
AcDbEntity
  8
0
100
AcDbLine
 10
17.50290514636722
 20
-10.096419350190496
 30
0.0
 11
17.56121102625138
 21
-10.317748074166381
 31
0.0
  0
LINE
  5
107
330
17
100
AcDbEntity
  8
0
100
AcDbLine
 10
17.56121102625138
 20
-10.317748074166381
 30
0.0
 11
17.60393242142332
 21
-10.547093215082123
 31
0.0
  0
LINE
  5
108
330
17
100
AcDbEntity
  8
0
100
AcDbLine
 10
17.60393242142332
 20
-10.547093215082123
 30
0.0
 11
17.633314255843988
 21
-10.782956025731584
 31
0.0
  0
LINE
  5
109
330
17
100
AcDbEntity
  8
0
100
AcDbLine
 10
17.633314255843988
 20
-10.782956025731584
 30
0.0
 11
17.65053828103288
 21
-11.02441923161407
 31
0.0
  0
LINE
  5
10A
330
17
100
AcDbEntity
  8
0
100
AcDbLine
 10
17.65053828103288
 20
-11.02441923161407
 30
0.0
 11
17.656325611788773
 21
-11.270816773884013
 31
0.0
  0
LINE
  5
10B
330
17
100
AcDbEntity
  8
0
100
AcDbLine
 10
17.656325611788773
 20
-11.270816773884013
 30
0.0
 11
17.651150937096034
 21
-11.521616509667503
 31
0.0
  0
LINE
  5
10C
330
17
100
AcDbEntity
  8
0
100
AcDbLine
 10
17.651150937096034
 20
-11.521616509667503
 30
0.0
 11
17.635340906592557
 21
-11.77636643129827
 31
0.0
  0
LINE
  5
10D
330
17
100
AcDbEntity
  8
0
100
AcDbLine
 10
17.635340906592557
 20
-11.77636643129827
 30
0.0
 11
17.60912647229806
 21
-12.034666137410207
 31
0.0
  0
LINE
  5
10E
330
17
100
AcDbEntity
  8
0
100
AcDbLine
 10
17.60912647229806
 20
-12.034666137410207
 30
0.0
 11
17.572673592249856
 21
-12.296150171262592
 31
0.0
  0
LINE
  5
10F
330
17
100
AcDbEntity
  8
0
100
AcDbLine
 10
17.572673592249856
 20
-12.296150171262592
 30
0.0
 11
16.754215882168843
 21
-12.635166455006976
 31
0.0
  0
LINE
  5
110
330
17
100
AcDbEntity
  8
0
100
AcDbLine
 10
16.754215882168843
 20
-12.635166455006976
 30
0.0
 11
16.543542669983943
 21
-12.476045400173804
 31
0.0
  0
LINE
  5
111
330
17
100
AcDbEntity
  8
0
100
AcDbLine
 10
16.543542669983943
 20
-12.476045400173804
 30
0.0
 11
16.34236079195909
 21
-12.311936330658169
 31
0.0
  0
LINE
  5
112
330
17
100
AcDbEntity
  8
0
100
AcDbLine
 10
16.34236079195909
 20
-12.311936330658169
 30
0.0
 11
16.15104601508746
 21
-12.14298031334609
 31
0.0
  0
LINE
  5
113
330
17
100
AcDbEntity
  8
0
100
AcDbLine
 10
16.15104601508746
 20
-12.14298031334609
 30
0.0
 11
15.970044773629489
 21
-11.969297167019459
 31
0.0
  0
LINE
  5
114
330
17
100
AcDbEntity
  8
0
100
AcDbLine
 10
15.970044773629489
 20
-11.969297167019459
 30
0.0
 11
15.799907661445177
 21
-11.790975533190222
 31
0.0
  0
LINE
  5
115
330
17
100
AcDbEntity
  8
0
100
AcDbLine
 10
15.799907661445177
 20
-11.790975533190222
 30
0.0
 11
15.641346616169018
 21
-11.608056037893279
 31
0.0
  0
LINE
  5
116
330
17
100
AcDbEntity
  8
0
100
AcDbLine
 10
15.641346616169018
 20
-11.608056037893279
 30
0.0
 11
15.495342517691622
 21
-11.420499750690771
 31
0.0
  0
LINE
  5
117
330
17
100
AcDbEntity
  8
0
100
AcDbLine
 10
15.495342517691622
 20
-11.420499750690771
 30
0.0
 11
15.363379601545745
 21
-11.22811965808924
 31
0.0
  0
LINE
  5
118
330
17
100
AcDbEntity
  8
0
100
AcDbLine
 10
15.363379601545745
 20
-11.22811965808924
 30
0.0
 11
15.248105043000168
 21
-11.030388133445385
 31
0.0
  0
LINE
  5
119
330
17
100
AcDbEntity
  8
0
100
AcDbLine
 10
15.248105043000168
 20
-11.030388133445385
 30
0.0
 11
15.157285852469258
 21
-10.825282719188627
 31
0.0
  0
LINE
  5
11A
330
17
100
AcDbEntity
  8
0
100
AcDbLine
 10
15.157285852469258
 20
-10.825282719188627
 30
0.0
 11
14.834926952808189
 21
-9.720021305133116
 31
0.0
  0
LINE
  5
11B
330
17
100
AcDbEntity
  8
0
100
AcDbLine
 10
14.834926952808189
 20
-9.720021305133116
 30
0.0
 11
14.407408516663336
 21
-9.83463315197353
 31
0.0
  0
LINE
  5
11C
330
17
100
AcDbEntity
  8
0
100
AcDbLine
 10
14.407408516663336
 20
-9.83463315197353
 30
0.0
 11
13.9752895104133
 21
-9.930450964082707
 31
0.0
  0
LINE
  5
11D
330
17
100
AcDbEntity
  8
0
100
AcDbLine
 10
13.9752895104133
 20
-9.930450964082707
 30
0.0
 11
13.53939571571012
 21
-10.007291633126982
 31
0.0
  0
LINE
  5
11E
330
17
100
AcDbEntity
  8
0
100
AcDbLine
 10
13.53939571571012
 20
-10.007291633126982
 30
0.0
 11
13.100560127846066
 21
-10.065008316191072
 31
0.0
  0
LINE
  5
11F
330
17
100
AcDbEntity
  8
0
100
AcDbLine
 10
13.100560127846066
 20
-10.065008316191072
 30
0.0
 11
13.2257045699178
 21
-11.209498124887173
 31
0.0
  0
LINE
  5
120
330
17
100
AcDbEntity
  8
0
100
AcDbLine
 10
13.2257045699178
 20
-11.209498124887173
 30
0.0
 11
13.220289022551489
 21
-11.43374581868323
 31
0.0
  0
LINE
  5
121
330
17
100
AcDbEntity
  8
0
100
AcDbLine
 10
13.220289022551489
 20
-11.43374581868323
 30
0.0
 11
13.189457795829448
 21
-11.660539590962529
 31
0.0
  0
LINE
  5
122
330
17
100
AcDbEntity
  8
0
100
AcDbLine
 10
13.189457795829448
 20
-11.660539590962529
 30
0.0
 11
13.141160632707237
 21
-11.88877564267532
 31
0.0
  0
LINE
  5
123
330
17
100
AcDbEntity
  8
0
100
AcDbLine
 10
13.141160632707237
 20
-11.88877564267532
 30
0.0
 11
13.078045118209516
 21
-12.117928407160226
 31
0.0
  0
LINE
  5
124
330
17
100
AcDbEntity
  8
0
100
AcDbLine
 10
13.078045118209516
 20
-12.117928407160226
 30
0.0
 11
13.001554074132002
 21
-12.347602670008042
 31
0.0
  0
LINE
  5
125
330
17
100
AcDbEntity
  8
0
100
AcDbLine
 10
13.001554074132002
 20
-12.347602670008042
 30
0.0
 11
12.912608613363064
 21
-12.577459031770225
 31
0.0
  0
LINE
  5
126
330
17
100
AcDbEntity
  8
0
100
AcDbLine
 10
12.912608613363064
 20
-12.577459031770225
 30
0.0
 11
12.811850933601153
 21
-12.80718751214704
 31
0.0
  0
LINE
  5
127
330
17
100
AcDbEntity
  8
0
100
AcDbLine
 10
12.811850933601153
 20
-12.80718751214704
 30
0.0
 11
12.699755795606212
 21
-13.03649551391169
 31
0.0
  0
LINE
  5
128
330
17
100
AcDbEntity
  8
0
100
AcDbLine
 10
12.699755795606212
 20
-13.03649551391169
 30
0.0
 11
12.576689798191351
 21
-13.265101495948864
 31
0.0
  0
LINE
  5
129
330
17
100
AcDbEntity
  8
0
100
AcDbLine
 10
12.576689798191351
 20
-13.265101495948864
 30
0.0
 11
12.44294612083043
 21
-13.492731329647132
 31
0.0
  0
LINE
  5
12A
330
17
100
AcDbEntity
  8
0
100
AcDbLine
 10
12.44294612083043
 20
-13.492731329647132
 30
0.0
 11
11.557053879169565
 21
-13.492731329647132
 31
0.0
  0
LINE
  5
12B
330
17
100
AcDbEntity
  8
0
100
AcDbLine
 10
11.557053879169565
 20
-13.492731329647132
 30
0.0
 11
11.423310201808643
 21
-13.265101495948864
 31
0.0
  0
LINE
  5
12C
330
17
100
AcDbEntity
  8
0
100
AcDbLine
 10
11.423310201808643
 20
-13.265101495948864
 30
0.0
 11
11.300244204393785
 21
-13.03649551391169
 31
0.0
  0
LINE
  5
12D
330
17
100
AcDbEntity
  8
0
100
AcDbLine
 10
11.300244204393785
 20
-13.03649551391169
 30
0.0
 11
11.188149066398841
 21
-12.80718751214704
 31
0.0
  0
LINE
  5
12E
330
17
100
AcDbEntity
  8
0
100
AcDbLine
 10
11.188149066398841
 20
-12.80718751214704
 30
0.0
 11
11.087391386636932
 21
-12.577459031770225
 31
0.0
  0
LINE
  5
12F
330
17
100
AcDbEntity
  8
0
100
AcDbLine
 10
11.087391386636932
 20
-12.577459031770225
 30
0.0
 11
10.998445925867994
 21
-12.347602670008042
 31
0.0
  0
LINE
  5
130
330
17
100
AcDbEntity
  8
0
100
AcDbLine
 10
10.998445925867994
 20
-12.347602670008042
 30
0.0
 11
10.921954881790478
 21
-12.117928407160226
 31
0.0
  0
LINE
  5
131
330
17
100
AcDbEntity
  8
0
100
AcDbLine
 10
10.921954881790478
 20
-12.117928407160226
 30
0.0
 11
10.85883936729276
 21
-11.88877564267532
 31
0.0
  0
LINE
  5
132
330
17
100
AcDbEntity
  8
0
100
AcDbLine
 10
10.85883936729276
 20
-11.88877564267532
 30
0.0
 11
10.810542204170547
 21
-11.660539590962527
 31
0.0
  0
LINE
  5
133
330
17
100
AcDbEntity
  8
0
100
AcDbLine
 10
10.810542204170547
 20
-11.660539590962527
 30
0.0
 11
10.779710977448508
 21
-11.43374581868323
 31
0.0
  0
LINE
  5
134
330
17
100
AcDbEntity
  8
0
100
AcDbLine
 10
10.779710977448508
 20
-11.43374581868323
 30
0.0
 11
10.774295430082196
 21
-11.209498124887173
 31
0.0
  0
LINE
  5
135
330
17
100
AcDbEntity
  8
0
100
AcDbLine
 10
10.774295430082196
 20
-11.209498124887173
 30
0.0
 11
10.89943987215393
 21
-10.065008316191072
 31
0.0
  0
LINE
  5
136
330
17
100
AcDbEntity
  8
0
100
AcDbLine
 10
10.89943987215393
 20
-10.065008316191072
 30
0.0
 11
10.460604284289877
 21
-10.007291633126982
 31
0.0
  0
LINE
  5
137
330
17
100
AcDbEntity
  8
0
100
AcDbLine
 10
10.460604284289877
 20
-10.007291633126982
 30
0.0
 11
10.024710489586697
 21
-9.930450964082707
 31
0.0
  0
LINE
  5
138
330
17
100
AcDbEntity
  8
0
100
AcDbLine
 10
10.024710489586697
 20
-9.930450964082707
 30
0.0
 11
9.592591483336658
 21
-9.83463315197353
 31
0.0
  0
LINE
  5
139
330
17
100
AcDbEntity
  8
0
100
AcDbLine
 10
9.592591483336658
 20
-9.83463315197353
 30
0.0
 11
9.165073047191807
 21
-9.720021305133114
 31
0.0
  0
LINE
  5
13A
330
17
100
AcDbEntity
  8
0
100
AcDbLine
 10
9.165073047191807
 20
-9.720021305133114
 30
0.0
 11
8.842714147530739
 21
-10.825282719188625
 31
0.0
  0
LINE
  5
13B
330
17
100
AcDbEntity
  8
0
100
AcDbLine
 10
8.842714147530739
 20
-10.825282719188625
 30
0.0
 11
8.751894956999829
 21
-11.030388133445385
 31
0.0
  0
LINE
  5
13C
330
17
100
AcDbEntity
  8
0
100
AcDbLine
 10
8.751894956999829
 20
-11.030388133445385
 30
0.0
 11
8.636620398454252
 21
-11.228119658089238
 31
0.0
  0
LINE
  5
13D
330
17
100
AcDbEntity
  8
0
100
AcDbLine
 10
8.636620398454252
 20
-11.228119658089238
 30
0.0
 11
8.504657482308374
 21
-11.42049975069077
 31
0.0
  0
LINE
  5
13E
330
17
100
AcDbEntity
  8
0
100
AcDbLine
 10
8.504657482308374
 20
-11.42049975069077
 30
0.0
 11
8.358653383830978
 21
-11.608056037893279
 31
0.0
  0
LINE
  5
13F
330
17
100
AcDbEntity
  8
0
100
AcDbLine
 10
8.358653383830978
 20
-11.608056037893279
 30
0.0
 11
8.20009233855482
 21
-11.79097553319022
 31
0.0
  0
LINE
  5
140
330
17
100
AcDbEntity
  8
0
100
AcDbLine
 10
8.20009233855482
 20
-11.79097553319022
 30
0.0
 11
8.029955226370507
 21
-11.969297167019457
 31
0.0
  0
LINE
  5
141
330
17
100
AcDbEntity
  8
0
100
AcDbLine
 10
8.029955226370507
 20
-11.969297167019457
 30
0.0
 11
7.848953984912536
 21
-12.142980313346088
 31
0.0
  0
LINE
  5
142
330
17
100
AcDbEntity
  8
0
100
AcDbLine
 10
7.848953984912536
 20
-12.142980313346088
 30
0.0
 11
7.657639208040904
 21
-12.311936330658169
 31
0.0
  0
LINE
  5
143
330
17
100
AcDbEntity
  8
0
100
AcDbLine
 10
7.657639208040904
 20
-12.311936330658169
 30
0.0
 11
7.456457330016051
 21
-12.4760454001738
 31
0.0
  0
LINE
  5
144
330
17
100
AcDbEntity
  8
0
100
AcDbLine
 10
7.456457330016051
 20
-12.4760454001738
 30
0.0
 11
7.245784117831153
 21
-12.635166455006974
 31
0.0
  0
LINE
  5
145
330
17
100
AcDbEntity
  8
0
100
AcDbLine
 10
7.245784117831153
 20
-12.635166455006974
 30
0.0
 11
6.427326407750139
 21
-12.29615017126259
 31
0.0
  0
LINE
  5
146
330
17
100
AcDbEntity
  8
0
100
AcDbLine
 10
6.427326407750139
 20
-12.29615017126259
 30
0.0
 11
6.390873527701938
 21
-12.034666137410204
 31
0.0
  0
LINE
  5
147
330
17
100
AcDbEntity
  8
0
100
AcDbLine
 10
6.390873527701938
 20
-12.034666137410204
 30
0.0
 11
6.36465909340744
 21
-11.776366431298268
 31
0.0
  0
LINE
  5
148
330
17
100
AcDbEntity
  8
0
100
AcDbLine
 10
6.36465909340744
 20
-11.776366431298268
 30
0.0
 11
6.348849062903961
 21
-11.521616509667501
 31
0.0
  0
LINE
  5
149
330
17
100
AcDbEntity
  8
0
100
AcDbLine
 10
6.348849062903961
 20
-11.521616509667501
 30
0.0
 11
6.343674388211221
 21
-11.27081677388401
 31
0.0
  0
LINE
  5
14A
330
17
100
AcDbEntity
  8
0
100
AcDbLine
 10
6.343674388211221
 20
-11.27081677388401
 30
0.0
 11
6.349461718967118
 21
-11.024419231614068
 31
0.0
  0
LINE
  5
14B
330
17
100
AcDbEntity
  8
0
100
AcDbLine
 10
6.349461718967118
 20
-11.024419231614068
 30
0.0
 11
6.366685744156007
 21
-10.78295602573158
 31
0.0
  0
LINE
  5
14C
330
17
100
AcDbEntity
  8
0
100
AcDbLine
 10
6.366685744156007
 20
-10.78295602573158
 30
0.0
 11
6.396067578576678
 21
-10.547093215082121
 31
0.0
  0
LINE
  5
14D
330
17
100
AcDbEntity
  8
0
100
AcDbLine
 10
6.396067578576678
 20
-10.547093215082121
 30
0.0
 11
6.438788973748615
 21
-10.31774807416638
 31
0.0
  0
LINE
  5
14E
330
17
100
AcDbEntity
  8
0
100
AcDbLine
 10
6.438788973748615
 20
-10.31774807416638
 30
0.0
 11
6.497094853632776
 21
-10.096419350190493
 31
0.0
  0
LINE
  5
14F
330
17
100
AcDbEntity
  8
0
100
AcDbLine
 10
6.497094853632776
 20
-10.096419350190493
 30
0.0
 11
6.577907417425526
 21
-9.887169055425183
 31
0.0
  0
LINE
  5
150
330
17
100
AcDbEntity
  8
0
100
AcDbLine
 10
6.577907417425526
 20
-9.887169055425183
 30
0.0
 11
7.131503094361835
 21
-8.877689050636523
 31
0.0
  0
LINE
  5
151
330
17
100
AcDbEntity
  8
0
100
AcDbLine
 10
7.131503094361835
 20
-8.877689050636523
 30
0.0
 11
6.748159094976373
 21
-8.656430679461401
 31
0.0
  0
LINE
  5
152
330
17
100
AcDbEntity
  8
0
100
AcDbLine
 10
6.748159094976373
 20
-8.656430679461401
 30
0.0
 11
6.374851390676528
 21
-8.41862982456327
 31
0.0
  0
LINE
  5
153
330
17
100
AcDbEntity
  8
0
100
AcDbLine
 10
6.374851390676528
 20
-8.41862982456327
 30
0.0
 11
6.012293374412654
 21
-8.164740924603635
 31
0.0
  0
LINE
  5
154
330
17
100
AcDbEntity
  8
0
100
AcDbLine
 10
6.012293374412654
 20
-8.164740924603635
 30
0.0
 11
5.661177896425785
 21
-7.895249162581189
 31
0.0
  0
LINE
  5
155
330
17
100
AcDbEntity
  8
0
100
AcDbLine
 10
5.661177896425785
 20
-7.895249162581189
 30
0.0
 11
4.940391875314607
 21
-8.793016150925826
 31
0.0
  0
LINE
  5
156
330
17
100
AcDbEntity
  8
0
100
AcDbLine
 10
4.940391875314607
 20
-8.793016150925826
 30
0.0
 11
4.777995440099417
 21
-8.947753845607906
 31
0.0
  0
LINE
  5
157
330
17
100
AcDbEntity
  8
0
100
AcDbLine
 10
4.777995440099417
 20
-8.947753845607906
 30
0.0
 11
4.595827056302393
 21
-9.086320290430022
 31
0.0
  0
LINE
  5
158
330
17
100
AcDbEntity
  8
0
100
AcDbLine
 10
4.595827056302393
 20
-9.086320290430022
 30
0.0
 11
4.4002885448692455
 21
-9.213556298751593
 31
0.0
  0
LINE
  5
159
330
17
100
AcDbEntity
  8
0
100
AcDbLine
 10
4.4002885448692455
 20
-9.213556298751593
 30
0.0
 11
4.1936236628749075
 21
-9.330962364147098
 31
0.0
  0
LINE
  5
15A
330
17
100
AcDbEntity
  8
0
100
AcDbLine
 10
4.1936236628749075
 20
-9.330962364147098
 30
0.0
 11
3.9771320981839455
 21
-9.43927925690356
 31
0.0
  0
LINE
  5
15B
330
17
100
AcDbEntity
  8
0
100
AcDbLine
 10
3.9771320981839455
 20
-9.43927925690356
 30
0.0
 11
3.7517051676175566
 21
-9.538918310538985
 31
0.0
  0
LINE
  5
15C
330
17
100
AcDbEntity
  8
0
100
AcDbLine
 10
3.7517051676175566
 20
-9.538918310538985
 30
0.0
 11
3.5180161626951634
 21
-9.630114438228848
 31
0.0
  0
LINE
  5
15D
330
17
100
AcDbEntity
  8
0
100
AcDbLine
 10
3.5180161626951634
 20
-9.630114438228848
 30
0.0
 11
3.276607687452776
 21
-9.712996449042704
 31
0.0
  0
LINE
  5
15E
330
17
100
AcDbEntity
  8
0
100
AcDbLine
 10
3.276607687452776
 20
-9.712996449042704
 30
0.0
 11
3.0279380460289502
 21
-9.787624487855464
 31
0.0
  0
LINE
  5
15F
330
17
100
AcDbEntity
  8
0
100
AcDbLine
 10
3.0279380460289502
 20
-9.787624487855464
 30
0.0
 11
2.7724083858177995
 21
-9.854012025661138
 31
0.0
  0
LINE
  5
160
330
17
100
AcDbEntity
  8
0
100
AcDbLine
 10
2.7724083858177995
 20
-9.854012025661138
 30
0.0
 11
2.1459879743388584
 21
-9.227591614182199
 31
0.0
  0
LINE
  5
161
330
17
100
AcDbEntity
  8
0
100
AcDbLine
 10
2.1459879743388584
 20
-9.227591614182199
 30
0.0
 11
2.2123755121445345
 21
-8.972061953971048
 31
0.0
  0
LINE
  5
162
330
17
100
AcDbEntity
  8
0
100
AcDbLine
 10
2.2123755121445345
 20
-8.972061953971048
 30
0.0
 11
2.2870035509572944
 21
-8.72339231254722
 31
0.0
  0
LINE
  5
163
330
17
100
AcDbEntity
  8
0
100
AcDbLine
 10
2.2870035509572944
 20
-8.72339231254722
 30
0.0
 11
2.3698855617711487
 21
-8.481983837304833
 31
0.0
  0
LINE
  5
164
330
17
100
AcDbEntity
  8
0
100
AcDbLine
 10
2.3698855617711487
 20
-8.481983837304833
 30
0.0
 11
2.461081689461013
 21
-8.248294832382442
 31
0.0
  0
LINE
  5
165
330
17
100
AcDbEntity
  8
0
100
AcDbLine
 10
2.461081689461013
 20
-8.248294832382442
 30
0.0
 11
2.560720743096441
 21
-8.022867901816056
 31
0.0
  0
LINE
  5
166
330
17
100
AcDbEntity
  8
0
100
AcDbLine
 10
2.560720743096441
 20
-8.022867901816056
 30
0.0
 11
2.669037635852902
 21
-7.806376337125093
 31
0.0
  0
LINE
  5
167
330
17
100
AcDbEntity
  8
0
100
AcDbLine
 10
2.669037635852902
 20
-7.806376337125093
 30
0.0
 11
2.786443701248402
 21
-7.599711455130748
 31
0.0
  0
LINE
  5
168
330
17
100
AcDbEntity
  8
0
100
AcDbLine
 10
2.786443701248402
 20
-7.599711455130748
 30
0.0
 11
2.9136797095699762
 21
-7.404172943697605
 31
0.0
  0
LINE
  5
169
330
17
100
AcDbEntity
  8
0
100
AcDbLine
 10
2.9136797095699762
 20
-7.404172943697605
 30
0.0
 11
3.0522461543920905
 21
-7.22200455990058
 31
0.0
  0
LINE
  5
16A
330
17
100
AcDbEntity
  8
0
100
AcDbLine
 10
3.0522461543920905
 20
-7.22200455990058
 30
0.0
 11
3.2069838490741702
 21
-7.059608124685388
 31
0.0
  0
LINE
  5
16B
330
17
100
AcDbEntity
  8
0
100
AcDbLine
 10
3.2069838490741702
 20
-7.059608124685388
 30
0.0
 11
4.104750837418809
 21
-6.338822103574212
 31
0.0
  0
LINE
  5
16C
330
17
100
AcDbEntity
  8
0
100
AcDbLine
 10
4.104750837418809
 20
-6.338822103574212
 30
0.0
 11
3.8352590753963636
 21
-5.987706625587343
 31
0.0
  0
LINE
  5
16D
330
17
100
AcDbEntity
  8
0
100
AcDbLine
 10
3.8352590753963636
 20
-5.987706625587343
 30
0.0
 11
3.581370175436728
 21
-5.62514860932347
 31
0.0
  0
LINE
  5
16E
330
17
100
AcDbEntity
  8
0
100
AcDbLine
 10
3.581370175436728
 20
-5.62514860932347
 30
0.0
 11
3.3435693205385935
 21
-5.251840905023622
 31
0.0
  0
LINE
  5
16F
330
17
100
AcDbEntity
  8
0
100
AcDbLine
 10
3.3435693205385935
 20
-5.251840905023622
 30
0.0
 11
3.122310949363472
 21
-4.868496905638158
 31
0.0
  0
LINE
  5
170
330
17
100
AcDbEntity
  8
0
100
AcDbLine
 10
3.122310949363472
 20
-4.868496905638158
 30
0.0
 11
2.112830944574812
 21
-5.422092582574466
 31
0.0
  0
LINE
  5
171
330
17
100
AcDbEntity
  8
0
100
AcDbLine
 10
2.112830944574812
 20
-5.422092582574466
 30
0.0
 11
1.9035806498095038
 21
-5.502905146367216
 31
0.0
  0
LINE
  5
172
330
17
100
AcDbEntity
  8
0
100
AcDbLine
 10
1.9035806498095038
 20
-5.502905146367216
 30
0.0
 11
1.6822519258336168
 21
-5.561211026251377
 31
0.0
  0
LINE
  5
173
330
17
100
AcDbEntity
  8
0
100
AcDbLine
 10
1.6822519258336168
 20
-5.561211026251377
 30
0.0
 11
1.4529067849178787
 21
-5.60393242142332
 31
0.0
  0
LINE
  5
174
330
17
100
AcDbEntity
  8
0
100
AcDbLine
 10
1.4529067849178787
 20
-5.60393242142332
 30
0.0
 11
1.217043974268412
 21
-5.63331425584398
 31
0.0
  0
LINE
  5
175
330
17
100
AcDbEntity
  8
0
100
AcDbLine
 10
1.217043974268412
 20
-5.63331425584398
 30
0.0
 11
0.9755807683859246
 21
-5.650538281032869
 31
0.0
  0
LINE
  5
176
330
17
100
AcDbEntity
  8
0
100
AcDbLine
 10
0.9755807683859246
 20
-5.650538281032869
 30
0.0
 11
0.7291832261159836
 21
-5.656325611788764
 31
0.0
  0
LINE
  5
177
330
17
100
AcDbEntity
  8
0
100
AcDbLine
 10
0.7291832261159836
 20
-5.656325611788764
 30
0.0
 11
0.4783834903324955
 21
-5.651150937096031
 31
0.0
  0
LINE
  5
178
330
17
100
AcDbEntity
  8
0
100
AcDbLine
 10
0.4783834903324955
 20
-5.651150937096031
 30
0.0
 11
0.2236335687017288
 21
-5.6353409065925515
 31
0.0
  0
LINE
  5
179
330
17
100
AcDbEntity
  8
0
100
AcDbLine
 10
0.2236335687017288
 20
-5.6353409065925515
 30
0.0
 11
-0.034666137410209075
 21
-5.609126472298053
 31
0.0
  0
LINE
  5
17A
330
17
100
AcDbEntity
  8
0
100
AcDbLine
 10
-0.034666137410209075
 20
-5.609126472298053
 30
0.0
 11
-0.296150171262596
 21
-5.572673592249846
 31
0.0
  0
LINE
  5
17B
330
17
100
AcDbEntity
  8
0
100
AcDbLine
 10
-0.296150171262596
 20
-5.572673592249846
 30
0.0
 11
-0.635166455006976
 21
-4.754215882168843
 31
0.0
  0
LINE
  5
17C
330
17
100
AcDbEntity
  8
0
100
AcDbLine
 10
-0.635166455006976
 20
-4.754215882168843
 30
0.0
 11
-0.47604540017380614
 21
-4.54354266998394
 31
0.0
  0
LINE
  5
17D
330
17
100
AcDbEntity
  8
0
100
AcDbLine
 10
-0.47604540017380614
 20
-4.54354266998394
 30
0.0
 11
-0.3119363306581704
 21
-4.342360791959088
 31
0.0
  0
LINE
  5
17E
330
17
100
AcDbEntity
  8
0
100
AcDbLine
 10
-0.3119363306581704
 20
-4.342360791959088
 30
0.0
 11
-0.14298031334609185
 21
-4.151046015087455
 31
0.0
  0
LINE
  5
17F
330
17
100
AcDbEntity
  8
0
100
AcDbLine
 10
-0.14298031334609185
 20
-4.151046015087455
 30
0.0
 11
0.030702832980541217
 21
-3.970044773629489
 31
0.0
  0
LINE
  5
180
330
17
100
AcDbEntity
  8
0
100
AcDbLine
 10
0.030702832980541217
 20
-3.970044773629489
 30
0.0
 11
0.20902446680977782
 21
-3.799907661445177
 31
0.0
  0
LINE
  5
181
330
17
100
AcDbEntity
  8
0
100
AcDbLine
 10
0.20902446680977782
 20
-3.799907661445177
 30
0.0
 11
0.3919439621067209
 21
-3.6413466161690193
 31
0.0
  0
LINE
  5
182
330
17
100
AcDbEntity
  8
0
100
AcDbLine
 10
0.3919439621067209
 20
-3.6413466161690193
 30
0.0
 11
0.579500249309227
 21
-3.4953425176916126
 31
0.0
  0
LINE
  5
183
330
17
100
AcDbEntity
  8
0
100
AcDbLine
 10
0.579500249309227
 20
-3.4953425176916126
 30
0.0
 11
0.7718803419107605
 21
-3.3633796015457404
 31
0.0
  0
LINE
  5
184
330
17
100
AcDbEntity
  8
0
100
AcDbLine
 10
0.7718803419107605
 20
-3.3633796015457404
 30
0.0
 11
0.9696118665546134
 21
-3.2481050430001632
 31
0.0
  0
LINE
  5
185
330
17
100
AcDbEntity
  8
0
100
AcDbLine
 10
0.9696118665546134
 20
-3.2481050430001632
 30
0.0
 11
1.1747172808113717
 21
-3.1572858524692533
 31
0.0
  0
LINE
  5
186
330
17
100
AcDbEntity
  8
0
100
AcDbLine
 10
1.1747172808113717
 20
-3.1572858524692533
 30
0.0
 11
2.279978694866884
 21
-2.8349269528081846
 31
0.0
  0
LINE
  5
187
330
17
100
AcDbEntity
  8
0
100
AcDbLine
 10
2.279978694866884
 20
-2.8349269528081846
 30
0.0
 11
2.165366848026469
 21
-2.407408516663333
 31
0.0
  0
LINE
  5
188
330
17
100
AcDbEntity
  8
0
100
AcDbLine
 10
2.165366848026469
 20
-2.407408516663333
 30
0.0
 11
2.0695490359172926
 21
-1.9752895104132997
 31
0.0
  0
LINE
  5
189
330
17
100
AcDbEntity
  8
0
100
AcDbLine
 10
2.0695490359172926
 20
-1.9752895104132997
 30
0.0
 11
1.9927083668730177
 21
-1.5393957157101197
 31
0.0
  0
LINE
  5
18A
330
17
100
AcDbEntity
  8
0
100
AcDbLine
 10
1.9927083668730177
 20
-1.5393957157101197
 30
0.0
 11
1.9349916838089278
 21
-1.1005601278460662
 31
0.0
  0
LINE
  5
18B
330
17
100
AcDbEntity
  8
0
100
AcDbLine
 10
1.9349916838089278
 20
-1.1005601278460662
 30
0.0
 11
0.7905018751128274
 21
-1.2257045699178006
 31
0.0
  0
LINE
  5
18C
330
17
100
AcDbEntity
  8
0
100
AcDbLine
 10
0.7905018751128274
 20
-1.2257045699178006
 30
0.0
 11
0.5662541813167703
 21
-1.2202890225514895
 31
0.0
  0
LINE
  5
18D
330
17
100
AcDbEntity
  8
0
100
AcDbLine
 10
0.5662541813167703
 20
-1.2202890225514895
 30
0.0
 11
0.3394604090374713
 21
-1.1894577958294492
 31
0.0
  0
LINE
  5
18E
330
17
100
AcDbEntity
  8
0
100
AcDbLine
 10
0.3394604090374713
 20
-1.1894577958294492
 30
0.0
 11
0.11122435732468006
 21
-1.1411606327072432
 31
0.0
  0
LINE
  5
18F
330
17
100
AcDbEntity
  8
0
100
AcDbLine
 10
0.11122435732468006
 20
-1.1411606327072432
 30
0.0
 11
-0.11792840716022823
 21
-1.078045118209512
 31
0.0
  0
LINE
  5
190
330
17
100
AcDbEntity
  8
0
100
AcDbLine
 10
-0.11792840716022823
 20
-1.078045118209512
 30
0.0
 11
-0.3476026700080439
 21
-1.0015540741319975
 31
0.0
  0
LINE
  5
191
330
17
100
AcDbEntity
  8
0
100
AcDbLine
 10
-0.3476026700080439
 20
-1.0015540741319975
 30
0.0
 11
-0.5774590317702248
 21
-0.9126086133630587
 31
0.0
  0
LINE
  5
192
330
17
100
AcDbEntity
  8
0
100
AcDbLine
 10
-0.5774590317702248
 20
-0.9126086133630587
 30
0.0
 11
-0.8071875121470402
 21
-0.8118509336011548
 31
0.0
  0
LINE
  5
193
330
17
100
AcDbEntity
  8
0
100
AcDbLine
 10
-0.8071875121470402
 20
-0.8118509336011548
 30
0.0
 11
-1.0364955139116905
 21
-0.699755795606212
 31
0.0
  0
LINE
  5
194
330
17
100
AcDbEntity
  8
0
100
AcDbLine
 10
-1.0364955139116905
 20
-0.699755795606212
 30
0.0
 11
-1.2651014959488638
 21
-0.5766897981913526
 31
0.0
  0
LINE
  5
195
330
17
100
AcDbEntity
  8
0
100
AcDbLine
 10
-1.2651014959488638
 20
-0.5766897981913526
 30
0.0
 11
-1.4927313296471318
 21
-0.442946120830424
 31
0.0
  0
LINE
  5
196
330
17
100
AcDbEntity
  8
0
100
AcDbLine
 10
-1.4927313296471318
 20
-0.442946120830424
 30
0.0
 11
-1.4927313296471318
 21
0.4429461208304273
 31
0.0
  0
LINE
  5
197
330
17
100
AcDbEntity
  8
0
100
AcDbLine
 10
-1.4927313296471318
 20
0.4429461208304273
 30
0.0
 11
-1.2651014959488638
 21
0.5766897981913558
 31
0.0
  0
LINE
  5
198
330
17
100
AcDbEntity
  8
0
100
AcDbLine
 10
-1.2651014959488638
 20
0.5766897981913558
 30
0.0
 11
-1.0364955139116905
 21
0.6997557956062151
 31
0.0
  0
LINE
  5
199
330
17
100
AcDbEntity
  8
0
100
AcDbLine
 10
-1.0364955139116905
 20
0.6997557956062151
 30
0.0
 11
-0.8071875121470402
 21
0.811850933601158
 31
0.0
  0
LINE
  5
19A
330
17
100
AcDbEntity
  8
0
100
AcDbLine
 10
-0.8071875121470402
 20
0.811850933601158
 30
0.0
 11
-0.5774590317702248
 21
0.9126086133630615
 31
0.0
  0
LINE
  5
19B
330
17
100
AcDbEntity
  8
0
100
AcDbLine
 10
-0.5774590317702248
 20
0.9126086133630615
 30
0.0
 11
-0.3476026700080421
 21
1.0015540741320006
 31
0.0
  0
LINE
  5
19C
330
17
100
AcDbEntity
  8
0
100
AcDbLine
 10
-0.3476026700080421
 20
1.0015540741320006
 30
0.0
 11
-0.11792840716022646
 21
1.078045118209515
 31
0.0
  0
LINE
  5
19D
330
17
100
AcDbEntity
  8
0
100
AcDbLine
 10
-0.11792840716022646
 20
1.078045118209515
 30
0.0
 11
0.11122435732468006
 21
1.141160632707246
 31
0.0
  0
LINE
  5
19E
330
17
100
AcDbEntity
  8
0
100
AcDbLine
 10
0.11122435732468006
 20
1.141160632707246
 30
0.0
 11
0.3394604090374731
 21
1.1894577958294519
 31
0.0
  0
LINE
  5
19F
330
17
100
AcDbEntity
  8
0
100
AcDbLine
 10
0.3394604090374731
 20
1.1894577958294519
 30
0.0
 11
0.5662541813167703
 21
1.2202890225514924
 31
0.0
  0
LINE
  5
1A0
330
17
100
AcDbEntity
  8
0
100
AcDbLine
 10
0.5662541813167703
 20
1.2202890225514924
 30
0.0
 11
0.7905018751128274
 21
1.2257045699178033
 31
0.0
  0
LINE
  5
1A1
330
17
100
AcDbEntity
  8
0
100
AcDbLine
 10
0.7905018751128274
 20
1.2257045699178033
 30
0.0
 11
1.9349916838089278
 21
1.1005601278460686
 31
0.0
  0
CIRCLE
  5
1A2
330
17
100
AcDbEntity
  8
0
100
AcDbCircle
 10
10.336706473457925
 20
-7.8251808058704455
 30
0.0
 40
0.7
  0
CIRCLE
  5
1A3
330
17
100
AcDbEntity
  8
0
100
AcDbCircle
 10
12.0
 20
0.0
 30
0.0
 40
1.2
  0
CIRCLE
  5
1A4
330
17
100
AcDbEntity
  8
0
100
AcDbCircle
 10
13.663293526542075
 20
7.8251808058704455
 30
0.0
 40
0.7
  0
CIRCLE
  5
1A5
330
17
100
AcDbEntity
  8
0
100
AcDbCircle
 10
14.079116908177593
 20
9.781476007338057
 30
0.0
 40
0.7
  0
CIRCLE
  5
1A6
330
17
100
AcDbEntity
  8
0
100
AcDbCircle
 10
14.494940289813112
 20
11.737771208805668
 30
0.0
 40
0.7
  0
CIRCLE
  5
1A7
330
17
100
AcDbEntity
  8
0
100
AcDbCircle
 10
14.910763671448631
 20
13.69406641027328
 30
0.0
 40
0.7
  0
CIRCLE
  5
1A8
330
17
100
AcDbEntity
  8
0
100
AcDbCircle
 10
18.86108579698606
 20
32.27887082421559
 30
0.0
 40
1.65
  0
ENDSEC
  0
SECTION
  2
OBJECTS
  0
DICTIONARY
  5
A
330
0
100
AcDbDictionary
281
1
  3
ACAD_COLOR
350
B
  3
ACAD_GROUP
350
C
  3
ACAD_LAYOUT
350
D
  3
ACAD_MATERIAL
350
E
  3
ACAD_MLEADERSTYLE
350
F
  3
ACAD_MLINESTYLE
350
10
  3
ACAD_PLOTSETTINGS
350
11
  3
ACAD_PLOTSTYLENAME
350
12
  3
ACAD_SCALELIST
350
14
  3
ACAD_TABLESTYLE
350
15
  3
ACAD_VISUALSTYLE
350
16
  3
EZDXF_META
350
2D
  0
DICTIONARY
  5
B
330
A
100
AcDbDictionary
281
1
  0
DICTIONARY
  5
C
330
A
100
AcDbDictionary
281
1
  0
DICTIONARY
  5
D
330
A
100
AcDbDictionary
281
1
  3
Model
350
1A
  3
Layout1
350
1E
  0
DICTIONARY
  5
E
330
A
100
AcDbDictionary
281
1
  3
ByBlock
350
1F
  3
ByLayer
350
20
  3
Global
350
21
  0
DICTIONARY
  5
F
330
A
100
AcDbDictionary
281
1
  3
Standard
350
2C
  0
DICTIONARY
  5
10
330
A
100
AcDbDictionary
281
1
  3
Standard
350
22
  0
DICTIONARY
  5
11
330
A
100
AcDbDictionary
281
1
  0
ACDBDICTIONARYWDFLT
  5
12
330
A
100
AcDbDictionary
281
1
  3
Normal
350
13
100
AcDbDictionaryWithDefault
340
13
  0
ACDBPLACEHOLDER
  5
13
330
12
  0
DICTIONARY
  5
14
330
A
100
AcDbDictionary
281
1
  0
DICTIONARY
  5
15
330
A
100
AcDbDictionary
281
1
  0
DICTIONARY
  5
16
330
A
100
AcDbDictionary
281
1
  0
LAYOUT
  5
1A
330
D
100
AcDbPlotSettings
  1

  4
A3
  6

 40
7.5
 41
20.0
 42
7.5
 43
20.0
 44
420.0
 45
297.0
 46
0.0
 47
0.0
 48
0.0
 49
0.0
140
0.0
141
0.0
142
1.0
143
1.0
 70
1024
 72
1
 73
0
 74
5
  7

 75
16
 76
0
 77
2
 78
300
147
1.0
148
0.0
149
0.0
100
AcDbLayout
  1
Model
 70
1
 71
0
 10
0.0
 20
0.0
 11
420.0
 21
297.0
 12
0.0
 22
0.0
 32
0.0
 14
1e+20
 24
1e+20
 34
1e+20
 15
-1e+20
 25
-1e+20
 35
-1e+20
146
0.0
 13
0.0
 23
0.0
 33
0.0
 16
1.0
 26
0.0
 36
0.0
 17
0.0
 27
1.0
 37
0.0
 76
1
330
17
  0
LAYOUT
  5
1E
330
D
100
AcDbPlotSettings
  1

  4
A3
  6

 40
7.5
 41
20.0
 42
7.5
 43
20.0
 44
420.0
 45
297.0
 46
0.0
 47
0.0
 48
0.0
 49
0.0
140
0.0
141
0.0
142
1.0
143
1.0
 70
0
 72
1
 73
0
 74
5
  7

 75
16
 76
0
 77
2
 78
300
147
1.0
148
0.0
149
0.0
100
AcDbLayout
  1
Layout1
 70
1
 71
1
 10
0.0
 20
0.0
 11
420.0
 21
297.0
 12
0.0
 22
0.0
 32
0.0
 14
1e+20
 24
1e+20
 34
1e+20
 15
-1e+20
 25
-1e+20
 35
-1e+20
146
0.0
 13
0.0
 23
0.0
 33
0.0
 16
1.0
 26
0.0
 36
0.0
 17
0.0
 27
1.0
 37
0.0
 76
1
330
1B
  0
MATERIAL
  5
1F
102
{ACAD_REACTORS
330
E
102
}
330
E
100
AcDbMaterial
  1
ByBlock
  2

 70
0
 40
1.0
 71
1
 41
1.0
 91
-1023410177
 42
1.0
 72
1
  3

 73
1
 74
1
 75
1
 44
0.5
 73
0
 45
1.0
 46
1.0
 77
1
  4

 78
1
 79
1
170
1
 48
1.0
171
1
  6

172
1
173
1
174
1
140
1.0
141
1.0
175
1
  7

176
1
177
1
178
1
143
1.0
179
1
  8

270
1
271
1
272
1
145
1.0
146
1.0
273
1
  9

274
1
275
1
276
1
 42
1.0
 72
1
  3

 73
1
 74
1
 75
1
 94
63
  0
MATERIAL
  5
20
102
{ACAD_REACTORS
330
E
102
}
330
E
100
AcDbMaterial
  1
ByLayer
  2

 70
0
 40
1.0
 71
1
 41
1.0
 91
-1023410177
 42
1.0
 72
1
  3

 73
1
 74
1
 75
1
 44
0.5
 73
0
 45
1.0
 46
1.0
 77
1
  4

 78
1
 79
1
170
1
 48
1.0
171
1
  6

172
1
173
1
174
1
140
1.0
141
1.0
175
1
  7

176
1
177
1
178
1
143
1.0
179
1
  8

270
1
271
1
272
1
145
1.0
146
1.0
273
1
  9

274
1
275
1
276
1
 42
1.0
 72
1
  3

 73
1
 74
1
 75
1
 94
63
  0
MATERIAL
  5
21
102
{ACAD_REACTORS
330
E
102
}
330
E
100
AcDbMaterial
  1
Global
  2

 70
0
 40
1.0
 71
1
 41
1.0
 91
-1023410177
 42
1.0
 72
1
  3

 73
1
 74
1
 75
1
 44
0.5
 73
0
 45
1.0
 46
1.0
 77
1
  4

 78
1
 79
1
170
1
 48
1.0
171
1
  6

172
1
173
1
174
1
140
1.0
141
1.0
175
1
  7

176
1
177
1
178
1
143
1.0
179
1
  8

270
1
271
1
272
1
145
1.0
146
1.0
273
1
  9

274
1
275
1
276
1
 42
1.0
 72
1
  3

 73
1
 74
1
 75
1
 94
63
  0
MLINESTYLE
  5
22
102
{ACAD_REACTORS
330
10
102
}
330
10
100
AcDbMlineStyle
  2
Standard
 70
0
  3

 62
256
 51
90.0
 52
90.0
 71
2
 49
0.5
 62
256
  6
BYLAYER
 49
-0.5
 62
256
  6
BYLAYER
  0
MLEADERSTYLE
  5
2C
102
{ACAD_REACTORS
330
F
102
}
330
F
100
AcDbMLeaderStyle
179
2
170
2
171
1
172
0
 90
2
 40
0.0
 41
0.0
173
1
 91
-1056964608
 92
-2
290
1
 42
2.0
291
1
 43
8.0
  3
Standard
 44
4.0
300

342
29
174
1
175
1
176
0
178
1
 93
-1056964608
 45
4.0
292
0
297
0
 46
4.0
 94
-1056964608
 47
1.0
 49
1.0
140
1.0
294
1
141
0.0
177
0
142
1.0
295
0
296
0
143
3.75
271
0
272
9
273
9
  0
DICTIONARY
  5
2D
330
A
100
AcDbDictionary
280
1
281
1
  3
CREATED_BY_EZDXF
350
2E
  3
WRITTEN_BY_EZDXF
350
1AC
  0
DICTIONARYVAR
  5
2E
330
2D
100
DictionaryVariables
280
0
  1
1.4.4 @ 2026-09-25T17:09:10.784519+00:00
  0
DICTIONARYVAR
  5
1AC
330
2D
100
DictionaryVariables
280
0
  1
1.4.4 @ 2026-09-25T17:09:10.824606+00:00
  0
ENDSEC
  0
EOF
