  0
SECTION
  2
HEADER
  9
$ACADVER
  1
AC1027
  9
$ACADMAINTVER
 70
105
  9
$DWGCODEPAGE
  3
ANSI_1252
  9
$LASTSAVEDBY
  1
ezdxf
  9
$REQUIREDVERSIONS
160
0
  9
$INSBASE
 10
0.0
 20
0.0
 30
0.0
  9
$EXTMIN
 10
1e+20
 20
1e+20
 30
1e+20
  9
$EXTMAX
 10
-1e+20
 20
-1e+20
 30
-1e+20
  9
$LIMMIN
 10
0.0
 20
0.0
  9
$LIMMAX
 10
420.0
 20
297.0
  9
$ORTHOMODE
 70
0
  9
$REGENMODE
 70
1
  9
$FILLMODE
 70
1
  9
$QTEXTMODE
 70
0
  9
$MIRRTEXT
 70
1
  9
$LTSCALE
 40
1.0
  9
$ATTMODE
 70
1
  9
$TEXTSIZE
 40
2.5
  9
$TRACEWID
 40
1.0
  9
$TEXTSTYLE
  7
Standard
  9
$CLAYER
  8
0
  9
$CELTYPE
  6
ByLayer
  9
$CECOLOR
 62
256
  9
$CELTSCALE
 40
1.0
  9
$DISPSILH
 70
0
  9
$DIMSCALE
 40
1.0
  9
$DIMASZ
 40
2.5
  9
$DIMEXO
 40
0.625
  9
$DIMDLI
 40
3.75
  9
$DIMRND
 40
0.0
  9
$DIMDLE
 40
0.0
  9
$DIMEXE
 40
1.25
  9
$DIMTP
 40
0.0
  9
$DIMTM
 40
0.0
  9
$DIMTXT
 40
2.5
  9
$DIMCEN
 40
2.5
  9
$DIMTSZ
 40
0.0
  9
$DIMTOL
 70
0
  9
$DIMLIM
 70
0
  9
$DIMTIH
 70
0
  9
$DIMTOH
 70
0
  9
$DIMSE1
 70
0
  9
$DIMSE2
 70
0
  9
$DIMTAD
 70
1
  9
$DIMZIN
 70
8
  9
$DIMBLK
  1

  9
$DIMASO
 70
1
  9
$DIMSHO
 70
1
  9
$DIMPOST
  1

  9
$DIMAPOST
  1

  9
$DIMALT
 70
0
  9
$DIMALTD
 70
3
  9
$DIMALTF
 40
0.03937007874
  9
$DIMLFAC
 40
1.0
  9
$DIMTOFL
 70
1
  9
$DIMTVP
 40
0.0
  9
$DIMTIX
 70
0
  9
$DIMSOXD
 70
0
  9
$DIMSAH
 70
0
  9
$DIMBLK1
  1

  9
$DIMBLK2
  1

  9
$DIMSTYLE
  2
ISO-25
  9
$DIMCLRD
 70
0
  9
$DIMCLRE
 70
0
  9
$DIMCLRT
 70
0
  9
$DIMTFAC
 40
1.0
  9
$DIMGAP
 40
0.625
  9
$DIMJUST
 70
0
  9
$DIMSD1
 70
0
  9
$DIMSD2
 70
0
  9
$DIMTOLJ
 70
0
  9
$DIMTZIN
 70
8
  9
$DIMALTZ
 70
0
  9
$DIMALTTZ
 70
0
  9
$DIMUPT
 70
0
  9
$DIMDEC
 70
2
  9
$DIMTDEC
 70
2
  9
$DIMALTU
 70
2
  9
$DIMALTTD
 70
3
  9
$DIMTXSTY
  7
Standard
  9
$DIMAUNIT
 70
0
  9
$DIMADEC
 70
0
  9
$DIMALTRND
 40
0.0
  9
$DIMAZIN
 70
0
  9
$DIMDSEP
 70
44
  9
$DIMATFIT
 70
3
  9
$DIMFRAC
 70
0
  9
$DIMLDRBLK
  1

  9
$DIMLUNIT
 70
2
  9
$DIMLWD
 70
-2
  9
$DIMLWE
 70
-2
  9
$DIMTMOVE
 70
0
  9
$DIMFXL
 40
1.0
  9
$DIMFXLON
 70
0
  9
$DIMJOGANG
 40
0.785398163397
  9
$DIMTFILL
 70
0
  9
$DIMTFILLCLR
 70
0
  9
$DIMARCSYM
 70
0
  9
$DIMLTYPE
  6

  9
$DIMLTEX1
  6

  9
$DIMLTEX2
  6

  9
$DIMTXTDIRECTION
 70
0
  9
$LUNITS
 70
2
  9
$LUPREC
 70
4
  9
$SKETCHINC
 40
1.0
  9
$FILLETRAD
 40
10.0
  9
$AUNITS
 70
0
  9
$AUPREC
 70
2
  9
$MENU
  1
.
  9
$ELEVATION
 40
0.0
  9
$PELEVATION
 40
0.0
  9
$THICKNESS
 40
0.0
  9
$LIMCHECK
 70
0
  9
$CHAMFERA
 40
0.0
  9
$CHAMFERB
 40
0.0
  9
$CHAMFERC
 40
0.0
  9
$CHAMFERD
 40
0.0
  9
$SKPOLY
 70
0
  9
$TDCREATE
 40
2461309.839710648
  9
$TDUCREATE
 40
2458532.153996898
  9
$TDUPDATE
 40
2461309.839710648
  9
$TDUUPDATE
 40
2458532.1544311
  9
$TDINDWG
 40
0.0
  9
$TDUSRTIMER
 40
0.0
  9
$USRTIMER
 70
1
  9
$ANGBASE
 50
0.0
  9
$ANGDIR
 70
0
  9
$PDMODE
 70
0
  9
$PDSIZE
 40
0.0
  9
$PLINEWID
 40
0.0
  9
$SPLFRAME
 70
0
  9
$SPLINETYPE
 70
6
  9
$SPLINESEGS
 70
8
  9
$HANDSEED
  5
1AA
  9
$SURFTAB1
 70
6
  9
$SURFTAB2
 70
6
  9
$SURFTYPE
 70
6
  9
$SURFU
 70
6
  9
$SURFV
 70
6
  9
$UCSBASE
  2

  9
$UCSNAME
  2

  9
$UCSORG
 10
0.0
 20
0.0
 30
0.0
  9
$UCSXDIR
 10
1.0
 20
0.0
 30
0.0
  9
$UCSYDIR
 10
0.0
 20
1.0
 30
0.0
  9
$UCSORTHOREF
  2

  9
$UCSORTHOVIEW
 70
0
  9
$UCSORGTOP
 10
0.0
 20
0.0
 30
0.0
  9
$UCSORGBOTTOM
 10
0.0
 20
0.0
 30
0.0
  9
$UCSORGLEFT
 10
0.0
 20
0.0
 30
0.0
  9
$UCSORGRIGHT
 10
0.0
 20
0.0
 30
0.0
  9
$UCSORGFRONT
 10
0.0
 20
0.0
 30
0.0
  9
$UCSORGBACK
 10
0.0
 20
0.0
 30
0.0
  9
$PUCSBASE
  2

  9
$PUCSNAME
  2

  9
$PUCSORG
 10
0.0
 20
0.0
 30
0.0
  9
$PUCSXDIR
 10
1.0
 20
0.0
 30
0.0
  9
$PUCSYDIR
 10
0.0
 20
1.0
 30
0.0
  9
$PUCSORTHOREF
  2

  9
$PUCSORTHOVIEW
 70
0
  9
$PUCSORGTOP
 10
0.0
 20
0.0
 30
0.0
  9
$PUCSORGBOTTOM
 10
0.0
 20
0.0
 30
0.0
  9
$PUCSORGLEFT
 10
0.0
 20
0.0
 30
0.0
  9
$PUCSORGRIGHT
 10
0.0
 20
0.0
 30
0.0
  9
$PUCSORGFRONT
 10
0.0
 20
0.0
 30
0.0
  9
$PUCSORGBACK
 10
0.0
 20
0.0
 30
0.0
  9
$USERI1
 70
0
  9
$USERI2
 70
0
  9
$USERI3
 70
0
  9
$USERI4
 70
0
  9
$USERI5
 70
0
  9
$USERR1
 40
0.0
  9
$USERR2
 40
0.0
  9
$USERR3
 40
0.0
  9
$USERR4
 40
0.0
  9
$USERR5
 40
0.0
  9
$WORLDVIEW
 70
1
  9
$SHADEDGE
 70
3
  9
$SHADEDIF
 70
70
  9
$TILEMODE
 70
1
  9
$MAXACTVP
 70
64
  9
$PINSBASE
 10
0.0
 20
0.0
 30
0.0
  9
$PLIMCHECK
 70
0
  9
$PEXTMIN
 10
1e+20
 20
1e+20
 30
1e+20
  9
$PEXTMAX
 10
-1e+20
 20
-1e+20
 30
-1e+20
  9
$PLIMMIN
 10
0.0
 20
0.0
  9
$PLIMMAX
 10
420.0
 20
297.0
  9
$UNITMODE
 70
0
  9
$VISRETAIN
 70
1
  9
$PLINEGEN
 70
0
  9
$PSLTSCALE
 70
1
  9
$TREEDEPTH
 70
3020
  9
$CMLSTYLE
  2
Standard
  9
$CMLJUST
 70
0
  9
$CMLSCALE
 40
20.0
  9
$PROXYGRAPHICS
 70
1
  9
$MEASUREMENT
 70
1
  9
$CELWEIGHT
370
-1
  9
$ENDCAPS
280
0
  9
$JOINSTYLE
280
0
  9
$LWDISPLAY
290
0
  9
$INSUNITS
 70
4
  9
$HYPERLINKBASE
  1

  9
$STYLESHEET
  1

  9
$XEDIT
290
1
  9
$CEPSNTYPE
380
0
  9
$PSTYLEMODE
290
1
  9
$FINGERPRINTGUID
  2
{7AD56E0F-E671-4A92-AFFD-D1D49FCD3E19}
  9
$VERSIONGUID
  2
{D9D9E9EC-6306-4A5F-8447-A9E5C809BB22}
  9
$EXTNAMES
290
1
  9
$PSVPSCALE
 40
0.0
  9
$OLESTARTUP
290
0
  9
$SORTENTS
280
127
  9
$INDEXCTL
280
0
  9
$HIDETEXT
280
1
  9
$XCLIPFRAME
280
1
  9
$HALOGAP
280
0
  9
$OBSCOLOR
 70
257
  9
$OBSLTYPE
280
0
  9
$INTERSECTIONDISPLAY
280
0
  9
$INTERSECTIONCOLOR
 70
257
  9
$DIMASSOC
280
2
  9
$PROJECTNAME
  1

  9
$CAMERADISPLAY
290
0
  9
$LENSLENGTH
 40
50.0
  9
$CAMERAHEIGHT
 40
0.0
  9
$STEPSPERSEC
 40
24.0
  9
$STEPSIZE
 40
100.0
  9
$3DDWFPREC
 40
2.0
  9
$PSOLWIDTH
 40
0.005
  9
$PSOLHEIGHT
 40
0.08
  9
$LOFTANG1
 40
1.570796326795
  9
$LOFTANG2
 40
1.570796326795
  9
$LOFTMAG1
 40
0.0
  9
$LOFTMAG2
 40
0.0
  9
$LOFTPARAM
 70
7
  9
$LOFTNORMALS
280
1
  9
$LATITUDE
 40
37.795
  9
$LONGITUDE
 40
-122.394
  9
$NORTHDIRECTION
 40
0.0
  9
$TIMEZONE
 70
-8000
  9
$LIGHTGLYPHDISPLAY
280
1
  9
$TILEMODELIGHTSYNCH
280
1
  9
$CMATERIAL
347
20
  9
$SOLIDHIST
280
0
  9
$SHOWHIST
280
1
  9
$DWFFRAME
280
2
  9
$DGNFRAME
280
2
  9
$REALWORLDSCALE
290
1
  9
$INTERFERECOLOR
 62
256
  9
$CSHADOW
280
0
  9
$SHADOWPLANELOCATION
 40
0.0
  0
ENDSEC
  0
SECTION
  2
CLASSES
  0
CLASS
  1
ACDBDICTIONARYWDFLT
  2
AcDbDictionaryWithDefault
  3
ObjectDBX Classes
 90
0
 91
0
280
0
281
0
  0
CLASS
  1
SUN
  2
AcDbSun
  3
SCENEOE
 90
1153
 91
0
280
0
281
0
  0
CLASS
  1
VISUALSTYLE
  2
AcDbVisualStyle
  3
ObjectDBX Classes
 90
4095
 91
0
280
0
281
0
  0
CLASS
  1
MATERIAL
  2
AcDbMaterial
  3
ObjectDBX Classes
 90
1153
 91
0
280
0
281
0
  0
CLASS
  1
SCALE
  2
AcDbScale
  3
ObjectDBX Classes
 90
1153
 91
0
280
0
281
0
  0
CLASS
  1
TABLESTYLE
  2
AcDbTableStyle
  3
ObjectDBX Classes
 90
4095
 91
0
280
0
281
0
  0
CLASS
  1
MLEADERSTYLE
  2
AcDbMLeaderStyle
  3
ACDB_MLEADERSTYLE_CLASS
 90
4095
 91
0
280
0
281
0
  0
CLASS
  1
DICTIONARYVAR
  2
AcDbDictionaryVar
  3
ObjectDBX Classes
 90
0
 91
0
280
0
281
0
  0
CLASS
  1
CELLSTYLEMAP
  2
AcDbCellStyleMap
  3
ObjectDBX Classes
 90
1152
 91
0
280
0
281
0
  0
CLASS
  1
MENTALRAYRENDERSETTINGS
  2
AcDbMentalRayRenderSettings
  3
SCENEOE
 90
1024
 91
0
280
0
281
0
  0
CLASS
  1
ACDBDETAILVIEWSTYLE
  2
AcDbDetailViewStyle
  3
ObjectDBX Classes
 90
1025
 91
0
280
0
281
0
  0
CLASS
  1
ACDBSECTIONVIEWSTYLE
  2
AcDbSectionViewStyle
  3
ObjectDBX Classes
 90
1025
 91
0
280
0
281
0
  0
CLASS
  1
RASTERVARIABLES
  2
AcDbRasterVariables
  3
ISM
 90
0
 91
0
280
0
281
0
  0
CLASS
  1
ACDBPLACEHOLDER
  2
AcDbPlaceHolder
  3
ObjectDBX Classes
 90
0
 91
0
280
0
281
0
  0
CLASS
  1
LAYOUT
  2
AcDbLayout
  3
ObjectDBX Classes
 90
0
 91
0
280
0
281
0
  0
ENDSEC
  0
SECTION
  2
TABLES
  0
TABLE
  2
VPORT
  5
8
330
0
100
AcDbSymbolTable
 70
1
  0
VPORT
  5
1A6
330
8
100
AcDbSymbolTableRecord
100
AcDbViewportTableRecord
  2
*Active
 70
0
 10
0.0
 20
0.0
 11
1.0
 21
1.0
 12
-12.0
 22
11.930747869230496
 13
0.0
 23
0.0
 14
0.5
 24
0.5
 15
0.5
 25
0.5
 16
0.0
 26
0.0
 36
1.0
 17
0.0
 27
0.0
 37
0.0
 40
50.50126930226503
 41
1.34
 42
50.0
 43
0.0
 44
0.0
 50
0.0
 51
0.0
 71
0
 72
1000
 73
1
 74
3
 75
0
 76
0
 77
0
 78
0
281
0
 65
1
110
0.0
120
0.0
130
0.0
111
1.0
121
0.0
131
0.0
112
0.0
122
1.0
132
0.0
 79
0
146
0.0
  0
ENDTAB
  0
TABLE
  2
LTYPE
  5
2
330
0
100
AcDbSymbolTable
 70
3
  0
LTYPE
  5
24
330
2
100
AcDbSymbolTableRecord
100
AcDbLinetypeTableRecord
  2
ByBlock
 70
0
  3

 72
65
 73
0
 40
0.0
  0
LTYPE
  5
25
330
2
100
AcDbSymbolTableRecord
100
AcDbLinetypeTableRecord
  2
ByLayer
 70
0
  3

 72
65
 73
0
 40
0.0
  0
LTYPE
  5
26
330
2
100
AcDbSymbolTableRecord
100
AcDbLinetypeTableRecord
  2
Continuous
 70
0
  3

 72
65
 73
0
 40
0.0
  0
ENDTAB
  0
TABLE
  2
LAYER
  5
1
330
0
100
AcDbSymbolTable
 70
2
  0
LAYER
  5
27
330
1
100
AcDbSymbolTableRecord
100
AcDbLayerTableRecord
  2
0
 70
0
 62
7
  6
Continuous
370
-3
390
13
347
21
  0
LAYER
  5
28
330
1
100
AcDbSymbolTableRecord
100
AcDbLayerTableRecord
  2
Defpoints
 70
0
 62
7
  6
Continuous
290
0
370
-3
390
13
347
21
  0
ENDTAB
  0
TABLE
  2
STYLE
  5
5
330
0
100
AcDbSymbolTable
 70
1
  0
STYLE
  5
29
330
5
100
AcDbSymbolTableRecord
100
AcDbTextStyleTableRecord
  2
Standard
 70
0
 40
0.0
 41
1.0
 50
0.0
 71
0
 42
2.5
  3
txt
  4

  0
ENDTAB
  0
TABLE
  2
VIEW
  5
7
330
0
100
AcDbSymbolTable
 70
0
  0
ENDTAB
  0
TABLE
  2
UCS
  5
6
330
0
100
AcDbSymbolTable
 70
0
  0
ENDTAB
  0
TABLE
  2
APPID
  5
3
330
0
100
AcDbSymbolTable
 70
3
  0
APPID
  5
2A
330
3
100
AcDbSymbolTableRecord
100
AcDbRegAppTableRecord
  2
ACAD
 70
0
  0
APPID
  5
1A7
330
3
100
AcDbSymbolTableRecord
100
AcDbRegAppTableRecord
  2
HATCHBACKGROUNDCOLOR
 70
0
  0
APPID
  5
1A8
330
3
100
AcDbSymbolTableRecord
100
AcDbRegAppTableRecord
  2
EZDXF
 70
0
  0
ENDTAB
  0
TABLE
  2
DIMSTYLE
  5
4
330
0
100
AcDbSymbolTable
 70
1
100
AcDbDimStyleTable
  0
DIMSTYLE
105
2B
330
4
100
AcDbSymbolTableRecord
100
AcDbDimStyleTableRecord
  2
Standard
 70
0
 40
1.0
 41
2.5
 42
0.625
 43
3.75
 44
1.25
 45
0.0
 46
0.0
 47
0.0
 48
0.0
 49
2.5
140
2.5
141
2.5
142
0.0
143
0.03937007874
144
1.0
145
0.0
146
1.0
147
0.625
148
0.0
 69
0
 70
0
 71
0
 72
0
 73
0
 74
0
 75
0
 76
0
 77
1
 78
8
 79
3
170
0
171
3
172
1
173
0
174
0
175
0
176
0
177
0
178
0
179
2
271
2
272
2
273
2
274
3
275
0
276
0
277
2
278
44
279
0
280
0
281
0
282
0
283
0
284
8
285
0
286
0
288
0
289
3
290
0
371
-2
372
-2
  0
ENDTAB
  0
TABLE
  2
BLOCK_RECORD
  5
9
330
0
100
AcDbSymbolTable
 70
2
  0
BLOCK_RECORD
  5
17
330
9
100
AcDbSymbolTableRecord
100
AcDbBlockTableRecord
  2
*Model_Space
340
1A
 70
0
280
1
281
0
  0
BLOCK_RECORD
  5
1B
330
9
100
AcDbSymbolTableRecord
100
AcDbBlockTableRecord
  2
*Paper_Space
340
1E
 70
0
280
1
281
0
  0
ENDTAB
  0
ENDSEC
  0
SECTION
  2
BLOCKS
  0
BLOCK
  5
18
330
17
100
AcDbEntity
  8
0
100
AcDbBlockBegin
  2
*Model_Space
 70
0
 10
0.0
 20
0.0
 30
0.0
  3
*Model_Space
  1

  0
ENDBLK
  5
19
330
17
100
AcDbEntity
  8
0
100
AcDbBlockEnd
  0
BLOCK
  5
1C
330
1B
100
AcDbEntity
  8
0
100
AcDbBlockBegin
  2
*Paper_Space
 70
0
 10
0.0
 20
0.0
 30
0.0
  3
*Paper_Space
  1

  0
ENDBLK
  5
1D
330
1B
100
AcDbEntity
  8
0
100
AcDbBlockEnd
  0
ENDSEC
  0
SECTION
  2
ENTITIES
  0
LINE
  5
2F
330
17
100
AcDbEntity
  8
0
100
AcDbLine
 10
-1.913679366604093
 20
0.8841725399106056
 30
0.0
 11
-1.8846744636385147
 21
0.4425090885317576
 31
0.0
  0
LINE
  5
30
330
17
100
AcDbEntity
  8
0
100
AcDbLine
 10
-1.8846744636385147
 20
0.4425090885317576
 30
0.0
 11
-1.875
 21
-2.4799097682733903e-15
 31
0.0
  0
LINE
  5
31
330
17
100
AcDbEntity
  8
0
100
AcDbLine
 10
-1.875
 20
-2.4799097682733903e-15
 30
0.0
 11
-1.8846744636385147
 21
-0.44250908853177146
 31
0.0
  0
LINE
  5
32
330
17
100
AcDbEntity
  8
0
100
AcDbLine
 10
-1.8846744636385147
 20
-0.44250908853177146
 30
0.0
 11
-1.913679366604093
 21
-0.8841725399106096
 31
0.0
  0
LINE
  5
33
330
17
100
AcDbEntity
  8
0
100
AcDbLine
 10
-1.913679366604093
 20
-0.8841725399106096
 30
0.0
 11
-0.7667661391611453
 21
-0.9847115985250774
 31
0.0
  0
LINE
  5
34
330
17
100
AcDbEntity
  8
0
100
AcDbLine
 10
-0.7667661391611453
 20
-0.9847115985250774
 30
0.0
 11
-0.5478838228011895
 21
-1.0337716424613286
 31
0.0
  0
LINE
  5
35
330
17
100
AcDbEntity
  8
0
100
AcDbLine
 10
-0.5478838228011895
 20
-1.0337716424613286
 30
0.0
 11
-0.3314627032118871
 21
-1.1082557258723014
 31
0.0
  0
LINE
  5
36
330
17
100
AcDbEntity
  8
0
100
AcDbLine
 10
-0.3314627032118871
 20
-1.1082557258723014
 30
0.0
 11
-0.11703445234060617
 21
-1.2001515173721387
 31
0.0
  0
LINE
  5
37
330
17
100
AcDbEntity
  8
0
100
AcDbLine
 10
-0.11703445234060617
 20
-1.2001515173721387
 30
0.0
 11
0.09540197998232358
 21
-1.3067597715708257
 31
0.0
  0
LINE
  5
38
330
17
100
AcDbEntity
  8
0
100
AcDbLine
 10
0.09540197998232358
 20
-1.3067597715708257
 30
0.0
 11
0.3057404538504933
 21
-1.426588287582524
 31
0.0
  0
LINE
  5
39
330
17
100
AcDbEntity
  8
0
100
AcDbLine
 10
0.3057404538504933
 20
-1.426588287582524
 30
0.0
 11
0.5138277914905949
 21
-1.558667437897022
 31
0.0
  0
LINE
  5
3A
330
17
100
AcDbEntity
  8
0
100
AcDbLine
 10
0.5138277914905949
 20
-1.558667437897022
 30
0.0
 11
0.7194852553432298
 21
-1.7023068903080742
 31
0.0
  0
LINE
  5
3B
330
17
100
AcDbEntity
  8
0
100
AcDbLine
 10
0.7194852553432298
 20
-1.7023068903080742
 30
0.0
 11
0.9225184915848015
 21
-1.8569839235634236
 31
0.0
  0
LINE
  5
3C
330
17
100
AcDbEntity
  8
0
100
AcDbLine
 10
0.9225184915848015
 20
-1.8569839235634236
 30
0.0
 11
1.1227228887140832
 21
-2.022284056996505
 31
0.0
  0
LINE
  5
3D
330
17
100
AcDbEntity
  8
0
100
AcDbLine
 10
1.1227228887140832
 20
-2.022284056996505
 30
0.0
 11
1.3198867819020172
 21
-2.1978662646557696
 31
0.0
  0
LINE
  5
3E
330
17
100
AcDbEntity
  8
0
100
AcDbLine
 10
1.3198867819020172
 20
-2.1978662646557696
 30
0.0
 11
1.1470577792048093
 21
-3.0667363353001655
 31
0.0
  0
LINE
  5
3F
330
17
100
AcDbEntity
  8
0
100
AcDbLine
 10
1.1470577792048093
 20
-3.0667363353001655
 30
0.0
 11
0.8977096918489487
 21
-3.153501787846084
 31
0.0
  0
LINE
  5
40
330
17
100
AcDbEntity
  8
0
100
AcDbLine
 10
0.8977096918489487
 20
-3.153501787846084
 30
0.0
 11
0.6494873245898649
 21
-3.229604291978275
 31
0.0
  0
LINE
  5
41
330
17
100
AcDbEntity
  8
0
100
AcDbLine
 10
0.6494873245898649
 20
-3.229604291978275
 30
0.0
 11
0.40271673521254137
 21
-3.294809781423343
 31
0.0
  0
LINE
  5
42
330
17
100
AcDbEntity
  8
0
100
AcDbLine
 10
0.40271673521254137
 20
-3.294809781423343
 30
0.0
 11
0.15774557497920938
 21
-3.3488136274084175
 31
0.0
  0
LINE
  5
43
330
17
100
AcDbEntity
  8
0
100
AcDbLine
 10
0.15774557497920938
 20
-3.3488136274084175
 30
0.0
 11
-0.08504655982746456
 21
-3.391207274455636
 31
0.0
  0
LINE
  5
44
330
17
100
AcDbEntity
  8
0
100
AcDbLine
 10
-0.08504655982746456
 20
-3.391207274455636
 30
0.0
 11
-0.32523035853649773
 21
-3.421421338671739
 31
0.0
  0
LINE
  5
45
330
17
100
AcDbEntity
  8
0
100
AcDbLine
 10
-0.32523035853649773
 20
-3.421421338671739
 30
0.0
 11
-0.5622932429545742
 21
-3.4386186196419337
 31
0.0
  0
LINE
  5
46
330
17
100
AcDbEntity
  8
0
100
AcDbLine
 10
-0.5622932429545742
 20
-3.4386186196419337
 30
0.0
 11
-0.7955661120378092
 21
-3.4414611214930932
 31
0.0
  0
LINE
  5
47
330
17
100
AcDbEntity
  8
0
100
AcDbLine
 10
-0.7955661120378092
 20
-3.4414611214930932
 30
0.0
 11
-1.0240169795258236
 21
-3.427454664773624
 31
0.0
  0
LINE
  5
48
330
17
100
AcDbEntity
  8
0
100
AcDbLine
 10
-1.0240169795258236
 20
-3.427454664773624
 30
0.0
 11
-1.245012337644953
 21
-3.389017599121782
 31
0.0
  0
LINE
  5
49
330
17
100
AcDbEntity
  8
0
100
AcDbLine
 10
-1.245012337644953
 20
-3.389017599121782
 30
0.0
 11
-2.3430966260832946
 21
-3.04299888709085
 31
0.0
  0
LINE
  5
4A
330
17
100
AcDbEntity
  8
0
100
AcDbLine
 10
-2.3430966260832946
 20
-3.04299888709085
 30
0.0
 11
-2.4853168754147834
 21
-3.462142405900328
 31
0.0
  0
LINE
  5
4B
330
17
100
AcDbEntity
  8
0
100
AcDbLine
 10
-2.4853168754147834
 20
-3.462142405900328
 30
0.0
 11
-2.6457197333232205
 21
-3.8746697526965317
 31
0.0
  0
LINE
  5
4C
330
17
100
AcDbEntity
  8
0
100
AcDbLine
 10
-2.6457197333232205
 20
-3.8746697526965317
 30
0.0
 11
-2.8239986691189536
 21
-4.279792585589781
 31
0.0
  0
LINE
  5
4D
330
17
100
AcDbEntity
  8
0
100
AcDbLine
 10
-2.8239986691189536
 20
-4.279792585589781
 30
0.0
 11
-3.0198129908351916
 21
-4.676736712754699
 31
0.0
  0
LINE
  5
4E
330
17
100
AcDbEntity
  8
0
100
AcDbLine
 10
-3.0198129908351916
 20
-4.676736712754699
 30
0.0
 11
-1.9986779664715293
 21
-5.208527381729348
 31
0.0
  0
LINE
  5
4F
330
17
100
AcDbEntity
  8
0
100
AcDbLine
 10
-1.9986779664715293
 20
-5.208527381729348
 30
0.0
 11
-1.8152315403634134
 21
-5.337615588294804
 31
0.0
  0
LINE
  5
50
330
17
100
AcDbEntity
  8
0
100
AcDbLine
 10
-1.8152315403634134
 20
-5.337615588294804
 30
0.0
 11
-1.643788322267957
 21
-5.4892506853367955
 31
0.0
  0
LINE
  5
51
330
17
100
AcDbEntity
  8
0
100
AcDbLine
 10
-1.643788322267957
 20
-5.4892506853367955
 30
0.0
 11
-1.4808494470068503
 21
-5.656209465266883
 31
0.0
  0
LINE
  5
52
330
17
100
AcDbEntity
  8
0
100
AcDbLine
 10
-1.4808494470068503
 20
-5.656209465266883
 30
0.0
 11
-1.3253809878591802
 21
-5.835998552398544
 31
0.0
  0
LINE
  5
53
330
17
100
AcDbEntity
  8
0
100
AcDbLine
 10
-1.3253809878591802
 20
-5.835998552398544
 30
0.0
 11
-1.176909964755291
 21
-6.0271987148912585
 31
0.0
  0
LINE
  5
54
330
17
100
AcDbEntity
  8
0
100
AcDbLine
 10
-1.176909964755291
 20
-6.0271987148912585
 30
0.0
 11
-1.035206835121052
 21
-6.228855515138132
 31
0.0
  0
LINE
  5
55
330
17
100
AcDbEntity
  8
0
100
AcDbLine
 10
-1.035206835121052
 20
-6.228855515138132
 30
0.0
 11
-0.9001725522311261
 21
-6.440262769440458
 31
0.0
  0
LINE
  5
56
330
17
100
AcDbEntity
  8
0
100
AcDbLine
 10
-0.9001725522311261
 20
-6.440262769440458
 30
0.0
 11
-0.7717866388422152
 21
-6.66086317034376
 31
0.0
  0
LINE
  5
57
330
17
100
AcDbEntity
  8
0
100
AcDbLine
 10
-0.7717866388422152
 20
-6.66086317034376
 30
0.0
 11
-0.6500795164482884
 21
-6.890195486211986
 31
0.0
  0
LINE
  5
58
330
17
100
AcDbEntity
  8
0
100
AcDbLine
 10
-0.6500795164482884
 20
-6.890195486211986
 30
0.0
 11
-0.5351162328710011
 21
-7.12786364952515
 31
0.0
  0
LINE
  5
59
330
17
100
AcDbEntity
  8
0
100
AcDbLine
 10
-0.5351162328710011
 20
-7.12786364952515
 30
0.0
 11
-1.0272915920007843
 21
-7.8644561282407395
 31
0.0
  0
LINE
  5
5A
330
17
100
AcDbEntity
  8
0
100
AcDbLine
 10
-1.0272915920007843
 20
-7.8644561282407395
 30
0.0
 11
-1.2908628875706842
 21
-7.849195572053983
 31
0.0
  0
LINE
  5
5B
330
17
100
AcDbEntity
  8
0
100
AcDbLine
 10
-1.2908628875706842
 20
-7.849195572053983
 30
0.0
 11
-1.549313619685737
 21
-7.824514530502075
 31
0.0
  0
LINE
  5
5C
330
17
100
AcDbEntity
  8
0
100
AcDbLine
 10
-1.549313619685737
 20
-7.824514530502075
 30
0.0
 11
-1.8022529769470772
 21
-7.790321531458083
 31
0.0
  0
LINE
  5
5D
330
17
100
AcDbEntity
  8
0
100
AcDbLine
 10
-1.8022529769470772
 20
-7.790321531458083
 30
0.0
 11
-2.0492431950846797
 21
-7.746468175012035
 31
0.0
  0
LINE
  5
5E
330
17
100
AcDbEntity
  8
0
100
AcDbLine
 10
-2.0492431950846797
 20
-7.746468175012035
 30
0.0
 11
-2.2897772254497895
 21
-7.692722270328404
 31
0.0
  0
LINE
  5
5F
330
17
100
AcDbEntity
  8
0
100
AcDbLine
 10
-2.2897772254497895
 20
-7.692722270328404
 30
0.0
 11
-2.5232405429177938
 21
-7.628722065363185
 31
0.0
  0
LINE
  5
60
330
17
100
AcDbEntity
  8
0
100
AcDbLine
 10
-2.5232405429177938
 20
-7.628722065363185
 30
0.0
 11
-2.748839204258765
 21
-7.5538902429709145
 31
0.0
  0
LINE
  5
61
330
17
100
AcDbEntity
  8
0
100
AcDbLine
 10
-2.748839204258765
 20
-7.5538902429709145
 30
0.0
 11
-2.9654430118598576
 21
-7.467246710033902
 31
0.0
  0
LINE
  5
62
330
17
100
AcDbEntity
  8
0
100
AcDbLine
 10
-2.9654430118598576
 20
-7.467246710033902
 30
0.0
 11
-3.1711440535838022
 21
-7.366882069250685
 31
0.0
  0
LINE
  5
63
330
17
100
AcDbEntity
  8
0
100
AcDbLine
 10
-3.1711440535838022
 20
-7.366882069250685
 30
0.0
 11
-3.360607913516379
 21
-7.246799588823373
 31
0.0
  0
LINE
  5
64
330
17
100
AcDbEntity
  8
0
100
AcDbLine
 10
-3.360607913516379
 20
-7.246799588823373
 30
0.0
 11
-4.242689884194238
 21
-6.506901318386317
 31
0.0
  0
LINE
  5
65
330
17
100
AcDbEntity
  8
0
100
AcDbLine
 10
-4.242689884194238
 20
-6.506901318386317
 30
0.0
 11
-4.534483542091851
 21
-6.839714103433167
 31
0.0
  0
LINE
  5
66
330
17
100
AcDbEntity
  8
0
100
AcDbLine
 10
-4.534483542091851
 20
-6.839714103433167
 30
0.0
 11
-4.840543840486201
 21
-7.159456159513788
 31
0.0
  0
LINE
  5
67
330
17
100
AcDbEntity
  8
0
100
AcDbLine
 10
-4.840543840486201
 20
-7.159456159513788
 30
0.0
 11
-5.16028589656683
 21
-7.465516457908145
 31
0.0
  0
LINE
  5
68
330
17
100
AcDbEntity
  8
0
100
AcDbLine
 10
-5.16028589656683
 20
-7.465516457908145
 30
0.0
 11
-5.493098681613679
 21
-7.757310115805758
 31
0.0
  0
LINE
  5
69
330
17
100
AcDbEntity
  8
0
100
AcDbLine
 10
-5.493098681613679
 20
-7.757310115805758
 30
0.0
 11
-4.753200411176623
 21
-8.639392086483618
 31
0.0
  0
LINE
  5
6A
330
17
100
AcDbEntity
  8
0
100
AcDbLine
 10
-4.753200411176623
 20
-8.639392086483618
 30
0.0
 11
-4.633117930749311
 21
-8.828855946416194
 31
0.0
  0
LINE
  5
6B
330
17
100
AcDbEntity
  8
0
100
AcDbLine
 10
-4.633117930749311
 20
-8.828855946416194
 30
0.0
 11
-4.532753289966093
 21
-9.034556988140139
 31
0.0
  0
LINE
  5
6C
330
17
100
AcDbEntity
  8
0
100
AcDbLine
 10
-4.532753289966093
 20
-9.034556988140139
 30
0.0
 11
-4.446109757029081
 21
-9.25116079574123
 31
0.0
  0
LINE
  5
6D
330
17
100
AcDbEntity
  8
0
100
AcDbLine
 10
-4.446109757029081
 20
-9.25116079574123
 30
0.0
 11
-4.371277934636812
 21
-9.476759457082203
 31
0.0
  0
LINE
  5
6E
330
17
100
AcDbEntity
  8
0
100
AcDbLine
 10
-4.371277934636812
 20
-9.476759457082203
 30
0.0
 11
-4.3072777296715925
 21
-9.710222774550207
 31
0.0
  0
LINE
  5
6F
330
17
100
AcDbEntity
  8
0
100
AcDbLine
 10
-4.3072777296715925
 20
-9.710222774550207
 30
0.0
 11
-4.2535318249879595
 21
-9.950756804915317
 31
0.0
  0
LINE
  5
70
330
17
100
AcDbEntity
  8
0
100
AcDbLine
 10
-4.2535318249879595
 20
-9.950756804915317
 30
0.0
 11
-4.20967846854191
 21
-10.19774702305292
 31
0.0
  0
LINE
  5
71
330
17
100
AcDbEntity
  8
0
100
AcDbLine
 10
-4.20967846854191
 20
-10.19774702305292
 30
0.0
 11
-4.175485469497921
 21
-10.45068638031426
 31
0.0
  0
LINE
  5
72
330
17
100
AcDbEntity
  8
0
100
AcDbLine
 10
-4.175485469497921
 20
-10.45068638031426
 30
0.0
 11
-4.150804427946013
 21
-10.709137112429312
 31
0.0
  0
LINE
  5
73
330
17
100
AcDbEntity
  8
0
100
AcDbLine
 10
-4.150804427946013
 20
-10.709137112429312
 30
0.0
 11
-4.135543871759254
 21
-10.97270840799921
 31
0.0
  0
LINE
  5
74
330
17
100
AcDbEntity
  8
0
100
AcDbLine
 10
-4.135543871759254
 20
-10.97270840799921
 30
0.0
 11
-4.872136350474846
 21
-11.464883767128995
 31
0.0
  0
LINE
  5
75
330
17
100
AcDbEntity
  8
0
100
AcDbLine
 10
-4.872136350474846
 20
-11.464883767128995
 30
0.0
 11
-5.10980451378801
 21
-11.349920483551708
 31
0.0
  0
LINE
  5
76
330
17
100
AcDbEntity
  8
0
100
AcDbLine
 10
-5.10980451378801
 20
-11.349920483551708
 30
0.0
 11
-5.339136829656235
 21
-11.228213361157783
 31
0.0
  0
LINE
  5
77
330
17
100
AcDbEntity
  8
0
100
AcDbLine
 10
-5.339136829656235
 20
-11.228213361157783
 30
0.0
 11
-5.559737230559536
 21
-11.099827447768872
 31
0.0
  0
LINE
  5
78
330
17
100
AcDbEntity
  8
0
100
AcDbLine
 10
-5.559737230559536
 20
-11.099827447768872
 30
0.0
 11
-5.771144484861862
 21
-10.964793164878946
 31
0.0
  0
LINE
  5
79
330
17
100
AcDbEntity
  8
0
100
AcDbLine
 10
-5.771144484861862
 20
-10.964793164878946
 30
0.0
 11
-5.972801285108736
 21
-10.823090035244707
 31
0.0
  0
LINE
  5
7A
330
17
100
AcDbEntity
  8
0
100
AcDbLine
 10
-5.972801285108736
 20
-10.823090035244707
 30
0.0
 11
-6.164001447601451
 21
-10.674619012140818
 31
0.0
  0
LINE
  5
7B
330
17
100
AcDbEntity
  8
0
100
AcDbLine
 10
-6.164001447601451
 20
-10.674619012140818
 30
0.0
 11
-6.343790534733111
 21
-10.519150552993146
 31
0.0
  0
LINE
  5
7C
330
17
100
AcDbEntity
  8
0
100
AcDbLine
 10
-6.343790534733111
 20
-10.519150552993146
 30
0.0
 11
-6.510749314663199
 21
-10.356211677732041
 31
0.0
  0
LINE
  5
7D
330
17
100
AcDbEntity
  8
0
100
AcDbLine
 10
-6.510749314663199
 20
-10.356211677732041
 30
0.0
 11
-6.662384411705191
 21
-10.184768459636585
 31
0.0
  0
LINE
  5
7E
330
17
100
AcDbEntity
  8
0
100
AcDbLine
 10
-6.662384411705191
 20
-10.184768459636585
 30
0.0
 11
-6.791472618270648
 21
-10.001322033528467
 31
0.0
  0
LINE
  5
7F
330
17
100
AcDbEntity
  8
0
100
AcDbLine
 10
-6.791472618270648
 20
-10.001322033528467
 30
0.0
 11
-7.323263287245297
 21
-8.980187009164805
 31
0.0
  0
LINE
  5
80
330
17
100
AcDbEntity
  8
0
100
AcDbLine
 10
-7.323263287245297
 20
-8.980187009164805
 30
0.0
 11
-7.720207414410224
 21
-9.176001330881048
 31
0.0
  0
LINE
  5
81
330
17
100
AcDbEntity
  8
0
100
AcDbLine
 10
-7.720207414410224
 20
-9.176001330881048
 30
0.0
 11
-8.125330247303463
 21
-9.354280266676778
 31
0.0
  0
LINE
  5
82
330
17
100
AcDbEntity
  8
0
100
AcDbLine
 10
-8.125330247303463
 20
-9.354280266676778
 30
0.0
 11
-8.537857594099668
 21
-9.514683124585215
 31
0.0
  0
LINE
  5
83
330
17
100
AcDbEntity
  8
0
100
AcDbLine
 10
-8.537857594099668
 20
-9.514683124585215
 30
0.0
 11
-8.957001112909154
 21
-9.656903373916707
 31
0.0
  0
LINE
  5
84
330
17
100
AcDbEntity
  8
0
100
AcDbLine
 10
-8.957001112909154
 20
-9.656903373916707
 30
0.0
 11
-8.610982400878223
 21
-10.754987662355047
 31
0.0
  0
LINE
  5
85
330
17
100
AcDbEntity
  8
0
100
AcDbLine
 10
-8.610982400878223
 20
-10.754987662355047
 30
0.0
 11
-8.57254533522638
 21
-10.975983020474178
 31
0.0
  0
LINE
  5
86
330
17
100
AcDbEntity
  8
0
100
AcDbLine
 10
-8.57254533522638
 20
-10.975983020474178
 30
0.0
 11
-8.558538878506912
 21
-11.20443388796219
 31
0.0
  0
LINE
  5
87
330
17
100
AcDbEntity
  8
0
100
AcDbLine
 10
-8.558538878506912
 20
-11.20443388796219
 30
0.0
 11
-8.561381380358071
 21
-11.437706757045428
 31
0.0
  0
LINE
  5
88
330
17
100
AcDbEntity
  8
0
100
AcDbLine
 10
-8.561381380358071
 20
-11.437706757045428
 30
0.0
 11
-8.578578661328265
 21
-11.674769641463504
 31
0.0
  0
LINE
  5
89
330
17
100
AcDbEntity
  8
0
100
AcDbLine
 10
-8.578578661328265
 20
-11.674769641463504
 30
0.0
 11
-8.608792725544369
 21
-11.914953440172537
 31
0.0
  0
LINE
  5
8A
330
17
100
AcDbEntity
  8
0
100
AcDbLine
 10
-8.608792725544369
 20
-11.914953440172537
 30
0.0
 11
-8.651186372591589
 21
-12.157745574979211
 31
0.0
  0
LINE
  5
8B
330
17
100
AcDbEntity
  8
0
100
AcDbLine
 10
-8.651186372591589
 20
-12.157745574979211
 30
0.0
 11
-8.705190218576663
 21
-12.402716735212541
 31
0.0
  0
LINE
  5
8C
330
17
100
AcDbEntity
  8
0
100
AcDbLine
 10
-8.705190218576663
 20
-12.402716735212541
 30
0.0
 11
-8.77039570802173
 21
-12.649487324589865
 31
0.0
  0
LINE
  5
8D
330
17
100
AcDbEntity
  8
0
100
AcDbLine
 10
-8.77039570802173
 20
-12.649487324589865
 30
0.0
 11
-8.846498212153922
 21
-12.89770969184895
 31
0.0
  0
LINE
  5
8E
330
17
100
AcDbEntity
  8
0
100
AcDbLine
 10
-8.846498212153922
 20
-12.89770969184895
 30
0.0
 11
-8.93326366469984
 21
-13.147057779204811
 31
0.0
  0
LINE
  5
8F
330
17
100
AcDbEntity
  8
0
100
AcDbLine
 10
-8.93326366469984
 20
-13.147057779204811
 30
0.0
 11
-9.802133735344237
 21
-13.319886781902019
 31
0.0
  0
LINE
  5
90
330
17
100
AcDbEntity
  8
0
100
AcDbLine
 10
-9.802133735344237
 20
-13.319886781902019
 30
0.0
 11
-9.977715943003501
 21
-13.122722888714085
 31
0.0
  0
LINE
  5
91
330
17
100
AcDbEntity
  8
0
100
AcDbLine
 10
-9.977715943003501
 20
-13.122722888714085
 30
0.0
 11
-10.143016076436583
 21
-12.922518491584803
 31
0.0
  0
LINE
  5
92
330
17
100
AcDbEntity
  8
0
100
AcDbLine
 10
-10.143016076436583
 20
-12.922518491584803
 30
0.0
 11
-10.29769310969193
 21
-12.719485255343232
 31
0.0
  0
LINE
  5
93
330
17
100
AcDbEntity
  8
0
100
AcDbLine
 10
-10.29769310969193
 20
-12.719485255343232
 30
0.0
 11
-10.441332562102984
 21
-12.513827791490595
 31
0.0
  0
LINE
  5
94
330
17
100
AcDbEntity
  8
0
100
AcDbLine
 10
-10.441332562102984
 20
-12.513827791490595
 30
0.0
 11
-10.573411712417482
 21
-12.305740453850493
 31
0.0
  0
LINE
  5
95
330
17
100
AcDbEntity
  8
0
100
AcDbLine
 10
-10.573411712417482
 20
-12.305740453850493
 30
0.0
 11
-10.693240228429179
 21
-12.095401979982325
 31
0.0
  0
LINE
  5
96
330
17
100
AcDbEntity
  8
0
100
AcDbLine
 10
-10.693240228429179
 20
-12.095401979982325
 30
0.0
 11
-10.799848482627867
 21
-11.882965547659394
 31
0.0
  0
LINE
  5
97
330
17
100
AcDbEntity
  8
0
100
AcDbLine
 10
-10.799848482627867
 20
-11.882965547659394
 30
0.0
 11
-10.891744274127703
 21
-11.668537296788115
 31
0.0
  0
LINE
  5
98
330
17
100
AcDbEntity
  8
0
100
AcDbLine
 10
-10.891744274127703
 20
-11.668537296788115
 30
0.0
 11
-10.966228357538677
 21
-11.452116177198812
 31
0.0
  0
LINE
  5
99
330
17
100
AcDbEntity
  8
0
100
AcDbLine
 10
-10.966228357538677
 20
-11.452116177198812
 30
0.0
 11
-11.015288401474928
 21
-11.233233860838855
 31
0.0
  0
LINE
  5
9A
330
17
100
AcDbEntity
  8
0
100
AcDbLine
 10
-11.015288401474928
 20
-11.233233860838855
 30
0.0
 11
-11.115827460089395
 21
-10.086320633395907
 31
0.0
  0
LINE
  5
9B
330
17
100
AcDbEntity
  8
0
100
AcDbLine
 10
-11.115827460089395
 20
-10.086320633395907
 30
0.0
 11
-11.557490911468243
 21
-10.115325536361485
 31
0.0
  0
LINE
  5
9C
330
17
100
AcDbEntity
  8
0
100
AcDbLine
 10
-11.557490911468243
 20
-10.115325536361485
 30
0.0
 11
-12.000000000000002
 21
-10.125
 31
0.0
  0
LINE
  5
9D
330
17
100
AcDbEntity
  8
0
100
AcDbLine
 10
-12.000000000000002
 20
-10.125
 30
0.0
 11
-12.442509088531772
 21
-10.115325536361485
 31
0.0
  0
LINE
  5
9E
330
17
100
AcDbEntity
  8
0
100
AcDbLine
 10
-12.442509088531772
 20
-10.115325536361485
 30
0.0
 11
-12.884172539910608
 21
-10.086320633395907
 31
0.0
  0
LINE
  5
9F
330
17
100
AcDbEntity
  8
0
100
AcDbLine
 10
-12.884172539910608
 20
-10.086320633395907
 30
0.0
 11
-12.984711598525077
 21
-11.233233860838855
 31
0.0
  0
LINE
  5
A0
330
17
100
AcDbEntity
  8
0
100
AcDbLine
 10
-12.984711598525077
 20
-11.233233860838855
 30
0.0
 11
-13.033771642461328
 21
-11.45211617719881
 31
0.0
  0
LINE
  5
A1
330
17
100
AcDbEntity
  8
0
100
AcDbLine
 10
-13.033771642461328
 20
-11.45211617719881
 30
0.0
 11
-13.1082557258723
 21
-11.668537296788115
 31
0.0
  0
LINE
  5
A2
330
17
100
AcDbEntity
  8
0
100
AcDbLine
 10
-13.1082557258723
 20
-11.668537296788115
 30
0.0
 11
-13.200151517372138
 21
-11.882965547659394
 31
0.0
  0
LINE
  5
A3
330
17
100
AcDbEntity
  8
0
100
AcDbLine
 10
-13.200151517372138
 20
-11.882965547659394
 30
0.0
 11
-13.306759771570825
 21
-12.095401979982324
 31
0.0
  0
LINE
  5
A4
330
17
100
AcDbEntity
  8
0
100
AcDbLine
 10
-13.306759771570825
 20
-12.095401979982324
 30
0.0
 11
-13.426588287582524
 21
-12.305740453850493
 31
0.0
  0
LINE
  5
A5
330
17
100
AcDbEntity
  8
0
100
AcDbLine
 10
-13.426588287582524
 20
-12.305740453850493
 30
0.0
 11
-13.558667437897022
 21
-12.513827791490595
 31
0.0
  0
LINE
  5
A6
330
17
100
AcDbEntity
  8
0
100
AcDbLine
 10
-13.558667437897022
 20
-12.513827791490595
 30
0.0
 11
-13.702306890308073
 21
-12.71948525534323
 31
0.0
  0
LINE
  5
A7
330
17
100
AcDbEntity
  8
0
100
AcDbLine
 10
-13.702306890308073
 20
-12.71948525534323
 30
0.0
 11
-13.856983923563423
 21
-12.922518491584801
 31
0.0
  0
LINE
  5
A8
330
17
100
AcDbEntity
  8
0
100
AcDbLine
 10
-13.856983923563423
 20
-12.922518491584801
 30
0.0
 11
-14.022284056996504
 21
-13.122722888714083
 31
0.0
  0
LINE
  5
A9
330
17
100
AcDbEntity
  8
0
100
AcDbLine
 10
-14.022284056996504
 20
-13.122722888714083
 30
0.0
 11
-14.197866264655769
 21
-13.319886781902017
 31
0.0
  0
LINE
  5
AA
330
17
100
AcDbEntity
  8
0
100
AcDbLine
 10
-14.197866264655769
 20
-13.319886781902017
 30
0.0
 11
-15.066736335300165
 21
-13.147057779204811
 31
0.0
  0
LINE
  5
AB
330
17
100
AcDbEntity
  8
0
100
AcDbLine
 10
-15.066736335300165
 20
-13.147057779204811
 30
0.0
 11
-15.153501787846084
 21
-12.897709691848949
 31
0.0
  0
LINE
  5
AC
330
17
100
AcDbEntity
  8
0
100
AcDbLine
 10
-15.153501787846084
 20
-12.897709691848949
 30
0.0
 11
-15.229604291978275
 21
-12.649487324589865
 31
0.0
  0
LINE
  5
AD
330
17
100
AcDbEntity
  8
0
100
AcDbLine
 10
-15.229604291978275
 20
-12.649487324589865
 30
0.0
 11
-15.294809781423343
 21
-12.402716735212541
 31
0.0
  0
LINE
  5
AE
330
17
100
AcDbEntity
  8
0
100
AcDbLine
 10
-15.294809781423343
 20
-12.402716735212541
 30
0.0
 11
-15.348813627408417
 21
-12.15774557497921
 31
0.0
  0
LINE
  5
AF
330
17
100
AcDbEntity
  8
0
100
AcDbLine
 10
-15.348813627408417
 20
-12.15774557497921
 30
0.0
 11
-15.391207274455635
 21
-11.914953440172535
 31
0.0
  0
LINE
  5
B0
330
17
100
AcDbEntity
  8
0
100
AcDbLine
 10
-15.391207274455635
 20
-11.914953440172535
 30
0.0
 11
-15.421421338671738
 21
-11.674769641463504
 31
0.0
  0
LINE
  5
B1
330
17
100
AcDbEntity
  8
0
100
AcDbLine
 10
-15.421421338671738
 20
-11.674769641463504
 30
0.0
 11
-15.438618619641932
 21
-11.437706757045426
 31
0.0
  0
LINE
  5
B2
330
17
100
AcDbEntity
  8
0
100
AcDbLine
 10
-15.438618619641932
 20
-11.437706757045426
 30
0.0
 11
-15.441461121493093
 21
-11.20443388796219
 31
0.0
  0
LINE
  5
B3
330
17
100
AcDbEntity
  8
0
100
AcDbLine
 10
-15.441461121493093
 20
-11.20443388796219
 30
0.0
 11
-15.427454664773624
 21
-10.975983020474176
 31
0.0
  0
LINE
  5
B4
330
17
100
AcDbEntity
  8
0
100
AcDbLine
 10
-15.427454664773624
 20
-10.975983020474176
 30
0.0
 11
-15.38901759912178
 21
-10.754987662355047
 31
0.0
  0
LINE
  5
B5
330
17
100
AcDbEntity
  8
0
100
AcDbLine
 10
-15.38901759912178
 20
-10.754987662355047
 30
0.0
 11
-15.04299888709085
 21
-9.656903373916705
 31
0.0
  0
LINE
  5
B6
330
17
100
AcDbEntity
  8
0
100
AcDbLine
 10
-15.04299888709085
 20
-9.656903373916705
 30
0.0
 11
-15.462142405900327
 21
-9.514683124585217
 31
0.0
  0
LINE
  5
B7
330
17
100
AcDbEntity
  8
0
100
AcDbLine
 10
-15.462142405900327
 20
-9.514683124585217
 30
0.0
 11
-15.874669752696532
 21
-9.35428026667678
 31
0.0
  0
LINE
  5
B8
330
17
100
AcDbEntity
  8
0
100
AcDbLine
 10
-15.874669752696532
 20
-9.35428026667678
 30
0.0
 11
-16.27979258558978
 21
-9.176001330881046
 31
0.0
  0
LINE
  5
B9
330
17
100
AcDbEntity
  8
0
100
AcDbLine
 10
-16.27979258558978
 20
-9.176001330881046
 30
0.0
 11
-16.6767367127547
 21
-8.980187009164808
 31
0.0
  0
LINE
  5
BA
330
17
100
AcDbEntity
  8
0
100
AcDbLine
 10
-16.6767367127547
 20
-8.980187009164808
 30
0.0
 11
-17.208527381729347
 21
-10.00132203352847
 31
0.0
  0
LINE
  5
BB
330
17
100
AcDbEntity
  8
0
100
AcDbLine
 10
-17.208527381729347
 20
-10.00132203352847
 30
0.0
 11
-17.337615588294803
 21
-10.184768459636587
 31
0.0
  0
LINE
  5
BC
330
17
100
AcDbEntity
  8
0
100
AcDbLine
 10
-17.337615588294803
 20
-10.184768459636587
 30
0.0
 11
-17.489250685336795
 21
-10.356211677732043
 31
0.0
  0
LINE
  5
BD
330
17
100
AcDbEntity
  8
0
100
AcDbLine
 10
-17.489250685336795
 20
-10.356211677732043
 30
0.0
 11
-17.656209465266883
 21
-10.51915055299315
 31
0.0
  0
LINE
  5
BE
330
17
100
AcDbEntity
  8
0
100
AcDbLine
 10
-17.656209465266883
 20
-10.51915055299315
 30
0.0
 11
-17.835998552398543
 21
-10.67461901214082
 31
0.0
  0
LINE
  5
BF
330
17
100
AcDbEntity
  8
0
100
AcDbLine
 10
-17.835998552398543
 20
-10.67461901214082
 30
0.0
 11
-18.027198714891256
 21
-10.82309003524471
 31
0.0
  0
LINE
  5
C0
330
17
100
AcDbEntity
  8
0
100
AcDbLine
 10
-18.027198714891256
 20
-10.82309003524471
 30
0.0
 11
-18.228855515138132
 21
-10.96479316487895
 31
0.0
  0
LINE
  5
C1
330
17
100
AcDbEntity
  8
0
100
AcDbLine
 10
-18.228855515138132
 20
-10.96479316487895
 30
0.0
 11
-18.44026276944046
 21
-11.099827447768874
 31
0.0
  0
LINE
  5
C2
330
17
100
AcDbEntity
  8
0
100
AcDbLine
 10
-18.44026276944046
 20
-11.099827447768874
 30
0.0
 11
-18.66086317034376
 21
-11.228213361157785
 31
0.0
  0
LINE
  5
C3
330
17
100
AcDbEntity
  8
0
100
AcDbLine
 10
-18.66086317034376
 20
-11.228213361157785
 30
0.0
 11
-18.890195486211987
 21
-11.349920483551713
 31
0.0
  0
LINE
  5
C4
330
17
100
AcDbEntity
  8
0
100
AcDbLine
 10
-18.890195486211987
 20
-11.349920483551713
 30
0.0
 11
-19.12786364952515
 21
-11.464883767128999
 31
0.0
  0
LINE
  5
C5
330
17
100
AcDbEntity
  8
0
100
AcDbLine
 10
-19.12786364952515
 20
-11.464883767128999
 30
0.0
 11
-19.86445612824074
 21
-10.972708407999216
 31
0.0
  0
LINE
  5
C6
330
17
100
AcDbEntity
  8
0
100
AcDbLine
 10
-19.86445612824074
 20
-10.972708407999216
 30
0.0
 11
-19.84919557205398
 21
-10.709137112429318
 31
0.0
  0
LINE
  5
C7
330
17
100
AcDbEntity
  8
0
100
AcDbLine
 10
-19.84919557205398
 20
-10.709137112429318
 30
0.0
 11
-19.824514530502075
 21
-10.450686380314263
 31
0.0
  0
LINE
  5
C8
330
17
100
AcDbEntity
  8
0
100
AcDbLine
 10
-19.824514530502075
 20
-10.450686380314263
 30
0.0
 11
-19.790321531458083
 21
-10.197747023052925
 31
0.0
  0
LINE
  5
C9
330
17
100
AcDbEntity
  8
0
100
AcDbLine
 10
-19.790321531458083
 20
-10.197747023052925
 30
0.0
 11
-19.746468175012033
 21
-9.95075680491532
 31
0.0
  0
LINE
  5
CA
330
17
100
AcDbEntity
  8
0
100
AcDbLine
 10
-19.746468175012033
 20
-9.95075680491532
 30
0.0
 11
-19.692722270328403
 21
-9.71022277455021
 31
0.0
  0
LINE
  5
CB
330
17
100
AcDbEntity
  8
0
100
AcDbLine
 10
-19.692722270328403
 20
-9.71022277455021
 30
0.0
 11
-19.628722065363185
 21
-9.476759457082206
 31
0.0
  0
LINE
  5
CC
330
17
100
AcDbEntity
  8
0
100
AcDbLine
 10
-19.628722065363185
 20
-9.476759457082206
 30
0.0
 11
-19.553890242970915
 21
-9.251160795741235
 31
0.0
  0
LINE
  5
CD
330
17
100
AcDbEntity
  8
0
100
AcDbLine
 10
-19.553890242970915
 20
-9.251160795741235
 30
0.0
 11
-19.4672467100339
 21
-9.034556988140142
 31
0.0
  0
LINE
  5
CE
330
17
100
AcDbEntity
  8
0
100
AcDbLine
 10
-19.4672467100339
 20
-9.034556988140142
 30
0.0
 11
-19.366882069250686
 21
-8.8288559464162
 31
0.0
  0
LINE
  5
CF
330
17
100
AcDbEntity
  8
0
100
AcDbLine
 10
-19.366882069250686
 20
-8.8288559464162
 30
0.0
 11
-19.24679958882337
 21
-8.639392086483621
 31
0.0
  0
LINE
  5
D0
330
17
100
AcDbEntity
  8
0
100
AcDbLine
 10
-19.24679958882337
 20
-8.639392086483621
 30
0.0
 11
-18.50690131838632
 21
-7.757310115805762
 31
0.0
  0
LINE
  5
D1
330
17
100
AcDbEntity
  8
0
100
AcDbLine
 10
-18.50690131838632
 20
-7.757310115805762
 30
0.0
 11
-18.839714103433167
 21
-7.465516457908149
 31
0.0
  0
LINE
  5
D2
330
17
100
AcDbEntity
  8
0
100
AcDbLine
 10
-18.839714103433167
 20
-7.465516457908149
 30
0.0
 11
-19.159456159513795
 21
-7.159456159513793
 31
0.0
  0
LINE
  5
D3
330
17
100
AcDbEntity
  8
0
100
AcDbLine
 10
-19.159456159513795
 20
-7.159456159513793
 30
0.0
 11
-19.46551645790815
 21
-6.839714103433164
 31
0.0
  0
LINE
  5
D4
330
17
100
AcDbEntity
  8
0
100
AcDbLine
 10
-19.46551645790815
 20
-6.839714103433164
 30
0.0
 11
-19.757310115805765
 21
-6.506901318386315
 31
0.0
  0
LINE
  5
D5
330
17
100
AcDbEntity
  8
0
100
AcDbLine
 10
-19.757310115805765
 20
-6.506901318386315
 30
0.0
 11
-20.639392086483625
 21
-7.246799588823371
 31
0.0
  0
LINE
  5
D6
330
17
100
AcDbEntity
  8
0
100
AcDbLine
 10
-20.639392086483625
 20
-7.246799588823371
 30
0.0
 11
-20.828855946416198
 21
-7.366882069250681
 31
0.0
  0
LINE
  5
D7
330
17
100
AcDbEntity
  8
0
100
AcDbLine
 10
-20.828855946416198
 20
-7.366882069250681
 30
0.0
 11
-21.034556988140146
 21
-7.4672467100338995
 31
0.0
  0
LINE
  5
D8
330
17
100
AcDbEntity
  8
0
100
AcDbLine
 10
-21.034556988140146
 20
-7.4672467100338995
 30
0.0
 11
-21.251160795741235
 21
-7.553890242970916
 31
0.0
  0
LINE
  5
D9
330
17
100
AcDbEntity
  8
0
100
AcDbLine
 10
-21.251160795741235
 20
-7.553890242970916
 30
0.0
 11
-21.47675945708221
 21
-7.628722065363178
 31
0.0
  0
LINE
  5
DA
330
17
100
AcDbEntity
  8
0
100
AcDbLine
 10
-21.47675945708221
 20
-7.628722065363178
 30
0.0
 11
-21.710222774550218
 21
-7.692722270328396
 31
0.0
  0
LINE
  5
DB
330
17
100
AcDbEntity
  8
0
100
AcDbLine
 10
-21.710222774550218
 20
-7.692722270328396
 30
0.0
 11
-21.950756804915326
 21
-7.746468175012028
 31
0.0
  0
LINE
  5
DC
330
17
100
AcDbEntity
  8
0
100
AcDbLine
 10
-21.950756804915326
 20
-7.746468175012028
 30
0.0
 11
-22.197747023052926
 21
-7.790321531458081
 31
0.0
  0
LINE
  5
DD
330
17
100
AcDbEntity
  8
0
100
AcDbLine
 10
-22.197747023052926
 20
-7.790321531458081
 30
0.0
 11
-22.450686380314266
 21
-7.8245145305020705
 31
0.0
  0
LINE
  5
DE
330
17
100
AcDbEntity
  8
0
100
AcDbLine
 10
-22.450686380314266
 20
-7.8245145305020705
 30
0.0
 11
-22.709137112429318
 21
-7.849195572053978
 31
0.0
  0
LINE
  5
DF
330
17
100
AcDbEntity
  8
0
100
AcDbLine
 10
-22.709137112429318
 20
-7.849195572053978
 30
0.0
 11
-22.97270840799922
 21
-7.864456128240731
 31
0.0
  0
LINE
  5
E0
330
17
100
AcDbEntity
  8
0
100
AcDbLine
 10
-22.97270840799922
 20
-7.864456128240731
 30
0.0
 11
-23.464883767129
 21
-7.12786364952515
 31
0.0
  0
LINE
  5
E1
330
17
100
AcDbEntity
  8
0
100
AcDbLine
 10
-23.464883767129
 20
-7.12786364952515
 30
0.0
 11
-23.349920483551713
 21
-6.890195486211981
 31
0.0
  0
LINE
  5
E2
330
17
100
AcDbEntity
  8
0
100
AcDbLine
 10
-23.349920483551713
 20
-6.890195486211981
 30
0.0
 11
-23.22821336115779
 21
-6.660863170343756
 31
0.0
  0
LINE
  5
E3
330
17
100
AcDbEntity
  8
0
100
AcDbLine
 10
-23.22821336115779
 20
-6.660863170343756
 30
0.0
 11
-23.099827447768877
 21
-6.440262769440453
 31
0.0
  0
LINE
  5
E4
330
17
100
AcDbEntity
  8
0
100
AcDbLine
 10
-23.099827447768877
 20
-6.440262769440453
 30
0.0
 11
-22.964793164878948
 21
-6.228855515138134
 31
0.0
  0
LINE
  5
E5
330
17
100
AcDbEntity
  8
0
100
AcDbLine
 10
-22.964793164878948
 20
-6.228855515138134
 30
0.0
 11
-22.82309003524471
 21
-6.027198714891259
 31
0.0
  0
LINE
  5
E6
330
17
100
AcDbEntity
  8
0
100
AcDbLine
 10
-22.82309003524471
 20
-6.027198714891259
 30
0.0
 11
-22.67461901214082
 21
-5.835998552398546
 31
0.0
  0
LINE
  5
E7
330
17
100
AcDbEntity
  8
0
100
AcDbLine
 10
-22.67461901214082
 20
-5.835998552398546
 30
0.0
 11
-22.519150552993153
 21
-5.656209465266875
 31
0.0
  0
LINE
  5
E8
330
17
100
AcDbEntity
  8
0
100
AcDbLine
 10
-22.519150552993153
 20
-5.656209465266875
 30
0.0
 11
-22.356211677732045
 21
-5.489250685336792
 31
0.0
  0
LINE
  5
E9
330
17
100
AcDbEntity
  8
0
100
AcDbLine
 10
-22.356211677732045
 20
-5.489250685336792
 30
0.0
 11
-22.184768459636587
 21
-5.337615588294801
 31
0.0
  0
LINE
  5
EA
330
17
100
AcDbEntity
  8
0
100
AcDbLine
 10
-22.184768459636587
 20
-5.337615588294801
 30
0.0
 11
-22.00132203352847
 21
-5.208527381729344
 31
0.0
  0
LINE
  5
EB
330
17
100
AcDbEntity
  8
0
100
AcDbLine
 10
-22.00132203352847
 20
-5.208527381729344
 30
0.0
 11
-20.98018700916481
 21
-4.676736712754696
 31
0.0
  0
LINE
  5
EC
330
17
100
AcDbEntity
  8
0
100
AcDbLine
 10
-20.98018700916481
 20
-4.676736712754696
 30
0.0
 11
-21.176001330881046
 21
-4.279792585589781
 31
0.0
  0
LINE
  5
ED
330
17
100
AcDbEntity
  8
0
100
AcDbLine
 10
-21.176001330881046
 20
-4.279792585589781
 30
0.0
 11
-21.354280266676778
 21
-3.874669752696537
 31
0.0
  0
LINE
  5
EE
330
17
100
AcDbEntity
  8
0
100
AcDbLine
 10
-21.354280266676778
 20
-3.874669752696537
 30
0.0
 11
-21.514683124585215
 21
-3.4621424059003325
 31
0.0
  0
LINE
  5
EF
330
17
100
AcDbEntity
  8
0
100
AcDbLine
 10
-21.514683124585215
 20
-3.4621424059003325
 30
0.0
 11
-21.656903373916705
 21
-3.0429988870908464
 31
0.0
  0
LINE
  5
F0
330
17
100
AcDbEntity
  8
0
100
AcDbLine
 10
-21.656903373916705
 20
-3.0429988870908464
 30
0.0
 11
-22.75498766235505
 21
-3.389017599121778
 31
0.0
  0
LINE
  5
F1
330
17
100
AcDbEntity
  8
0
100
AcDbLine
 10
-22.75498766235505
 20
-3.389017599121778
 30
0.0
 11
-22.975983020474178
 21
-3.4274546647736206
 31
0.0
  0
LINE
  5
F2
330
17
100
AcDbEntity
  8
0
100
AcDbLine
 10
-22.975983020474178
 20
-3.4274546647736206
 30
0.0
 11
-23.20443388796219
 21
-3.4414611214930897
 31
0.0
  0
LINE
  5
F3
330
17
100
AcDbEntity
  8
0
100
AcDbLine
 10
-23.20443388796219
 20
-3.4414611214930897
 30
0.0
 11
-23.437706757045426
 21
-3.438618619641934
 31
0.0
  0
LINE
  5
F4
330
17
100
AcDbEntity
  8
0
100
AcDbLine
 10
-23.437706757045426
 20
-3.438618619641934
 30
0.0
 11
-23.674769641463506
 21
-3.4214213386717294
 31
0.0
  0
LINE
  5
F5
330
17
100
AcDbEntity
  8
0
100
AcDbLine
 10
-23.674769641463506
 20
-3.4214213386717294
 30
0.0
 11
-23.91495344017254
 21
-3.3912072744556263
 31
0.0
  0
LINE
  5
F6
330
17
100
AcDbEntity
  8
0
100
AcDbLine
 10
-23.91495344017254
 20
-3.3912072744556263
 30
0.0
 11
-24.15774557497921
 21
-3.3488136274084077
 31
0.0
  0
LINE
  5
F7
330
17
100
AcDbEntity
  8
0
100
AcDbLine
 10
-24.15774557497921
 20
-3.3488136274084077
 30
0.0
 11
-24.402716735212543
 21
-3.2948097814233384
 31
0.0
  0
LINE
  5
F8
330
17
100
AcDbEntity
  8
0
100
AcDbLine
 10
-24.402716735212543
 20
-3.2948097814233384
 30
0.0
 11
-24.649487324589863
 21
-3.2296042919782706
 31
0.0
  0
LINE
  5
F9
330
17
100
AcDbEntity
  8
0
100
AcDbLine
 10
-24.649487324589863
 20
-3.2296042919782706
 30
0.0
 11
-24.897709691848952
 21
-3.1535017878460794
 31
0.0
  0
LINE
  5
FA
330
17
100
AcDbEntity
  8
0
100
AcDbLine
 10
-24.897709691848952
 20
-3.1535017878460794
 30
0.0
 11
-25.147057779204815
 21
-3.0667363353001553
 31
0.0
  0
LINE
  5
FB
330
17
100
AcDbEntity
  8
0
100
AcDbLine
 10
-25.147057779204815
 20
-3.0667363353001553
 30
0.0
 11
-25.319886781902017
 21
-2.1978662646557705
 31
0.0
  0
LINE
  5
FC
330
17
100
AcDbEntity
  8
0
100
AcDbLine
 10
-25.319886781902017
 20
-2.1978662646557705
 30
0.0
 11
-25.122722888714087
 21
-2.0222840569965
 31
0.0
  0
LINE
  5
FD
330
17
100
AcDbEntity
  8
0
100
AcDbLine
 10
-25.122722888714087
 20
-2.0222840569965
 30
0.0
 11
-24.922518491584803
 21
-1.856983923563419
 31
0.0
  0
LINE
  5
FE
330
17
100
AcDbEntity
  8
0
100
AcDbLine
 10
-24.922518491584803
 20
-1.856983923563419
 30
0.0
 11
-24.71948525534323
 21
-1.7023068903080691
 31
0.0
  0
LINE
  5
FF
330
17
100
AcDbEntity
  8
0
100
AcDbLine
 10
-24.71948525534323
 20
-1.7023068903080691
 30
0.0
 11
-24.513827791490595
 21
-1.558667437897023
 31
0.0
  0
LINE
  5
100
330
17
100
AcDbEntity
  8
0
100
AcDbLine
 10
-24.513827791490595
 20
-1.558667437897023
 30
0.0
 11
-24.305740453850493
 21
-1.4265882875825249
 31
0.0
  0
LINE
  5
101
330
17
100
AcDbEntity
  8
0
100
AcDbLine
 10
-24.305740453850493
 20
-1.4265882875825249
 30
0.0
 11
-24.095401979982324
 21
-1.3067597715708268
 31
0.0
  0
LINE
  5
102
330
17
100
AcDbEntity
  8
0
100
AcDbLine
 10
-24.095401979982324
 20
-1.3067597715708268
 30
0.0
 11
-23.882965547659396
 21
-1.2001515173721287
 31
0.0
  0
LINE
  5
103
330
17
100
AcDbEntity
  8
0
100
AcDbLine
 10
-23.882965547659396
 20
-1.2001515173721287
 30
0.0
 11
-23.668537296788116
 21
-1.1082557258722971
 31
0.0
  0
LINE
  5
104
330
17
100
AcDbEntity
  8
0
100
AcDbLine
 10
-23.668537296788116
 20
-1.1082557258722971
 30
0.0
 11
-23.45211617719881
 21
-1.0337716424613244
 31
0.0
  0
LINE
  5
105
330
17
100
AcDbEntity
  8
0
100
AcDbLine
 10
-23.45211617719881
 20
-1.0337716424613244
 30
0.0
 11
-23.233233860838855
 21
-0.9847115985250731
 31
0.0
  0
LINE
  5
106
330
17
100
AcDbEntity
  8
0
100
AcDbLine
 10
-23.233233860838855
 20
-0.9847115985250731
 30
0.0
 11
-22.086320633395907
 21
-0.8841725399106058
 31
0.0
  0
LINE
  5
107
330
17
100
AcDbEntity
  8
0
100
AcDbLine
 10
-22.086320633395907
 20
-0.8841725399106058
 30
0.0
 11
-22.115325536361485
 21
-0.4425090885317633
 31
0.0
  0
LINE
  5
108
330
17
100
AcDbEntity
  8
0
100
AcDbLine
 10
-22.115325536361485
 20
-0.4425090885317633
 30
0.0
 11
-22.125
 21
1.2399548841366951e-15
 31
0.0
  0
LINE
  5
109
330
17
100
AcDbEntity
  8
0
100
AcDbLine
 10
-22.125
 20
1.2399548841366951e-15
 30
0.0
 11
-22.115325536361485
 21
0.4425090885317703
 31
0.0
  0
LINE
  5
10A
330
17
100
AcDbEntity
  8
0
100
AcDbLine
 10
-22.115325536361485
 20
0.4425090885317703
 30
0.0
 11
-22.086320633395907
 21
0.8841725399106084
 31
0.0
  0
LINE
  5
10B
330
17
100
AcDbEntity
  8
0
100
AcDbLine
 10
-22.086320633395907
 20
0.8841725399106084
 30
0.0
 11
-23.233233860838855
 21
0.984711598525076
 31
0.0
  0
LINE
  5
10C
330
17
100
AcDbEntity
  8
0
100
AcDbLine
 10
-23.233233860838855
 20
0.984711598525076
 30
0.0
 11
-23.45211617719881
 21
1.0337716424613272
 31
0.0
  0
LINE
  5
10D
330
17
100
AcDbEntity
  8
0
100
AcDbLine
 10
-23.45211617719881
 20
1.0337716424613272
 30
0.0
 11
-23.668537296788116
 21
1.1082557258723
 31
0.0
  0
LINE
  5
10E
330
17
100
AcDbEntity
  8
0
100
AcDbLine
 10
-23.668537296788116
 20
1.1082557258723
 30
0.0
 11
-23.882965547659396
 21
1.2001515173721318
 31
0.0
  0
LINE
  5
10F
330
17
100
AcDbEntity
  8
0
100
AcDbLine
 10
-23.882965547659396
 20
1.2001515173721318
 30
0.0
 11
-24.095401979982324
 21
1.3067597715708297
 31
0.0
  0
LINE
  5
110
330
17
100
AcDbEntity
  8
0
100
AcDbLine
 10
-24.095401979982324
 20
1.3067597715708297
 30
0.0
 11
-24.30574045385049
 21
1.426588287582528
 31
0.0
  0
LINE
  5
111
330
17
100
AcDbEntity
  8
0
100
AcDbLine
 10
-24.30574045385049
 20
1.426588287582528
 30
0.0
 11
-24.513827791490595
 21
1.5586674378970262
 31
0.0
  0
LINE
  5
112
330
17
100
AcDbEntity
  8
0
100
AcDbLine
 10
-24.513827791490595
 20
1.5586674378970262
 30
0.0
 11
-24.71948525534323
 21
1.7023068903080725
 31
0.0
  0
LINE
  5
113
330
17
100
AcDbEntity
  8
0
100
AcDbLine
 10
-24.71948525534323
 20
1.7023068903080725
 30
0.0
 11
-24.922518491584803
 21
1.856983923563422
 31
0.0
  0
LINE
  5
114
330
17
100
AcDbEntity
  8
0
100
AcDbLine
 10
-24.922518491584803
 20
1.856983923563422
 30
0.0
 11
-25.122722888714087
 21
2.022284056996503
 31
0.0
  0
LINE
  5
115
330
17
100
AcDbEntity
  8
0
100
AcDbLine
 10
-25.122722888714087
 20
2.022284056996503
 30
0.0
 11
-25.319886781902017
 21
2.197866264655774
 31
0.0
  0
LINE
  5
116
330
17
100
AcDbEntity
  8
0
100
AcDbLine
 10
-25.319886781902017
 20
2.197866264655774
 30
0.0
 11
-25.147057779204815
 21
3.066736335300158
 31
0.0
  0
LINE
  5
117
330
17
100
AcDbEntity
  8
0
100
AcDbLine
 10
-25.147057779204815
 20
3.066736335300158
 30
0.0
 11
-24.89770969184895
 21
3.1535017878460825
 31
0.0
  0
LINE
  5
118
330
17
100
AcDbEntity
  8
0
100
AcDbLine
 10
-24.89770969184895
 20
3.1535017878460825
 30
0.0
 11
-24.649487324589863
 21
3.2296042919782733
 31
0.0
  0
LINE
  5
119
330
17
100
AcDbEntity
  8
0
100
AcDbLine
 10
-24.649487324589863
 20
3.2296042919782733
 30
0.0
 11
-24.402716735212543
 21
3.2948097814233415
 31
0.0
  0
LINE
  5
11A
330
17
100
AcDbEntity
  8
0
100
AcDbLine
 10
-24.402716735212543
 20
3.2948097814233415
 30
0.0
 11
-24.15774557497921
 21
3.3488136274084104
 31
0.0
  0
LINE
  5
11B
330
17
100
AcDbEntity
  8
0
100
AcDbLine
 10
-24.15774557497921
 20
3.3488136274084104
 30
0.0
 11
-23.91495344017254
 21
3.391207274455629
 31
0.0
  0
LINE
  5
11C
330
17
100
AcDbEntity
  8
0
100
AcDbLine
 10
-23.91495344017254
 20
3.391207274455629
 30
0.0
 11
-23.674769641463506
 21
3.421421338671732
 31
0.0
  0
LINE
  5
11D
330
17
100
AcDbEntity
  8
0
100
AcDbLine
 10
-23.674769641463506
 20
3.421421338671732
 30
0.0
 11
-23.437706757045426
 21
3.4386186196419377
 31
0.0
  0
LINE
  5
11E
330
17
100
AcDbEntity
  8
0
100
AcDbLine
 10
-23.437706757045426
 20
3.4386186196419377
 30
0.0
 11
-23.20443388796219
 21
3.4414611214930924
 31
0.0
  0
LINE
  5
11F
330
17
100
AcDbEntity
  8
0
100
AcDbLine
 10
-23.20443388796219
 20
3.4414611214930924
 30
0.0
 11
-22.975983020474175
 21
3.4274546647736233
 31
0.0
  0
LINE
  5
120
330
17
100
AcDbEntity
  8
0
100
AcDbLine
 10
-22.975983020474175
 20
3.4274546647736233
 30
0.0
 11
-22.75498766235505
 21
3.3890175991217806
 31
0.0
  0
LINE
  5
121
330
17
100
AcDbEntity
  8
0
100
AcDbLine
 10
-22.75498766235505
 20
3.3890175991217806
 30
0.0
 11
-21.656903373916705
 21
3.0429988870908486
 31
0.0
  0
LINE
  5
122
330
17
100
AcDbEntity
  8
0
100
AcDbLine
 10
-21.656903373916705
 20
3.0429988870908486
 30
0.0
 11
-21.514683124585215
 21
3.4621424059003307
 31
0.0
  0
LINE
  5
123
330
17
100
AcDbEntity
  8
0
100
AcDbLine
 10
-21.514683124585215
 20
3.4621424059003307
 30
0.0
 11
-21.35428026667678
 21
3.874669752696531
 31
0.0
  0
LINE
  5
124
330
17
100
AcDbEntity
  8
0
100
AcDbLine
 10
-21.35428026667678
 20
3.874669752696531
 30
0.0
 11
-21.176001330881046
 21
4.279792585589779
 31
0.0
  0
LINE
  5
125
330
17
100
AcDbEntity
  8
0
100
AcDbLine
 10
-21.176001330881046
 20
4.279792585589779
 30
0.0
 11
-20.98018700916481
 21
4.676736712754698
 31
0.0
  0
LINE
  5
126
330
17
100
AcDbEntity
  8
0
100
AcDbLine
 10
-20.98018700916481
 20
4.676736712754698
 30
0.0
 11
-22.00132203352847
 21
5.208527381729347
 31
0.0
  0
LINE
  5
127
330
17
100
AcDbEntity
  8
0
100
AcDbLine
 10
-22.00132203352847
 20
5.208527381729347
 30
0.0
 11
-22.184768459636587
 21
5.3376155882948035
 31
0.0
  0
LINE
  5
128
330
17
100
AcDbEntity
  8
0
100
AcDbLine
 10
-22.184768459636587
 20
5.3376155882948035
 30
0.0
 11
-22.35621167773204
 21
5.489250685336795
 31
0.0
  0
LINE
  5
129
330
17
100
AcDbEntity
  8
0
100
AcDbLine
 10
-22.35621167773204
 20
5.489250685336795
 30
0.0
 11
-22.519150552993153
 21
5.656209465266878
 31
0.0
  0
LINE
  5
12A
330
17
100
AcDbEntity
  8
0
100
AcDbLine
 10
-22.519150552993153
 20
5.656209465266878
 30
0.0
 11
-22.67461901214082
 21
5.835998552398547
 31
0.0
  0
LINE
  5
12B
330
17
100
AcDbEntity
  8
0
100
AcDbLine
 10
-22.67461901214082
 20
5.835998552398547
 30
0.0
 11
-22.823090035244707
 21
6.027198714891262
 31
0.0
  0
LINE
  5
12C
330
17
100
AcDbEntity
  8
0
100
AcDbLine
 10
-22.823090035244707
 20
6.027198714891262
 30
0.0
 11
-22.964793164878948
 21
6.228855515138136
 31
0.0
  0
LINE
  5
12D
330
17
100
AcDbEntity
  8
0
100
AcDbLine
 10
-22.964793164878948
 20
6.228855515138136
 30
0.0
 11
-23.099827447768874
 21
6.440262769440457
 31
0.0
  0
LINE
  5
12E
330
17
100
AcDbEntity
  8
0
100
AcDbLine
 10
-23.099827447768874
 20
6.440262769440457
 30
0.0
 11
-23.228213361157785
 21
6.6608631703437595
 31
0.0
  0
LINE
  5
12F
330
17
100
AcDbEntity
  8
0
100
AcDbLine
 10
-23.228213361157785
 20
6.6608631703437595
 30
0.0
 11
-23.349920483551713
 21
6.890195486211985
 31
0.0
  0
LINE
  5
130
330
17
100
AcDbEntity
  8
0
100
AcDbLine
 10
-23.349920483551713
 20
6.890195486211985
 30
0.0
 11
-23.464883767128995
 21
7.127863649525153
 31
0.0
  0
LINE
  5
131
330
17
100
AcDbEntity
  8
0
100
AcDbLine
 10
-23.464883767128995
 20
7.127863649525153
 30
0.0
 11
-22.97270840799922
 21
7.864456128240734
 31
0.0
  0
LINE
  5
132
330
17
100
AcDbEntity
  8
0
100
AcDbLine
 10
-22.97270840799922
 20
7.864456128240734
 30
0.0
 11
-22.709137112429318
 21
7.849195572053981
 31
0.0
  0
LINE
  5
133
330
17
100
AcDbEntity
  8
0
100
AcDbLine
 10
-22.709137112429318
 20
7.849195572053981
 30
0.0
 11
-22.450686380314266
 21
7.824514530502073
 31
0.0
  0
LINE
  5
134
330
17
100
AcDbEntity
  8
0
100
AcDbLine
 10
-22.450686380314266
 20
7.824514530502073
 30
0.0
 11
-22.197747023052926
 21
7.7903215314580825
 31
0.0
  0
LINE
  5
135
330
17
100
AcDbEntity
  8
0
100
AcDbLine
 10
-22.197747023052926
 20
7.7903215314580825
 30
0.0
 11
-21.950756804915322
 21
7.74646817501203
 31
0.0
  0
LINE
  5
136
330
17
100
AcDbEntity
  8
0
100
AcDbLine
 10
-21.950756804915322
 20
7.74646817501203
 30
0.0
 11
-21.710222774550214
 21
7.692722270328399
 31
0.0
  0
LINE
  5
137
330
17
100
AcDbEntity
  8
0
100
AcDbLine
 10
-21.710222774550214
 20
7.692722270328399
 30
0.0
 11
-21.47675945708221
 21
7.628722065363179
 31
0.0
  0
LINE
  5
138
330
17
100
AcDbEntity
  8
0
100
AcDbLine
 10
-21.47675945708221
 20
7.628722065363179
 30
0.0
 11
-21.25116079574123
 21
7.553890242970917
 31
0.0
  0
LINE
  5
139
330
17
100
AcDbEntity
  8
0
100
AcDbLine
 10
-21.25116079574123
 20
7.553890242970917
 30
0.0
 11
-21.034556988140142
 21
7.467246710033902
 31
0.0
  0
LINE
  5
13A
330
17
100
AcDbEntity
  8
0
100
AcDbLine
 10
-21.034556988140142
 20
7.467246710033902
 30
0.0
 11
-20.828855946416198
 21
7.366882069250684
 31
0.0
  0
LINE
  5
13B
330
17
100
AcDbEntity
  8
0
100
AcDbLine
 10
-20.828855946416198
 20
7.366882069250684
 30
0.0
 11
-20.639392086483625
 21
7.2467995888233725
 31
0.0
  0
LINE
  5
13C
330
17
100
AcDbEntity
  8
0
100
AcDbLine
 10
-20.639392086483625
 20
7.2467995888233725
 30
0.0
 11
-19.757310115805762
 21
6.5069013183863165
 31
0.0
  0
LINE
  5
13D
330
17
100
AcDbEntity
  8
0
100
AcDbLine
 10
-19.757310115805762
 20
6.5069013183863165
 30
0.0
 11
-19.465516457908144
 21
6.839714103433169
 31
0.0
  0
LINE
  5
13E
330
17
100
AcDbEntity
  8
0
100
AcDbLine
 10
-19.465516457908144
 20
6.839714103433169
 30
0.0
 11
-19.250407191176077
 21
7.064439360474797
 31
0.0
  0
LINE
  5
13F
330
17
100
AcDbEntity
  8
0
100
AcDbLine
 10
-19.250407191176077
 20
7.064439360474797
 30
0.0
 11
-19.681226501438978
 21
9.668287903509977
 31
0.0
  0
LINE
  5
140
330
17
100
AcDbEntity
  8
0
100
AcDbLine
 10
-19.681226501438978
 20
9.668287903509977
 30
0.0
 11
-19.692722270328396
 21
9.710222774550216
 31
0.0
  0
LINE
  5
141
330
17
100
AcDbEntity
  8
0
100
AcDbLine
 10
-19.692722270328396
 20
9.710222774550216
 30
0.0
 11
-19.746468175012026
 21
9.950756804915326
 31
0.0
  0
LINE
  5
142
330
17
100
AcDbEntity
  8
0
100
AcDbLine
 10
-19.746468175012026
 20
9.950756804915326
 30
0.0
 11
-19.79032153145808
 21
10.197747023052925
 31
0.0
  0
LINE
  5
143
330
17
100
AcDbEntity
  8
0
100
AcDbLine
 10
-19.79032153145808
 20
10.197747023052925
 30
0.0
 11
-19.82451453050207
 21
10.450686380314266
 31
0.0
  0
LINE
  5
144
330
17
100
AcDbEntity
  8
0
100
AcDbLine
 10
-19.82451453050207
 20
10.450686380314266
 30
0.0
 11
-19.84340174026872
 21
10.64846625040343
 31
0.0
  0
LINE
  5
145
330
17
100
AcDbEntity
  8
0
100
AcDbLine
 10
-19.84340174026872
 20
10.64846625040343
 30
0.0
 11
-23.299371
 21
31.536157
 31
0.0
  0
ARC
  5
146
330
17
100
AcDbEntity
  8
0
100
AcDbCircle
 10
-18.861085481931756
 20
32.27887057380866
 30
0.0
 40
4.500000199179323
100
AcDbArc
 50
14.500004709160814
 51
189.4999911513734
  0
LINE
  5
147
330
17
100
AcDbEntity
  8
0
100
AcDbLine
 10
-14.504421
 20
33.405581
 30
0.0
 11
-9.24146481084418
 21
13.208362798813507
 31
0.0
  0
LINE
  5
148
330
17
100
AcDbEntity
  8
0
100
AcDbLine
 10
-9.24146481084418
 20
13.208362798813507
 30
0.0
 11
-8.933263664699846
 21
13.147057779204813
 31
0.0
  0
LINE
  5
149
330
17
100
AcDbEntity
  8
0
100
AcDbLine
 10
-8.933263664699846
 20
13.147057779204813
 30
0.0
 11
-8.846498212153922
 21
12.89770969184895
 31
0.0
  0
LINE
  5
14A
330
17
100
AcDbEntity
  8
0
100
AcDbLine
 10
-8.846498212153922
 20
12.89770969184895
 30
0.0
 11
-8.77039570802173
 21
12.649487324589865
 31
0.0
  0
LINE
  5
14B
330
17
100
AcDbEntity
  8
0
100
AcDbLine
 10
-8.77039570802173
 20
12.649487324589865
 30
0.0
 11
-8.705190218576663
 21
12.402716735212541
 31
0.0
  0
LINE
  5
14C
330
17
100
AcDbEntity
  8
0
100
AcDbLine
 10
-8.705190218576663
 20
12.402716735212541
 30
0.0
 11
-8.651186372591592
 21
12.157745574979211
 31
0.0
  0
LINE
  5
14D
330
17
100
AcDbEntity
  8
0
100
AcDbLine
 10
-8.651186372591592
 20
12.157745574979211
 30
0.0
 11
-8.608792725544374
 21
11.914953440172539
 31
0.0
  0
LINE
  5
14E
330
17
100
AcDbEntity
  8
0
100
AcDbLine
 10
-8.608792725544374
 20
11.914953440172539
 30
0.0
 11
-8.578578661328269
 21
11.674769641463506
 31
0.0
  0
LINE
  5
14F
330
17
100
AcDbEntity
  8
0
100
AcDbLine
 10
-8.578578661328269
 20
11.674769641463506
 30
0.0
 11
-8.561381380358068
 21
11.437706757045426
 31
0.0
  0
LINE
  5
150
330
17
100
AcDbEntity
  8
0
100
AcDbLine
 10
-8.561381380358068
 20
11.437706757045426
 30
0.0
 11
-8.558538878506914
 21
11.204433887962193
 31
0.0
  0
LINE
  5
151
330
17
100
AcDbEntity
  8
0
100
AcDbLine
 10
-8.558538878506914
 20
11.204433887962193
 30
0.0
 11
-8.572545335226378
 21
10.975983020474178
 31
0.0
  0
LINE
  5
152
330
17
100
AcDbEntity
  8
0
100
AcDbLine
 10
-8.572545335226378
 20
10.975983020474178
 30
0.0
 11
-8.607454331087787
 21
10.775272432630388
 31
0.0
  0
LINE
  5
153
330
17
100
AcDbEntity
  8
0
100
AcDbLine
 10
-8.607454331087787
 20
10.775272432630388
 30
0.0
 11
-8.249784415231705
 21
9.40267173543477
 31
0.0
  0
LINE
  5
154
330
17
100
AcDbEntity
  8
0
100
AcDbLine
 10
-8.249784415231705
 20
9.40267173543477
 30
0.0
 11
-8.125330247303465
 21
9.354280266676778
 31
0.0
  0
LINE
  5
155
330
17
100
AcDbEntity
  8
0
100
AcDbLine
 10
-8.125330247303465
 20
9.354280266676778
 30
0.0
 11
-7.7202074144102175
 21
9.176001330881046
 31
0.0
  0
LINE
  5
156
330
17
100
AcDbEntity
  8
0
100
AcDbLine
 10
-7.7202074144102175
 20
9.176001330881046
 30
0.0
 11
-7.3232632872453
 21
8.980187009164808
 31
0.0
  0
LINE
  5
157
330
17
100
AcDbEntity
  8
0
100
AcDbLine
 10
-7.3232632872453
 20
8.980187009164808
 30
0.0
 11
-6.791472618270651
 21
10.00132203352847
 31
0.0
  0
LINE
  5
158
330
17
100
AcDbEntity
  8
0
100
AcDbLine
 10
-6.791472618270651
 20
10.00132203352847
 30
0.0
 11
-6.662384411705197
 21
10.184768459636587
 31
0.0
  0
LINE
  5
159
330
17
100
AcDbEntity
  8
0
100
AcDbLine
 10
-6.662384411705197
 20
10.184768459636587
 30
0.0
 11
-6.510749314663202
 21
10.356211677732041
 31
0.0
  0
LINE
  5
15A
330
17
100
AcDbEntity
  8
0
100
AcDbLine
 10
-6.510749314663202
 20
10.356211677732041
 30
0.0
 11
-6.3437905347331185
 21
10.51915055299315
 31
0.0
  0
LINE
  5
15B
330
17
100
AcDbEntity
  8
0
100
AcDbLine
 10
-6.3437905347331185
 20
10.51915055299315
 30
0.0
 11
-6.164001447601453
 21
10.67461901214082
 31
0.0
  0
LINE
  5
15C
330
17
100
AcDbEntity
  8
0
100
AcDbLine
 10
-6.164001447601453
 20
10.67461901214082
 30
0.0
 11
-5.972801285108736
 21
10.823090035244707
 31
0.0
  0
LINE
  5
15D
330
17
100
AcDbEntity
  8
0
100
AcDbLine
 10
-5.972801285108736
 20
10.823090035244707
 30
0.0
 11
-5.771144484861862
 21
10.964793164878946
 31
0.0
  0
LINE
  5
15E
330
17
100
AcDbEntity
  8
0
100
AcDbLine
 10
-5.771144484861862
 20
10.964793164878946
 30
0.0
 11
-5.5597372305595405
 21
11.099827447768874
 31
0.0
  0
LINE
  5
15F
330
17
100
AcDbEntity
  8
0
100
AcDbLine
 10
-5.5597372305595405
 20
11.099827447768874
 30
0.0
 11
-5.33913682965624
 21
11.228213361157785
 31
0.0
  0
LINE
  5
160
330
17
100
AcDbEntity
  8
0
100
AcDbLine
 10
-5.33913682965624
 20
11.228213361157785
 30
0.0
 11
-5.109804513788014
 21
11.349920483551712
 31
0.0
  0
LINE
  5
161
330
17
100
AcDbEntity
  8
0
100
AcDbLine
 10
-5.109804513788014
 20
11.349920483551712
 30
0.0
 11
-4.872136350474846
 21
11.464883767128995
 31
0.0
  0
LINE
  5
162
330
17
100
AcDbEntity
  8
0
100
AcDbLine
 10
-4.872136350474846
 20
11.464883767128995
 30
0.0
 11
-4.135543871759265
 21
10.972708407999217
 31
0.0
  0
LINE
  5
163
330
17
100
AcDbEntity
  8
0
100
AcDbLine
 10
-4.135543871759265
 20
10.972708407999217
 30
0.0
 11
-4.150804427946019
 21
10.709137112429318
 31
0.0
  0
LINE
  5
164
330
17
100
AcDbEntity
  8
0
100
AcDbLine
 10
-4.150804427946019
 20
10.709137112429318
 30
0.0
 11
-4.175485469497925
 21
10.450686380314263
 31
0.0
  0
LINE
  5
165
330
17
100
AcDbEntity
  8
0
100
AcDbLine
 10
-4.175485469497925
 20
10.450686380314263
 30
0.0
 11
-4.209678468541915
 21
10.197747023052921
 31
0.0
  0
LINE
  5
166
330
17
100
AcDbEntity
  8
0
100
AcDbLine
 10
-4.209678468541915
 20
10.197747023052921
 30
0.0
 11
-4.2535318249879674
 21
9.950756804915322
 31
0.0
  0
LINE
  5
167
330
17
100
AcDbEntity
  8
0
100
AcDbLine
 10
-4.2535318249879674
 20
9.950756804915322
 30
0.0
 11
-4.307277729671599
 21
9.710222774550212
 31
0.0
  0
LINE
  5
168
330
17
100
AcDbEntity
  8
0
100
AcDbLine
 10
-4.307277729671599
 20
9.710222774550212
 30
0.0
 11
-4.371277934636817
 21
9.476759457082208
 31
0.0
  0
LINE
  5
169
330
17
100
AcDbEntity
  8
0
100
AcDbLine
 10
-4.371277934636817
 20
9.476759457082208
 30
0.0
 11
-4.446109757029081
 21
9.251160795741232
 31
0.0
  0
LINE
  5
16A
330
17
100
AcDbEntity
  8
0
100
AcDbLine
 10
-4.446109757029081
 20
9.251160795741232
 30
0.0
 11
-4.532753289966098
 21
9.034556988140142
 31
0.0
  0
LINE
  5
16B
330
17
100
AcDbEntity
  8
0
100
AcDbLine
 10
-4.532753289966098
 20
9.034556988140142
 30
0.0
 11
-4.6331179307493136
 21
8.828855946416196
 31
0.0
  0
LINE
  5
16C
330
17
100
AcDbEntity
  8
0
100
AcDbLine
 10
-4.6331179307493136
 20
8.828855946416196
 30
0.0
 11
-4.753200411176627
 21
8.639392086483621
 31
0.0
  0
LINE
  5
16D
330
17
100
AcDbEntity
  8
0
100
AcDbLine
 10
-4.753200411176627
 20
8.639392086483621
 30
0.0
 11
-5.493098681613683
 21
7.757310115805762
 31
0.0
  0
LINE
  5
16E
330
17
100
AcDbEntity
  8
0
100
AcDbLine
 10
-5.493098681613683
 20
7.757310115805762
 30
0.0
 11
-5.160285896566834
 21
7.46551645790815
 31
0.0
  0
LINE
  5
16F
330
17
100
AcDbEntity
  8
0
100
AcDbLine
 10
-5.160285896566834
 20
7.46551645790815
 30
0.0
 11
-4.840543840486206
 21
7.159456159513793
 31
0.0
  0
LINE
  5
170
330
17
100
AcDbEntity
  8
0
100
AcDbLine
 10
-4.840543840486206
 20
7.159456159513793
 30
0.0
 11
-4.53448354209185
 21
6.839714103433165
 31
0.0
  0
LINE
  5
171
330
17
100
AcDbEntity
  8
0
100
AcDbLine
 10
-4.53448354209185
 20
6.839714103433165
 30
0.0
 11
-4.242689884194237
 21
6.5069013183863165
 31
0.0
  0
LINE
  5
172
330
17
100
AcDbEntity
  8
0
100
AcDbLine
 10
-4.242689884194237
 20
6.5069013183863165
 30
0.0
 11
-3.360607913516377
 21
7.2467995888233725
 31
0.0
  0
LINE
  5
173
330
17
100
AcDbEntity
  8
0
100
AcDbLine
 10
-3.360607913516377
 20
7.2467995888233725
 30
0.0
 11
-3.171144053583804
 21
7.3668820692506864
 31
0.0
  0
LINE
  5
174
330
17
100
AcDbEntity
  8
0
100
AcDbLine
 10
-3.171144053583804
 20
7.3668820692506864
 30
0.0
 11
-2.9654430118598576
 21
7.4672467100339
 31
0.0
  0
LINE
  5
175
330
17
100
AcDbEntity
  8
0
100
AcDbLine
 10
-2.9654430118598576
 20
7.4672467100339
 30
0.0
 11
-2.7488392042587684
 21
7.553890242970917
 31
0.0
  0
LINE
  5
176
330
17
100
AcDbEntity
  8
0
100
AcDbLine
 10
-2.7488392042587684
 20
7.553890242970917
 30
0.0
 11
-2.523240542917792
 21
7.628722065363183
 31
0.0
  0
LINE
  5
177
330
17
100
AcDbEntity
  8
0
100
AcDbLine
 10
-2.523240542917792
 20
7.628722065363183
 30
0.0
 11
-2.2897772254497877
 21
7.6927222703283995
 31
0.0
  0
LINE
  5
178
330
17
100
AcDbEntity
  8
0
100
AcDbLine
 10
-2.2897772254497877
 20
7.6927222703283995
 30
0.0
 11
-2.049243195084676
 21
7.7464681750120326
 31
0.0
  0
LINE
  5
179
330
17
100
AcDbEntity
  8
0
100
AcDbLine
 10
-2.049243195084676
 20
7.7464681750120326
 30
0.0
 11
-1.8022529769470772
 21
7.790321531458085
 31
0.0
  0
LINE
  5
17A
330
17
100
AcDbEntity
  8
0
100
AcDbLine
 10
-1.8022529769470772
 20
7.790321531458085
 30
0.0
 11
-1.5493136196857353
 21
7.824514530502073
 31
0.0
  0
LINE
  5
17B
330
17
100
AcDbEntity
  8
0
100
AcDbLine
 10
-1.5493136196857353
 20
7.824514530502073
 30
0.0
 11
-1.2908628875706825
 21
7.849195572053981
 31
0.0
  0
LINE
  5
17C
330
17
100
AcDbEntity
  8
0
100
AcDbLine
 10
-1.2908628875706825
 20
7.849195572053981
 30
0.0
 11
-1.0272915920007826
 21
7.864456128240735
 31
0.0
  0
LINE
  5
17D
330
17
100
AcDbEntity
  8
0
100
AcDbLine
 10
-1.0272915920007826
 20
7.864456128240735
 30
0.0
 11
-0.5351162328710046
 21
7.127863649525154
 31
0.0
  0
LINE
  5
17E
330
17
100
AcDbEntity
  8
0
100
AcDbLine
 10
-0.5351162328710046
 20
7.127863649525154
 30
0.0
 11
-0.6500795164482884
 21
6.890195486211987
 31
0.0
  0
LINE
  5
17F
330
17
100
AcDbEntity
  8
0
100
AcDbLine
 10
-0.6500795164482884
 20
6.890195486211987
 30
0.0
 11
-0.7717866388422152
 21
6.66086317034376
 31
0.0
  0
LINE
  5
180
330
17
100
AcDbEntity
  8
0
100
AcDbLine
 10
-0.7717866388422152
 20
6.66086317034376
 30
0.0
 11
-0.9001725522311244
 21
6.440262769440457
 31
0.0
  0
LINE
  5
181
330
17
100
AcDbEntity
  8
0
100
AcDbLine
 10
-0.9001725522311244
 20
6.440262769440457
 30
0.0
 11
-1.0352068351210537
 21
6.228855515138136
 31
0.0
  0
LINE
  5
182
330
17
100
AcDbEntity
  8
0
100
AcDbLine
 10
-1.0352068351210537
 20
6.228855515138136
 30
0.0
 11
-1.1769099647552927
 21
6.027198714891262
 31
0.0
  0
LINE
  5
183
330
17
100
AcDbEntity
  8
0
100
AcDbLine
 10
-1.1769099647552927
 20
6.027198714891262
 30
0.0
 11
-1.3253809878591802
 21
5.8359985523985465
 31
0.0
  0
LINE
  5
184
330
17
100
AcDbEntity
  8
0
100
AcDbLine
 10
-1.3253809878591802
 20
5.8359985523985465
 30
0.0
 11
-1.4808494470068485
 21
5.65620946526688
 31
0.0
  0
LINE
  5
185
330
17
100
AcDbEntity
  8
0
100
AcDbLine
 10
-1.4808494470068485
 20
5.65620946526688
 30
0.0
 11
-1.643788322267957
 21
5.489250685336796
 31
0.0
  0
LINE
  5
186
330
17
100
AcDbEntity
  8
0
100
AcDbLine
 10
-1.643788322267957
 20
5.489250685336796
 30
0.0
 11
-1.8152315403634134
 21
5.337615588294803
 31
0.0
  0
LINE
  5
187
330
17
100
AcDbEntity
  8
0
100
AcDbLine
 10
-1.8152315403634134
 20
5.337615588294803
 30
0.0
 11
-1.9986779664715293
 21
5.208527381729349
 31
0.0
  0
LINE
  5
188
330
17
100
AcDbEntity
  8
0
100
AcDbLine
 10
-1.9986779664715293
 20
5.208527381729349
 30
0.0
 11
-3.0198129908351916
 21
4.6767367127547
 31
0.0
  0
LINE
  5
189
330
17
100
AcDbEntity
  8
0
100
AcDbLine
 10
-3.0198129908351916
 20
4.6767367127547
 30
0.0
 11
-2.8239986691189536
 21
4.279792585589782
 31
0.0
  0
LINE
  5
18A
330
17
100
AcDbEntity
  8
0
100
AcDbLine
 10
-2.8239986691189536
 20
4.279792585589782
 30
0.0
 11
-2.6457197333232223
 21
3.874669752696534
 31
0.0
  0
LINE
  5
18B
330
17
100
AcDbEntity
  8
0
100
AcDbLine
 10
-2.6457197333232223
 20
3.874669752696534
 30
0.0
 11
-2.485316875414785
 21
3.4621424059003307
 31
0.0
  0
LINE
  5
18C
330
17
100
AcDbEntity
  8
0
100
AcDbLine
 10
-2.485316875414785
 20
3.4621424059003307
 30
0.0
 11
-2.343096626083293
 21
3.0429988870908447
 31
0.0
  0
LINE
  5
18D
330
17
100
AcDbEntity
  8
0
100
AcDbLine
 10
-2.343096626083293
 20
3.0429988870908447
 30
0.0
 11
-1.245012337644953
 21
3.389017599121776
 31
0.0
  0
LINE
  5
18E
330
17
100
AcDbEntity
  8
0
100
AcDbLine
 10
-1.245012337644953
 20
3.389017599121776
 30
0.0
 11
-1.0240169795258218
 21
3.427454664773621
 31
0.0
  0
LINE
  5
18F
330
17
100
AcDbEntity
  8
0
100
AcDbLine
 10
-1.0240169795258218
 20
3.427454664773621
 30
0.0
 11
-0.7955661120378075
 21
3.441461121493087
 31
0.0
  0
LINE
  5
190
330
17
100
AcDbEntity
  8
0
100
AcDbLine
 10
-0.7955661120378075
 20
3.441461121493087
 30
0.0
 11
-0.5622932429545742
 21
3.4386186196419324
 31
0.0
  0
LINE
  5
191
330
17
100
AcDbEntity
  8
0
100
AcDbLine
 10
-0.5622932429545742
 20
3.4386186196419324
 30
0.0
 11
-0.3252303585364942
 21
3.4214213386717307
 31
0.0
  0
LINE
  5
192
330
17
100
AcDbEntity
  8
0
100
AcDbLine
 10
-0.3252303585364942
 20
3.4214213386717307
 30
0.0
 11
-0.08504655982746101
 21
3.3912072744556263
 31
0.0
  0
LINE
  5
193
330
17
100
AcDbEntity
  8
0
100
AcDbLine
 10
-0.08504655982746101
 20
3.3912072744556263
 30
0.0
 11
0.15774557497921116
 21
3.3488136274084077
 31
0.0
  0
LINE
  5
194
330
17
100
AcDbEntity
  8
0
100
AcDbLine
 10
0.15774557497921116
 20
3.3488136274084077
 30
0.0
 11
0.40271673521254137
 21
3.2948097814233384
 31
0.0
  0
LINE
  5
195
330
17
100
AcDbEntity
  8
0
100
AcDbLine
 10
0.40271673521254137
 20
3.2948097814233384
 30
0.0
 11
0.6494873245898649
 21
3.2296042919782684
 31
0.0
  0
LINE
  5
196
330
17
100
AcDbEntity
  8
0
100
AcDbLine
 10
0.6494873245898649
 20
3.2296042919782684
 30
0.0
 11
0.8977096918489504
 21
3.153501787846077
 31
0.0
  0
LINE
  5
197
330
17
100
AcDbEntity
  8
0
100
AcDbLine
 10
0.8977096918489504
 20
3.153501787846077
 30
0.0
 11
1.1470577792048129
 21
3.0667363353001544
 31
0.0
  0
LINE
  5
198
330
17
100
AcDbEntity
  8
0
100
AcDbLine
 10
1.1470577792048129
 20
3.0667363353001544
 30
0.0
 11
1.3198867819020172
 21
2.1978662646557687
 31
0.0
  0
LINE
  5
199
330
17
100
AcDbEntity
  8
0
100
AcDbLine
 10
1.3198867819020172
 20
2.1978662646557687
 30
0.0
 11
1.122722888714085
 21
2.0222840569964995
 31
0.0
  0
LINE
  5
19A
330
17
100
AcDbEntity
  8
0
100
AcDbLine
 10
1.122722888714085
 20
2.0222840569964995
 30
0.0
 11
0.9225184915848033
 21
1.856983923563418
 31
0.0
  0
LINE
  5
19B
330
17
100
AcDbEntity
  8
0
100
AcDbLine
 10
0.9225184915848033
 20
1.856983923563418
 30
0.0
 11
0.7194852553432316
 21
1.7023068903080667
 31
0.0
  0
LINE
  5
19C
330
17
100
AcDbEntity
  8
0
100
AcDbLine
 10
0.7194852553432316
 20
1.7023068903080667
 30
0.0
 11
0.5138277914905949
 21
1.5586674378970204
 31
0.0
  0
LINE
  5
19D
330
17
100
AcDbEntity
  8
0
100
AcDbLine
 10
0.5138277914905949
 20
1.5586674378970204
 30
0.0
 11
0.3057404538504933
 21
1.4265882875825224
 31
0.0
  0
LINE
  5
19E
330
17
100
AcDbEntity
  8
0
100
AcDbLine
 10
0.3057404538504933
 20
1.4265882875825224
 30
0.0
 11
0.09540197998232358
 21
1.306759771570823
 31
0.0
  0
LINE
  5
19F
330
17
100
AcDbEntity
  8
0
100
AcDbLine
 10
0.09540197998232358
 20
1.306759771570823
 30
0.0
 11
-0.11703445234060617
 21
1.200151517372129
 31
0.0
  0
LINE
  5
1A0
330
17
100
AcDbEntity
  8
0
100
AcDbLine
 10
-0.11703445234060617
 20
1.200151517372129
 30
0.0
 11
-0.3314627032118853
 21
1.1082557258722976
 31
0.0
  0
LINE
  5
1A1
330
17
100
AcDbEntity
  8
0
100
AcDbLine
 10
-0.3314627032118853
 20
1.1082557258722976
 30
0.0
 11
-0.5478838228011877
 21
1.0337716424613212
 31
0.0
  0
LINE
  5
1A2
330
17
100
AcDbEntity
  8
0
100
AcDbLine
 10
-0.5478838228011877
 20
1.0337716424613212
 30
0.0
 11
-0.7667661391611453
 21
0.9847115985250728
 31
0.0
  0
LINE
  5
1A3
330
17
100
AcDbEntity
  8
0
100
AcDbLine
 10
-0.7667661391611453
 20
0.9847115985250728
 30
0.0
 11
-1.913679366604093
 21
0.8841725399106056
 31
0.0
  0
CIRCLE
  5
1A4
330
17
100
AcDbEntity
  8
0
100
AcDbCircle
 10
-12.0
 20
0.0
 30
0.0
 40
1.65
  0
CIRCLE
  5
1A5
330
17
100
AcDbEntity
  8
0
100
AcDbCircle
 10
-18.86108579698606
 20
32.27887082421559
 30
0.0
 40
1.65
  0
ENDSEC
  0
SECTION
  2
OBJECTS
  0
DICTIONARY
  5
A
330
0
100
AcDbDictionary
281
1
  3
ACAD_COLOR
350
B
  3
ACAD_GROUP
350
C
  3
ACAD_LAYOUT
350
D
  3
ACAD_MATERIAL
350
E
  3
ACAD_MLEADERSTYLE
350
F
  3
ACAD_MLINESTYLE
350
10
  3
ACAD_PLOTSETTINGS
350
11
  3
ACAD_PLOTSTYLENAME
350
12
  3
ACAD_SCALELIST
350
14
  3
ACAD_TABLESTYLE
350
15
  3
ACAD_VISUALSTYLE
350
16
  3
EZDXF_META
350
2D
  0
DICTIONARY
  5
B
330
A
100
AcDbDictionary
281
1
  0
DICTIONARY
  5
C
330
A
100
AcDbDictionary
281
1
  0
DICTIONARY
  5
D
330
A
100
AcDbDictionary
281
1
  3
Model
350
1A
  3
Layout1
350
1E
  0
DICTIONARY
  5
E
330
A
100
AcDbDictionary
281
1
  3
ByBlock
350
1F
  3
ByLayer
350
20
  3
Global
350
21
  0
DICTIONARY
  5
F
330
A
100
AcDbDictionary
281
1
  3
Standard
350
2C
  0
DICTIONARY
  5
10
330
A
100
AcDbDictionary
281
1
  3
Standard
350
22
  0
DICTIONARY
  5
11
330
A
100
AcDbDictionary
281
1
  0
ACDBDICTIONARYWDFLT
  5
12
330
A
100
AcDbDictionary
281
1
  3
Normal
350
13
100
AcDbDictionaryWithDefault
340
13
  0
ACDBPLACEHOLDER
  5
13
330
12
  0
DICTIONARY
  5
14
330
A
100
AcDbDictionary
281
1
  0
DICTIONARY
  5
15
330
A
100
AcDbDictionary
281
1
  0
DICTIONARY
  5
16
330
A
100
AcDbDictionary
281
1
  0
LAYOUT
  5
1A
330
D
100
AcDbPlotSettings
  1

  4
A3
  6

 40
7.5
 41
20.0
 42
7.5
 43
20.0
 44
420.0
 45
297.0
 46
0.0
 47
0.0
 48
0.0
 49
0.0
140
0.0
141
0.0
142
1.0
143
1.0
 70
1024
 72
1
 73
0
 74
5
  7

 75
16
 76
0
 77
2
 78
300
147
1.0
148
0.0
149
0.0
100
AcDbLayout
  1
Model
 70
1
 71
0
 10
0.0
 20
0.0
 11
420.0
 21
297.0
 12
0.0
 22
0.0
 32
0.0
 14
1e+20
 24
1e+20
 34
1e+20
 15
-1e+20
 25
-1e+20
 35
-1e+20
146
0.0
 13
0.0
 23
0.0
 33
0.0
 16
1.0
 26
0.0
 36
0.0
 17
0.0
 27
1.0
 37
0.0
 76
1
330
17
  0
LAYOUT
  5
1E
330
D
100
AcDbPlotSettings
  1

  4
A3
  6

 40
7.5
 41
20.0
 42
7.5
 43
20.0
 44
420.0
 45
297.0
 46
0.0
 47
0.0
 48
0.0
 49
0.0
140
0.0
141
0.0
142
1.0
143
1.0
 70
0
 72
1
 73
0
 74
5
  7

 75
16
 76
0
 77
2
 78
300
147
1.0
148
0.0
149
0.0
100
AcDbLayout
  1
Layout1
 70
1
 71
1
 10
0.0
 20
0.0
 11
420.0
 21
297.0
 12
0.0
 22
0.0
 32
0.0
 14
1e+20
 24
1e+20
 34
1e+20
 15
-1e+20
 25
-1e+20
 35
-1e+20
146
0.0
 13
0.0
 23
0.0
 33
0.0
 16
1.0
 26
0.0
 36
0.0
 17
0.0
 27
1.0
 37
0.0
 76
1
330
1B
  0
MATERIAL
  5
1F
102
{ACAD_REACTORS
330
E
102
}
330
E
100
AcDbMaterial
  1
ByBlock
  2

 70
0
 40
1.0
 71
1
 41
1.0
 91
-1023410177
 42
1.0
 72
1
  3

 73
1
 74
1
 75
1
 44
0.5
 73
0
 45
1.0
 46
1.0
 77
1
  4

 78
1
 79
1
170
1
 48
1.0
171
1
  6

172
1
173
1
174
1
140
1.0
141
1.0
175
1
  7

176
1
177
1
178
1
143
1.0
179
1
  8

270
1
271
1
272
1
145
1.0
146
1.0
273
1
  9

274
1
275
1
276
1
 42
1.0
 72
1
  3

 73
1
 74
1
 75
1
 94
63
  0
MATERIAL
  5
20
102
{ACAD_REACTORS
330
E
102
}
330
E
100
AcDbMaterial
  1
ByLayer
  2

 70
0
 40
1.0
 71
1
 41
1.0
 91
-1023410177
 42
1.0
 72
1
  3

 73
1
 74
1
 75
1
 44
0.5
 73
0
 45
1.0
 46
1.0
 77
1
  4

 78
1
 79
1
170
1
 48
1.0
171
1
  6

172
1
173
1
174
1
140
1.0
141
1.0
175
1
  7

176
1
177
1
178
1
143
1.0
179
1
  8

270
1
271
1
272
1
145
1.0
146
1.0
273
1
  9

274
1
275
1
276
1
 42
1.0
 72
1
  3

 73
1
 74
1
 75
1
 94
63
  0
MATERIAL
  5
21
102
{ACAD_REACTORS
330
E
102
}
330
E
100
AcDbMaterial
  1
Global
  2

 70
0
 40
1.0
 71
1
 41
1.0
 91
-1023410177
 42
1.0
 72
1
  3

 73
1
 74
1
 75
1
 44
0.5
 73
0
 45
1.0
 46
1.0
 77
1
  4

 78
1
 79
1
170
1
 48
1.0
171
1
  6

172
1
173
1
174
1
140
1.0
141
1.0
175
1
  7

176
1
177
1
178
1
143
1.0
179
1
  8

270
1
271
1
272
1
145
1.0
146
1.0
273
1
  9

274
1
275
1
276
1
 42
1.0
 72
1
  3

 73
1
 74
1
 75
1
 94
63
  0
MLINESTYLE
  5
22
102
{ACAD_REACTORS
330
10
102
}
330
10
100
AcDbMlineStyle
  2
Standard
 70
0
  3

 62
256
 51
90.0
 52
90.0
 71
2
 49
0.5
 62
256
  6
BYLAYER
 49
-0.5
 62
256
  6
BYLAYER
  0
MLEADERSTYLE
  5
2C
102
{ACAD_REACTORS
330
F
102
}
330
F
100
AcDbMLeaderStyle
179
2
170
2
171
1
172
0
 90
2
 40
0.0
 41
0.0
173
1
 91
-1056964608
 92
-2
290
1
 42
2.0
291
1
 43
8.0
  3
Standard
 44
4.0
300

342
29
174
1
175
1
176
0
178
1
 93
-1056964608
 45
4.0
292
0
297
0
 46
4.0
 94
-1056964608
 47
1.0
 49
1.0
140
1.0
294
1
141
0.0
177
0
142
1.0
295
0
296
0
143
3.75
271
0
272
9
273
9
  0
DICTIONARY
  5
2D
330
A
100
AcDbDictionary
280
1
281
1
  3
CREATED_BY_EZDXF
350
2E
  3
WRITTEN_BY_EZDXF
350
1A9
  0
DICTIONARYVAR
  5
2E
330
2D
100
DictionaryVariables
280
0
  1
1.4.4 @ 2026-09-25T17:09:11.062115+00:00
  0
DICTIONARYVAR
  5
1A9
330
2D
100
DictionaryVariables
280
0
  1
1.4.4 @ 2026-09-25T17:09:11.101772+00:00
  0
ENDSEC
  0
EOF
