  0
SECTION
  2
HEADER
  9
$ACADVER
  1
AC1027
  9
$ACADMAINTVER
 70
105
  9
$DWGCODEPAGE
  3
ANSI_1252
  9
$LASTSAVEDBY
  1
ezdxf
  9
$REQUIREDVERSIONS
160
0
  9
$INSBASE
 10
0.0
 20
0.0
 30
0.0
  9
$EXTMIN
 10
1e+20
 20
1e+20
 30
1e+20
  9
$EXTMAX
 10
-1e+20
 20
-1e+20
 30
-1e+20
  9
$LIMMIN
 10
0.0
 20
0.0
  9
$LIMMAX
 10
420.0
 20
297.0
  9
$ORTHOMODE
 70
0
  9
$REGENMODE
 70
1
  9
$FILLMODE
 70
1
  9
$QTEXTMODE
 70
0
  9
$MIRRTEXT
 70
1
  9
$LTSCALE
 40
1.0
  9
$ATTMODE
 70
1
  9
$TEXTSIZE
 40
2.5
  9
$TRACEWID
 40
1.0
  9
$TEXTSTYLE
  7
Standard
  9
$CLAYER
  8
0
  9
$CELTYPE
  6
ByLayer
  9
$CECOLOR
 62
256
  9
$CELTSCALE
 40
1.0
  9
$DISPSILH
 70
0
  9
$DIMSCALE
 40
1.0
  9
$DIMASZ
 40
2.5
  9
$DIMEXO
 40
0.625
  9
$DIMDLI
 40
3.75
  9
$DIMRND
 40
0.0
  9
$DIMDLE
 40
0.0
  9
$DIMEXE
 40
1.25
  9
$DIMTP
 40
0.0
  9
$DIMTM
 40
0.0
  9
$DIMTXT
 40
2.5
  9
$DIMCEN
 40
2.5
  9
$DIMTSZ
 40
0.0
  9
$DIMTOL
 70
0
  9
$DIMLIM
 70
0
  9
$DIMTIH
 70
0
  9
$DIMTOH
 70
0
  9
$DIMSE1
 70
0
  9
$DIMSE2
 70
0
  9
$DIMTAD
 70
1
  9
$DIMZIN
 70
8
  9
$DIMBLK
  1

  9
$DIMASO
 70
1
  9
$DIMSHO
 70
1
  9
$DIMPOST
  1

  9
$DIMAPOST
  1

  9
$DIMALT
 70
0
  9
$DIMALTD
 70
3
  9
$DIMALTF
 40
0.03937007874
  9
$DIMLFAC
 40
1.0
  9
$DIMTOFL
 70
1
  9
$DIMTVP
 40
0.0
  9
$DIMTIX
 70
0
  9
$DIMSOXD
 70
0
  9
$DIMSAH
 70
0
  9
$DIMBLK1
  1

  9
$DIMBLK2
  1

  9
$DIMSTYLE
  2
ISO-25
  9
$DIMCLRD
 70
0
  9
$DIMCLRE
 70
0
  9
$DIMCLRT
 70
0
  9
$DIMTFAC
 40
1.0
  9
$DIMGAP
 40
0.625
  9
$DIMJUST
 70
0
  9
$DIMSD1
 70
0
  9
$DIMSD2
 70
0
  9
$DIMTOLJ
 70
0
  9
$DIMTZIN
 70
8
  9
$DIMALTZ
 70
0
  9
$DIMALTTZ
 70
0
  9
$DIMUPT
 70
0
  9
$DIMDEC
 70
2
  9
$DIMTDEC
 70
2
  9
$DIMALTU
 70
2
  9
$DIMALTTD
 70
3
  9
$DIMTXSTY
  7
Standard
  9
$DIMAUNIT
 70
0
  9
$DIMADEC
 70
0
  9
$DIMALTRND
 40
0.0
  9
$DIMAZIN
 70
0
  9
$DIMDSEP
 70
44
  9
$DIMATFIT
 70
3
  9
$DIMFRAC
 70
0
  9
$DIMLDRBLK
  1

  9
$DIMLUNIT
 70
2
  9
$DIMLWD
 70
-2
  9
$DIMLWE
 70
-2
  9
$DIMTMOVE
 70
0
  9
$DIMFXL
 40
1.0
  9
$DIMFXLON
 70
0
  9
$DIMJOGANG
 40
0.785398163397
  9
$DIMTFILL
 70
0
  9
$DIMTFILLCLR
 70
0
  9
$DIMARCSYM
 70
0
  9
$DIMLTYPE
  6

  9
$DIMLTEX1
  6

  9
$DIMLTEX2
  6

  9
$DIMTXTDIRECTION
 70
0
  9
$LUNITS
 70
2
  9
$LUPREC
 70
4
  9
$SKETCHINC
 40
1.0
  9
$FILLETRAD
 40
10.0
  9
$AUNITS
 70
0
  9
$AUPREC
 70
2
  9
$MENU
  1
.
  9
$ELEVATION
 40
0.0
  9
$PELEVATION
 40
0.0
  9
$THICKNESS
 40
0.0
  9
$LIMCHECK
 70
0
  9
$CHAMFERA
 40
0.0
  9
$CHAMFERB
 40
0.0
  9
$CHAMFERC
 40
0.0
  9
$CHAMFERD
 40
0.0
  9
$SKPOLY
 70
0
  9
$TDCREATE
 40
2461309.839710648
  9
$TDUCREATE
 40
2458532.153996898
  9
$TDUPDATE
 40
2461309.839710648
  9
$TDUUPDATE
 40
2458532.1544311
  9
$TDINDWG
 40
0.0
  9
$TDUSRTIMER
 40
0.0
  9
$USRTIMER
 70
1
  9
$ANGBASE
 50
0.0
  9
$ANGDIR
 70
0
  9
$PDMODE
 70
0
  9
$PDSIZE
 40
0.0
  9
$PLINEWID
 40
0.0
  9
$SPLFRAME
 70
0
  9
$SPLINETYPE
 70
6
  9
$SPLINESEGS
 70
8
  9
$HANDSEED
  5
104
  9
$SURFTAB1
 70
6
  9
$SURFTAB2
 70
6
  9
$SURFTYPE
 70
6
  9
$SURFU
 70
6
  9
$SURFV
 70
6
  9
$UCSBASE
  2

  9
$UCSNAME
  2

  9
$UCSORG
 10
0.0
 20
0.0
 30
0.0
  9
$UCSXDIR
 10
1.0
 20
0.0
 30
0.0
  9
$UCSYDIR
 10
0.0
 20
1.0
 30
0.0
  9
$UCSORTHOREF
  2

  9
$UCSORTHOVIEW
 70
0
  9
$UCSORGTOP
 10
0.0
 20
0.0
 30
0.0
  9
$UCSORGBOTTOM
 10
0.0
 20
0.0
 30
0.0
  9
$UCSORGLEFT
 10
0.0
 20
0.0
 30
0.0
  9
$UCSORGRIGHT
 10
0.0
 20
0.0
 30
0.0
  9
$UCSORGFRONT
 10
0.0
 20
0.0
 30
0.0
  9
$UCSORGBACK
 10
0.0
 20
0.0
 30
0.0
  9
$PUCSBASE
  2

  9
$PUCSNAME
  2

  9
$PUCSORG
 10
0.0
 20
0.0
 30
0.0
  9
$PUCSXDIR
 10
1.0
 20
0.0
 30
0.0
  9
$PUCSYDIR
 10
0.0
 20
1.0
 30
0.0
  9
$PUCSORTHOREF
  2

  9
$PUCSORTHOVIEW
 70
0
  9
$PUCSORGTOP
 10
0.0
 20
0.0
 30
0.0
  9
$PUCSORGBOTTOM
 10
0.0
 20
0.0
 30
0.0
  9
$PUCSORGLEFT
 10
0.0
 20
0.0
 30
0.0
  9
$PUCSORGRIGHT
 10
0.0
 20
0.0
 30
0.0
  9
$PUCSORGFRONT
 10
0.0
 20
0.0
 30
0.0
  9
$PUCSORGBACK
 10
0.0
 20
0.0
 30
0.0
  9
$USERI1
 70
0
  9
$USERI2
 70
0
  9
$USERI3
 70
0
  9
$USERI4
 70
0
  9
$USERI5
 70
0
  9
$USERR1
 40
0.0
  9
$USERR2
 40
0.0
  9
$USERR3
 40
0.0
  9
$USERR4
 40
0.0
  9
$USERR5
 40
0.0
  9
$WORLDVIEW
 70
1
  9
$SHADEDGE
 70
3
  9
$SHADEDIF
 70
70
  9
$TILEMODE
 70
1
  9
$MAXACTVP
 70
64
  9
$PINSBASE
 10
0.0
 20
0.0
 30
0.0
  9
$PLIMCHECK
 70
0
  9
$PEXTMIN
 10
1e+20
 20
1e+20
 30
1e+20
  9
$PEXTMAX
 10
-1e+20
 20
-1e+20
 30
-1e+20
  9
$PLIMMIN
 10
0.0
 20
0.0
  9
$PLIMMAX
 10
420.0
 20
297.0
  9
$UNITMODE
 70
0
  9
$VISRETAIN
 70
1
  9
$PLINEGEN
 70
0
  9
$PSLTSCALE
 70
1
  9
$TREEDEPTH
 70
3020
  9
$CMLSTYLE
  2
Standard
  9
$CMLJUST
 70
0
  9
$CMLSCALE
 40
20.0
  9
$PROXYGRAPHICS
 70
1
  9
$MEASUREMENT
 70
1
  9
$CELWEIGHT
370
-1
  9
$ENDCAPS
280
0
  9
$JOINSTYLE
280
0
  9
$LWDISPLAY
290
0
  9
$INSUNITS
 70
4
  9
$HYPERLINKBASE
  1

  9
$STYLESHEET
  1

  9
$XEDIT
290
1
  9
$CEPSNTYPE
380
0
  9
$PSTYLEMODE
290
1
  9
$FINGERPRINTGUID
  2
{86D221D4-E926-48BF-9F23-66F43638928E}
  9
$VERSIONGUID
  2
{AF1412DB-8A79-4974-B645-814800BE2B2C}
  9
$EXTNAMES
290
1
  9
$PSVPSCALE
 40
0.0
  9
$OLESTARTUP
290
0
  9
$SORTENTS
280
127
  9
$INDEXCTL
280
0
  9
$HIDETEXT
280
1
  9
$XCLIPFRAME
280
1
  9
$HALOGAP
280
0
  9
$OBSCOLOR
 70
257
  9
$OBSLTYPE
280
0
  9
$INTERSECTIONDISPLAY
280
0
  9
$INTERSECTIONCOLOR
 70
257
  9
$DIMASSOC
280
2
  9
$PROJECTNAME
  1

  9
$CAMERADISPLAY
290
0
  9
$LENSLENGTH
 40
50.0
  9
$CAMERAHEIGHT
 40
0.0
  9
$STEPSPERSEC
 40
24.0
  9
$STEPSIZE
 40
100.0
  9
$3DDWFPREC
 40
2.0
  9
$PSOLWIDTH
 40
0.005
  9
$PSOLHEIGHT
 40
0.08
  9
$LOFTANG1
 40
1.570796326795
  9
$LOFTANG2
 40
1.570796326795
  9
$LOFTMAG1
 40
0.0
  9
$LOFTMAG2
 40
0.0
  9
$LOFTPARAM
 70
7
  9
$LOFTNORMALS
280
1
  9
$LATITUDE
 40
37.795
  9
$LONGITUDE
 40
-122.394
  9
$NORTHDIRECTION
 40
0.0
  9
$TIMEZONE
 70
-8000
  9
$LIGHTGLYPHDISPLAY
280
1
  9
$TILEMODELIGHTSYNCH
280
1
  9
$CMATERIAL
347
20
  9
$SOLIDHIST
280
0
  9
$SHOWHIST
280
1
  9
$DWFFRAME
280
2
  9
$DGNFRAME
280
2
  9
$REALWORLDSCALE
290
1
  9
$INTERFERECOLOR
 62
256
  9
$CSHADOW
280
0
  9
$SHADOWPLANELOCATION
 40
0.0
  0
ENDSEC
  0
SECTION
  2
CLASSES
  0
CLASS
  1
ACDBDICTIONARYWDFLT
  2
AcDbDictionaryWithDefault
  3
ObjectDBX Classes
 90
0
 91
0
280
0
281
0
  0
CLASS
  1
SUN
  2
AcDbSun
  3
SCENEOE
 90
1153
 91
0
280
0
281
0
  0
CLASS
  1
VISUALSTYLE
  2
AcDbVisualStyle
  3
ObjectDBX Classes
 90
4095
 91
0
280
0
281
0
  0
CLASS
  1
MATERIAL
  2
AcDbMaterial
  3
ObjectDBX Classes
 90
1153
 91
0
280
0
281
0
  0
CLASS
  1
SCALE
  2
AcDbScale
  3
ObjectDBX Classes
 90
1153
 91
0
280
0
281
0
  0
CLASS
  1
TABLESTYLE
  2
AcDbTableStyle
  3
ObjectDBX Classes
 90
4095
 91
0
280
0
281
0
  0
CLASS
  1
MLEADERSTYLE
  2
AcDbMLeaderStyle
  3
ACDB_MLEADERSTYLE_CLASS
 90
4095
 91
0
280
0
281
0
  0
CLASS
  1
DICTIONARYVAR
  2
AcDbDictionaryVar
  3
ObjectDBX Classes
 90
0
 91
0
280
0
281
0
  0
CLASS
  1
CELLSTYLEMAP
  2
AcDbCellStyleMap
  3
ObjectDBX Classes
 90
1152
 91
0
280
0
281
0
  0
CLASS
  1
MENTALRAYRENDERSETTINGS
  2
AcDbMentalRayRenderSettings
  3
SCENEOE
 90
1024
 91
0
280
0
281
0
  0
CLASS
  1
ACDBDETAILVIEWSTYLE
  2
AcDbDetailViewStyle
  3
ObjectDBX Classes
 90
1025
 91
0
280
0
281
0
  0
CLASS
  1
ACDBSECTIONVIEWSTYLE
  2
AcDbSectionViewStyle
  3
ObjectDBX Classes
 90
1025
 91
0
280
0
281
0
  0
CLASS
  1
RASTERVARIABLES
  2
AcDbRasterVariables
  3
ISM
 90
0
 91
0
280
0
281
0
  0
CLASS
  1
ACDBPLACEHOLDER
  2
AcDbPlaceHolder
  3
ObjectDBX Classes
 90
0
 91
0
280
0
281
0
  0
CLASS
  1
LAYOUT
  2
AcDbLayout
  3
ObjectDBX Classes
 90
0
 91
0
280
0
281
0
  0
ENDSEC
  0
SECTION
  2
TABLES
  0
TABLE
  2
VPORT
  5
8
330
0
100
AcDbSymbolTable
 70
1
  0
VPORT
  5
100
330
8
100
AcDbSymbolTableRecord
100
AcDbViewportTableRecord
  2
*Active
 70
0
 10
0.0
 20
0.0
 11
1.0
 21
1.0
 12
12.294601163199385
 22
58.768573733796806
 13
0.0
 23
0.0
 14
0.5
 24
0.5
 15
0.5
 25
0.5
 16
0.0
 26
0.0
 36
1.0
 17
0.0
 27
0.0
 37
0.0
 40
64.00696088871601
 41
1.34
 42
50.0
 43
0.0
 44
0.0
 50
0.0
 51
0.0
 71
0
 72
1000
 73
1
 74
3
 75
0
 76
0
 77
0
 78
0
281
0
 65
1
110
0.0
120
0.0
130
0.0
111
1.0
121
0.0
131
0.0
112
0.0
122
1.0
132
0.0
 79
0
146
0.0
  0
ENDTAB
  0
TABLE
  2
LTYPE
  5
2
330
0
100
AcDbSymbolTable
 70
3
  0
LTYPE
  5
24
330
2
100
AcDbSymbolTableRecord
100
AcDbLinetypeTableRecord
  2
ByBlock
 70
0
  3

 72
65
 73
0
 40
0.0
  0
LTYPE
  5
25
330
2
100
AcDbSymbolTableRecord
100
AcDbLinetypeTableRecord
  2
ByLayer
 70
0
  3

 72
65
 73
0
 40
0.0
  0
LTYPE
  5
26
330
2
100
AcDbSymbolTableRecord
100
AcDbLinetypeTableRecord
  2
Continuous
 70
0
  3

 72
65
 73
0
 40
0.0
  0
ENDTAB
  0
TABLE
  2
LAYER
  5
1
330
0
100
AcDbSymbolTable
 70
2
  0
LAYER
  5
27
330
1
100
AcDbSymbolTableRecord
100
AcDbLayerTableRecord
  2
0
 70
0
 62
7
  6
Continuous
370
-3
390
13
347
21
  0
LAYER
  5
28
330
1
100
AcDbSymbolTableRecord
100
AcDbLayerTableRecord
  2
Defpoints
 70
0
 62
7
  6
Continuous
290
0
370
-3
390
13
347
21
  0
ENDTAB
  0
TABLE
  2
STYLE
  5
5
330
0
100
AcDbSymbolTable
 70
1
  0
STYLE
  5
29
330
5
100
AcDbSymbolTableRecord
100
AcDbTextStyleTableRecord
  2
Standard
 70
0
 40
0.0
 41
1.0
 50
0.0
 71
0
 42
2.5
  3
txt
  4

  0
ENDTAB
  0
TABLE
  2
VIEW
  5
7
330
0
100
AcDbSymbolTable
 70
0
  0
ENDTAB
  0
TABLE
  2
UCS
  5
6
330
0
100
AcDbSymbolTable
 70
0
  0
ENDTAB
  0
TABLE
  2
APPID
  5
3
330
0
100
AcDbSymbolTable
 70
3
  0
APPID
  5
2A
330
3
100
AcDbSymbolTableRecord
100
AcDbRegAppTableRecord
  2
ACAD
 70
0
  0
APPID
  5
101
330
3
100
AcDbSymbolTableRecord
100
AcDbRegAppTableRecord
  2
HATCHBACKGROUNDCOLOR
 70
0
  0
APPID
  5
102
330
3
100
AcDbSymbolTableRecord
100
AcDbRegAppTableRecord
  2
EZDXF
 70
0
  0
ENDTAB
  0
TABLE
  2
DIMSTYLE
  5
4
330
0
100
AcDbSymbolTable
 70
1
100
AcDbDimStyleTable
  0
DIMSTYLE
105
2B
330
4
100
AcDbSymbolTableRecord
100
AcDbDimStyleTableRecord
  2
Standard
 70
0
 40
1.0
 41
2.5
 42
0.625
 43
3.75
 44
1.25
 45
0.0
 46
0.0
 47
0.0
 48
0.0
 49
2.5
140
2.5
141
2.5
142
0.0
143
0.03937007874
144
1.0
145
0.0
146
1.0
147
0.625
148
0.0
 69
0
 70
0
 71
0
 72
0
 73
0
 74
0
 75
0
 76
0
 77
1
 78
8
 79
3
170
0
171
3
172
1
173
0
174
0
175
0
176
0
177
0
178
0
179
2
271
2
272
2
273
2
274
3
275
0
276
0
277
2
278
44
279
0
280
0
281
0
282
0
283
0
284
8
285
0
286
0
288
0
289
3
290
0
371
-2
372
-2
  0
ENDTAB
  0
TABLE
  2
BLOCK_RECORD
  5
9
330
0
100
AcDbSymbolTable
 70
2
  0
BLOCK_RECORD
  5
17
330
9
100
AcDbSymbolTableRecord
100
AcDbBlockTableRecord
  2
*Model_Space
340
1A
 70
0
280
1
281
0
  0
BLOCK_RECORD
  5
1B
330
9
100
AcDbSymbolTableRecord
100
AcDbBlockTableRecord
  2
*Paper_Space
340
1E
 70
0
280
1
281
0
  0
ENDTAB
  0
ENDSEC
  0
SECTION
  2
BLOCKS
  0
BLOCK
  5
18
330
17
100
AcDbEntity
  8
0
100
AcDbBlockBegin
  2
*Model_Space
 70
0
 10
0.0
 20
0.0
 30
0.0
  3
*Model_Space
  1

  0
ENDBLK
  5
19
330
17
100
AcDbEntity
  8
0
100
AcDbBlockEnd
  0
BLOCK
  5
1C
330
1B
100
AcDbEntity
  8
0
100
AcDbBlockBegin
  2
*Paper_Space
 70
0
 10
0.0
 20
0.0
 30
0.0
  3
*Paper_Space
  1

  0
ENDBLK
  5
1D
330
1B
100
AcDbEntity
  8
0
100
AcDbBlockEnd
  0
ENDSEC
  0
SECTION
  2
ENTITIES
  0
LINE
  5
2F
330
17
100
AcDbEntity
  8
0
100
AcDbLine
 10
6.8
 20
63.778871
 30
0.0
 11
0.3
 21
61.278871
 31
0.0
  0
LINE
  5
30
330
17
100
AcDbEntity
  8
0
100
AcDbLine
 10
0.3
 20
61.278871
 30
0.0
 11
0.3
 21
62.79013208547685
 31
0.0
  0
LINE
  5
31
330
17
100
AcDbEntity
  8
0
100
AcDbLine
 10
0.3
 20
62.79013208547685
 30
0.0
 11
1.4000000000000001
 21
64.02887082421559
 31
0.0
  0
LINE
  5
32
330
17
100
AcDbEntity
  8
0
100
AcDbLine
 10
1.4000000000000001
 20
64.02887082421559
 30
0.0
 11
0.3
 21
65.26760956295432
 31
0.0
  0
LINE
  5
33
330
17
100
AcDbEntity
  8
0
100
AcDbLine
 10
0.3
 20
65.26760956295432
 30
0.0
 11
0.3
 21
65.29013208547686
 31
0.0
  0
LINE
  5
34
330
17
100
AcDbEntity
  8
0
100
AcDbLine
 10
0.3
 20
65.29013208547686
 30
0.0
 11
1.4000000000000001
 21
66.52887082421559
 31
0.0
  0
LINE
  5
35
330
17
100
AcDbEntity
  8
0
100
AcDbLine
 10
1.4000000000000001
 20
66.52887082421559
 30
0.0
 11
0.3
 21
67.76760956295432
 31
0.0
  0
LINE
  5
36
330
17
100
AcDbEntity
  8
0
100
AcDbLine
 10
0.3
 20
67.76760956295432
 30
0.0
 11
0.3
 21
67.79013208547686
 31
0.0
  0
LINE
  5
37
330
17
100
AcDbEntity
  8
0
100
AcDbLine
 10
0.3
 20
67.79013208547686
 30
0.0
 11
1.4000000000000001
 21
69.02887082421559
 31
0.0
  0
LINE
  5
38
330
17
100
AcDbEntity
  8
0
100
AcDbLine
 10
1.4000000000000001
 20
69.02887082421559
 30
0.0
 11
0.3
 21
70.26760956295432
 31
0.0
  0
LINE
  5
39
330
17
100
AcDbEntity
  8
0
100
AcDbLine
 10
0.3
 20
70.26760956295432
 30
0.0
 11
0.3
 21
70.29013208547684
 31
0.0
  0
LINE
  5
3A
330
17
100
AcDbEntity
  8
0
100
AcDbLine
 10
0.3
 20
70.29013208547684
 30
0.0
 11
1.4000000000000001
 21
71.52887082421559
 31
0.0
  0
LINE
  5
3B
330
17
100
AcDbEntity
  8
0
100
AcDbLine
 10
1.4000000000000001
 20
71.52887082421559
 30
0.0
 11
0.3
 21
72.76760956295433
 31
0.0
  0
LINE
  5
3C
330
17
100
AcDbEntity
  8
0
100
AcDbLine
 10
0.3
 20
72.76760956295433
 30
0.0
 11
0.3
 21
72.79013208547686
 31
0.0
  0
LINE
  5
3D
330
17
100
AcDbEntity
  8
0
100
AcDbLine
 10
0.3
 20
72.79013208547686
 30
0.0
 11
1.4000000000000001
 21
74.02887082421559
 31
0.0
  0
LINE
  5
3E
330
17
100
AcDbEntity
  8
0
100
AcDbLine
 10
1.4000000000000001
 20
74.02887082421559
 30
0.0
 11
0.3
 21
75.26760956295432
 31
0.0
  0
LINE
  5
3F
330
17
100
AcDbEntity
  8
0
100
AcDbLine
 10
0.3
 20
75.26760956295432
 30
0.0
 11
0.3
 21
75.29013208547686
 31
0.0
  0
LINE
  5
40
330
17
100
AcDbEntity
  8
0
100
AcDbLine
 10
0.3
 20
75.29013208547686
 30
0.0
 11
1.4000000000000001
 21
76.52887082421559
 31
0.0
  0
LINE
  5
41
330
17
100
AcDbEntity
  8
0
100
AcDbLine
 10
1.4000000000000001
 20
76.52887082421559
 30
0.0
 11
0.3
 21
77.76760956295432
 31
0.0
  0
LINE
  5
42
330
17
100
AcDbEntity
  8
0
100
AcDbLine
 10
0.3
 20
77.76760956295432
 30
0.0
 11
0.3
 21
77.79013208547686
 31
0.0
  0
LINE
  5
43
330
17
100
AcDbEntity
  8
0
100
AcDbLine
 10
0.3
 20
77.79013208547686
 30
0.0
 11
1.4000000000000001
 21
79.02887082421559
 31
0.0
  0
LINE
  5
44
330
17
100
AcDbEntity
  8
0
100
AcDbLine
 10
1.4000000000000001
 20
79.02887082421559
 30
0.0
 11
0.3
 21
80.26760956295433
 31
0.0
  0
LINE
  5
45
330
17
100
AcDbEntity
  8
0
100
AcDbLine
 10
0.3
 20
80.26760956295433
 30
0.0
 11
0.3
 21
80.29013208547686
 31
0.0
  0
LINE
  5
46
330
17
100
AcDbEntity
  8
0
100
AcDbLine
 10
0.3
 20
80.29013208547686
 30
0.0
 11
1.4000000000000001
 21
81.52887082421559
 31
0.0
  0
LINE
  5
47
330
17
100
AcDbEntity
  8
0
100
AcDbLine
 10
1.4000000000000001
 20
81.52887082421559
 30
0.0
 11
0.3
 21
82.76760956295432
 31
0.0
  0
LINE
  5
48
330
17
100
AcDbEntity
  8
0
100
AcDbLine
 10
0.3
 20
82.76760956295432
 30
0.0
 11
0.3
 21
82.79013208547686
 31
0.0
  0
LINE
  5
49
330
17
100
AcDbEntity
  8
0
100
AcDbLine
 10
0.3
 20
82.79013208547686
 30
0.0
 11
1.4000000000000001
 21
84.02887082421559
 31
0.0
  0
LINE
  5
4A
330
17
100
AcDbEntity
  8
0
100
AcDbLine
 10
1.4000000000000001
 20
84.02887082421559
 30
0.0
 11
0.3
 21
85.26760956295432
 31
0.0
  0
LINE
  5
4B
330
17
100
AcDbEntity
  8
0
100
AcDbLine
 10
0.3
 20
85.26760956295432
 30
0.0
 11
0.3
 21
85.29013208547684
 31
0.0
  0
LINE
  5
4C
330
17
100
AcDbEntity
  8
0
100
AcDbLine
 10
0.3
 20
85.29013208547684
 30
0.0
 11
1.4000000000000001
 21
86.52887082421559
 31
0.0
  0
LINE
  5
4D
330
17
100
AcDbEntity
  8
0
100
AcDbLine
 10
1.4000000000000001
 20
86.52887082421559
 30
0.0
 11
0.3
 21
87.76760956295433
 31
0.0
  0
LINE
  5
4E
330
17
100
AcDbEntity
  8
0
100
AcDbLine
 10
0.3
 20
87.76760956295433
 30
0.0
 11
0.3
 21
89.63274143877786
 31
0.0
  0
LINE
  5
4F
330
17
100
AcDbEntity
  8
0
100
AcDbLine
 10
0.3
 20
89.63274143877786
 30
0.0
 11
0.7611537032559106
 21
89.99427921112392
 31
0.0
  0
LINE
  5
50
330
17
100
AcDbEntity
  8
0
100
AcDbLine
 10
0.7611537032559106
 20
89.99427921112392
 30
0.0
 11
1.2678319945607353
 21
90.29387931706701
 31
0.0
  0
LINE
  5
51
330
17
100
AcDbEntity
  8
0
100
AcDbLine
 10
1.2678319945607353
 20
90.29387931706701
 30
0.0
 11
1.809281243862038
 21
90.52478151452674
 31
0.0
  0
LINE
  5
52
330
17
100
AcDbEntity
  8
0
100
AcDbLine
 10
1.809281243862038
 20
90.52478151452674
 30
0.0
 11
2.376237104386185
 21
90.6830350028864
 31
0.0
  0
LINE
  5
53
330
17
100
AcDbEntity
  8
0
100
AcDbLine
 10
2.376237104386185
 20
90.6830350028864
 30
0.0
 11
2.9589988041697435
 21
90.76593202108401
 31
0.0
  0
LINE
  5
54
330
17
100
AcDbEntity
  8
0
100
AcDbLine
 10
2.9589988041697435
 20
90.76593202108401
 30
0.0
 11
3.5475951289573504
 21
90.77205417815482
 31
0.0
  0
LINE
  5
55
330
17
100
AcDbEntity
  8
0
100
AcDbLine
 10
3.5475951289573504
 20
90.77205417815482
 30
0.0
 11
4.131955032442161
 21
90.70129672229395
 31
0.0
  0
LINE
  5
56
330
17
100
AcDbEntity
  8
0
100
AcDbLine
 10
4.131955032442161
 20
90.70129672229395
 30
0.0
 11
4.702079954660371
 21
90.55487033318884
 31
0.0
  0
LINE
  5
57
330
17
100
AcDbEntity
  8
0
100
AcDbLine
 10
4.702079954660371
 20
90.55487033318884
 30
0.0
 11
5.129162226341604
 21
90.38314910327388
 31
0.0
  0
LINE
  5
58
330
17
100
AcDbEntity
  8
0
100
AcDbLine
 10
5.129162226341604
 20
90.38314910327388
 30
0.0
 11
5.15457994601609
 21
90.37574449288878
 31
0.0
  0
LINE
  5
59
330
17
100
AcDbEntity
  8
0
100
AcDbLine
 10
5.15457994601609
 20
90.37574449288878
 30
0.0
 11
5.29679186007859
 21
90.33253160226378
 31
0.0
  0
LINE
  5
5A
330
17
100
AcDbEntity
  8
0
100
AcDbLine
 10
5.29679186007859
 20
90.33253160226378
 30
0.0
 11
5.498311100804393
 21
90.2660685182999
 31
0.0
  0
LINE
  5
5B
330
17
100
AcDbEntity
  8
0
100
AcDbLine
 10
5.498311100804393
 20
90.2660685182999
 30
0.0
 11
5.6498003586168934
 21
90.2121134401749
 31
0.0
  0
LINE
  5
5C
330
17
100
AcDbEntity
  8
0
100
AcDbLine
 10
5.6498003586168934
 20
90.2121134401749
 30
0.0
 11
5.923626062387163
 21
90.10437353515398
 31
0.0
  0
LINE
  5
5D
330
17
100
AcDbEntity
  8
0
100
AcDbLine
 10
5.923626062387163
 20
90.10437353515398
 30
0.0
 11
6.083660242074663
 21
90.03528173827898
 31
0.0
  0
LINE
  5
5E
330
17
100
AcDbEntity
  8
0
100
AcDbLine
 10
6.083660242074663
 20
90.03528173827898
 30
0.0
 11
6.401105402333764
 21
89.88323711651438
 31
0.0
  0
LINE
  5
5F
330
17
100
AcDbEntity
  8
0
100
AcDbLine
 10
6.401105402333764
 20
89.88323711651438
 30
0.0
 11
6.568952082021264
 21
89.79461406963938
 31
0.0
  0
LINE
  5
60
330
17
100
AcDbEntity
  8
0
100
AcDbLine
 10
6.568952082021264
 20
89.79461406963938
 30
0.0
 11
6.902723863878961
 21
89.59960678487461
 31
0.0
  0
LINE
  5
61
330
17
100
AcDbEntity
  8
0
100
AcDbLine
 10
6.902723863878961
 20
89.59960678487461
 30
0.0
 11
7.077650621691461
 21
89.48705795674961
 31
0.0
  0
LINE
  5
62
330
17
100
AcDbEntity
  8
0
100
AcDbLine
 10
7.077650621691461
 20
89.48705795674961
 30
0.0
 11
7.40401508326614
 21
89.25594318141898
 31
0.0
  0
LINE
  5
63
330
17
100
AcDbEntity
  8
0
100
AcDbLine
 10
7.40401508326614
 20
89.25594318141898
 30
0.0
 11
7.58528949732864
 21
89.11507404079398
 31
0.0
  0
LINE
  5
64
330
17
100
AcDbEntity
  8
0
100
AcDbLine
 10
7.58528949732864
 20
89.11507404079398
 30
0.0
 11
7.886490797077733
 21
88.85901697426135
 31
0.0
  0
LINE
  5
65
330
17
100
AcDbEntity
  8
0
100
AcDbLine
 10
7.886490797077733
 20
88.85901697426135
 30
0.0
 11
8.073380445515234
 21
88.68543298988635
 31
0.0
  0
LINE
  5
66
330
17
100
AcDbEntity
  8
0
100
AcDbLine
 10
8.073380445515234
 20
88.68543298988635
 30
0.0
 11
8.338835090816573
 21
88.4172881852659
 31
0.0
  0
LINE
  5
67
330
17
100
AcDbEntity
  8
0
100
AcDbLine
 10
8.338835090816573
 20
88.4172881852659
 30
0.0
 11
8.530607551754073
 21
88.2065948258909
 31
0.0
  0
LINE
  5
68
330
17
100
AcDbEntity
  8
0
100
AcDbLine
 10
8.530607551754073
 20
88.2065948258909
 30
0.0
 11
8.756368885358457
 21
87.93826039015309
 31
0.0
  0
LINE
  5
69
330
17
100
AcDbEntity
  8
0
100
AcDbLine
 10
8.756368885358457
 20
87.93826039015309
 30
0.0
 11
8.952291736920957
 21
87.68606312452809
 31
0.0
  0
LINE
  5
6A
330
17
100
AcDbEntity
  8
0
100
AcDbLine
 10
8.952291736920957
 20
87.68606312452809
 30
0.0
 11
9.13932042913654
 21
87.42680600919408
 31
0.0
  0
LINE
  5
6B
330
17
100
AcDbEntity
  8
0
100
AcDbLine
 10
9.13932042913654
 20
87.42680600919408
 30
0.0
 11
9.33866124944904
 21
87.12871030606908
 31
0.0
  0
LINE
  5
6C
330
17
100
AcDbEntity
  8
0
100
AcDbLine
 10
9.33866124944904
 20
87.12871030606908
 30
0.0
 11
9.490803402616333
 21
86.88466428551783
 31
0.0
  0
LINE
  5
6D
330
17
100
AcDbEntity
  8
0
100
AcDbLine
 10
9.490803402616333
 20
86.88466428551783
 30
0.0
 11
9.692829769803833
 21
86.53627561364283
 31
0.0
  0
LINE
  5
6E
330
17
100
AcDbEntity
  8
0
100
AcDbLine
 10
9.692829769803833
 20
86.53627561364283
 30
0.0
 11
9.793079678562272
 21
86.35379604712195
 31
0.0
  0
LINE
  5
6F
330
17
100
AcDbEntity
  8
0
100
AcDbLine
 10
9.793079678562272
 20
86.35379604712195
 30
0.0
 11
10.001769096658613
 21
85.95218471899695
 31
0.0
  0
LINE
  5
70
330
17
100
AcDbEntity
  8
0
100
AcDbLine
 10
10.001769096658613
 20
85.95218471899695
 30
0.0
 11
10.057815805459759
 21
85.84056678206426
 31
0.0
  0
LINE
  5
71
330
17
100
AcDbEntity
  8
0
100
AcDbLine
 10
10.057815805459759
 20
85.84056678206426
 30
0.0
 11
10.276931464923086
 21
85.38866248518926
 31
0.0
  0
LINE
  5
72
330
17
100
AcDbEntity
  8
0
100
AcDbLine
 10
10.276931464923086
 20
85.38866248518926
 30
0.0
 11
10.317574186976291
 21
85.30253090533944
 31
0.0
  0
LINE
  5
73
330
17
100
AcDbEntity
  8
0
100
AcDbLine
 10
10.317574186976291
 20
85.30253090533944
 30
0.0
 11
10.54606219556807
 21
84.80472817096444
 31
0.0
  0
LINE
  5
74
330
17
100
AcDbEntity
  8
0
100
AcDbLine
 10
10.54606219556807
 20
84.80472817096444
 30
0.0
 11
10.576585207969806
 21
84.73674920120774
 31
0.0
  0
LINE
  5
75
330
17
100
AcDbEntity
  8
0
100
AcDbLine
 10
10.576585207969806
 20
84.73674920120774
 30
0.0
 11
10.813391673451502
 21
84.19744256058274
 31
0.0
  0
LINE
  5
76
330
17
100
AcDbEntity
  8
0
100
AcDbLine
 10
10.813391673451502
 20
84.19744256058274
 30
0.0
 11
10.836929045850688
 21
84.14286177161055
 31
0.0
  0
LINE
  5
77
330
17
100
AcDbEntity
  8
0
100
AcDbLine
 10
10.836929045850688
 20
84.14286177161055
 30
0.0
 11
11.081000075983763
 21
83.56644575598555
 31
0.0
  0
LINE
  5
78
330
17
100
AcDbEntity
  8
0
100
AcDbLine
 10
11.081000075983763
 20
83.56644575598555
 30
0.0
 11
11.09951247806966
 21
83.52206661625117
 31
0.0
  0
LINE
  5
79
330
17
100
AcDbEntity
  8
0
100
AcDbLine
 10
11.09951247806966
 20
83.52206661625117
 30
0.0
 11
11.349794180615582
 21
82.91293575687617
 31
0.0
  0
LINE
  5
7A
330
17
100
AcDbEntity
  8
0
100
AcDbLine
 10
11.349794180615582
 20
82.91293575687617
 30
0.0
 11
11.364561665355541
 21
82.87654398947444
 31
0.0
  0
LINE
  5
7B
330
17
100
AcDbEntity
  8
0
100
AcDbLine
 10
11.364561665355541
 20
82.87654398947444
 30
0.0
 11
11.620000148075771
 21
82.23909281759944
 31
0.0
  0
LINE
  5
7C
330
17
100
AcDbEntity
  8
0
100
AcDbLine
 10
11.620000148075771
 20
82.23909281759944
 30
0.0
 11
11.631887157809219
 21
82.20911797843874
 31
0.0
  0
LINE
  5
7D
330
17
100
AcDbEntity
  8
0
100
AcDbLine
 10
11.631887157809219
 20
82.20911797843874
 30
0.0
 11
11.891428528465223
 21
81.54774102531374
 31
0.0
  0
LINE
  5
7E
330
17
100
AcDbEntity
  8
0
100
AcDbLine
 10
11.891428528465223
 20
81.54774102531374
 30
0.0
 11
11.901034115335664
 21
81.52305007102437
 31
0.0
  0
LINE
  5
7F
330
17
100
AcDbEntity
  8
0
100
AcDbLine
 10
11.901034115335664
 20
81.52305007102437
 30
0.0
 11
12.163624481688908
 21
80.84214186789937
 31
0.0
  0
LINE
  5
80
330
17
100
AcDbEntity
  8
0
100
AcDbLine
 10
12.163624481688908
 20
80.84214186789937
 30
0.0
 11
12.171371203065792
 21
80.82190934384829
 31
0.0
  0
LINE
  5
81
330
17
100
AcDbEntity
  8
0
100
AcDbLine
 10
12.171371203065792
 20
80.82190934384829
 30
0.0
 11
12.435956672877737
 21
80.12586442197329
 31
0.0
  0
LINE
  5
82
330
17
100
AcDbEntity
  8
0
100
AcDbLine
 10
12.435956672877737
 20
80.12586442197329
 30
0.0
 11
12.442144996866542
 21
80.10948897083179
 31
0.0
  0
LINE
  5
83
330
17
100
AcDbEntity
  8
0
100
AcDbLine
 10
12.442144996866542
 20
80.10948897083179
 30
0.0
 11
12.707671677898656
 21
79.40270186145679
 31
0.0
  0
LINE
  5
84
330
17
100
AcDbEntity
  8
0
100
AcDbLine
 10
12.707671677898656
 20
79.40270186145679
 30
0.0
 11
12.712514043511774
 21
79.38975191117632
 31
0.0
  0
LINE
  5
85
330
17
100
AcDbEntity
  8
0
100
AcDbLine
 10
12.712514043511774
 20
79.38975191117632
 30
0.0
 11
12.977928043525516
 21
78.67661714555132
 31
0.0
  0
LINE
  5
86
330
17
100
AcDbEntity
  8
0
100
AcDbLine
 10
12.977928043525516
 20
78.67661714555132
 30
0.0
 11
12.981570316768769
 21
78.66679585307496
 31
0.0
  0
LINE
  5
87
330
17
100
AcDbEntity
  8
0
100
AcDbLine
 10
12.981570316768769
 20
78.66679585307496
 30
0.0
 11
13.24581774352561
 21
77.95170796244996
 31
0.0
  0
LINE
  5
88
330
17
100
AcDbEntity
  8
0
100
AcDbLine
 10
13.24581774352561
 20
77.95170796244996
 30
0.0
 11
13.24835239512575
 21
77.94483164934483
 31
0.0
  0
LINE
  5
89
330
17
100
AcDbEntity
  8
0
100
AcDbLine
 10
13.24835239512575
 20
77.94483164934483
 30
0.0
 11
13.510379356387155
 21
77.23218516496983
 31
0.0
  0
LINE
  5
8A
330
17
100
AcDbEntity
  8
0
100
AcDbLine
 10
13.510379356387155
 20
77.23218516496983
 30
0.0
 11
13.770605346400686
 21
76.52236149837029
 31
0.0
  0
LINE
  5
8B
330
17
100
AcDbEntity
  8
0
100
AcDbLine
 10
13.770605346400686
 20
76.52236149837029
 30
0.0
 11
14.021448736811916
 21
75.83755794178903
 31
0.0
  0
LINE
  5
8C
330
17
100
AcDbEntity
  8
0
100
AcDbLine
 10
14.021448736811916
 20
75.83755794178903
 30
0.0
 11
14.272676963634163
 21
75.16251597139174
 31
0.0
  0
LINE
  5
8D
330
17
100
AcDbEntity
  8
0
100
AcDbLine
 10
14.272676963634163
 20
75.16251597139174
 30
0.0
 11
14.540437190214972
 21
74.45988298086587
 31
0.0
  0
LINE
  5
8E
330
17
100
AcDbEntity
  8
0
100
AcDbLine
 10
14.540437190214972
 20
74.45988298086587
 30
0.0
 11
14.825308258960012
 21
73.72311155301506
 31
0.0
  0
LINE
  5
8F
330
17
100
AcDbEntity
  8
0
100
AcDbLine
 10
14.825308258960012
 20
73.72311155301506
 30
0.0
 11
15.123097646947652
 21
72.95808775652341
 31
0.0
  0
LINE
  5
90
330
17
100
AcDbEntity
  8
0
100
AcDbLine
 10
15.123097646947652
 20
72.95808775652341
 30
0.0
 11
15.428124100313106
 21
72.1742634483589
 31
0.0
  0
LINE
  5
91
330
17
100
AcDbEntity
  8
0
100
AcDbLine
 10
15.428124100313106
 20
72.1742634483589
 30
0.0
 11
15.431908613753787
 21
72.16450484574668
 31
0.0
  0
LINE
  5
92
330
17
100
AcDbEntity
  8
0
100
AcDbLine
 10
15.431908613753787
 20
72.16450484574668
 30
0.0
 11
15.738277467487382
 21
71.37178023637168
 31
0.0
  0
LINE
  5
93
330
17
100
AcDbEntity
  8
0
100
AcDbLine
 10
15.738277467487382
 20
71.37178023637168
 30
0.0
 11
15.745589858970673
 21
71.35273121386541
 31
0.0
  0
LINE
  5
94
330
17
100
AcDbEntity
  8
0
100
AcDbLine
 10
15.745589858970673
 20
71.35273121386541
 30
0.0
 11
16.049696268750125
 21
70.55512379199041
 31
0.0
  0
LINE
  5
95
330
17
100
AcDbEntity
  8
0
100
AcDbLine
 10
16.049696268750125
 20
70.55512379199041
 30
0.0
 11
16.0605007948473
 21
70.52649372848242
 31
0.0
  0
LINE
  5
96
330
17
100
AcDbEntity
  8
0
100
AcDbLine
 10
16.0605007948473
 20
70.52649372848242
 30
0.0
 11
16.358593170149682
 21
69.72839802535742
 31
0.0
  0
LINE
  5
97
330
17
100
AcDbEntity
  8
0
100
AcDbLine
 10
16.358593170149682
 20
69.72839802535742
 30
0.0
 11
16.372915683771804
 21
69.68950626935157
 31
0.0
  0
LINE
  5
98
330
17
100
AcDbEntity
  8
0
100
AcDbLine
 10
16.372915683771804
 20
69.68950626935157
 30
0.0
 11
16.661242434074186
 21
68.89531681622657
 31
0.0
  0
LINE
  5
99
330
17
100
AcDbEntity
  8
0
100
AcDbLine
 10
16.661242434074186
 20
68.89531681622657
 30
0.0
 11
16.67915593933811
 21
68.84504719467665
 31
0.0
  0
LINE
  5
9A
330
17
100
AcDbEntity
  8
0
100
AcDbLine
 10
16.67915593933811
 20
68.84504719467665
 30
0.0
 11
16.95396547411756
 21
68.05915852280165
 31
0.0
  0
LINE
  5
9B
330
17
100
AcDbEntity
  8
0
100
AcDbLine
 10
16.95396547411756
 20
68.05915852280165
 30
0.0
 11
16.975569308215324
 21
67.99587144655082
 31
0.0
  0
LINE
  5
9C
330
17
100
AcDbEntity
  8
0
100
AcDbLine
 10
16.975569308215324
 20
67.99587144655082
 30
0.0
 11
17.23311003694892
 21
67.22267808717582
 31
0.0
  0
LINE
  5
9D
330
17
100
AcDbEntity
  8
0
100
AcDbLine
 10
17.23311003694892
 20
67.22267808717582
 30
0.0
 11
17.25849478848501
 21
67.14406826875658
 31
0.0
  0
LINE
  5
9E
330
17
100
AcDbEntity
  8
0
100
AcDbLine
 10
17.25849478848501
 20
67.14406826875658
 30
0.0
 11
17.495015120649814
 21
66.38796475313158
 31
0.0
  0
LINE
  5
9F
330
17
100
AcDbEntity
  8
0
100
AcDbLine
 10
17.495015120649814
 20
66.38796475313158
 30
0.0
 11
17.524198711309666
 21
66.29084376001595
 31
0.0
  0
LINE
  5
A0
330
17
100
AcDbEntity
  8
0
100
AcDbLine
 10
17.524198711309666
 20
66.29084376001595
 30
0.0
 11
17.73594705638276
 21
65.55622461939095
 31
0.0
  0
LINE
  5
A1
330
17
100
AcDbEntity
  8
0
100
AcDbLine
 10
17.73594705638276
 20
65.55622461939095
 30
0.0
 11
17.768754161782837
 21
65.4361953545603
 31
0.0
  0
LINE
  5
A2
330
17
100
AcDbEntity
  8
0
100
AcDbLine
 10
17.768754161782837
 20
65.4361953545603
 30
0.0
 11
17.951978929241285
 21
64.7274551201853
 31
0.0
  0
LINE
  5
A3
330
17
100
AcDbEntity
  8
0
100
AcDbLine
 10
17.951978929241285
 20
64.7274551201853
 30
0.0
 11
17.987809300514407
 21
64.57842907533278
 31
0.0
  0
LINE
  5
A4
330
17
100
AcDbEntity
  8
0
100
AcDbLine
 10
17.987809300514407
 20
64.57842907533278
 30
0.0
 11
18.138758899835285
 21
63.89996227845778
 31
0.0
  0
LINE
  5
A5
330
17
100
AcDbEntity
  8
0
100
AcDbLine
 10
18.138758899835285
 20
63.89996227845778
 30
0.0
 11
18.176136140209742
 21
63.71345254926501
 31
0.0
  0
LINE
  5
A6
330
17
100
AcDbEntity
  8
0
100
AcDbLine
 10
18.176136140209742
 20
63.71345254926501
 30
0.0
 11
18.291058980870115
 21
63.06965372114001
 31
0.0
  0
LINE
  5
A7
330
17
100
AcDbEntity
  8
0
100
AcDbLine
 10
18.291058980870115
 20
63.06965372114001
 30
0.0
 11
18.334582338048097
 21
62.76654766096918
 31
0.0
  0
LINE
  5
A8
330
17
100
AcDbEntity
  8
0
100
AcDbLine
 10
18.334582338048097
 20
62.76654766096918
 30
0.0
 11
18.39827182832176
 21
62.182319145344195
 31
0.0
  0
LINE
  5
A9
330
17
100
AcDbEntity
  8
0
100
AcDbLine
 10
18.39827182832176
 20
62.182319145344195
 30
0.0
 11
18.42450174540245
 21
61.74425885714385
 31
0.0
  0
LINE
  5
AA
330
17
100
AcDbEntity
  8
0
100
AcDbLine
 10
18.42450174540245
 20
61.74425885714385
 30
0.0
 11
18.43014155596113
 21
61.23278424776885
 31
0.0
  0
LINE
  5
AB
330
17
100
AcDbEntity
  8
0
100
AcDbLine
 10
18.43014155596113
 20
61.23278424776885
 30
0.0
 11
18.40963872152179
 21
60.75124672396955
 31
0.0
  0
LINE
  5
AC
330
17
100
AcDbEntity
  8
0
100
AcDbLine
 10
18.40963872152179
 20
60.75124672396955
 30
0.0
 11
18.366062655439436
 21
60.29934242709454
 31
0.0
  0
LINE
  5
AD
330
17
100
AcDbEntity
  8
0
100
AcDbLine
 10
18.366062655439436
 20
60.29934242709454
 30
0.0
 11
18.293385938619462
 21
59.818934318382254
 31
0.0
  0
LINE
  5
AE
330
17
100
AcDbEntity
  8
0
100
AcDbLine
 10
18.293385938619462
 20
59.818934318382254
 30
0.0
 11
18.209427798970054
 21
59.413416740257254
 31
0.0
  0
LINE
  5
AF
330
17
100
AcDbEntity
  8
0
100
AcDbLine
 10
18.209427798970054
 20
59.413416740257254
 30
0.0
 11
18.100798418149274
 21
58.992364806215235
 31
0.0
  0
LINE
  5
B0
330
17
100
AcDbEntity
  8
0
100
AcDbLine
 10
18.100798418149274
 20
58.992364806215235
 30
0.0
 11
17.98529200800677
 21
58.620050353090235
 31
0.0
  0
LINE
  5
B1
330
17
100
AcDbEntity
  8
0
100
AcDbLine
 10
17.98529200800677
 20
58.620050353090235
 30
0.0
 11
17.876487051247477
 21
58.309857252985545
 31
0.0
  0
LINE
  5
B2
330
17
100
AcDbEntity
  8
0
100
AcDbLine
 10
17.876487051247477
 20
58.309857252985545
 30
0.0
 11
17.73826617368584
 21
57.957562331110545
 31
0.0
  0
LINE
  5
B3
330
17
100
AcDbEntity
  8
0
100
AcDbLine
 10
17.73826617368584
 20
57.957562331110545
 30
0.0
 11
17.667633462231244
 21
57.78781803798876
 31
0.0
  0
LINE
  5
B4
330
17
100
AcDbEntity
  8
0
100
AcDbLine
 10
17.667633462231244
 20
57.78781803798876
 30
0.0
 11
17.51553192032444
 21
57.44235905361376
 31
0.0
  0
LINE
  5
B5
330
17
100
AcDbEntity
  8
0
100
AcDbLine
 10
17.51553192032444
 20
57.44235905361376
 30
0.0
 11
17.50577305475792
 21
57.42035411251834
 31
0.0
  0
LINE
  5
B6
330
17
100
AcDbEntity
  8
0
100
AcDbLine
 10
17.50577305475792
 20
57.42035411251834
 30
0.0
 11
17.37472230051044
 21
57.126972031181154
 31
0.0
  0
LINE
  5
B7
330
17
100
AcDbEntity
  8
0
100
AcDbLine
 10
17.37472230051044
 20
57.126972031181154
 30
0.0
 11
17.29430952502675
 21
56.93226659371566
 31
0.0
  0
LINE
  5
B8
330
17
100
AcDbEntity
  8
0
100
AcDbLine
 10
17.29430952502675
 20
56.93226659371566
 30
0.0
 11
17.25168127747556
 21
56.809885093797305
 31
0.0
  0
LINE
  5
B9
330
17
100
AcDbEntity
  8
0
100
AcDbLine
 10
17.25168127747556
 20
56.809885093797305
 30
0.0
 11
17.226828919820992
 21
56.716141220667254
 31
0.0
  0
ARC
  5
BA
330
17
100
AcDbEntity
  8
0
100
AcDbCircle
 10
12.86108579698606
 20
54.27887082421559
 30
0.0
 40
5.0
100
AcDbArc
 50
-14.30433980360047
 51
29.173382506073153
  0
LINE
  5
BB
330
17
100
AcDbEntity
  8
0
100
AcDbLine
 10
17.706070896826756
 20
53.043508779177074
 30
0.0
 11
18.0074803073083
 21
51.78475531254019
 31
0.0
  0
LINE
  5
BC
330
17
100
AcDbEntity
  8
0
100
AcDbLine
 10
18.0074803073083
 20
51.78475531254019
 30
0.0
 11
18.364894930144402
 21
50.37955955286736
 31
0.0
  0
LINE
  5
BD
330
17
100
AcDbEntity
  8
0
100
AcDbLine
 10
18.364894930144402
 20
50.37955955286736
 30
0.0
 11
18.765339991963714
 21
48.871022230587535
 31
0.0
  0
LINE
  5
BE
330
17
100
AcDbEntity
  8
0
100
AcDbLine
 10
18.765339991963714
 20
48.871022230587535
 30
0.0
 11
19.198543529824715
 21
47.28959576834903
 31
0.0
  0
LINE
  5
BF
330
17
100
AcDbEntity
  8
0
100
AcDbLine
 10
19.198543529824715
 20
47.28959576834903
 30
0.0
 11
19.654493129623578
 21
45.66410957302492
 31
0.0
  0
LINE
  5
C0
330
17
100
AcDbEntity
  8
0
100
AcDbLine
 10
19.654493129623578
 20
45.66410957302492
 30
0.0
 11
20.1233485687161
 21
44.022451435012584
 31
0.0
  0
LINE
  5
C1
330
17
100
AcDbEntity
  8
0
100
AcDbLine
 10
20.1233485687161
 20
44.022451435012584
 30
0.0
 11
20.595393374664503
 21
42.39190528304719
 31
0.0
  0
LINE
  5
C2
330
17
100
AcDbEntity
  8
0
100
AcDbLine
 10
20.595393374664503
 20
42.39190528304719
 30
0.0
 11
21.061012119334844
 21
40.79931200573325
 31
0.0
  0
LINE
  5
C3
330
17
100
AcDbEntity
  8
0
100
AcDbLine
 10
21.061012119334844
 20
40.79931200573325
 30
0.0
 11
21.510689093734175
 21
39.27111576382003
 31
0.0
  0
LINE
  5
C4
330
17
100
AcDbEntity
  8
0
100
AcDbLine
 10
21.510689093734175
 20
39.27111576382003
 30
0.0
 11
21.934857664138036
 21
37.83389268019809
 31
0.0
  0
LINE
  5
C5
330
17
100
AcDbEntity
  8
0
100
AcDbLine
 10
21.934857664138036
 20
37.83389268019809
 30
0.0
 11
22.323757936474706
 21
36.51483348409397
 31
0.0
  0
LINE
  5
C6
330
17
100
AcDbEntity
  8
0
100
AcDbLine
 10
22.323757936474706
 20
36.51483348409397
 30
0.0
 11
22.325931624736405
 21
36.507437487691654
 31
0.0
  0
LINE
  5
C7
330
17
100
AcDbEntity
  8
0
100
AcDbLine
 10
22.325931624736405
 20
36.507437487691654
 30
0.0
 11
22.58837544789433
 21
35.61163422089285
 31
0.0
  0
ARC
  5
C8
330
17
100
AcDbEntity
  8
0
100
AcDbCircle
 10
18.86108579698606
 20
32.27887082421559
 30
0.0
 40
5.0
100
AcDbArc
 50
-189.87745893479143
 51
41.80155324835346
  0
LINE
  5
C9
330
17
100
AcDbEntity
  8
0
100
AcDbLine
 10
13.935201349272344
 20
33.136578471244576
 30
0.0
 11
13.690048255279253
 21
33.97336304411957
 31
0.0
  0
LINE
  5
CA
330
17
100
AcDbEntity
  8
0
100
AcDbLine
 10
13.690048255279253
 20
33.97336304411957
 30
0.0
 11
13.30276361424669
 21
35.28694299529379
 31
0.0
  0
LINE
  5
CB
330
17
100
AcDbEntity
  8
0
100
AcDbLine
 10
13.30276361424669
 20
35.28694299529379
 30
0.0
 11
12.878256312646585
 21
36.725313811983085
 31
0.0
  0
LINE
  5
CC
330
17
100
AcDbEntity
  8
0
100
AcDbLine
 10
12.878256312646585
 20
36.725313811983085
 30
0.0
 11
12.425935679751921
 21
38.26248915282494
 31
0.0
  0
LINE
  5
CD
330
17
100
AcDbEntity
  8
0
100
AcDbLine
 10
12.425935679751921
 20
38.26248915282494
 30
0.0
 11
12.423733546542337
 21
38.269997047002846
 31
0.0
  0
LINE
  5
CE
330
17
100
AcDbEntity
  8
0
100
AcDbLine
 10
12.423733546542337
 20
38.269997047002846
 30
0.0
 11
11.955349757479837
 21
39.872047828252846
 31
0.0
  0
LINE
  5
CF
330
17
100
AcDbEntity
  8
0
100
AcDbLine
 10
11.955349757479837
 20
39.872047828252846
 30
0.0
 11
11.952030338891863
 21
39.88345741012351
 31
0.0
  0
LINE
  5
D0
330
17
100
AcDbEntity
  8
0
100
AcDbLine
 10
11.952030338891863
 20
39.88345741012351
 30
0.0
 11
11.476078190454363
 21
41.52750037887351
 31
0.0
  0
LINE
  5
D1
330
17
100
AcDbEntity
  8
0
100
AcDbLine
 10
11.476078190454363
 20
41.52750037887351
 30
0.0
 11
11.471595951614589
 21
41.54308812565885
 31
0.0
  0
LINE
  5
D2
330
17
100
AcDbEntity
  8
0
100
AcDbLine
 10
11.471595951614589
 20
41.54308812565885
 30
0.0
 11
10.997596928177089
 21
43.20275609440885
 31
0.0
  0
LINE
  5
D3
330
17
100
AcDbEntity
  8
0
100
AcDbLine
 10
10.997596928177089
 20
43.20275609440885
 30
0.0
 11
10.991812140295565
 21
43.22319358380098
 31
0.0
  0
LINE
  5
D4
330
17
100
AcDbEntity
  8
0
100
AcDbLine
 10
10.991812140295565
 20
43.22319358380098
 30
0.0
 11
10.529287726233065
 21
44.87211936505098
 31
0.0
  0
LINE
  5
D5
330
17
100
AcDbEntity
  8
0
100
AcDbLine
 10
10.529287726233065
 20
44.87211936505098
 30
0.0
 11
10.521955319973564
 21
44.89856975734822
 31
0.0
  0
LINE
  5
D6
330
17
100
AcDbEntity
  8
0
100
AcDbLine
 10
10.521955319973564
 20
44.89856975734822
 30
0.0
 11
10.080426999661064
 21
46.51038616359822
 31
0.0
  0
LINE
  5
D7
330
17
100
AcDbEntity
  8
0
100
AcDbLine
 10
10.080426999661064
 20
46.51038616359822
 30
0.0
 11
10.071164911150262
 21
46.544729903987005
 31
0.0
  0
LINE
  5
D8
330
17
100
AcDbEntity
  8
0
100
AcDbLine
 10
10.071164911150262
 20
46.544729903987005
 30
0.0
 11
9.660154168962762
 21
48.09306974773701
 31
0.0
  0
LINE
  5
D9
330
17
100
AcDbEntity
  8
0
100
AcDbLine
 10
9.660154168962762
 20
48.09306974773701
 30
0.0
 11
9.648384599779863
 21
48.13835563332091
 31
0.0
  0
LINE
  5
DA
330
17
100
AcDbEntity
  8
0
100
AcDbLine
 10
9.648384599779863
 20
48.13835563332091
 30
0.0
 11
9.277412920092363
 21
49.596851727070906
 31
0.0
  0
LINE
  5
DB
330
17
100
AcDbEntity
  8
0
100
AcDbLine
 10
9.277412920092363
 20
49.596851727070906
 30
0.0
 11
9.262263844787299
 21
49.658211706523055
 31
0.0
  0
LINE
  5
DC
330
17
100
AcDbEntity
  8
0
100
AcDbLine
 10
9.262263844787299
 20
49.658211706523055
 30
0.0
 11
8.940852711974799
 21
51.00049686277306
 31
0.0
  0
LINE
  5
DD
330
17
100
AcDbEntity
  8
0
100
AcDbLine
 10
8.940852711974799
 20
51.00049686277306
 30
0.0
 11
8.921008714575025
 21
51.08713964304559
 31
0.0
  0
LINE
  5
DE
330
17
100
AcDbEntity
  8
0
100
AcDbLine
 10
8.921008714575025
 20
51.08713964304559
 30
0.0
 11
8.886401038945223
 21
51.24541057654492
 31
0.0
  0
ARC
  5
DF
330
17
100
AcDbEntity
  8
0
100
AcDbCircle
 10
12.86108579698606
 20
54.27887082421559
 30
0.0
 40
5.0
100
AcDbArc
 50
159.22834437137038
 51
217.35069902697361
  0
LINE
  5
E0
330
17
100
AcDbEntity
  8
0
100
AcDbLine
 10
8.186079625296621
 20
56.05209311560085
 30
0.0
 11
8.187660483948353
 21
56.6011533779922
 31
0.0
  0
LINE
  5
E1
330
17
100
AcDbEntity
  8
0
100
AcDbLine
 10
8.187660483948353
 20
56.6011533779922
 30
0.0
 11
8.20411477456134
 21
56.97288534509244
 31
0.0
  0
LINE
  5
E2
330
17
100
AcDbEntity
  8
0
100
AcDbLine
 10
8.20411477456134
 20
56.97288534509244
 30
0.0
 11
8.253990437985895
 21
57.55418417321744
 31
0.0
  0
LINE
  5
E3
330
17
100
AcDbEntity
  8
0
100
AcDbLine
 10
8.253990437985895
 20
57.55418417321744
 30
0.0
 11
8.304757730965871
 21
57.94450606365201
 31
0.0
  0
LINE
  5
E4
330
17
100
AcDbEntity
  8
0
100
AcDbLine
 10
8.304757730965871
 20
57.94450606365201
 30
0.0
 11
8.393755548489047
 21
58.45353926677701
 31
0.0
  0
LINE
  5
E5
330
17
100
AcDbEntity
  8
0
100
AcDbLine
 10
8.393755548489047
 20
58.45353926677701
 30
0.0
 11
8.476776005038772
 21
58.83168467765623
 31
0.0
  0
LINE
  5
E6
330
17
100
AcDbEntity
  8
0
100
AcDbLine
 10
8.476776005038772
 20
58.83168467765623
 30
0.0
 11
8.596062173586601
 21
59.28163584953123
 31
0.0
  0
LINE
  5
E7
330
17
100
AcDbEntity
  8
0
100
AcDbLine
 10
8.596062173586601
 20
59.28163584953123
 30
0.0
 11
8.696221066527013
 21
59.608705282547376
 31
0.0
  0
LINE
  5
E8
330
17
100
AcDbEntity
  8
0
100
AcDbLine
 10
8.696221066527013
 20
59.608705282547376
 30
0.0
 11
8.836961783025533
 21
60.012758016922376
 31
0.0
  0
LINE
  5
E9
330
17
100
AcDbEntity
  8
0
100
AcDbLine
 10
8.836961783025533
 20
60.012758016922376
 30
0.0
 11
8.927297676690442
 21
60.25028874062533
 31
0.0
  0
LINE
  5
EA
330
17
100
AcDbEntity
  8
0
100
AcDbLine
 10
8.927297676690442
 20
60.25028874062533
 30
0.0
 11
9.080659138065688
 21
60.62162663125033
 31
0.0
  0
LINE
  5
EB
330
17
100
AcDbEntity
  8
0
100
AcDbLine
 10
9.080659138065688
 20
60.62162663125033
 30
0.0
 11
9.131182667015466
 21
60.739194176537836
 31
0.0
  0
LINE
  5
EC
330
17
100
AcDbEntity
  8
0
100
AcDbLine
 10
9.131182667015466
 20
60.739194176537836
 30
0.0
 11
9.283422209574175
 21
61.08001139742425
 31
0.0
  0
LINE
  5
ED
330
17
100
AcDbEntity
  8
0
100
AcDbLine
 10
9.283422209574175
 20
61.08001139742425
 30
0.0
 11
9.393623246690703
 21
61.33030431281543
 31
0.0
  0
LINE
  5
EE
330
17
100
AcDbEntity
  8
0
100
AcDbLine
 10
9.393623246690703
 20
61.33030431281543
 30
0.0
 11
9.427565211136978
 21
61.41681498995646
 31
0.0
  0
LINE
  5
EF
330
17
100
AcDbEntity
  8
0
100
AcDbLine
 10
9.427565211136978
 20
61.41681498995646
 30
0.0
 11
9.427471040128658
 21
61.42535536187035
 31
0.0
  0
LINE
  5
F0
330
17
100
AcDbEntity
  8
0
100
AcDbLine
 10
9.427471040128658
 20
61.42535536187035
 30
0.0
 11
9.404191525510093
 21
61.63890011174407
 31
0.0
  0
LINE
  5
F1
330
17
100
AcDbEntity
  8
0
100
AcDbLine
 10
9.404191525510093
 20
61.63890011174407
 30
0.0
 11
9.332906978260706
 21
62.03823681208028
 31
0.0
  0
LINE
  5
F2
330
17
100
AcDbEntity
  8
0
100
AcDbLine
 10
9.332906978260706
 20
62.03823681208028
 30
0.0
 11
9.21926343440447
 21
62.54902565506199
 31
0.0
  0
LINE
  5
F3
330
17
100
AcDbEntity
  8
0
100
AcDbLine
 10
9.21926343440447
 20
62.54902565506199
 30
0.0
 11
9.070796741509948
 21
63.123316566593935
 31
0.0
  0
LINE
  5
F4
330
17
100
AcDbEntity
  8
0
100
AcDbLine
 10
9.070796741509948
 20
63.123316566593935
 30
0.0
 11
8.890326364523943
 21
63.749422962863356
 31
0.0
  0
LINE
  5
F5
330
17
100
AcDbEntity
  8
0
100
AcDbLine
 10
8.890326364523943
 20
63.749422962863356
 30
0.0
 11
8.681276635131296
 21
64.41770899936401
 31
0.0
  0
LINE
  5
F6
330
17
100
AcDbEntity
  8
0
100
AcDbLine
 10
8.681276635131296
 20
64.41770899936401
 30
0.0
 11
8.447355847941608
 21
65.11999014986091
 31
0.0
  0
LINE
  5
F7
330
17
100
AcDbEntity
  8
0
100
AcDbLine
 10
8.447355847941608
 20
65.11999014986091
 30
0.0
 11
8.192391070045252
 21
65.84912762624681
 31
0.0
  0
LINE
  5
F8
330
17
100
AcDbEntity
  8
0
100
AcDbLine
 10
8.192391070045252
 20
65.84912762624681
 30
0.0
 11
7.92024182041514
 21
66.59875652299483
 31
0.0
  0
LINE
  5
F9
330
17
100
AcDbEntity
  8
0
100
AcDbLine
 10
7.92024182041514
 20
66.59875652299483
 30
0.0
 11
7.634753841677714
 21
67.36310592607184
 31
0.0
  0
LINE
  5
FA
330
17
100
AcDbEntity
  8
0
100
AcDbLine
 10
7.634753841677714
 20
67.36310592607184
 30
0.0
 11
7.339732970072387
 21
68.13688388415926
 31
0.0
  0
LINE
  5
FB
330
17
100
AcDbEntity
  8
0
100
AcDbLine
 10
7.339732970072387
 20
68.13688388415926
 30
0.0
 11
7.038928487825704
 21
68.91521076948489
 31
0.0
  0
LINE
  5
FC
330
17
100
AcDbEntity
  8
0
100
AcDbLine
 10
7.038928487825704
 20
68.91521076948489
 30
0.0
 11
6.800000000000003
 21
69.5291836449107
 31
0.0
  0
LINE
  5
FD
330
17
100
AcDbEntity
  8
0
100
AcDbLine
 10
6.800000000000003
 20
69.5291836449107
 30
0.0
 11
6.8
 21
63.778871
 31
0.0
  0
CIRCLE
  5
FE
330
17
100
AcDbEntity
  8
0
100
AcDbCircle
 10
18.86108579698606
 20
32.27887082421559
 30
0.0
 40
1.65
  0
CIRCLE
  5
FF
330
17
100
AcDbEntity
  8
0
100
AcDbCircle
 10
12.86108579698606
 20
54.27887082421559
 30
0.0
 40
1.65
  0
ENDSEC
  0
SECTION
  2
OBJECTS
  0
DICTIONARY
  5
A
330
0
100
AcDbDictionary
281
1
  3
ACAD_COLOR
350
B
  3
ACAD_GROUP
350
C
  3
ACAD_LAYOUT
350
D
  3
ACAD_MATERIAL
350
E
  3
ACAD_MLEADERSTYLE
350
F
  3
ACAD_MLINESTYLE
350
10
  3
ACAD_PLOTSETTINGS
350
11
  3
ACAD_PLOTSTYLENAME
350
12
  3
ACAD_SCALELIST
350
14
  3
ACAD_TABLESTYLE
350
15
  3
ACAD_VISUALSTYLE
350
16
  3
EZDXF_META
350
2D
  0
DICTIONARY
  5
B
330
A
100
AcDbDictionary
281
1
  0
DICTIONARY
  5
C
330
A
100
AcDbDictionary
281
1
  0
DICTIONARY
  5
D
330
A
100
AcDbDictionary
281
1
  3
Model
350
1A
  3
Layout1
350
1E
  0
DICTIONARY
  5
E
330
A
100
AcDbDictionary
281
1
  3
ByBlock
350
1F
  3
ByLayer
350
20
  3
Global
350
21
  0
DICTIONARY
  5
F
330
A
100
AcDbDictionary
281
1
  3
Standard
350
2C
  0
DICTIONARY
  5
10
330
A
100
AcDbDictionary
281
1
  3
Standard
350
22
  0
DICTIONARY
  5
11
330
A
100
AcDbDictionary
281
1
  0
ACDBDICTIONARYWDFLT
  5
12
330
A
100
AcDbDictionary
281
1
  3
Normal
350
13
100
AcDbDictionaryWithDefault
340
13
  0
ACDBPLACEHOLDER
  5
13
330
12
  0
DICTIONARY
  5
14
330
A
100
AcDbDictionary
281
1
  0
DICTIONARY
  5
15
330
A
100
AcDbDictionary
281
1
  0
DICTIONARY
  5
16
330
A
100
AcDbDictionary
281
1
  0
LAYOUT
  5
1A
330
D
100
AcDbPlotSettings
  1

  4
A3
  6

 40
7.5
 41
20.0
 42
7.5
 43
20.0
 44
420.0
 45
297.0
 46
0.0
 47
0.0
 48
0.0
 49
0.0
140
0.0
141
0.0
142
1.0
143
1.0
 70
1024
 72
1
 73
0
 74
5
  7

 75
16
 76
0
 77
2
 78
300
147
1.0
148
0.0
149
0.0
100
AcDbLayout
  1
Model
 70
1
 71
0
 10
0.0
 20
0.0
 11
420.0
 21
297.0
 12
0.0
 22
0.0
 32
0.0
 14
1e+20
 24
1e+20
 34
1e+20
 15
-1e+20
 25
-1e+20
 35
-1e+20
146
0.0
 13
0.0
 23
0.0
 33
0.0
 16
1.0
 26
0.0
 36
0.0
 17
0.0
 27
1.0
 37
0.0
 76
1
330
17
  0
LAYOUT
  5
1E
330
D
100
AcDbPlotSettings
  1

  4
A3
  6

 40
7.5
 41
20.0
 42
7.5
 43
20.0
 44
420.0
 45
297.0
 46
0.0
 47
0.0
 48
0.0
 49
0.0
140
0.0
141
0.0
142
1.0
143
1.0
 70
0
 72
1
 73
0
 74
5
  7

 75
16
 76
0
 77
2
 78
300
147
1.0
148
0.0
149
0.0
100
AcDbLayout
  1
Layout1
 70
1
 71
1
 10
0.0
 20
0.0
 11
420.0
 21
297.0
 12
0.0
 22
0.0
 32
0.0
 14
1e+20
 24
1e+20
 34
1e+20
 15
-1e+20
 25
-1e+20
 35
-1e+20
146
0.0
 13
0.0
 23
0.0
 33
0.0
 16
1.0
 26
0.0
 36
0.0
 17
0.0
 27
1.0
 37
0.0
 76
1
330
1B
  0
MATERIAL
  5
1F
102
{ACAD_REACTORS
330
E
102
}
330
E
100
AcDbMaterial
  1
ByBlock
  2

 70
0
 40
1.0
 71
1
 41
1.0
 91
-1023410177
 42
1.0
 72
1
  3

 73
1
 74
1
 75
1
 44
0.5
 73
0
 45
1.0
 46
1.0
 77
1
  4

 78
1
 79
1
170
1
 48
1.0
171
1
  6

172
1
173
1
174
1
140
1.0
141
1.0
175
1
  7

176
1
177
1
178
1
143
1.0
179
1
  8

270
1
271
1
272
1
145
1.0
146
1.0
273
1
  9

274
1
275
1
276
1
 42
1.0
 72
1
  3

 73
1
 74
1
 75
1
 94
63
  0
MATERIAL
  5
20
102
{ACAD_REACTORS
330
E
102
}
330
E
100
AcDbMaterial
  1
ByLayer
  2

 70
0
 40
1.0
 71
1
 41
1.0
 91
-1023410177
 42
1.0
 72
1
  3

 73
1
 74
1
 75
1
 44
0.5
 73
0
 45
1.0
 46
1.0
 77
1
  4

 78
1
 79
1
170
1
 48
1.0
171
1
  6

172
1
173
1
174
1
140
1.0
141
1.0
175
1
  7

176
1
177
1
178
1
143
1.0
179
1
  8

270
1
271
1
272
1
145
1.0
146
1.0
273
1
  9

274
1
275
1
276
1
 42
1.0
 72
1
  3

 73
1
 74
1
 75
1
 94
63
  0
MATERIAL
  5
21
102
{ACAD_REACTORS
330
E
102
}
330
E
100
AcDbMaterial
  1
Global
  2

 70
0
 40
1.0
 71
1
 41
1.0
 91
-1023410177
 42
1.0
 72
1
  3

 73
1
 74
1
 75
1
 44
0.5
 73
0
 45
1.0
 46
1.0
 77
1
  4

 78
1
 79
1
170
1
 48
1.0
171
1
  6

172
1
173
1
174
1
140
1.0
141
1.0
175
1
  7

176
1
177
1
178
1
143
1.0
179
1
  8

270
1
271
1
272
1
145
1.0
146
1.0
273
1
  9

274
1
275
1
276
1
 42
1.0
 72
1
  3

 73
1
 74
1
 75
1
 94
63
  0
MLINESTYLE
  5
22
102
{ACAD_REACTORS
330
10
102
}
330
10
100
AcDbMlineStyle
  2
Standard
 70
0
  3

 62
256
 51
90.0
 52
90.0
 71
2
 49
0.5
 62
256
  6
BYLAYER
 49
-0.5
 62
256
  6
BYLAYER
  0
MLEADERSTYLE
  5
2C
102
{ACAD_REACTORS
330
F
102
}
330
F
100
AcDbMLeaderStyle
179
2
170
2
171
1
172
0
 90
2
 40
0.0
 41
0.0
173
1
 91
-1056964608
 92
-2
290
1
 42
2.0
291
1
 43
8.0
  3
Standard
 44
4.0
300

342
29
174
1
175
1
176
0
178
1
 93
-1056964608
 45
4.0
292
0
297
0
 46
4.0
 94
-1056964608
 47
1.0
 49
1.0
140
1.0
294
1
141
0.0
177
0
142
1.0
295
0
296
0
143
3.75
271
0
272
9
273
9
  0
DICTIONARY
  5
2D
330
A
100
AcDbDictionary
280
1
281
1
  3
CREATED_BY_EZDXF
350
2E
  3
WRITTEN_BY_EZDXF
350
103
  0
DICTIONARYVAR
  5
2E
330
2D
100
DictionaryVariables
280
0
  1
1.4.4 @ 2026-09-25T17:09:11.259701+00:00
  0
DICTIONARYVAR
  5
103
330
2D
100
DictionaryVariables
280
0
  1
1.4.4 @ 2026-09-25T17:09:11.282368+00:00
  0
ENDSEC
  0
EOF
